<?xml version="1.0" encoding="utf-8"?>
<!-- Generator: Adobe Illustrator 19.2.0, SVG Export Plug-In . SVG Version: 6.00 Build 0)  -->
<svg version="1.1" id="Calque_1" xmlns:figma="http://www.figma.com/figma/ns"
	 xmlns="http://www.w3.org/2000/svg" xmlns:xlink="http://www.w3.org/1999/xlink" x="0px" y="0px" viewBox="0 0 400 184"
	 style="enable-background:new 0 0 400 184;" xml:space="preserve">
<style type="text/css">
	.st0{fill:#BDBDBD;}
</style>
<path id="a" class="st0" d="M0.5,135.5c0.4,1.2,1.7,2.5,2.6,3.6c0.9,0.9,2.1,1.5,3.4,2c2.1,0.8,3.9,0.9,6,1.3c1.1,0.1,0.8-3.2,1.1-4
	c1.2-4.2,4.2-8.3,9-8.2c1.8,0,2.8,0.7,4.3,1.5c1.3,0.8,0.9,2.9,3,2.9c1.9,0,3.2,1.6,5.2,0.8c0.9-0.4,2-0.3,3.1-0.5
	c0.9-0.3,1.9-0.5,2.8-0.9c1.9-0.8,3.2-2.1,4.6-3.8c1.2-1.5,2.7-2.7,3.5-4.4c1.3-2.9,3-5.5,3.4-8.7c0.4-4.2,0.4-8.3-0.9-12.3
	c-1.7-5.1-4.4-9.5-9.4-12.1c-2.1-1.2-4.6-2.1-6.8-2.8c-3.8-1.1-7.4-0.9-11-0.9c-5,0.1-10.1,2.3-13.4,5.8c-1.5,1.6-2.4,3.5-2.9,5.6
	c-0.1,0.9-0.7,7.9,1.8,6.8c-0.1,1.2-0.3,2.1-0.7,3.1c-0.3,0.7-0.7,0.8-0.3,1.3s1.2,0.7,1.9,0.7c0.3,0,1.5-0.1,1.3,0.4
	c-0.1,0.7-0.3,1.3-0.5,2c-0.9,1.6-2.4,3.1-3.9,4.3c-1.7,1.7-3.8,3.9-4.7,6C1.6,128.1-0.4,131.9,0.5,135.5L0.5,135.5z M0.9,132.1
	c0.7-3.3,2-6.8,4-9.6c1.2-1.7,3.1-3.2,4.6-4.8c0.7-0.7,1.3-1.3,1.9-2c0.5-0.7,0.7-1.6,1.2-2.3c0-0.1-0.3,1.2-0.1,0.8
	c-0.3,0.8-0.7,1.3-1.2,2s-0.9,1.2-1.6,1.9c-0.4,0.3-1.3,0.9-1.3,1.3c0,0.7-1.9,2.1-2.3,2.7c-0.4,0.4-1.3,1.6-1.3,2.1
	c0,0.4-0.8,1.5-0.9,1.9c-0.4,0.8-0.7,1.6-1.1,2.4c-0.3,0.7-2.3,7.5-1.3,7.4C0.5,135.9,0.9,132.4,0.9,132.1L0.9,132.1z M1.8,133.3
	c0.1,0.1,0.1,0.1,0,0.3C1.6,133.6,1.6,133.5,1.8,133.3L1.8,133.3z M2.1,132.4c0.4-0.1-0.1,0.8-0.3,0.4C1.8,132.5,2,132.4,2.1,132.4
	L2.1,132.4z M2.2,135.9c0.3,0,0.3,1.1,0,1.1C1.8,136.9,2,135.8,2.2,135.9L2.2,135.9z M2,135.1c0.1-0.1,0.4-0.3,0.5-0.3
	C3.2,135.5,1.4,136,2,135.1L2,135.1z M2.1,131.7c0-0.1,0.5-0.4,0.7-0.3c0.1,0.1-0.5,0.5-0.7,0.5C2.1,132,2.1,131.7,2.1,131.7z
	 M2.4,133.8c0.4-0.4,0.7,0.5,0,0.5C2.1,134.1,2.1,134,2.4,133.8z M2.5,132.9c0-0.1,0.7-0.4,0.7-0.1s-0.5,0.4-0.7,0.4
	C2.4,133.2,2.4,133.1,2.5,132.9L2.5,132.9z M2.8,130.4c0.1-0.3,0.3-0.3,0.4-0.3c0,0.4-0.8,1.1-0.8,0.8
	C2.5,130.6,2.7,130.5,2.8,130.4L2.8,130.4z M3.3,137.2c0.7-0.1,0.1,1.3,0.1,1.3C2.8,138.5,2.5,137.3,3.3,137.2L3.3,137.2z M2.9,136
	c0-0.3,0.7-0.5,0.9-0.5c0,0.3-0.4,2-1.1,1.3C2.8,136.5,2.9,136.3,2.9,136L2.9,136z M2.9,129.6c0-0.3,0.5-0.5,0.8-0.4
	c0.1,0-0.7,0.8-0.9,0.8C2.7,129.9,2.8,129.7,2.9,129.6L2.9,129.6z M3.2,132h0.3c0.1,0.1-0.5,0.5-0.7,0.4C2.9,132.1,2.9,132,3.2,132
	L3.2,132z M3.3,134.7c0.1-0.1,1.1-0.4,1.1-0.3c0,0.4-0.8,1.2-1.2,1.1C3,135.2,3.2,134.7,3.3,134.7L3.3,134.7z M3.5,128.2
	c0.1,0,0.3-0.1,0.5-0.1c0.4,0.3-0.7,0.8-0.8,0.5C3.2,128.7,3.4,128.3,3.5,128.2L3.5,128.2z M4.2,130.8c0.1,0.1-0.5,0.7-0.7,0.7
	C3.4,131.3,4,130.7,4.2,130.8z M3.6,133.5c0.3-0.4,0.9-0.1,1.1-0.5c0.4-0.5-0.8,0-0.8-0.3s1.6-0.7,1.6-0.5c0,0.9-0.9,1.6-1.7,1.9
	C3.5,133.9,3.4,133.8,3.6,133.5L3.6,133.5z M3.9,127.3c0.1-0.1,0.7-0.4,0.8-0.5C5.4,126.9,3,128.4,3.9,127.3L3.9,127.3z M4.3,129.9
	h0.3c0,0.1-0.7,0.7-0.8,0.5C3.6,130.3,4.3,129.9,4.3,129.9z M4.2,137.4c0.1-1.9,1.1-3.6,1.7-5.2c0.8-1.9,2.3-3.8,2.9-5.6
	c0.3-0.9,1.3-1.9,1.9-2.5c0.8-1.1,1.7-2,2.7-3.1c0.7-0.8,1.3-1.6,1.9-2.3c0-0.1,1.2-2.4,1.3-2.3c0.4,0.3,0,0.9,0.7,1.1
	c0.7,0.1-0.1,0.7-0.4,0.9c-1.1,1.1-2.3,2.2-3.4,3.2c-1.6,1.6-3.5,3.3-4.7,5.5s-2.3,4.3-3.1,6.7c-0.1,0.5-1.5,5.8-1.7,5.8
	C3.9,139.3,4.2,137.5,4.2,137.4L4.2,137.4z M4.3,129.1c0.3-0.3,0.5-0.3,0.9-0.4c-0.1,0.4-0.5,1.1-0.9,0.8
	C4.2,129.3,4.2,129.2,4.3,129.1L4.3,129.1z M4.3,126.2c1.1-1.9,1.9-3.6,3.3-5.3c1.6-1.9,3.9-3.6,5.1-5.9c0.1-0.3,0.3-1.3,0.5-1.3
	c0.5,0-0.1,1.2-0.3,1.5c-0.3,0.8-1.1,1.7-1.6,2.6c-0.9,1.2-1.7,2.4-2.8,3.5c-0.4,0.4-0.7,0.8-0.9,1.1c-0.3,0.3-0.4,0.5-0.5,0.8
	c-0.3,0.4-0.4,0.3-0.7,0.4c0,0,0.3,0.5-0.1,0.8c0,0-1.1,0.7-0.8,0.8c0.1-0.1,0.3-0.1,0.4-0.1c0.3,0.4-1.3,1.1-1.1,1.1
	c0,0,0.7-0.1,0.7,0c-0.1,0.3-1.2,0.8-1.2,0.7C4.2,126.4,4.3,126.4,4.3,126.2L4.3,126.2z M4.6,131.5c0.1-0.1,1.1-0.5,1.2-0.4
	c0.3,0-0.8,1.2-1.5,0.8C4.2,131.8,4.6,131.5,4.6,131.5L4.6,131.5z M5.2,130.4c2.3-0.5-0.4,0.5-0.4,0.4C4.8,130.5,5,130.4,5.2,130.4z
	 M4.8,128c0,0,0.8-0.4,0.8-0.1c0,0.4-0.7,0.7-0.9,0.7C4.6,128.3,4.7,128.1,4.8,128L4.8,128z M5.4,137.4c0.8-3.6,2.3-8.3,4.7-11.3
	c1.6-1.9,3.4-3.8,5.1-5.5c0.8-0.8,2-2.3,3.2-2.7c0.4-0.1,0.7,0,0.7,0.4c0.1,0.9-0.7,0.8-1.2,1.2c-3.1,2.7-6,5.1-8.2,8.7
	c-1.1,1.9-2,4-2.7,6c-0.3,0.3-1.7,5.6-1.9,5.6C4.6,139.8,5.3,137.5,5.4,137.4L5.4,137.4z M5.6,129.6c0.1,0,0.1-0.1,0.3-0.1
	c0.1-0.4-0.5-0.5,0.1-0.9c0.4-0.3,0.8-0.3,1.2-0.4c-0.3,0.1-0.7,2.4-2,1.9C5,129.9,5.5,129.6,5.6,129.6L5.6,129.6z M5.5,126.8
	c0.1-0.1,0.9-0.5,0.9-0.3C6.5,127.1,4.8,127.6,5.5,126.8z M6.2,138.1c1.2-4.1,2.8-8.3,5.5-11.9c1.5-1.9,3.2-3.5,5-5.2
	c0.7-0.5,1.2-0.9,2-1.3c0.3-0.1,0.5-0.5,0.8-0.4c0.1,0.1,0.9,0.7,0.8,0.8c0,0-0.8,0.4-0.9,0.4c-0.5,0.3-1.1,0.7-1.6,1.1
	c-0.4,0.3-2.5,1.9-2.5,1.9s-1.7,1.6-1.9,1.9c-0.7,0.8-1.2,1.7-1.7,2.5c-1.5,2.4-2.8,5-3.8,7.6c-0.4,1.3-1.1,2.4-1.1,3.9
	c0,0.3,0,1.3-0.5,1.1C5.7,140.1,6.1,138.5,6.2,138.1L6.2,138.1z M6.6,125.5c0.1-0.1,0.4-0.1,0.7-0.1c0.1,0.1-0.9,0.9-1.2,0.7
	C5.7,125.7,6.7,125.3,6.6,125.5L6.6,125.5z M6.7,127.5c0.1-0.1,0.9-0.5,1.2-0.4c0.4,0.3-1.6,1.1-1.6,0.8
	C6.3,127.6,6.5,127.5,6.7,127.5L6.7,127.5z M7.1,124.4c0.1-0.1,0.4-0.1,0.5-0.1c0.4,0.4-0.9,0.8-1.1,0.8
	C6.3,124.9,7.3,124.4,7.1,124.4L7.1,124.4z M7.3,126.3c0.3,0,1.1-0.4,1.2-0.3c0.3,0.1-1.3,0.9-1.6,0.8
	C6.9,126.7,7.1,126.3,7.3,126.3L7.3,126.3z M7.3,139.3c-0.5-0.8,0.9-3.6,1.2-4.3c0.7-1.7,1.5-3.4,2.4-5c0.8-1.6,1.7-3.1,2.8-4.6
	c0.7-0.8,1.5-1.6,2.4-2.3c0.4-0.3,1.6-0.9,1.9-1.3c0-0.1-0.1-0.1-0.1-0.3c1.5-0.3,2.1-2,3.5-0.7c0.3,0.3,1.1,1.5,0.4,1.6
	c-0.9,0.3-1.9,0.5-2.8,1.2c-1.7,1.1-3.3,2.7-4.8,4c-0.5,0.5-1.2,1.1-1.6,1.7c-0.3,0.5-1.3,2.6-1.9,2.7c0.4-0.1,0.8-2.3,1.5-2.5
	c0.3-0.1,0.4-0.8,0.5-1.1l1.2-1.6c0.9-1.1,2-2.1,3.1-3.1l1.6-1.2c0.7-0.4,2.3-0.9,2.7-1.6c0.3-0.4-1.3,0.3-1.5,0.4
	c-0.9,0.4-1.7,1.1-2.5,1.6c-0.1,0-1.5,1.2-1.3,1.2c-0.8-0.3-0.8,1.1-0.9,1.2h-0.5c-0.4,0.3-0.7,0.7-0.9,1.1
	c-0.7,0.8-1.2,1.5-1.7,2.3c-0.9,1.3-1.6,2.8-2.1,4.3c-0.7,1.5-1.5,3.4-1.6,5.1c0,0.3-0.4,1.6-0.1,2c0.4,0.5,0.9-2.5,0.9-2.7
	c0.8-3.4,3.1-6.6,5.4-9c1.2-1.3,2.3-2.4,3.9-3.5c0.5-0.4,5.4-3.8,5.4-1.6c0-0.1-5.2,2.3-5.6,2.5c-2.1,1.3-4.3,3.4-5.5,5.6
	c-1.1,1.7-1.7,3.8-2.7,5.5c-0.5,1.2-0.4,2.8-0.9,3.9c0,0-0.8-0.1-0.8-0.3C6.9,140.5,7.6,139.8,7.3,139.3L7.3,139.3z M7.4,123.4
	c0.1-0.1,1.2-0.8,1.3-0.5c0.4,0.4-1.6,1.1-1.6,0.9C7.3,123.7,7.3,123.6,7.4,123.4L7.4,123.4z M7.9,125.3c0.1-0.3,1.1-0.5,1.3-0.4
	c0.1,0-0.4,1.1-0.7,0.9c0.1,0-0.9-0.4-0.8-0.3C7.8,125.5,8,125.3,7.9,125.3L7.9,125.3z M7.9,122.5c0.1-0.3,1.2-0.7,1.6-0.5
	c0.3,0.1-1.7,0.8-1.7,0.8S8,122.7,7.9,122.5L7.9,122.5z M9,124c0,0,1.3-0.3,1.3,0c0,0.4-1.9,0.7-1.9,0.5C8.4,124.3,8.8,124,9,124
	L9,124z M8.6,100.5c0.8-3.2,3.1-6.4,6-8c0.3-0.1,0.5-0.5,0.8-0.7c0.1-0.1,0.4,0.1,0.7,0c1.1-0.5,2.1-0.9,3.2-1.3
	c0.9-0.3,2-0.7,3.1-0.7c2.8-0.1,5.6-0.3,8.4-0.1c3.1,0.1,6.4,1.5,9.1,2.8c3.9,1.9,7.1,4.3,9,8.4c1.5,3.2,2.8,7,3,10.6
	c0.3,8.3-3.1,15.5-9.4,21c-1.9,1.6-4.8,1.9-7.1,2.4c-1.7,0.4-2.5,0.4-4.3-0.3c-0.3-0.1-2.8-0.5-2.5-1.3c0.4-1.2,0.9-1.9,0.5-3.5
	c-0.3-0.9,0.4-3.6-0.3-4.2c-0.7-0.7-0.7-2-1.2-2.8c-0.3-0.4-0.4-1.1-0.7-1.5c-0.3-0.5-0.8-1.2-0.9-1.7c-0.4-2.8-3.4-3.3-4.8-5.5
	c-0.7-0.9-0.8-2.6-1.6-3.2c-0.5-0.4-1.2-0.7-1.5-1.3c-0.3-0.9-1.1-0.8-1.7-0.9c-1.3-0.3-1.9-1.5-3.3-1.5c-0.3,0-2.3-0.9-2.3-0.9
	c0-0.9,2.4-1.7,2.9-2.1c0.4-0.3,2.8-1.1,2.8-1.6c0,0.1-4.8,1.6-4.8,2c0-1.1,2.8-2.1,3.5-2.4c0.5-0.3,0.1-0.5-0.3-0.4
	c-0.4,0.1-0.8,0.5-1.2,0.7s-2.1,1.3-2.4,1.2c0-0.7,0.8-1.2,0.5-1.5s-1.1,1.2-1.2,1.3c-0.1,0.1-1.3,1.9-0.5,1.9
	c0.4,0,0.7-1.6,1.5-1.6c-0.3,0-1.2,1.9-1.3,2.2c-0.4,0.8-0.5,0.7-1.1,0C7.9,104.7,8.2,102.2,8.6,100.5L8.6,100.5z M9,121.1
	c0.1,0,1.3-0.4,1.3-0.4c0.1,0.4-1.3,0.9-1.6,0.9C8.7,121.4,8.7,121.3,9,121.1L9,121.1z M9.1,139.9c0.4-4,3.1-8.4,6-11.3
	c0.9-0.9,1.9-1.7,3-2.4c0.7-0.5,2-1.6,3-1.6c0.8,0,2.3-1.3,2.8,0c0.5,1.5-0.1,1.2-1.5,1.6c-1.7,0.5-4,0.8-5.5,1.9
	c-1.5,1.2-2.5,2.7-3.9,3.9c-1.5,1.5-2,4.1-2.7,6c-0.4,1.1-0.7,1.9-0.7,2.8c0,0.5-0.5,0.8-0.5,0.1C9,140.7,9.1,140.3,9.1,139.9
	L9.1,139.9z M9.5,122.9c0.3-0.3,1.5-0.7,1.7-0.5C11.8,122.7,8.2,124.5,9.5,122.9L9.5,122.9z M9.5,110.8c0.1-0.1,0.3-0.8,0.4-0.8
	s0.1,0.8,0.1,0.9C10,111.6,9,111.4,9.5,110.8L9.5,110.8z M9.9,120.1c0.1-0.1,1.3-0.9,1.6-0.7c0.4,0.4-1.9,1.3-1.9,1.1
	S9.8,120.1,9.9,120.1z M10.3,138.8c-0.1-0.1,1.7-4.4,2.1-5.1c0.9-2,2.6-3.4,4.3-5c1.3-1.2,3.4-1.6,5.1-2c0.4-0.1,2.3-0.9,2.5-0.3
	c0.4,1.1-0.1,1.6-1.2,1.5c-4-0.5-7.5,1.7-9.5,5.1c-1.3,2.1-3.1,5.5-2.8,8c0-0.3-0.4,0.7-0.4,0.7C9.9,141.8,10.6,139.1,10.3,138.8
	L10.3,138.8z M10.8,121.5c0.4-0.1,0.9-0.1,1.3-0.1c-0.3,0.4-2,0.7-2,0.4C10.4,121.7,10.6,121.5,10.8,121.5L10.8,121.5z M10.4,110.4
	c0,0-0.1-0.8,0.1-0.8c0.4,0-0.3,2.3-0.3,2C10.2,111.4,10.4,110.8,10.4,110.4L10.4,110.4z M10.3,108.1c0.3,0,0.3,1.3,0.1,1.3
	S10.2,108.1,10.3,108.1L10.3,108.1z M10.7,106.8c2.6-0.4,1.6,3.3,1.9,5c0.1,0.5,0.5-0.3,0.5-0.5c-0.3-0.9,0.1-2.7-0.4-3.5
	c0,0,0.5-0.5,0.5,0v2.3c0,0.4-0.1,2.2,0.3,2.4c0.1,0.1,0.1-4,0.1-4.7c1.9,0.1,1.5,2.4,1.5,3.8c0,0,0,1.7,0.4,1.1
	c0.3-0.4,0-1.3,0-1.9c0-0.1,0-2.8,0.4-1.7c0.1,0.5,0.1,4.6,0.3,4.4c0.5-0.3-0.3-5.6,1.1-4.3c0.9,1.1,0.5,2.4,0.4,3.8
	c0,0.1-0.3,2,0.3,1.7c0.3-0.1,0.1-0.9,0.3-1.2v-2.2c0,0,0.3-1.2,0.5-0.4c0.3,0.7-0.8,4.8,0,5.1c0.7,0.1-0.3-4.8,0.3-4.8
	c0.4,0,0.9,1.9,0.7,2c0,0-0.1-0.3-0.3-0.3c-0.4,0.1-0.1,4,0,4c0.5,0,0.3-3.6,0.4-3.6c1.1,0.7,0.5,3.5,0.7,4.4c0,0.8,0.4,0.4,0.4-0.1
	v-1.7c0-0.1-0.3-1.1-0.3-1.3c0-0.1,1.1,0.7,0.9,1.2c-0.1,0.9,0,2.1,0.1,3.1c0.1,0.8,0.4-0.3,0.4-0.5c0-0.9-0.4-2.1-0.3-3.1
	c0,0.1,0.5,0.3,0.7,0.5c0.1,0.4,0.1,0.8,0.1,1.2c0,0.8,0.1,1.5,0.1,2.3c0,0,0,2,0.4,1.3s0-3.5-0.3-4.2c0.3,0.4,1.9,1.2,1.9,1.7
	c-0.1,0.9-0.1,1.9,0,2.8c0,0.4-0.1,1.5,0.4,1.5s-0.1-3.3,0-3.3c1.1,0,0.3,5.4,0.7,5.4c0.7,0,0.4-2.8,0.3-3.3
	c0.3,0.5,0.7,1.1,0.8,1.6c0.1,0.5-0.4,1.5-0.4,2.2c-0.1,3.3,0.9-1.1,0.7-1.2c1.2,0.5-0.7,3.9,0.1,4.4c0.5,0.4,0.4-2.7,0.4-3
	c0.9,0.5,0.3,2.7,0.3,3.8c-0.1,0.8,0.5,2.6,0.1,3.2c0,0.1-3.6-2.1-4-2.1c-0.7,0,0.4-1.2,0.5-1.3c0.9-0.7,0.7-1.2,0.3-2.3
	c-0.4-1.3-0.7-2.4-1.6-3.5c-0.3-0.3-2.8-4-3.1-3.8s-0.9-1.6-0.9-1.6c-0.4-0.4-1.6-0.3-1.6-1.2c0-0.7-2-1.3-2.4-1.9
	c-0.7-0.9-1.1-0.9-2-1.6c-1.1-0.7-1.1-1.5-1.2-2.7c0-0.4-0.7-3.2-0.8-3.1c-0.3,0.3,0.3,2.8,0.3,3.3c0,0.1,0.3,2-0.3,1.3
	c-0.5-0.4-0.3-2.1-0.3-2.8C11.1,108.5,10.3,106.9,10.7,106.8L10.7,106.8z M11.1,120.7c0.5-0.5,1.6-0.5,2.4-0.7
	c-0.5,0.7-1.7,1.5-2.7,1.1C10.9,121,11,120.9,11.1,120.7L11.1,120.7z M11.7,118.6c0.1-0.1,0.3-0.1,0.5-0.1c0,0.3-1.2,0.4-1.2,0.4
	C11.1,118.7,11.4,118.6,11.7,118.6L11.7,118.6z M11.3,141.2c0.1,0,0.3,0.5,0,0.5C11,141.8,11.1,141.2,11.3,141.2L11.3,141.2z
	 M11.3,140.2c0,0,0.7-2,0.7-2.1c0.1-0.4,0.3-0.8,0.4-1.1c0.3-0.7-0.1-0.4,0-0.7c0.1-0.5,1.1-1.6,1.3-2c0.3-0.5,0.7-1.1,0.9-1.6
	c0.7-1.2,2-2.1,3.1-2.8c0.5-0.4,3.8-1.9,4.2-1.1c-0.1-0.1-3.5,0.9-4,1.2c-1.2,0.7-2.1,1.7-2.8,2.7c-0.8,1.1-1.3,2.3-1.9,3.5
	c-0.3,0.4-1.7,5-1.7,5C11.1,141.1,11.3,140,11.3,140.2L11.3,140.2z M12.5,117.4c0.1,0,0.4,0,0.5-0.1c-0.4,0.5-1.1,0.7-1.6,0.8
	C11.7,117.8,12.1,117.5,12.5,117.4L12.5,117.4z M11.9,141.1c0.1-0.9,0.4-2,0.8-2.9c0.1-0.3,0.9-1.6,0.9-1.6c0,0.7-0.7,1.2-0.7,1.9
	c0,0.5-0.3,1.1-0.3,1.6c0,0.3,0.1,1.5,0,1.6C12.3,142.3,11.8,141.6,11.9,141.1L11.9,141.1z M12.6,119c0.7-0.4,2.6-0.4,1.2,0.7
	c-0.1,0.1-1.6,0.3-2,0.3C11.9,119.5,12.2,119.1,12.6,119L12.6,119z M12.7,116.3c0,0,0.9-0.7,0.9-0.3c0,0.5-0.7,0.9-1.2,0.9
	C12.2,117,12.9,116.2,12.7,116.3L12.7,116.3z M13.1,118.2c0.3-0.1,2.2-0.4,2.2-0.7c0-0.8-1.5,0.1-1.7,0c-0.4-0.3,2-0.9,2-1.1
	c0-0.5-1.3,0.3-1.5,0.3c-0.4,0,2-2.4,2.1-0.7c0,0.4-0.9,2.4-1.3,2.4c-0.1,0-1.9-0.1-1.7-0.1C13,118.3,13,118.2,13.1,118.2
	L13.1,118.2z M13.3,115.4c0.4,0,0.4-1.6,0.8-1.6c0.4,0-0.3,2.1-0.9,2C13,115.9,13.3,115.4,13.3,115.4L13.3,115.4z M14.6,114.8
	c0.3,0,0.3,0.1,0.1,0.4C14.5,115.1,14.5,115,14.6,114.8z M15.1,133.2c0.8-1.1,1.9-2.6,3.2-3.2c0.4-0.3,4.6-1.2,4.6-0.9
	c0-0.3-0.8-0.1-0.8-0.4s1.8-0.7,1.2,0.4c-0.4,0.9-1.7,0.4-2.5,0.7c-1.3,0.4-2.5,1.1-3.6,1.9c-0.4,0.3-2.4,1.9-2.4,2.4
	C14.8,133.7,14.9,133.4,15.1,133.2L15.1,133.2z M17.8,131.3c0.1,0,0.1,0.1,0,0.1C17.7,131.6,17.7,131.4,17.8,131.3L17.8,131.3z
	 M28.6,130.6V130c0-0.1,0,2.4-0.1,2.3C28.3,132,28.6,130.9,28.6,130.6L28.6,130.6z"/>
<path id="b" class="st0" d="M9.2,102.8c0.4,0-0.1,0.8,0.4,0.9c0.3,0,0.4-0.8,0.5-1.1c0.8-0.9,2.6-1.3,3.6-1.6c1.2-0.3,1.1-0.8,0-0.4
	c-0.8,0.3-1.7,0.7-2.6,0.7c0.1,0,0.4-0.7,0.5-0.8c0.5-0.4,1.3-0.5,2-0.7c0.5-0.1,1.1-0.4,1.6-0.5S14.3,99,14,99.2
	c-0.7,0.3-1.5,0.5-2.3,0.7c-0.3,0-0.1-0.4-0.7,0c-0.5,0.3-1.1,0.7-1.3,1.1C9.8,101,8.7,102.8,9.2,102.8z M10.2,101.4
	c0.1-0.3,0.4-0.4,0.7-0.5c0.1,0.1-0.9,1.2-1.1,1.2C9.5,102.3,10.4,101.2,10.2,101.4L10.2,101.4z"/>
<path id="c" class="st0" d="M9.3,100.6c-0.1-0.1,1.7-1.3,2.1-1.3c1.2-0.3,2.8-0.5,3.9-1.2c0.4-0.3-1.1,0-1.2,0
	c-0.4,0.1-2.8,1.1-3.1,0.8c-0.4-0.4,1.5-1.3,1.7-1.5c1.1-0.3,2.1-0.1,3.1-0.4c0.3,0,0.8-0.4,0.3-0.5s-0.9,0.1-1.5,0.1
	c-1.2,0.1-2.1,0.3-3.3,0.5c0.9-1.1,2.3-1.3,3.8-1.6c0.3,0,2.1,0,2.1-0.5s-2.3,0.3-2.5,0c-0.7-0.4,2.4-1.1,2.3-0.9
	c0.1,0,1.3,0,1.3-0.3c0.1-0.4,0.8-0.5,0.8-0.8s-2.3,0-2.5-0.3C16.5,92.5,18,92,18.1,92c0.4,0,1.9,0.1,2,0.4c0,0.1,3.9,1.2,3.9,1.2
	c0.4-0.4-3.4-1.2-3.5-1.3c-0.1-0.1,0.3-0.5,0.4-0.5c0.4-0.1,1.1,0.3,1.5,0.4c0.9,0.4,1.7,0.8,2.5,1.2c0.9,0.4,0-0.4-0.3-0.7
	c-0.3-0.1-2.1-1.2-2.4-1.2c0.5-0.1,4.3,1.6,4.3,1.6c0-1.2-5.2-2.2-5.2-2.2c0,0.1,0.4,0.3,0.5,0.4c-0.4-0.3-1.5,0-1.9,0.3
	c-0.5,0.3-1.2,0-1.7,0.1c-0.8,0.1-1.3,0.3-2,0.5c-0.4,0.1-0.5,0.3-0.8,0.5c-0.3,0.3,0.1,0.4,0,0.5c-0.1,0.4-1.7,0.7-2.2,0.9
	c-0.5,0.4-0.8,0.8-1.1,1.5c-0.5,0.8-1.6,1.2-1.9,2c-0.4,0.9,0.9-0.1,0.9-0.1c0.4,0.4-2.7,2.4-1.9,2.9L9.3,100.6z M13.1,95
	c0.1-0.1,1.1-0.8,1.2-0.3c0.1,0.8-1.2,0.9-1.2,0.5V95L13.1,95z M16.5,93.4c0.1-0.1,1.9-0.3,1.9,0c0,0.4-2.3,0.3-2.1,0.1
	C16.3,93.5,16.3,93.5,16.5,93.4L16.5,93.4z"/>
<path id="d" class="st0" d="M12.7,106c0.7,0,1.6-0.9,2.1-1.2c0,0,1.6-0.9,1.1-1.1c-0.4-0.1-1.1,0.5-1.3,0.7
	C14.4,104.5,12,106,12.7,106L12.7,106z"/>
<path id="e" class="st0" d="M14.3,106.4c0.1,0.1,2.3-1.1,2.4-1.3C17,104.5,13.5,105.6,14.3,106.4z"/>
<path id="f" class="st0" d="M15.7,107.1c0.4,0.1,1.1-0.5,1.3-0.7c0.1,0,1.9-1.1,0.8-0.9C17.4,105.6,15.1,106.8,15.7,107.1
	L15.7,107.1z"/>
<path id="g" class="st0" d="M15.8,98.4c0.1,0,1.6,0.1,1.6-0.1C17,97.4,15.7,98.4,15.8,98.4z"/>
<path id="h" class="st0" d="M16.5,97.4c0.1,0,2.5-0.1,1.7-0.4c-0.1-0.1-1.9-0.3-1.9,0.3L16.5,97.4L16.5,97.4z"/>
<path id="i" class="st0" d="M16.7,96.5c0.4,0.1,2.1,0.4,2.5,0.1C19.7,96.1,16.1,96.2,16.7,96.5z"/>
<path id="j" class="st0" d="M17.4,107.5c0.1,0.1,1.5-0.4,1.6-0.4C19.9,106.5,16.5,106.5,17.4,107.5z"/>
<path id="k" class="st0" d="M17.8,95.8c0.3,0,2,0.4,2.1,0.1c0.3-0.3-2.1-0.9-2.4-0.4C17.5,95.8,17.5,95.8,17.8,95.8L17.8,95.8z"/>
<path id="l" class="st0" d="M18.3,95.1c0.4,0.3,1.7,0.5,2.3,0.5c0.3,0-0.3-0.5-0.3-0.5c0.1-0.1,1.2,0.7,1.2,0.1
	c0-0.4-2.7-0.9-3.1-0.8c0.3-0.1-0.5,0.9-0.4,0.5C18.2,95,18.2,95.1,18.3,95.1L18.3,95.1z"/>
<path id="m" class="st0" d="M18.3,108.5c0.3,0.1,1.3-0.7,1.2-0.8C19.4,107.2,17.7,108.3,18.3,108.5z"/>
<path id="n" class="st0" d="M19,94.2c0.7,0.1,1.3,0.1,1.9,0.3c0.3,0,0.5,0.1,0.8,0.3c0.4,0.3,0.5-0.1,0.4-0.3
	c-0.4-0.1-2.8-1.2-3.2-0.5C19,94.1,19,94.1,19,94.2L19,94.2z"/>
<path id="o" class="st0" d="M19.1,109.5c0.1,0.1,1.2-0.5,1.1-0.7C19.9,108.3,18.6,109.2,19.1,109.5z"/>
<path id="p" class="st0" d="M19.7,93.5c0.3,0.1,3.5,0.5,3.5,0.7C23.4,93.4,19.3,93.3,19.7,93.5L19.7,93.5z"/>
<path id="q" class="st0" d="M20.2,110.5c0.4-0.1,1.1-0.5,0.3-0.7C19.9,109.9,19.3,110.7,20.2,110.5z"/>
<path id="r" class="st0" d="M20.3,111.8c0.5,0.3,1.5-0.8,0.9-0.8C21.2,110.9,19.9,111.5,20.3,111.8z"/>
<path id="s" class="st0" d="M23,91c0.4,0.1,4.7,1.9,4.6,2.3c0.3-0.9-2.3-1.9-2.8-2.1c-0.4-0.1-2.5-0.7-2.4-0.5
	C22.6,90.8,22.9,90.8,23,91L23,91z"/>
<path id="t" class="st0" d="M24.2,90.3c0.8,0.4,1.7,0.8,2.5,1.2c0.3,0.1,1.7,1.3,2.1,1.3c0.8-0.1-5-3.6-5-2.8
	C24.1,90.2,24.1,90.3,24.2,90.3L24.2,90.3z"/>
<path id="u" class="st0" d="M26.2,119c0.4,0.4,1.3-1.3,0.5-1.3C26.7,117.6,26.1,118.8,26.2,119z"/>
<path id="v" class="st0" d="M26.2,90.3c0.8,0,2.1,1.2,2.8,1.7c0.3,0.1,0.8,0.5,0.9,0.8c0.1,0.7,0.9,0.3,0.3-0.5
	c-0.1-0.1-2-1.3-2-1.2c0.1-0.1-0.9-0.7-1.1-0.8c-0.1,0-0.5-0.3-0.8-0.3C26.4,90.1,25.8,90.3,26.2,90.3L26.2,90.3z"/>
<path id="w" class="st0" d="M27.2,120.3c0.7,0.3,0.8-1.5,0.5-1.6C27.5,118.7,26.9,120.2,27.2,120.3L27.2,120.3z"/>
<path id="x" class="st0" d="M28.1,121.5c0.4,0.4,1.5-1.9,0.8-2.1C28.8,119.4,27.9,121.3,28.1,121.5L28.1,121.5z"/>
<path id="y" class="st0" d="M28.3,90.3c0.3,0,2.1,1.3,2.1,1.5c0,0.4,1.2,0.7,1.4,1.2c0.1,0.5,0.8,0,0.5-0.3c-0.7-0.8-1.7-1.5-2.6-2
	C29.6,90.6,29,90,28.8,90C28.7,90.2,27.9,90.3,28.3,90.3L28.3,90.3z"/>
<path id="z" class="st0" d="M28.8,123.5c0.3,0.1,1.6-3.2,1.2-3.2C29.7,120.3,28.4,123.3,28.8,123.5L28.8,123.5z"/>
<path id="A" class="st0" d="M29.6,124.6c0.4,0,1.3-3.1,1.1-3.2C30.3,121.3,28.9,124.6,29.6,124.6L29.6,124.6z"/>
<path id="B" class="st0" d="M29.9,133c0.1,0.1,0.4-0.3,0.5-0.3c0,0-0.3,0.4-0.1,0.5c0.3,0.3,0.5-0.5,0.7-0.7c0.3-0.5,0.9-1.3,1.1-2
	C33,127.6,29.6,132.8,29.9,133L29.9,133z"/>
<path id="C" class="st0" d="M29.9,90.5c1.1,0.7,2.1,1.3,3.1,2.3c0.3,0.3,0.9,1.2,1.2,1.1c0.5-0.5-2-2.1-2-2.1
	c0.1-0.3-0.9-0.8-0.9-0.8C30.9,90.5,29.3,90.2,29.9,90.5z"/>
<path id="D" class="st0" d="M30.1,131.6c0.5,0,1.6-2.9,1.1-3.1C31.1,128.5,29.7,131.6,30.1,131.6z"/>
<path id="E" class="st0" d="M30.1,127c0.5,0,1.1-2.5,1.2-2.8c0,0.1,0.7-2,0-1.7C30.9,122.6,30.3,127,30.1,127z"/>
<path id="F" class="st0" d="M30.9,133.6c0.1,0,1.2,0.7,1.2,0.4c0-0.1,0.7-1.5,0.9-1.5c0.3-0.1,1.1-2.1,1.2-2.6
	c0.5-1.2,0.7-2.7,0.9-3.9c0.3-0.8,0.1-1.9-0.3-0.5c-0.4,1.1-0.5,2.1-0.8,3.4c0,0.3-1.2,2.8-1.5,2.3c-0.4-0.8,0.4-2.6,0.7-3.2
	c0.1-0.7,0.4-1.3,0.5-2c0-0.1,0.3-1.8,0.1-1.5c-0.8,0.8-0.9,3.2-1.3,4.4C32.6,129.1,31.5,133.7,30.9,133.6L30.9,133.6z M31.9,133.2
	c0-0.1,0.5-0.9,0.7-0.8l-0.8,1.5C31.3,133.8,31.9,133,31.9,133.2L31.9,133.2z"/>
<path id="G" class="st0" d="M31.6,127.7c0.3,0.1,1.9-4.2,1.7-4.7c-0.1-0.7-0.9,1.6-0.9,1.7C32.3,125.1,31.3,127.6,31.6,127.7z"/>
<path id="H" class="st0" d="M32.4,91c0.7,0,3.2,3.6,3.5,3.5c0.7-0.4-3.1-4-3.5-3.8C32.3,90.9,32.3,91,32.4,91z"/>
<path id="I" class="st0" d="M32.7,134.3c0.3,0.3,0.4-0.3,0.7-0.3c0.3-0.1,0.5,0.5,1.1,0.1c0.5-0.5,0.8-1.5,1.2-2.1
	c0.3-0.4,1.6-6.3,1.1-6.4c0,0-1.2,7.2-2.7,7.5c0.3,0,0.8-2,0.5-1.9C34.2,131,32.4,134,32.7,134.3L32.7,134.3z"/>
<path id="J" class="st0" d="M34.6,91.5c0.4,0,1.3,1.6,1.6,1.9c0.1,0.3,1.1,1.6,1.1,1.5c0.3-0.8-1.2-1.6-1.2-2.4
	c0-0.4-0.8-1.2-1.1-1.5C34.6,90.7,34.4,91.5,34.6,91.5L34.6,91.5z"/>
<path id="K" class="st0" d="M35.1,134c0.3,0,0.3-0.4,0.5-0.5l-0.4,1.1c1.1,0.1,1.5-3.3,2.1-3.9c0.7-0.5,0.8-5.5,0.8-5.5
	c-0.8,0.1-0.5,4.4-0.8,5.2C37.2,130.4,34.3,134.1,35.1,134z M36,132.8c0.1,0.1,0,0.3-0.1,0.3C35.9,132.9,35.9,132.8,36,132.8z"/>
<path id="L" class="st0" d="M36.3,91.9c0.1,0.3,2,3.3,1.9,3.3c0.7-0.1-0.4-2-0.4-2.1c-0.1-0.1-1.6-2-1.6-1.6
	C36.2,91.7,36.3,91.8,36.3,91.9z M36.6,91.7c0.1,0,0.1,0.1,0.1,0.3C36.6,91.8,36.4,91.8,36.6,91.7L36.6,91.7z"/>
<path id="M" class="st0" d="M36.8,133.7c0.3,0,0.4-0.7,0.5-0.8s0.8,0.5,0.8,0.5c0.7-0.1,2.7-3.9,2.1-4c-0.1,0-1.6,2.4-1.7,2.7
	c0.3-0.7,0.8-1.5,0.8-2.1c0-0.3-0.9,1.1-0.9,0.9s0.5-0.9,0.3-1.1C38.1,129.8,36.6,133.7,36.8,133.7L36.8,133.7z"/>
<path id="N" class="st0" d="M38.5,93.1c0.1,0.3,0.9,2.4,1.1,2.4C40.9,95.5,36.8,89.9,38.5,93.1L38.5,93.1z"/>
<path id="O" class="st0" d="M39.3,93c0.5,0.7,0.7,1.7,0.9,2.5c0.1,0.3,0.5,0.9,0.5,0.1c0-0.5-0.5-1.5-0.7-2
	c-0.1-0.5-0.4-0.9-0.8-1.3C39.1,92.2,39,92.9,39.3,93L39.3,93z"/>
<path id="P" class="st0" d="M39.1,129.6c1.1,0,0.7-5,0.7-5C39,124.6,39.5,129.6,39.1,129.6z"/>
<path id="Q" class="st0" d="M39.9,132.8c0.5,0.3,1.9-2.9,2-2.8c0.4,0.4-0.9,1.7-0.4,1.9c-0.1,0,1.5-1.3,1.5-1.2
	c0.3-0.4,0.1-0.9,0.7-1.1c0.7-0.1,0.7-1.2,1.3-1.2c1.1,0.1,0.4-2.3,0.7-2.6c-0.7,0.4-0.3,1.3-0.8,1.9c-0.1,0.1-0.3-0.7-0.1-0.9
	c0.4-0.4,0.3-1.3,0.1-1.9c0-0.7-0.8-3.1-0.5-1.2c0.1,0.9,0.1,1.9,0.1,2.7c0,0.1-0.1,1.1-0.4,0.5c-0.1-0.4-1.1-3.6-1.2-3.5
	c-0.4,0.3,0.5,2.8,0.7,3.2c0.1,0.4,0.5,0.5,0.5,0.9c0,0.1-0.4,1.7-0.7,1.5c-0.1-0.1,0.5-1.5,0.3-1.5c-0.3,0-0.9,1.3-0.9,1.5
	c0.3-0.9-0.9-5-0.8-5.1c-0.4,0.4,0.1,2.9,0.3,3.5c0,0.4,0.5,1.7-0.1,2c0-0.3-0.1-0.3-0.3-0.4c-0.1,0.1-0.4,0.5-0.5,0.5
	c-0.5-0.1,0.4-5.4-0.5-5.4c0,0,0,4.8,0.1,5.2C40.8,130,39.6,132.6,39.9,132.8L39.9,132.8z"/>
<path id="R" class="st0" d="M40.2,93.4c0.4,0,0.9,1.9,0.9,2.3c0,0.1,0.8,1.9,0.8,0.8c0-0.7-0.5-1.5-0.8-2c-0.1-0.4-0.3-0.8-0.5-1.1
	C40.2,92.6,40.2,93.4,40.2,93.4L40.2,93.4z"/>
<path id="S" class="st0" d="M41.5,94.6c0.4,0.8,0.5,1.7,0.7,2.7c0.1,0.8,0.4-0.3,0.3-0.7c-0.1-0.7-0.3-1.3-0.4-2
	C41.7,93.5,40.9,93.3,41.5,94.6z"/>
<path id="T" class="st0" d="M42.6,95.3c0.4,0.8,0.7,1.7,0.8,2.7c0.1,1.2,0.7,0.4,0.5-0.4c-0.1-0.7-0.3-1.2-0.7-1.9
	C42.9,95.1,41.9,94.3,42.6,95.3L42.6,95.3z"/>
<path id="U" class="st0" d="M44.2,96.9c0,0.3,0.4,2.4,0.7,2.4c0.5,0,0-1.3,0-1.6c-0.1-0.5-0.3-1.1-0.5-1.6l-0.5-0.5
	C44,95.9,44.1,96.3,44.2,96.9z"/>
<path id="V" class="st0" d="M45.3,122.1c0.5,0,0.7,2.5,0.7,2.8c0,0,0,2.5,0.5,1.7s0-1.6,0-2.3s-0.1-1.3-0.4-2
	c-0.1-0.3-0.3-0.5-0.5-0.7C45.2,121.8,45.2,121.9,45.3,122.1L45.3,122.1z"/>
<path id="W" class="st0" d="M45.4,97.7c0.3,0.9,0.4,1.7,0.5,2.7c0,0.3,0.4,1.3,0.5,0.4c0.1-0.7-0.1-1.5-0.3-2
	c-0.1-0.5-0.3-1.1-0.5-1.6c0,0.1-0.5-0.7-0.4-0.4C45.3,97.1,45.4,97.4,45.4,97.7L45.4,97.7z"/>
<path id="X" class="st0" d="M46.5,121.4c0.3,0.4,0.5,3.9,0.7,3.9c1.5,0-0.4-4.7-0.7-4.7C46.2,120.7,46.5,121.4,46.5,121.4
	L46.5,121.4z"/>
<path id="Y" class="st0" d="M47,119.7c0,0.5,0.1,0,0.4,0.3c0,0,0.3,0.9,0.3,1.1c0.3,0.5,0.3,1.2,0.4,1.7c0.4,1.5,1.1-1.2,0.8-1.2
	c-0.5,0-0.4,0.4-0.7-0.4c-0.1-0.4-0.4-2.1-1.1-2C46.9,119.4,46.9,119.5,47,119.7z"/>
<path id="Z" class="st0" d="M46.9,100.4c0.1,0.4,0.3,0.7,0.3,0.9v1.1c0.3,0.5,0.5-0.5,0.5-0.5c0-0.4,0-2.4-0.7-2.4
	C46.8,99.4,46.9,100.4,46.9,100.4L46.9,100.4z"/>
<path id="aa" class="st0" d="M48,119.9c0.1,0.4,0.3,1.1,0.8,1.2c0.3,0.1-0.7-2.8-1.1-2.5C47.4,118.8,48,119.8,48,119.9L48,119.9z"/>
<path id="ab" class="st0" d="M47.8,103.2c-0.1,0,1.2,1.2,1.1,0.7c0-0.7-0.3-1.3-0.4-2c0-0.3-0.4,0.9-0.4,1.1
	C48.2,102.5,47.4,103.2,47.8,103.2L47.8,103.2z"/>
<path id="ac" class="st0" d="M48.2,105.2c-0.1,0,1.1,0.4,1.1,0.1C49.2,104.3,46.8,104.7,48.2,105.2L48.2,105.2z"/>
<path id="ad" class="st0" d="M48.1,117.6c0.1,0.4,1.5,2.5,1.6,2.1c0.1-0.5-0.5-1.3-0.8-1.9C48.6,117.5,47.7,116.8,48.1,117.6
	L48.1,117.6z"/>
<path id="ae" class="st0" d="M48.6,116.2c0.1,0.1,1.3,2.1,1.5,2c0.3-0.3-1.1-2.8-1.5-2.8C48.1,115.4,48.6,116.2,48.6,116.2z"/>
<path id="af" class="st0" d="M48.9,106.4c0.3,0.3,0.5,0.5,0.7,0.9c0.5,1.1,0.5,0.3,0.8,0.4c-0.1-0.1-1.3-2.5-1.9-1.9
	C48.6,106.1,48.8,106.3,48.9,106.4z"/>
<path id="ag" class="st0" d="M49.3,115.4c0.1,0.1,0.9,1.9,1.2,1.6s-1.3-2.9-1.7-2.7C48.5,114.3,49.3,115.4,49.3,115.4z"/>
<path id="ah" class="st0" d="M49.2,112.6c0.3,0.3,1.6,2.3,1.6,2.3c0.4-0.4-0.8-2-1.1-2.3C49.5,112,48.5,112.2,49.2,112.6L49.2,112.6
	z"/>
<path id="ai" class="st0" d="M49.6,109.1c0.1,0.1,0.9,1.5,1.2,0.9c0.1-0.3-1.3-2-1.6-1.9C48.8,108.3,49.5,108.9,49.6,109.1
	L49.6,109.1z"/>
<path id="aj" class="st0" d="M49.7,111.1c0.1,0.3,0.8,1.5,1.2,1.2c0.1,0-1.1-2.3-1.5-2.3C48.8,110,49.7,111.2,49.7,111.1L49.7,111.1
	z"/>
<path id="ak" class="st0" d="M14.4,112.7c0.3,0.1,0.8-4.4-0.1-4.6C14.6,108.1,13.8,112.4,14.4,112.7z"/>
<path id="al" class="st0" d="M17,112c0,1.3,0.7,1.6,0.5,0.1c0-0.1-0.3-3.1-0.4-2.9C16.7,109.7,17,111.5,17,112L17,112z"/>
<path id="am" class="st0" d="M23.7,118.3c0.3,0.3-0.1,2.8,0.3,2.9c0.5,0,0.3-3.6,0-3.9C24,117.4,23.6,118.2,23.7,118.3L23.7,118.3z"
	/>
<path id="an" class="st0" d="M32.3,170.3c0.9,7.5,8.5,12.7,15.7,13.3c0.9,0,1.9,0.3,2.8,0.3c0.3,0,1.7,0.3,2,0.1
	c0.3-0.1-0.3-0.3,0.3-0.4h1.3c1.1-0.1,2.3-0.3,3.4-0.5c3.5-0.9,6.8-2.8,9.7-5.1c3.1-2.7,5.4-5.6,7.8-8.7c1.9-2.4,3.9-5.1,5-8
	c0.9-2.6,0.9-5.1,0.9-7.9c0-0.4-0.3-2.4,0-2.7c0.4-0.3-0.1-1.5-0.1-1.7c-0.1-1.2-0.4-2.6-0.4-3.6c0-2.9-2.7-5.4-5-6.8
	c-1.9-1.3-3.9-2.3-6.2-2.9c-2.3-0.5-4.8-0.9-7.2-0.4c-2,0.4-3.6,0.8-5.4,1.9c-0.3,0.1-3.3,2.1-3.2,2.3c0.3,0.4,0.7-0.1,0.8-0.1
	l-0.1,1.9c-0.5,0-0.5-0.8-0.7-1.1c-0.5-0.7-0.9-1.2-1.7-1.5c-1.1-0.4-2.3,0-3.2,0.7c-1.6,1.1-3.1,2.3-4.4,3.6
	c-1.1,0.9-1.9,2.3-3,3.1c-2,1.6-4,4-5.2,6.2c0,0.1-0.9,1.9-0.8,2c-1.3-0.3,0.3,1.2,0.5,1.3c0.4,0.4,3,3.5,2.8,3.6
	c0,0-0.7,0.3-0.7,0.1c0-1.2-0.3-0.1-0.5,0.5s-0.7,2.4-1.2,2.9C36,163,36,162.2,36,162c0.1-0.5,0.3-1.1,0.4-1.5
	c0.1-0.5,1.2-2.3,0.9-2.7c-0.3-0.5-1.6,1.1-1.6,1.3c0,0.8-0.5,1.6-0.5,2.4c0,0.8,0.4,1.5,1.2,1.9c0.5,0.3,2.3,0.7,2.8,0.4
	c1.3-0.7,3.1-0.7,4.6-1.3c0.5-0.3,5.4-2.7,5-3.1c0.5,0.5,4.8-4.1,5.4-4.7c1.6-1.9,3.1-3.6,4.3-5.8c1.1-2,1.9-4.3,2-6.6
	c0.1-1.2-0.4-2.1-0.8-3.2c-0.3-0.5-0.3-0.8-0.8-1.2c-0.3-0.1-1.2-0.4-1.3-0.7c-0.3-0.5,3-1.3,3.2-1.5c1.6-0.4,3.4-0.5,5.1-0.3
	c1.5,0.3,2.8,0.4,4.3,0.7c0.3,0.1,3.5,1.2,3.3,1.3c-0.1,0.1-1.2-0.8-1.2-0.1c0,0.4,2.3,1.5,2.8,1.8c1.2,0.7,2.4,1.3,3.5,2.3
	c0.8,0.7,1.3,1.9,1.6,2.8c0.1,0.4,0.5,3.9,0.3,3.9c-0.4,0-2.1-2.1-2.6-2.6c-0.4-0.4-0.9-0.8-1.3-1.1c-0.5-0.3,0.3,0.7,0.3,0.7
	c1.1,0.9,2.3,1.9,3.1,3.1c0.8,1.1,0.7,2,0.7,3.2c-0.4-1.1-1.1-2-1.9-2.9c-0.4-0.5-0.8-1.1-1.3-1.3c-0.7-0.4,0,0.5,0.1,0.7
	c2,1.7,3.1,4,3.1,6.7c-0.3-0.4-3.1-4.9-3.5-4.6c-0.3,0.3,3.2,4.7,3.4,5.4c0.1,1.2-0.1,2.7-0.3,3.8c-0.1,0.4-1.1,3.4-1.2,3.2
	c-0.3-0.3-0.3-1.1-0.4-1.5c-0.3-0.8-0.7-1.5-0.9-2.3c-0.4-0.7-1.6-2.1-0.8-0.5c0.4,0.9,0.9,1.7,1.3,2.8c0.1,0.3,0.7,1.9,0.7,2
	c-0.1,0.5-1.5,2.9-2,3.2c-0.3,0.1-1.1-3.9-1.6-4s0.5,2.6,0.5,2.7c0.3,0.7,0.7,1.7,0.4,2.4c-0.1,0.4-0.9,1.5-1.3,1.7
	c-1.3,0.7-1.9-2-1.6-2.1c-0.7,0.4,0.3,1.7,0,2.1c-0.3,0.4-2.1,0.3-2.1,0.7c0,0.7,2.4-0.5,2.3-0.4c0.1,0,0.9,0.1,1.1,0.1
	c0.4,0.3-1.5,1.5-1.9,1.6c-0.5,0.1-3.5,0.3-3.6,0.3c0.7,0.7,3.3,0.3,4.2,0c-0.9,1.5-3.6,0.9-5.2,1.2c-0.9,0.1,1.3,0.4,1.6,0.3
	c0.3,0,2.4-0.4,2.4-0.3c0,2.1-3.8,1.3-4.8,1.3c-1.3,0,0,0.4,0.4,0.4c0.9,0.1,1.9,0,2.8,0c-0.4,0.9-1.2,0.8-2.2,0.9
	c-0.7,0-2.3-0.4-2.8-0.3c-0.3,0.1,0.8,0.5,0.9,0.5c0.9,0.1,1.9,0.1,2.7,0.1c-0.1,0-0.4,0.4-0.7,0.5c-0.4,0.1-0.8,0.1-1.2,0.1
	c-1.2,0-2.4,0-3.8-0.3c-0.1,0-1.2,0-0.7,0.3c0.4,0.1,0.9,0.3,1.3,0.3c0.3,0,3.5,0.1,3.5,0.1c0,0.5-1.6,1.3-2,1.6s-1.7-0.1-2.1-0.3
	c-0.7-0.1-2.8-1.2-3.2-1.1c-0.4,0.1,1.9,1.1,2,1.2c0.3,0.1,2.5,0.8,2.5,0.8c-0.5,0.8-2.1,0.8-2.8,0.8c-1.3-0.3-2.8-1.3-4.2-1.3
	c-0.4,0,0.3,0.5,0.4,0.5c0.5,0.3,1.2,0.7,1.9,0.7c0.4,0,2.3,0.4,2.5,0.7c0.1,0-1.5,0.7-1.6,0.8c-0.5,0.1-1.3-0.4-1.9-0.5
	c-0.3-0.1-3.5-2-3.5-1.9c-0.5,0.5,4.3,2.7,4.7,2.9c-0.7,0.1-1.6,0.3-2.2,0.8c-0.8,0.7-0.9-0.3-1.5-0.3s-1.1-0.1-1.6-0.4
	c-0.3-0.1-3-1.7-3-1.9c-0.3,0.9,4,3.2,4.4,2.9c-0.8,0.9-3.6-0.4-4.3-0.9c-0.4-0.3-2.8-2.3-2.8-2c0,0.4,1.3,1.3,1.7,1.6
	c0.3,0.3,2.4,1.3,2.4,1.6c0,1.1-3-0.8-3.1-0.8c-0.4-0.3-3.1-2.5-3.1-2.4c-0.4,0.4,3.5,3.8,3.8,3.5c-1.3,1.1-4.3-3.4-5.2-3.6
	c-0.4-0.1,0.9,1.3,1.1,1.3c0.3,0.3,2.3,1.7,2.3,2.1c0,0.5-1.9-0.8-2-0.9c-0.5-0.4-1.1-0.9-1.6-1.5c-0.1-0.1-1.8-1.6-1.8-1.6
	c0,0.5,1.3,1.7,1.7,2.1c0.7,0.8,1.5,1.3,2.3,1.9c-3.1-0.1-5.6-1.1-7.9-3.1c-0.9-0.8-1.5-1.9-2.3-2.8c-0.5-0.7-0.9-1.3-1.3-2
	c-0.5-1.1-0.4-2.5-1.1-3.8c-0.4-0.8-0.4,0.3-0.4,0.5c0.3,0.8,0.5,1.7,0.8,2.6c0.4,1.1,0.8,1.9,1.3,2.7c0.3,0.3,1.2,2.1,1.3,2.1
	c-0.8,0-2.4-1.9-3-2.6c-0.4-0.5-0.9-1.2-1.2-1.7c-0.1-0.3-0.4-1.1-0.7-1.2c-1.2-0.7-1.1-5-1.1-6.2c0-2,0.3-4.2,0.9-6
	c0.3-0.8,0.7-1.6,1.1-2.4c0.4-0.5,1.6-1.6,1.6-2.3s-1.8,1.3-1.9,1.6c-0.4,0.5-0.4,1.1-0.8,1.6c-0.9,1.3-1.2,3.6-1.5,5.2
	c0.4,1.6,0.4,3.2,0.5,4.9L32.3,170.3z M35.8,153c0-0.1,0.4-0.8,0.5-0.8s-0.4,1.9-0.5,1.7C35.5,153.9,35.6,153.3,35.8,153L35.8,153z
	 M35.9,159.8c0.3-0.5-0.1,0.7-0.1,0.3C35.8,160,35.8,160,35.9,159.8z M36.4,154.9c0.4,0,2.5,2.6,2.7,2.9
	C39.1,158.1,35.6,154.9,36.4,154.9L36.4,154.9z M36.6,152.7c0.1-0.7,1.1-3.4,2-3.5c0.3,0-0.9,2.6-1.1,2.1c0,0.1,0.5,0.3,0.7,0.3
	c-0.8-0.1-0.9,1.5-0.9,2.1c0,0.4-0.4,0.5-0.8,0.4C36.1,154.1,36.6,152.9,36.6,152.7L36.6,152.7z M36.7,161.6
	c0.1-0.1,1.2-2.4,1.2-2.4c0.1,0.4-0.5,1.3-0.7,1.8c-0.1,0.4-0.4,0.7-0.5,1.1c-0.3,0.5,0.3,0.1,0.5,0.3c0.1,0.1-0.1,0.5-0.5,0.4
	C36.3,162.5,36.5,161.9,36.7,161.6L36.7,161.6z M37.5,161.3c0-0.1,0.1-0.3,0.1-0.3c0,0.3-0.1,0.8-0.3,0.9
	C37.3,162.1,37.5,161.3,37.5,161.3L37.5,161.3z M37.4,154.8c0.8,0,1.8,2.9,2.3,2.9c-0.5,0-1.2-1.2-1.5-1.6
	C38.1,156,37.4,154.8,37.4,154.8L37.4,154.8z M37.8,162.1c0.3,0-0.1,0.7-0.3,0.8C37.5,162.9,37.5,162.1,37.8,162.1L37.8,162.1z
	 M37.8,153c0-0.3,0.1-1.2,0.7-1.2c0.4,0-0.4,1.1-0.4,1.1c0.1,0.8,0.8-0.8,0.8-0.7c0.1-0.1,0.3-1.1,0.7-0.8c0.1,0.1-0.5,1.5-0.5,1.5
	c0.4,0,0.8-0.9,0.8-1.3c0-0.3,1.1-0.5,0.5,0.4c-0.4,0.8-1.7,1.9-2.8,2C37.6,154.1,37.8,153,37.8,153L37.8,153z M38.6,155
	c0.1,0.3,2,2.3,1.9,2.4c-0.4,0.3-2.5-2.9-2.5-2.9C38.2,154.6,38.3,154.8,38.6,155L38.6,155z M38.1,161.2c0.1-0.3,0.5-2.3,0.8-2.3
	s-0.8,3.1-0.9,2.9C38,161.6,38.1,161.5,38.1,161.2L38.1,161.2z M38.7,162.3H39C39.7,163.5,37,162.3,38.7,162.3z M38.6,154.2
	c0.4-0.1,2.5,2.9,2.5,2.9s-2.8-2.5-2.8-2.8C38.5,154.4,38.5,154.4,38.6,154.2L38.6,154.2z M38.6,150.6c0-0.1,0.7-2.5,0.8-2.4
	s-0.7,2.9-0.8,2.9C38.4,151,38.4,150.9,38.6,150.6L38.6,150.6z M38.9,160.8c0,0,1.1-3.2,1.3-2.4c0.3,0.7-1.3,3.8-1.6,3.6
	C38.5,161.9,38.8,160.9,38.9,160.8L38.9,160.8z M39.2,158.5c0,0.3,0,0.3-0.3,0.1C38.9,158.4,39,158.4,39.2,158.5L39.2,158.5z
	 M39.4,162.4c0.1,0.1,0,0.3-0.1,0.4C39.3,162.7,39.3,162.6,39.4,162.4L39.4,162.4z M39.6,153.8c0.1,0,0.1,0,0.3-0.1
	c-0.1,0,0.4,0.9,0.5,1.1c0.3,0.3,1.8,2.3,1.6,2.3C41.3,157.1,39.2,154.1,39.6,153.8L39.6,153.8z M39.4,150.2c0.3-0.3,0.5,0,0.4,0.3
	C39.4,150.9,39,150.8,39.4,150.2z M39.8,161.5c0.1,0.1,0.1,0.3,0,0.5C39.8,162,39.3,161.5,39.8,161.5L39.8,161.5z M40.1,147.5
	c0-0.1,0.5-0.9,0.7-0.8c0.3,0.3-0.5,2.1-0.7,2.6c0,0.1-0.7,0.8-0.7,0.3C39.6,148.9,40,148.1,40.1,147.5L40.1,147.5z M40.2,160.4
	c0.3-0.4,0.4-1.2,0.5-1.7c0-0.1,0.1-0.7,0.1-0.7s0.8-0.4,0.8-0.1l-1.6,3.2C40,160.8,40,160.7,40.2,160.4L40.2,160.4z M40.1,153.4
	c1.1,0,0.8-1.2,1.6,0c0.3,0.5,2.3,2.3,2.3,2.7c0,0.8-1.2-0.4-1.2-0.4c-0.3-0.3-1.9-2.4-2.4-2.1c-0.1,0.1,2.3,2.4,2.3,2.9
	C42.8,157.2,39.7,153.4,40.1,153.4L40.1,153.4z M40.1,162.4c0.1,0.1,0.1,0.1,0,0.1S40,162.4,40.1,162.4z M40.2,161.7
	c0-0.1,0.5-0.4,0.7-0.1C41.1,162,40,162.4,40.2,161.7L40.2,161.7z M40.5,150c0.3-0.1,0.9,0,0.4,0.4C40.5,150.6,40,150.2,40.5,150
	L40.5,150z M40.5,150.8c0.1,0.1,0.1,0.1,0,0.1C40.4,150.9,40.4,150.9,40.5,150.8L40.5,150.8z M40.9,160.3c0-0.1,0.8-2.4,0.9-2.4
	c0.3,0-0.3,2.8-0.8,2.7C41.2,160.5,40.3,162,40.9,160.3L40.9,160.3z M41.1,151.4c0-0.3,0.1-0.3,0.4-0.1c0.1,0.1-0.4,1.2-0.7,1.1
	C40.7,152.2,41.1,151.4,41.1,151.4L41.1,151.4z M40.8,149.2c-0.1,0,0.7-1.7,0.7-1.6s-0.1,1.2-0.1,1.3
	C41.2,150,40.5,149.2,40.8,149.2L40.8,149.2z M41.2,161.7l0.3-0.3C42.4,161.9,40.7,162.8,41.2,161.7z M41.7,161.1
	c0.4,0-0.1,0.5-0.1,0.1C41.6,161.1,41.6,161.1,41.7,161.1L41.7,161.1z M41.7,152.4c0.5-0.1,2.4,2.4,3,2.8c0.3,0.1,0.3-0.7,0.1-0.7
	c-0.4,0.1-0.9-1.1-1.3-1.1c-0.8,0-1.6-2.1-0.5-1.5s2.2,1.7,2.8,2.8c0.4,0.5-0.9,1.2-1.2,0.9C44.2,155.5,41.2,152.5,41.7,152.4
	L41.7,152.4z M41.7,149.7c0.1,0.1,0.1,0.3,0,0.4C41.6,150,41.6,150,41.7,149.7z M41.9,160c0.3-0.1,0.1,0.8-0.1,0.5
	C41.7,160.4,41.7,160.1,41.9,160z M41.9,151.3c0.5-0.3-0.1,0.4-0.1,0.3S41.9,151.3,41.9,151.3z M42,148.6c0.8,0-0.5,0.8-0.3,0
	C41.9,148.8,41.9,148.8,42,148.6L42,148.6z M42,161.8c0.3,0,0.4,0,0.4,0.3c-0.1,0.1-0.4,0.1-0.5,0.1C41.9,162,41.9,161.9,42,161.8
	L42,161.8z M42.4,158.5c0,0,0.1-1.3,0-1.1c0.7-0.9-0.1,2.9-0.5,2.3C41.9,159.6,42.4,158.7,42.4,158.5z M42.1,147.6
	c0.1-0.3,3.2-2.9,3.2-2.4c0,0.7-1.1,1.6-1.6,2c-0.3,0.3-1.9,1.2-1.9,0.9C41.9,148,42,147.7,42.1,147.6L42.1,147.6z M42,145.5
	c0.1-0.1-0.1,0.8-0.3,0.9C41.9,146.2,41.9,145.7,42,145.5z M42.4,161.1c0.1,0,0.3,0,0.3,0.1c-0.1,0.3-0.5,0.1-0.7,0
	C42.1,161.1,42.3,161,42.4,161.1L42.4,161.1z M42.7,160.3c0.9,0-0.4,0.8-0.4,0.1C42.3,160.3,42.4,160.2,42.7,160.3L42.7,160.3z
	 M42.5,149.4c0.3,0,0.3,0,0.4,0.3c-0.1,0.1-0.3,0.3-0.4,0.3C42.4,149.8,42.4,149.6,42.5,149.4L42.5,149.4z M42.7,145.4
	c0.1-0.1,0.5-1.3,0.7-1.1c0.3,0.3-0.7,1.9-1.1,2.1C42.4,146.1,42.6,145.7,42.7,145.4L42.7,145.4z M42.7,159.4c0.3,0,0.8-3.1,1.5-2.6
	c0,0-0.7,2.1-0.8,2.4C42.8,159.9,42.8,159.5,42.7,159.4L42.7,159.4z M43,148.5c0.4-0.3,0,0.4-0.1,0.4
	C42.7,148.8,42.8,148.6,43,148.5L43,148.5z M43.8,150.9l0.3-0.3c0.1,0,1.7,2,2,2.3s0.9,0.8,0.9,1.2c0,0.3-0.5,0.1-0.5,0.4
	c0,0.1-1.2-1.1-1.3-1.2c-0.7-0.7-1.3-1.3-2.3-1.7C43.2,151.3,43.5,151.2,43.8,150.9L43.8,150.9z M43.2,150.4h0.3
	c0,0.1-0.5,0.3-0.5,0.3C43,150.5,43.1,150.5,43.2,150.4L43.2,150.4z M43.5,161.1c0.1,0,0.5,0,0.7,0.1c0,0-1.1,0.5-1.1,0
	C43.1,161.1,43.2,161.1,43.5,161.1L43.5,161.1z M43.5,160.3c0.4,0-0.3,0.4-0.3,0.4C43.2,160.4,43.2,160.3,43.5,160.3L43.5,160.3z
	 M44.2,144.2c0.3,0-0.3,0.9-0.5,0.9C43.6,145.3,43.8,144.2,44.2,144.2L44.2,144.2z M43.6,159.6c0.1,0.1,0.1,0.1,0,0.1
	S43.5,159.6,43.6,159.6z M43.9,149.2c0.1-0.1,1.3-0.5,1.2-0.3c0,0.1-1.2,1.2-1.5,1.2C43.4,150.2,43.8,149.3,43.9,149.2L43.9,149.2z
	 M43.8,147.8c0.4,0-0.1,0.7-0.3,0.7C43.6,148.5,43.6,147.8,43.8,147.8z M44.2,160.3c0.3-0.1,0.4-0.1,0.5,0.1
	c0.3,0.4,0.4-0.1,0.7-0.1l0.4,0.5C45.8,161.1,43,160.8,44.2,160.3L44.2,160.3z M44.3,157.7c0-0.1,0.3-1.2,0.5-1.1
	c0.1,0-0.8,2.7-0.9,2.5C43.8,159.2,44.3,157.7,44.3,157.7L44.3,157.7z M44.2,159.6c0.1,0,0.1,0.1,0,0.1S44,159.8,44.2,159.6z
	 M44.3,147.7c0,0,0.4-0.1,0.4,0c0.1,0.3-0.3,0.7-0.5,0.7S44.3,147.8,44.3,147.7z M44.6,158.7c0.3-0.1,0.4,0,0.3,0.3
	C44.6,159.5,44,159.1,44.6,158.7z M44.8,149.8c0.4-0.4,1.2-1.7,1.9-1.7c0.4,0,0.9,1.1,1.1,1.2c0.3,0.4,1.6,1.6,1.6,2.1
	c0,0.3,0.9,0,0.4-0.4c0,0-0.5-0.5-0.5-0.7c-0.7-0.7-1.2-1.6-1.9-2.4c-0.5-0.7-0.4-0.4,0.4-1.2c0.5-0.5,0.9-1.2,1.5-1.7
	c0.1-0.3,0.9-1.6,1.2-1.6c0,0,3.2,3.8,3.2,4.1s-0.9,1.2-1.1,1.5c-0.9,1.1-2,2.1-3.1,3.1c-1.2,1.1-1.6,2.1-2.7,0.9l-1.5-1.5
	C44.8,150.9,43.9,150.7,44.8,149.8L44.8,149.8z M44.7,143c0,0.1,0,0.3-0.3,0.3C44.4,143.1,44.4,143,44.7,143z M44.9,157.7
	c0,0,0.4-0.9,0.4-0.8c0.4,0.4-0.7,1.3-0.7,1.5C44.7,158.1,44.9,158,44.9,157.7z M45.1,144.1h0.3c0,0.1-0.8,0.5-0.7,0.1
	C44.9,144.2,45,144.1,45.1,144.1L45.1,144.1z M45,146.8c0.1-0.3,0.3-0.3,0.5-0.3c0.3,0.3-0.5,0.7-0.8,0.7
	C44.7,147,44.9,146.9,45,146.8L45,146.8z M45.3,147.7l0.3,0.3c0.1,0,0.3-0.8,0.5-0.5c0.3,0.3-0.3,1.1-0.5,1.2
	C45.3,148.6,45,147.8,45.3,147.7L45.3,147.7z M45.5,158.7c0.3,0,0.3,0.3,0.1,0.4C45.3,159.3,45.1,158.7,45.5,158.7z M45.5,156
	c0.1,0.1,0,0.7-0.1,0.8C45.3,156.8,45.4,155.7,45.5,156L45.5,156z M45.7,142.9c0,0.3,0,0.3-0.3,0.1
	C45.4,142.9,45.4,142.7,45.7,142.9L45.7,142.9z M45.8,157.5c0.8-0.5-0.1,1.5-0.3,0.8C45.4,158.2,45.7,157.6,45.8,157.5L45.8,157.5z
	 M45.7,141.9c0.1,0.1,0.1,0.3,0,0.3S45.5,142.1,45.7,141.9z M46.1,156c-0.3-0.4,0.7-0.9,0.8-0.8c0,0.1-0.8,1.6-0.5,1.7h0.5
	c0.3,0.1-0.9,0.4-1.1,0.4C46,157,46.4,156.3,46.1,156L46.1,156z M45.9,146.5c0-0.1,0.3-0.5,0.4-0.3
	C46.7,146.8,45.4,147.8,45.9,146.5L45.9,146.5z M46.1,144c0.4-0.1,0.1,0.4,0.1,0.7C46.2,144.5,45.3,144.1,46.1,144L46.1,144z
	 M46.1,160.2c0.4,0-0.1,0.4-0.1,0.4C45.8,160.3,46,160.2,46.1,160.2z M46.5,145.6c0,0.1,0,0.3-0.3,0.3
	C46.2,145.7,46.3,145.6,46.5,145.6z M46.5,142.5h0.4c0.1,0.1-0.7,0.5-0.7,0.3S46.3,142.6,46.5,142.5z M46.6,144.9
	c0.4-0.1-0.4,0.7-0.3,0.3C46.3,145,46.5,145,46.6,144.9z M46.7,146.4c0.1-0.3,0.8-0.5,0.7-0.1c0,0.1-0.9,0.9-0.9,0.9
	C46.4,147.1,46.6,146.7,46.7,146.4L46.7,146.4z M46.9,141.8c0.7,0-0.5,0.4-0.4,0.1C46.6,141.8,46.8,141.8,46.9,141.8L46.9,141.8z
	 M46.9,140.9c0.9-0.3,0.1,0.9-0.3,0.5C46.3,141.3,46.7,140.9,46.9,140.9z M47.3,159.5h0.4c0.3,0.1-1.3,0.5-1.1,0.1
	C46.7,159.7,47,159.5,47.3,159.5z M46.9,158.6c0.3,0,0.1,0.4,0,0.5C46.6,159.3,46.5,158.6,46.9,158.6L46.9,158.6z M46.8,144
	c0.1,0,0.1-0.1,0.3-0.1c0.3,0.1,0,0.8-0.3,0.8C46.5,144.4,46.5,144.1,46.8,144z M47.2,157.6c0.4,0.1,0,0.7-0.1,0.5
	S47,157.6,47.2,157.6L47.2,157.6z M47,155.5c0,0.3,0.3-1.1,0.4-0.7c0.1,0.3-0.3,1.3-0.4,1.5C46.9,156.4,47,155.2,47,155.5L47,155.5z
	 M47.3,145.5c0.5,0-0.1,0.3-0.1,0.1C47.2,145.6,47.2,145.5,47.3,145.5z M47.4,143.1c0,0.1,0,0.3-0.3,0.3
	C47.2,143.2,47.2,143.1,47.4,143.1L47.4,143.1z M47.4,156.7c0.4,0,0.1,0.5-0.1,0.5C47,157.2,47.3,156.7,47.4,156.7L47.4,156.7z
	 M47.7,142.2c0.3,0.3-0.4,0.4-0.4,0.3C47.3,142.5,47.6,142.1,47.7,142.2z M47.8,158.5c0.1,0,1.3-0.1,1.2,0s-0.5,0.5-0.8,0.5
	C47.6,159.3,47.2,158.5,47.8,158.5L47.8,158.5z M48,154.7c0-0.3,0.1-0.5,0.3-0.7c0,0,0,2.1-0.7,2.1C47.4,156.2,47.8,154.8,48,154.7z
	 M47.6,143.7c0.1-0.1,0.3-0.1,0.3,0c0,0-0.3,0.7-0.4,0.5C47.6,144.1,47.6,144,47.6,143.7L47.6,143.7z M48,157.7
	c0.4,0-0.3,0.7-0.3,0.3C47.7,157.7,47.8,157.7,48,157.7z M48,140.8c0.1-0.1,0.3-0.1,0.3-0.1c-0.1,0.3-0.3,0.4-0.4,0.5
	C47.6,141.5,48,140.9,48,140.8L48,140.8z M48.2,144.5c0.1,0,0.1,0,0.3-0.1c0.1,0.1-0.3,1.1-0.4,1.1
	C47.8,145.5,48.1,144.7,48.2,144.5L48.2,144.5z M48.1,142.9c0.5,0-0.4,0.4-0.1,0.1C48,142.9,48.1,142.9,48.1,142.9L48.1,142.9z
	 M48.1,156.6c0.4-0.3,0.1,0.5,0,0.5C47.8,157.3,48,156.7,48.1,156.6z M48.4,139.7c0.5-0.4-0.3,0.9-0.4,0.5
	C48,140.1,48.2,139.9,48.4,139.7L48.4,139.7z M48.5,142.1c0,0.1,0,0.3-0.3,0.3C48.2,142.3,48.2,142.1,48.5,142.1z M48.4,155.9
	c0.1,0,0.1,0.1,0,0.1C48.2,156.2,48.2,156.1,48.4,155.9L48.4,155.9z M48.5,143.6c0.4,0-0.1,0.8-0.3,0.4
	C48.4,143.9,48.4,143.5,48.5,143.6z M48.8,157.7c0.5,0,1.1-0.1,1.6-0.1c-0.1,0.1-2,1.1-2,0.3C48.5,157.7,48.6,157.5,48.8,157.7
	L48.8,157.7z M48.6,154.9c0.3-0.7-0.1,0.7-0.1,0.4C48.5,155.1,48.6,155,48.6,154.9L48.6,154.9z M48.8,144.5c0.1,0.1,0.1,0.3-0.1,0.4
	C48.5,144.8,48.6,144.7,48.8,144.5L48.8,144.5z M48.8,156.6c0.4,0,0,0.5-0.1,0.5C48.5,157,48.6,156.6,48.8,156.6L48.8,156.6z
	 M48.9,153.5c0.1-0.1,0.3-0.1,0.4,0c0,0.1-0.5,0.9-0.5,0.9C48.6,154.3,48.8,153.7,48.9,153.5L48.9,153.5z M48.8,140.7
	c0.1-0.1,0.1-0.1,0.3,0c-0.1,0.1-0.1,0.4-0.4,0.5C48.6,141.1,48.8,140.9,48.8,140.7L48.8,140.7z M49.2,155.5c0.7,0-0.3,0.8-0.3,0.4
	C48.8,155.9,49,155.5,49.2,155.5L49.2,155.5z M49.2,142c0.3,0.1,0.3,0.3,0.1,0.5C48.9,142.8,48.6,142,49.2,142L49.2,142z
	 M49.2,154.9c0.5-0.1-0.1,0.7-0.1,0.1L49.2,154.9z M49.2,143.6c0-0.1,0.1-0.1,0.1-0.1c0-0.1-0.4,0.7-0.4,0.5
	C49,143.9,49.2,143.7,49.2,143.6L49.2,143.6z M49.3,139.2c0.4-0.3,0.1,0.4,0,0.4C49.2,139.6,49.2,139.3,49.3,139.2L49.3,139.2z
	 M49.6,156.6c0.5,0,0,0.5-0.1,0.4C49.3,157,49.4,156.6,49.6,156.6L49.6,156.6z M49.7,152.8c0-0.1,0.1-0.3,0.3-0.3
	c0,0-0.4,1.6-0.5,1.6S49.7,153,49.7,152.8L49.7,152.8z M49.6,140.5h0.3c0,0.3-0.1,0.4-0.4,0.5C49.3,141.2,49.4,140.5,49.6,140.5
	L49.6,140.5z M49.8,155.5c0.3-0.1,0.1,0.8-0.1,0.7C49.4,156.1,49.7,155.5,49.8,155.5L49.8,155.5z M50,142.5c0-0.1,0.9-1.5,0.9-1.1
	s-0.9,1.7-1.2,2C49.7,143.5,50.1,142.4,50,142.5L50,142.5z M50.1,154.7c0.5,0-0.4,0.4-0.3,0.1C50,154.8,50.1,154.8,50.1,154.7
	L50.1,154.7z M50.1,139c0,0,0.9-0.7,0.9-0.3c0,0-1.2,0.9-1.2,0.7C50,139.3,50.1,139.2,50.1,139L50.1,139z M50.9,156.5h0.5
	c0.1,0.3-1.5,0.4-1.3,0.1C50.3,156.5,50.5,156.5,50.9,156.5L50.9,156.5z M50.2,153.9h0.3c0.3,0.1-0.5,0.7-0.4,0.3
	C50.1,154,50.2,154,50.2,153.9L50.2,153.9z M50.3,152.9c0.1-0.3,0.1-0.8,0.3-0.9c0.5-0.5-0.3,2.1-0.4,1.3
	C50.2,153.2,50.2,153.1,50.3,152.9L50.3,152.9z M50.5,155.6c0-0.4,0.7,0.5,0,0.5C50.3,156,50.3,155.7,50.5,155.6L50.5,155.6z
	 M50.3,140.3c0.3-0.3,0,0.4-0.1,0.4C50.1,140.7,50.1,140.5,50.3,140.3L50.3,140.3z M50.8,142.7c0-0.1,0.1-0.3,0.3-0.4
	c0.4,0.5,2.5,4.1,3,3.9c0.5-0.3-3.5-4-2.4-5c-0.1,0,2.1,2.7,2.3,2.9c0.8,0.9,1.1,1.3,0.3,2.4c-0.1,0.3-0.1,0.8-0.5,0.5
	c-0.5-0.5-0.9-1.3-1.6-1.9C51.3,144.7,50.3,143.5,50.8,142.7L50.8,142.7z M50.7,154.6c0.1,0,0.1,0.1,0,0.1
	C50.5,154.9,50.5,154.7,50.7,154.6L50.7,154.6z M50.8,153.8c0.1,0.1,0.1,0.1,0,0.3C50.7,154.1,50.7,153.9,50.8,153.8z M50.8,140.4
	c0,0,0.5-0.4,0.5-0.3s-0.5,0.9-0.7,0.5C50.8,140.6,50.8,140.4,50.8,140.4L50.8,140.4z M51.6,155.4h0.8c0.3,0.1-1.2,0.5-1.2,0.5
	C50.7,156.2,51.1,155.4,51.6,155.4L51.6,155.4z M51.1,151.3c0.1-0.1,0.1,0.3,0.1,0.4C51.1,151.7,50.8,151.4,51.1,151.3L51.1,151.3z
	 M51.5,154.6c0.4,0,0.9-0.1,1.3-0.3c0.5-0.3,0.1-0.3,0.1-0.7c0-0.1,0.9,0,1.1,0c-0.3,0.4-0.7,1.1-1.1,1.3c0,0-1.7,0-1.7-0.3
	C51.2,154.6,51.3,154.6,51.5,154.6L51.5,154.6z M51.6,153.7c0.3,0.1,0.3,0.3,0,0.4C51.3,153.9,51.3,153.8,51.6,153.7L51.6,153.7z
	 M51.7,150.9c0-0.4,0.4-0.8,0.7-0.9c0,0.3-0.9,3.2-0.8,3.4c0,0-0.3-2-0.3-1.9C51.5,151.3,51.7,151.3,51.7,150.9L51.7,150.9z
	 M51.9,140.4c0.3-0.4,2.3,3.1,2.4,3.1c0.8,0.3-0.9-2.3-0.9-2.5c0-0.1-1.6-2-1.1-1.9c0.5,0,1.9,1.9,2,2.3c0.3,0.5,0.5,0.8,0.9,1.2
	c0.5,0.8,0,0.3-0.1,0.8c0,0,0.3,0,0.3,0.3c-0.1,0.3-0.1,0.7-0.3,0.9c-0.4-0.4-0.9-0.9-1.3-1.2c-0.1,0-0.5-1.1-0.8-1.3
	C52.5,141.7,51.4,140.9,51.9,140.4L51.9,140.4z M52.4,153.7c0.3,0,0.4,0.1,0.1,0.4C52.1,154.2,52,153.7,52.4,153.7L52.4,153.7z
	 M52.5,152.7c0.1,0.3,0,0.4-0.3,0.5C52,153,52.4,152.5,52.5,152.7L52.5,152.7z M52.7,150.6c0-0.1,0.3-1.5,0.4-1.5
	c0,0-0.3,2.9-0.4,2.9C52,152.1,52.6,150.9,52.7,150.6L52.7,150.6z M53.1,152.6c0.4-0.5,3.5-1.1,1.3,0.7
	C54.1,153.4,52.5,153.4,53.1,152.6L53.1,152.6z M53.5,151.3c0.4-0.1-0.1,0.9-0.3,0.7C53.2,151.8,53.2,151.4,53.5,151.3z M53.7,148.3
	c0-0.1,0.1-0.3,0.3-0.4c0.1,0-0.4,2.7-0.4,2.7C53.2,150.3,53.6,148.7,53.7,148.3L53.7,148.3z M54.1,151.1c0,0,0.3,0.7,0.3,0.5
	C54,152.2,53.6,151.1,54.1,151.1L54.1,151.1z M54.4,149.8c0.3,0,0.1,1.1-0.3,0.9C53.9,150.7,54.1,149.8,54.4,149.8z M54.3,148.9
	c0-0.1,0.1-0.3,0.3-0.3c0.4,0-0.3,1.1-0.3,0.7V148.9z M54.7,147c0-0.1,0-0.3,0.1-0.3c0.1,0.1-0.1,1.5-0.3,1.5
	C54.4,148,54.6,147,54.7,147L54.7,147z M54.8,151.1c0.1-0.1,1.1-0.4,1.3-0.3c0.4,0.4-1.3,1.2-1.5,0.8
	C54.6,151.5,54.6,151.3,54.8,151.1L54.8,151.1z M54.8,150c0-0.1,0.1-0.3,0.1-0.3c0.3-0.3,0,0.9,0,0.8
	C54.6,151.1,54.9,149.9,54.8,150L54.8,150z M54.9,138.5c0.1,0,0.1-0.1,0.3-0.1s-0.1,2.8-0.1,3.2C55,140.9,54.2,139.3,54.9,138.5
	L54.9,138.5z M55,148.6c0.1,0,0.1-0.1,0.3-0.1c0.1,0.1,0,0.7-0.3,0.7C54.9,149,54.9,148.8,55,148.6z M55.3,146c0-0.3,0-0.4,0.1-0.7
	c-0.3,0.5,0.3,2-0.3,2.5C55.2,147.9,55.2,146.3,55.3,146L55.3,146z M55.4,149.9c0.3,0,0-0.5,0.4-0.5c0.1,0,1.3,0,1.3-0.3
	c-0.1-0.5-0.5-0.3-0.3-0.8c0.1-0.3,0.4-0.4,0.5-0.7c-0.1,0.3-0.4-0.5-0.4-0.5c0-1.3,0.1-2.7,0.3-3.9c0.1-1.3,0.4-2.6,0.5-3.9
	c0-0.4-0.3-1.6-0.3-0.8c-0.3,2.5-0.7,5.1-0.9,7.8c0,0.1,0,1.3-0.3,1.3c-0.4,0-0.5,0.1-0.5-0.4c0.1-0.7-0.1-1.1,0-1.9
	c0,0.1,0.1,0.8,0.1,0.9c-0.1-0.1,0.4-2.4,0.4-2.7c0.3-1.6,0.5-3.1,0.5-4.6c0-3.9,3.1,1.5,2.7,1.7c-0.4,0.1-0.3-0.9-0.5-0.9
	s-0.3,5.8-1.1,5.8c0,0,0.3-3.9,0.3-4.4c0-0.4,0.1-0.8,0.1-1.2c0-0.3-0.3-1.1-0.4-0.5c-0.1,0.7-1.1,7.8-0.7,7.9
	c0.4,0.1,0.3-1.2,0.5-1.3c0.3-0.3,0.4,0.4,0.5-0.3c0.1-0.3,0-1.6,0.4-1.7c-0.1,0,0.3,1.1,0.3,1.2c-0.1,0.9-0.8,1.7-1.1,2.5
	c-0.1,0.7-0.9,1.7-1.3,2.1c-0.3,0.3-0.7,0.4-1.1,0.4C55.3,150.4,55.3,149.9,55.4,149.9L55.4,149.9z M55.4,141.9
	c0.1-0.1,0.3,0.5,0,0.5C55.3,142.3,55.3,142.1,55.4,141.9z M55.7,138.5c0-0.4,0.1-0.9,0.7-0.8c0.4,0.1,0.1,1.5,0.1,1.7
	c0,0.3-0.1,5.2-0.5,5.2c-0.1,0,0.3-4.7,0.3-5.4c0-0.3,0-2.1-0.3-1.1c-0.3,0.8,0.1,2.3-0.4,2.9C55.8,140.9,55.6,139.1,55.7,138.5
	L55.7,138.5z M55.8,148.2c0.7-1.2,0.8,1.6-0.1,0.8C55.6,148.8,55.7,148.3,55.8,148.2L55.8,148.2z M59.3,142.9c0,0,0.4-1.9,0.4-2.1
	c0.1,0.8,0.4,2.8-0.4,3.3C59.3,144.1,59.2,142.9,59.3,142.9L59.3,142.9z M74.5,138.1c0.1,0.1,0.9,0.5,0.9,0.7s-1.8-0.8-1.6-1.1
	C74.1,137.9,74.2,138,74.5,138.1L74.5,138.1z"/>
<path id="ao" class="st0" d="M33.4,170.9c0,0,0,1.9,0.4,1.3c0.3-0.3,0.1-1.6,0.1-2c0-0.3,0.1-0.8-0.4-0.7
	C33.1,169.9,33.4,170.5,33.4,170.9z"/>
<path id="ap" class="st0" d="M33.8,166.9c0,0.4,0.8,3.1,0.8,3.1c0.3-0.4-0.3-1.9-0.4-2.4c0-1.6,0.1-3.1,0-4.7c0-1.1-0.4,0-0.4,0.5
	L33.8,166.9L33.8,166.9z"/>
<path id="aq" class="st0" d="M34.3,172.2c0,0.7,0,2.3,0.9,2.3c-0.3-0.7-0.4-1.3-0.5-2c0-0.3,0-1.7-0.3-1.7
	C34,170.7,34.3,171.9,34.3,172.2L34.3,172.2z"/>
<path id="ar" class="st0" d="M34.8,167.7c0,0.1,0.4,2.7,0.8,2.3c0.1-0.1-0.4-2.4-0.4-2.8c0-1.3,0.1-2.7,0-4c0-0.4-0.4-0.3-0.4,0.1
	C34.6,164.8,34.7,166.4,34.8,167.7L34.8,167.7z"/>
<path id="as" class="st0" d="M35.5,166.7c0,0.4,0.4,4.3,0.9,3.9c0.1,0-0.5-5.2-0.5-5.6c0,0.1-0.1-1.5-0.4-0.8
	C35.2,164.7,35.5,166,35.5,166.7z"/>
<path id="at" class="st0" d="M36.3,173.1c0.1,0.3,1.1,2.9,1.5,2.9c0.5,0-0.8-2.1-0.9-2.4c-0.1-0.4-0.7-2.3-1.1-2.3
	C35.5,171.2,36.2,172.9,36.3,173.1L36.3,173.1z"/>
<path id="au" class="st0" d="M36.3,167.6c0,0.4,0,3.1,0.8,2.9c0.3,0-0.3-2.5-0.4-2.9c0-0.4,0.1-3.1-0.1-3.1
	C36,164.5,36.3,167.2,36.3,167.6L36.3,167.6z"/>
<path id="av" class="st0" d="M36.8,172.2c0.5,0.5,1.3,4.3,2.4,4.3c0.1,0-0.9-2.1-1.1-2.4c-0.1-0.3-0.5-0.9-0.5-1.2
	c0-0.4-1.1-1.6-1.1-0.9C36.7,171.9,36.7,172,36.8,172.2L36.8,172.2z"/>
<path id="aw" class="st0" d="M37.4,166.4c0.1,1.1,0.3,2.4,0.8,3.3c0.7,1.3,0.4,0,0.1-0.7c-0.3-1.2-0.5-2.4-0.7-3.8
	c-0.1-1.1-0.4-0.9-0.3-0.4C37.4,165.5,37.2,166,37.4,166.4L37.4,166.4z"/>
<path id="ax" class="st0" d="M37.9,172.3c0.4,0.5,0.7,1.3,1.1,2c0.1,0.1,1.7,2.5,1.9,2.3c0.1-0.4-1.2-2-1.5-2.4
	c-0.3-0.5-0.9-2.4-1.5-2.7C37.4,171.5,37.9,172.4,37.9,172.3L37.9,172.3z"/>
<path id="ay" class="st0" d="M38.3,166.3c0.1,0.4,0.9,4.7,1.6,4.7c0.4,0-0.5-2.7-0.7-2.8c-0.1-0.3-0.7-3.2-0.9-3.2
	C37.8,164.8,38.2,166.1,38.3,166.3z"/>
<path id="az" class="st0" d="M38.3,176.6c1.2,1.9,2.7,3.5,4.4,5c0.3,0.3,0.7,0.4,1.1,0.5c0,0,0.7,0.4,0.8,0.3
	c0.4-0.4-0.4-0.4-0.4-0.8c0-0.5-1.6-1.9-1.9-2.3c-0.4-0.4-1.2-2.4-1.7-2.5c-0.7-0.1,2.4,4.6,2.7,4.4c-0.4,0.4-4.3-5.1-4.8-5.1
	C38.2,176.2,38.2,176.3,38.3,176.6L38.3,176.6z"/>
<path id="aA" class="st0" d="M38.6,171.9c0.4,0.8,2.3,4.8,3.4,4.8c0.3,0-1.5-2.4-1.6-2.5c-0.4-0.5-0.7-0.9-0.9-1.5
	c0,0.1-1.1-1.6-1.1-1.1C38.5,171.6,38.6,171.8,38.6,171.9z"/>
<path id="aB" class="st0" d="M39.3,165.7c0.3,0.9,0.5,1.9,0.8,2.7c0,0.1,0.8,1.9,0.9,0.9c0.1-0.3-0.8-1.7-0.9-2
	c-0.1-0.3-0.7-2.7-1.1-2.4C39,164.9,39.3,165.9,39.3,165.7z"/>
<path id="aC" class="st0" d="M40.7,173.6c0.1,0.1,2.1,2.8,2.1,2.5c0-0.5-3.1-4.4-3.2-4.3C39.5,171.9,40.7,173.5,40.7,173.6
	L40.7,173.6z"/>
<path id="aD" class="st0" d="M40.6,166.4c0.1,0.7,0.5,1.3,0.9,2c0,0,1.2,1.2,1.1,0.7c-0.1-0.3-2.1-3.9-2.1-3.9
	C40.3,165.1,40.6,166.5,40.6,166.4L40.6,166.4z"/>
<path id="aE" class="st0" d="M41.3,172c0.4,0.7,2.7,4.7,3.8,4.3c0,0-2.1-2.4-2.3-2.8c-0.4-0.7-0.8-1.5-1.3-2.1
	C40.9,170.7,41,171.7,41.3,172L41.3,172z"/>
<path id="aF" class="st0" d="M42.2,178.6c1.1,1.5,2.3,2.7,3.5,3.9c0.1,0.1,0.5,0.1,0.4-0.1c-0.1-0.3-0.8-0.7-1.1-0.9
	c-0.5-0.5-2.1-3.2-3-3.2C41.8,178.2,41.8,178.5,42.2,178.6L42.2,178.6z"/>
<path id="aG" class="st0" d="M42.6,171.8c0.5,0.8,1.1,1.7,1.6,2.4c0.4,0.4,0.7,0.9,1.2,1.3c0.3,0.1,1.1,0.3,0.8,0.1
	c-1.1-0.9-1.9-1.6-2.5-2.9c-0.4-0.7-0.8-1.5-1.3-1.9C41.8,170.3,42.7,171.9,42.6,171.8L42.6,171.8z"/>
<path id="aH" class="st0" d="M42.7,166.9c0,0,1.3,2.1,1.5,1.9c0-0.1-1.6-3.6-1.9-3.8C41.9,164.9,42.7,166.8,42.7,166.9L42.7,166.9z"
	/>
<path id="aI" class="st0" d="M43.7,171.6c0.7,0.9,1.3,2,2.1,2.9c0.4,0.4,0.8,0.8,1.2,1.1c0.8,0.5,0.3-0.3,0-0.5
	c-0.4-0.4-0.8-0.5-1.2-1.1c-0.3-0.5-2-3.4-2.5-3.4C42.9,170.5,43.7,171.6,43.7,171.6L43.7,171.6z"/>
<path id="aJ" class="st0" d="M44.4,170.7c0.4,0.4,1.5,1.6,1.5,2.1s1.1,1.3,1.5,1.6c0,0,1.5,1.1,1.3,0.7c-0.1-0.4-1.1-0.5-1.2-0.9
	c-0.3-0.5-0.8-0.9-1.1-1.5c-0.3-0.4-0.7-0.9-0.9-1.3c-0.1-0.3-0.4-0.5-0.7-0.8S44,170.3,44.4,170.7L44.4,170.7z"/>
<path id="aK" class="st0" d="M46.2,171.4c0.7,0.9,1.3,2,2.3,2.8c0.1,0.1,2,1.3,1.9,1.1c-0.1-0.4-1.5-1.1-1.9-1.6
	c-0.5-0.7-1.1-1.5-1.6-2.1c-0.3-0.4-0.7-1.2-1.2-1.6C45,169.5,46.2,171.2,46.2,171.4L46.2,171.4z"/>
<path id="aL" class="st0" d="M46.5,170c0.3,0.1,4,5.5,4.7,4.8c0.3-0.3-2.5-2.5-2.8-2.9c-0.4-0.5-0.7-1.1-0.9-1.6
	c-0.1-0.3-0.5-0.5-0.5-0.8C46.9,169.1,45.8,169.5,46.5,170L46.5,170z"/>
<path id="aM" class="st0" d="M48.2,169.7c0.5,0.9,1.3,1.7,2,2.5c0.3,0.3,2.4,2.3,2.4,1.9c0-0.4-2.1-2-2.4-2.4l-1.2-1.6
	c-0.3-0.3-0.5-1.1-0.8-1.2C47.6,168.7,48.4,170,48.2,169.7z"/>
<path id="aN" class="st0" d="M49,168.9c0.4,0.1,1.2,1.6,1.6,2c0.5,0.7,2.1,2.4,3,2.4c0,0-2-2-2.3-2.3c-0.5-0.5-1.1-1.2-1.6-1.9
	c-0.1-0.1-0.3-0.4-0.3-0.5C49.5,168.3,48.6,168.7,49,168.9L49,168.9z"/>
<path id="aO" class="st0" d="M50.4,168.1c0.3,0,4.2,5.8,4.7,4.6c0-0.1-2.4-2.1-2.5-2.4c0-0.1-0.7-0.9-0.7-0.9l-0.8-1.2
	C50.4,167.6,50.3,168.1,50.4,168.1L50.4,168.1z"/>
<path id="aP" class="st0" d="M52.1,168.4c0.7,0.7,1.2,1.3,1.9,1.9c0.1,0.1,1.9,1.5,1.9,1.2c0-0.7-2.4-2.3-3-2.9
	C52.3,167.7,50.8,167.1,52.1,168.4L52.1,168.4z"/>
<path id="aQ" class="st0" d="M53.3,167.9c0.7,0.7,1.3,1.5,2,2c0.5,0.4,1.1,0.8,1.6,1.1s0.7-0.3,0.4-0.4c-0.9-0.1-1.9-0.9-2.4-1.6
	c-0.4-0.4-1.6-2.3-2.4-2.3C52.3,166.7,53.3,167.9,53.3,167.9L53.3,167.9z"/>
<path id="aR" class="st0" d="M54,179.9c0.4,0.3,5.1,2.7,5.1,1.3c0,0-2.3-0.3-2.7-0.4c-0.3-0.1-2.8-1.5-2.8-1.5
	C53.6,179.5,53.8,179.8,54,179.9L54,179.9z"/>
<path id="aS" class="st0" d="M54.8,167.5c0.8,0.8,1.6,1.6,2.5,2.3c0.1,0.1,1.2,0.1,0.9,0c-0.7-0.5-1.6-0.9-2.3-1.6
	c-0.5-0.5-1.2-1.2-1.7-1.7l-0.5-0.7C53.2,165.5,54.8,167.5,54.8,167.5L54.8,167.5z"/>
<path id="aT" class="st0" d="M56.3,167.1c0.1,0.1,2.8,2.8,3.2,2.1c0.3-0.4-2.3-1.2-2.3-1.7c0-0.4-2-2.3-2.4-2.3
	C54.5,165.2,56.2,166.9,56.3,167.1z"/>
<path id="aU" class="st0" d="M57.2,166.1c0.4,0.4,2.1,2.4,3,2c0.1-0.1-1.7-1.3-1.9-1.5c-0.3-0.3-2-2.3-2.4-2
	C55.7,164.8,57.1,166.1,57.2,166.1L57.2,166.1z"/>
<path id="aV" class="st0" d="M57,164.4c0.9,0.8,1.7,1.6,2.8,2.4c0.4,0.3,0.9,0.8,1.3,0.9c0,0,1.1,0,0.9-0.1
	c-0.4-0.5-1.9-0.8-2.5-1.3c-0.3-0.3-2.8-2.6-3-2.1C56.6,164.1,56.7,164.2,57,164.4L57,164.4z"/>
<path id="aW" class="st0" d="M58.4,164c0.5,0.4,3.5,3.5,4,2.3c-0.1,0.1-2.1-1.2-2.3-1.3c-0.4-0.3-1.7-2-2.4-1.7
	C57.5,163.3,58.6,164.1,58.4,164L58.4,164z"/>
<path id="aX" class="st0" d="M59.1,162.8c0.4,0.4,4.3,3.5,4.8,2.9c0.3-0.3-1.7-1.1-1.9-1.3c-0.4-0.5-2.4-2.1-3.1-2.1
	C58.8,162.4,58.8,162.5,59.1,162.8z"/>
<path id="aY" class="st0" d="M59.2,137.2c0.8,0,1.7-0.4,2.7-0.5c0.3,0,4.3,0.1,4.4-0.1c0.3-0.4-3.4-0.4-3.6-0.4
	c-0.8,0-1.7,0.1-2.5,0.1C59.9,136.5,58.4,137.2,59.2,137.2L59.2,137.2z"/>
<path id="aZ" class="st0" d="M60.2,162.1c0.8,0.7,3.2,2.9,4.4,2.5c0,0-1.7-1.5-2.1-1.1c0,0-2.3-2.3-2.7-2.1
	C59.5,161.6,60,162.1,60.2,162.1L60.2,162.1z"/>
<path id="ba" class="st0" d="M60,138.4c0.5,0.3,3.1-0.4,3.8-0.4c0.3,0,3.5,0,3.2-0.4s-3.2,0-3.8,0C63,137.5,59.2,137.9,60,138.4
	L60,138.4z"/>
<path id="bb" class="st0" d="M60.6,160.6c0.5,0.4,5,2.8,5,2.5s-2.1-1.3-2.4-1.5c-0.5-0.4-1.1-0.7-1.6-1.1
	C61.3,160.5,59.9,160,60.6,160.6L60.6,160.6z"/>
<path id="bc" class="st0" d="M60.9,139.1c0.4,0.3,2.4-0.3,2.8-0.3h2.5c0.1,0,1.3-0.4,0.7-0.4c-1.1,0-2.3-0.1-3.4-0.1
	C63.5,138.4,60.2,138.7,60.9,139.1z"/>
<path id="bd" class="st0" d="M61,140.1c0.4,0.3,6.2-0.1,6,0.1c0-0.7-3.1-0.7-3.4-0.7C63.5,139.6,60.4,139.9,61,140.1z"/>
<path id="be" class="st0" d="M63,140.9c0.4,0,4.4,0.3,4.4,0.3c0.3-1.2-6.2-0.4-6-0.3C61.7,141.1,62.7,140.9,63,140.9L63,140.9z"/>
<path id="bf" class="st0" d="M61.8,159.7c1.1,0.9,2.3,1.9,3.5,2.5c0.4,0.3,0.9,0.4,1.5,0.5c0.5,0.1,0.3-0.5-0.1-0.5
	c-0.9,0-1.8-0.8-2.4-1.3l-2.8-1.9C61.5,159.4,61.6,159.6,61.8,159.7L61.8,159.7z"/>
<path id="bg" class="st0" d="M61.8,146.6c0.7,0,4.4,1.5,4.7,1.2c0.3-0.4-2.4-1.2-2.7-1.3c-0.7-0.1-1.3-0.4-1.9-0.3
	C61.4,146.2,61.3,146.6,61.8,146.6L61.8,146.6z"/>
<path id="bh" class="st0" d="M62.9,142.2c1.2,0,2.3,0.1,3.5,0.3c0.1,0,1.1,0.1,1.1,0.3s0.9-0.7-0.4-0.7c-0.9,0-5.1-1.3-5.5-0.1
	C61.4,142.2,62.7,142.2,62.9,142.2L62.9,142.2z"/>
<path id="bi" class="st0" d="M61.8,143.4c0,0,5.8,1.1,5.6,1.2C68.2,143.6,61,142.6,61.8,143.4z"/>
<path id="bj" class="st0" d="M63,145.2c0.4,0,4,1.1,4,0.9c0.7-1.1-5.4-1.3-5.1-1.2C62.1,145.2,62.7,145.2,63,145.2L63,145.2z"/>
<path id="bk" class="st0" d="M62.5,158.8c0.7,0,1.7,0.9,2.4,1.3c0.5,0.3,1.2,0.5,1.6,0.9s0.8-0.1,0.4-0.3c-0.9-0.3-1.9-1.2-2.7-1.8
	c-0.4-0.3-0.9-0.7-1.5-0.8S62.1,158.7,62.5,158.8L62.5,158.8z"/>
<path id="bl" class="st0" d="M63.9,158.4c1.1,0.5,2.7,2.5,3.8,2.5c0.9,0-0.4-0.7-0.5-0.8c-0.4-0.3-0.8-0.5-1.2-0.9
	c-0.1-0.1-1.1-0.7-0.9-0.3c-0.3-0.4-0.9-1.5-1.7-1.2C63,157.8,64.1,158.3,63.9,158.4L63.9,158.4z"/>
<path id="bm" class="st0" d="M64.3,156.9c0.4,0.4,4.2,2.8,4.3,2.7c0.1-0.4-4.4-3.5-4.6-3.3C63.8,156.5,63.9,156.8,64.3,156.9
	L64.3,156.9z"/>
<path id="bn" class="st0" d="M64.9,155.9c0.7,0.4,1.5,0.7,2.1,0.9c0.3,0.1,2.3,1.6,2.3,1.5c0-0.5-1.6-1.6-2-1.9
	c-0.1-0.1-2.7-1.3-2.6-0.8C64.6,155.8,64.7,155.9,64.9,155.9L64.9,155.9z"/>
<path id="bo" class="st0" d="M65.5,155c0.4,0.4,1.5,0.7,2,1.1c0.3,0.1,2.4,1.9,2.5,1.6c0.1-0.3-4.3-3.8-4.7-2.9
	C65.4,154.9,65.4,154.9,65.5,155L65.5,155z"/>
<path id="bp" class="st0" d="M65.7,153.5c0.1,0.4,2.1,0.9,2.5,1.2c0.3,0.1,2,1.7,2,1.7C71.3,155.4,65.3,152.6,65.7,153.5z"/>
<path id="bq" class="st0" d="M66.4,152.5c1.1,0.5,2.1,0.9,3.2,1.6c0.1,0.1,1.9,1.5,1.5,0.8c-0.5-0.8-1.6-1.5-2.5-2
	c-0.4-0.3-0.9-0.5-1.3-0.8C66.8,151.9,65.7,152.1,66.4,152.5L66.4,152.5z"/>
<path id="br" class="st0" d="M67.3,136.5c0.5,0,3.1,0.9,3.4,0.7c0.4-0.4-3.6-1.7-3.8-0.9C66.9,136.5,67,136.7,67.3,136.5L67.3,136.5
	z"/>
<path id="bs" class="st0" d="M67.2,151.1c0.5,0.1,4.6,2.4,4.6,2.3c0.1-0.3-2.1-1.6-2.4-1.9c-0.4-0.4-0.9-0.5-1.5-0.7
	C67.6,150.7,66.5,150.9,67.2,151.1L67.2,151.1z"/>
<path id="bt" class="st0" d="M68.4,150.3c1.1,0.3,2.7,2.7,3.6,2.5c0.1,0-1.3-1.5-1.5-1.6c-0.4-0.4-1.7-1.9-2.4-1.2
	C68,150.2,68.1,150.3,68.4,150.3L68.4,150.3z"/>
<path id="bu" class="st0" d="M68.1,137.7c0.5,0.3,1.5,0.4,2.1,0.5c0.4,0.1,1.2,0.7,1.6,0.3c0.5-0.4-1.7-0.9-2-1.1
	c-0.4-0.1-0.9-0.4-1.3-0.3C68.4,137.2,67.8,137.5,68.1,137.7L68.1,137.7z"/>
<path id="bv" class="st0" d="M68.2,149.3c0.1,0.1,0.5,0.1,0.7,0.1c0.7,0.1,1.2,0.5,1.6,0.9c0.3,0.1,2.3,2,2.4,1.9
	c0.3-0.1-1.9-2-2-2.1c-0.5-0.4-1.1-1.1-1.8-1.2C69,148.8,67.8,148.8,68.2,149.3L68.2,149.3z"/>
<path id="bw" class="st0" d="M68.4,147.8c0.1,0.1,0.7,0.1,0.7,0.1c0.5,0.3,1.1,0.7,1.5,1.1c0.3,0.1,2.3,2.3,2.3,2.1
	c0.3-0.3-1.7-2.4-2-2.7c-0.4-0.4-0.9-0.7-1.5-0.9C69.3,147.5,67.7,147.1,68.4,147.8L68.4,147.8z"/>
<path id="bx" class="st0" d="M69.3,145.2c1.2,1.1,2.6,1.9,3.9,2.8c1.2,0.8,0.4,0,0.7-0.1c-0.7,0.4-3.6-3.5-4.7-3.1
	C69,145,69,145.1,69.3,145.2L69.3,145.2z"/>
<path id="by" class="st0" d="M69.2,138.9c0,0.1,3.4,1.2,3.5,0.9C72.8,138.9,68.9,138.3,69.2,138.9z"/>
<path id="bz" class="st0" d="M69.6,146.6c0.9,0.1,1.9,1.1,2.5,1.7c0.3,0.3,0.7,0.7,0.9,1.1c0.3,0.4,0.5,0,0.3-0.3
	c-0.8-0.9-1.6-1.9-2.7-2.5c-0.3-0.1-1.1-0.7-1.3-0.7C68.9,146,69.4,146.6,69.6,146.6L69.6,146.6z"/>
<path id="bA" class="st0" d="M69.3,142.6c0.7,0.4,1.6,0.4,2.4,0.8c0.4,0.3,1.7,1.6,2.1,1.5c0.3-0.1-1.7-1.7-1.9-1.9
	c-0.4-0.3-0.7-0.5-1.1-0.7C70.6,142.3,68.9,142.4,69.3,142.6L69.3,142.6z"/>
<path id="bB" class="st0" d="M69.7,144c0.7,0,1.6,0.7,2.1,1.1c0.3,0.3,1.6,1.3,1.7,1.1c0-0.1-1.3-1.5-1.6-1.6
	c-0.4-0.4-0.9-0.7-1.5-0.9c0,0-1.6-0.3-1.1,0.1C69.4,144,69.6,144,69.7,144L69.7,144z"/>
<path id="bC" class="st0" d="M69.6,141.4c0.4,0.3,1.1,0.4,1.5,0.7c0.4,0.1,2.4,2,2.6,1.6c0.1-0.7-1.5-1.6-1.9-1.9
	C71.5,141.8,68.5,140.5,69.6,141.4L69.6,141.4z"/>
<path id="bD" class="st0" d="M69.3,140.3c0.8,0.3,1.5,0.4,2.1,0.8c0.1,0.1,2,1.2,1.6,0.5s-1.5-1.1-2.1-1.3l-1.2-0.4
	C69.7,139.9,69,140.3,69.3,140.3L69.3,140.3z"/>
<path id="bE" class="st0" d="M73.7,165.1c0.1,0.5,0.4,2.1,0.8,2.5s0.1-0.9,0.1-0.9c-0.3-0.8-0.5-1.9-0.9-2.6
	C73.5,163.4,73.6,165,73.7,165.1L73.7,165.1z"/>
<path id="bF" class="st0" d="M75.1,140.9c0.8,0,1.9,0.9,2.5,1.3c0.3,0.1,2.1,1.6,2.1,1.9c0-0.4-1.9-2.5-2.2-2.4l-1.8-0.9
	C75.7,140.2,74,141,75.1,140.9L75.1,140.9z"/>
<path id="bG" class="st0" d="M75.6,160.4c0.5,0.9,0.8,2.4,0.9,3.5c0.1,1.5,0.4,0.4,0.4,0.1c0.1-0.4-0.7-4.1-1.2-4.1
	C75.6,159.8,75.5,160.1,75.6,160.4L75.6,160.4z"/>
<path id="bH" class="st0" d="M76,142.6c1.6,0.7,2.5,2.7,3.6,3.9c0.5,0.5,0.3-0.5,0.1-0.8c-0.4-0.4-0.7-0.9-1.1-1.3
	c-0.3-0.3-2.9-2.8-3.1-2.1L76,142.6L76,142.6z"/>
<path id="bI" class="st0" d="M77.3,155.7c0.4,0.5,1.6,4.6,1.7,4.6c0.7,0-0.8-3.9-0.9-4.2c-0.3-0.4-0.5-0.7-0.7-1.1
	C77.2,154.3,76.9,155,77.3,155.7L77.3,155.7z"/>
<path id="bJ" class="st0" d="M77.3,153c0.7,0.7,1.1,1.7,1.5,2.5c0.1,0.3,0.5,2,0.5,2c1.3,0.4-1.9-6.2-2.4-5.2
	C76.9,152.6,77.1,152.9,77.3,153L77.3,153z"/>
<path id="bK" class="st0" d="M49.9,145.6c0.3,0.5,0.7,0.9,1.2,1.5c0.4,0.4,0.8,0.8,1.2,1.3c0.4,0.4,0.7,0,0.4-0.3s-3-2.9-3-3.1
	C49.7,145.1,49.7,145.4,49.9,145.6L49.9,145.6z"/>
<path id="bL" class="st0" d="M218,0.9c-1.9-1.4-0.6,1.7-0.7,1.7c0.9,0.1-0.3,3.2-0.5,3.3c-0.6,0.9-0.8,2.5-1.2,3.5
	c-0.4,1.6-1,3.2-1,4.8c-0.1,1.6,0.5,3,0.6,4.6c-0.1,1.4,0.6,2.3,1.2,3.6c1.4,2.6,1.9,5.3,3.8,7.8c1.7,2.3,3,5.8,5.3,7.7
	c1,0.8,2.4,1.2,3.4,2.1l2.1,2.2c1.1,1,2.6,2,4,2.5c1.2,0.5,2.8,0.9,4,0.9c0.3,0,3.4-0.3,3.7-0.1c0.1,0.2-9.8,3.1-9.9,3.7
	c-0.1,0.6-4.6,1.6-5.4,1.8c-1.5,0.4-2.7,1.2-4.1,2c-3.8,2-7.1,4.7-9.8,7.9c-1.4,1.6-2.9,4.1-3.6,6.1c-0.4,0.9-1.1,2.2-2,2.8
	c-0.5,0.2-0.7,1.2-1,1.6c-2.2,1.6-2.1,3.4-2.8,6c-0.4,1.6-0.6,3.1-1.3,4.6c-0.2,0.4-1.7,3.9-1.6,4c0.9,0.3,3.4-0.9,4.2-1.3
	c1.5-0.6,3.3-0.5,4.9-0.7c1.3-0.3,5,0.9,5.8-0.1c0.2-0.3,2.7,0.1,3.2,0c0.6-0.1,1.7-0.6,2.4-0.8c1.9-0.5,3.5-0.9,5.1-1.8
	c1.9-1,3.9-2.2,5.4-3.7c0.8-0.9,3.1-3.7,3.1-4.7s1.4-3.2,1.9-4.4c0.8-2.1,1.3-4.5,1.5-6.7c0.1-1.9,0.9-3.6,1.1-5.5
	c0.1-2.1,0-4.3,1.4-6.1c-0.2,1.6-0.1,3.2,0.2,4.9c0.4,2,0.4,4.1,1,6c0.6,1.5,1.5,3.1,2,4.8c0.7,1.7,1.6,3.1,2.7,4.7
	c0.4,0.7,0.4,1.5,0.8,2.1c0.3,0.4,0.6,0.4,0.9,0.8c0.5,0.7,1.1,1.3,1.8,2c1.3,1.2,2.2,2.6,3.5,3.7c2.4,2.3,5.7,3.7,9,4.4
	c1.9,0.4,4.5,1.2,6.4,0.9c1.1-0.2,2.6-1.2,3.6-1.6c0.5-0.3,0.7-1.5,0.3-1.7c-0.6-0.4-1.5-0.6-2.1-1.1c-0.3-0.2-2.6-2.2-2-2.6
	l-0.3-3.6c-0.4-0.7-0.5-2-0.7-2.8c-0.5-2.3,0.2-4.6-0.3-7c-0.3-1.5-0.3-3.3-0.7-4.8c-0.4-1.4-1.3-2.3-2.1-3.4
	c-0.9-1.3-2.2-2.4-3.5-3.4c-1.5-1-2.2-2.6-3.3-3.7c-1.5-1.7-4-2.5-6.1-3.3c-0.8-0.3-4.9-1.8-5.3-1.1c0.6-0.9,3-1.7,4-2.2
	s2.6-1.1,3.5-1.7c1.1-0.8,3.4-1.1,4.7-1.4c0.8-0.2,9.1-0.9,9.1-0.7c0.1-0.6,6,0.9,6.5,0.8c1,0,0.8-2.3,0.9-2.9
	c0-1.1-0.3-1.2-1.3-1.2c-2-0.3-4-0.1-6.1-0.3c-4.1-0.1-8.9,0.8-12.8,2.1c-3.2,1.1-6.4,2.8-9.1,4.8c-0.2,0.1-2.2,1.9-2.3,1.1
	c0.2-1.1,0.3-2,0.1-3c-0.1-1.6-0.5-3.1-0.3-4.7c0.1-1.9-1.1-3.7-1.1-5.5c0-2.3-0.9-4.6-1.6-6.8c-0.5-2-0.9-4-1.9-5.9
	c-0.9-1.7-1.6-3.5-2.4-5.2c-1.4-2.6-5.1-4.6-7.6-6C225.6,3.4,221.2,3.2,218,0.9L218,0.9z M217.7,1.7c0.1,0.3,2.4,0.3,1.4,1.7
	c-0.6,0.7,2.1,1.9,1,3C220,6.2,219,5,218.8,5.2c0,0,1.2,2.6,1.4,2.6c-0.3-0.4-0.3-1.2-0.9-1.3c-0.2,0,1.1,2.3,0.7,2.8
	c-0.8,1-0.9-1.7-1.4-1.5c-0.7,0.4,0.7,2.5,1,2.9c0.1,0.2,0.2,1.8,0.2,1.8c0.9,0.1,1.2-1.9,1.5-2.8c0.3-0.6-0.7-0.4-0.3-1.2
	c0.4-0.4,0.3-1.2,0.6-1.7c0.2-0.4-0.4-2.6-0.2-2.8c-0.3,0.1-0.4,1.2-0.9,0.5c-0.4-0.4,0.1-0.8,0.2-1.1c0.3-1.1-0.7,0.2-1,0
	c-1.4-1.6,1.7-0.5,1.8-0.5c1.4,0.4,0.7,0.6,0.9,1.6s-0.3,2.1-0.4,3c-0.2,1.3-0.4,2.5-0.4,3.8c-0.1,0.9-0.8,1.8-0.9,2.8
	c-0.1,0.3-0.6,2-0.6,2s-2.2-6.9-2.1-7.7c0.1-0.9,0.3-1.7,0.2-2.7c-0.2,0-0.4-0.7-0.3-1C217.8,3.7,218,2.8,217.7,1.7L217.7,1.7z
	 M222.6,7.4c0.1-0.9,0.2-2.4,0.6-3.3c0.2-0.3,2.2,0.5,2.5,0.5c1.1,0.5,2.5,1.3,3.6,1.5c0.3,0,2.1,1.1,2.2,1.4l-0.2,1.3
	c0,0.8,0.2,1.6,0.4,2.5c0.3,1,0,2.4-0.2,3.5c-0.6,3.1-1.3,6.3-2.3,9.3c-0.6,1.5-1.1,3.1-1.5,4.6c-0.6,1.8-1.8-0.9-2.3-1.8
	c-1.2-1.8-2.5-3.9-3-5.9c-0.6-1.7-1.9-3.5-1.4-5.4c0.2-1.3,1-2.6,1.1-3.9C222.2,10.2,222.4,8.8,222.6,7.4L222.6,7.4z M220.5,6.6
	c0.1-0.8,1.2-0.3,0.2,0.7c-0.4,0.3-0.8-0.3-0.6-0.6C220.2,6.5,220.5,6.9,220.5,6.6L220.5,6.6z M232,8.3c0.4-0.6,2.3,1,2.8,1.5
	c0.8,0.9,1.6,2,2.1,3.2c0.1,0.2,0.9,2.4,0.6,2.3c-0.1,0-1.3-1.8-1.6-2c-1.1-1.4-0.6,0.7-1.4,0.8c0,0,1.1-2.1,0.7-2.3
	c-0.4-0.2-0.9,1.8-1.4,1.6c-0.6-0.3,0.4-1.6,0.3-1.9c-0.6-1.2-0.8,1.3-0.8,1.3c-0.1,0.6,1.3,2,1.7,2.5c0,0.2,1.4,2.1,0.4,2
	c-0.1,0-1.6-2.5-1.8-2.2c-0.5,1.1,3.5,3.7,1.7,4.9c-0.4-0.7-0.7-1.9-1.4-2.3c0,0,1.2,2.4,1.2,2.8c-0.1,0.5,0.5,1,0.6,1.4
	c0.1,0.3-0.6,0.7-0.2,1.1c0.1,0.2,0.4-0.4,0.6-0.4c0.3,0-0.3,0.8-0.4,0.7c-0.2,0-0.5-1-0.6-1.1c-0.4-0.7-0.9-2.5-1.6-3
	c0.3,0.2,2.3,5.2,1.8,5.4c-0.7,0.2-1.4-3.6-2.1-3.4s2.7,5.4,1.9,5.8c-0.5,0.3-2.5-4.7-2.7-4.4c-0.2,0.1,0.9,2.5,1,2.7
	c0.4,0.7,0.6,1.5,0.9,2.2c0.4,0.7,0.1,0.5,0,1.3c-0.1,0.3,0.6,0.1,0.8,0.3c0.1,0.3-0.7,0.2-0.9-0.1c-0.3-0.4-0.4-0.9-0.5-1.2
	c-0.3-0.4-1-2.9-1.5-3s0.5,1.9,0.5,2.2c0.2,0.5,1.7,2.7,1,3.2c-0.5,0.4-0.8-0.9-0.9-1.1c-0.1-0.2-1.7-2.8-1.7-2.5
	c-0.1,0.6,1.3,2.4,1.5,3s0.6,1.1,0.9,1.6c0.2,0.5-0.4,0.3-0.6,0.7c0,0.2,1,0,1.1,0c0,0-0.7,0.7-1,0.5c-0.3-0.4-1.1-1.1-1.1-1.4
	c0-0.2-1.5-2.8-1.5-2.8c-0.8,0,2.6,5.2,2.6,5.4c-0.3,1.2-2.1-1.8-2.3-2c-0.3-0.4-1.1-1-1.1-1.1c1,1.8,2.4,3.4,3.4,5
	c0.3,0.4,0.9,1.3,0.9,0.1c0-1.1-0.4-0.5,0.4-0.4c-0.6-0.1,1.4-1.7,1.4-1.7c0.5-0.4,0-1,0.3-1.2c0,0,1-1.6,1.1-1.8
	c0-0.8-0.9,0.4-0.7,0.4c-1.1-0.5,0.9-1,1-1.3c0.5-0.9-0.3-0.4-0.6-0.4s0.9-0.7,0.8-1c0-0.2-0.2-0.5-0.4-0.4c0.1-0.5,1-0.5,1-0.2
	c0.1-0.3-0.1-1.6-0.1-1.6c0.2-0.1,1,0,0.9-0.5c0,0-0.3-1-0.4-0.9c0.1-0.6,0.9-0.5,0.4-1.5c-0.2-0.5-0.5-0.9,0.1-1.4
	c0.9-0.7,0.1,0.3,0.6,0.1c0.3-0.1-1.9-5.9-2-5.9c1.1,0.2,2.5,4.7,2.6,5.5c0.2,1,0.7,2,0.4,3c-0.5,1.2-0.5,2.5-0.7,3.8
	c-0.6,2.8-2.7,4.9-4.1,7.3c-0.4,0.6-1.1,1.8-1.6,2.2c-0.5,0.3-2.3-2-2.7-2.2c-1.3-1-3.1-3-3.5-4.7c-0.4-1.8,1-3.7,1.5-5.6
	c0.4-1.2,1-2.4,1.4-3.8c0.4-1.5,0.8-3.3,1-4.8c0.2-1.6,0.6-3.3,0.4-4.9c0.4-0.7-0.3-2.1,0.1-3L232,8.3z M217.2,6.1
	c0.2,0,0.2-0.1,0.3-0.1c0.3,0-0.2,3.2-0.1,3.7c0,1,0.5,2,0.7,3c0.1,0.5,1.9,5.3,1.9,5.4c-0.9,0.4-2.8-1.9-3.3-1.5
	c-0.7,0.5-1.8-2.2-1.7-2.7c0.1-1.6,0.5-3.3,1-4.7C216.4,8.4,216.6,6.6,217.2,6.1L217.2,6.1z M219.8,10.3c0.1-0.8,1.7-0.7,0.4,0.7
	C220,11.2,219.8,10.5,219.8,10.3L219.8,10.3z M235.3,14.3c0.5-0.9,1.4,0.1,0.9,0.6C235.5,15.6,235,14.9,235.3,14.3z M236.4,15.4
	c0.7-0.5,1.2,0.3,0.5,0.7c-0.3,0.1-0.4,0.6-0.8,0.2C235.8,15.8,236,15.7,236.4,15.4z M236.8,16.9c0,0,0.7-0.5,0.7-0.2
	c0,0.2-0.8,0.9-0.9,0.5C236.8,17,236.8,17,236.8,16.9L236.8,16.9z M237.3,18.1c0,0,0.5-1.1,0.6-0.7c0.1,0.2-0.3,1.1-0.5,1.1
	C237.4,18.3,237.3,18.1,237.3,18.1L237.3,18.1z M236,17.9c-0.3-0.2,0.7-0.7,0.5-0.2C236.3,18,236.2,17.9,236,17.9z M237.8,18.7
	c0.2-0.1,0.2-0.3,0.4-0.4c0,0,0.2,0.8-0.4,0.7C237.6,18.8,237.6,18.8,237.8,18.7L237.8,18.7z M236.4,18.8c0-0.3,0.1-0.5,0.4-0.6
	C237.4,18.4,236.6,19.5,236.4,18.8L236.4,18.8z M238,19.8c0-0.1,0.4-0.6,0.5-0.4C239.3,19.5,237.8,20.6,238,19.8L238,19.8z
	 M236.6,19.5c0.2-0.1,0.4-0.3,0.5-0.2C237.5,19.5,236.4,19.6,236.6,19.5L236.6,19.5z M237.1,20c0.5-0.4,0.9,0.5,0.4,0.7
	C237,21,236.8,20.3,237.1,20z M215.6,17.2c-0.1-0.3,0.1-0.5,0.3-0.6c1.5,0.9,3.2,2.4,4.8,2.2c0.5-0.1,3,6.6,2.4,7.3
	c-0.2,0.1-0.4-1.8-0.9-1.7c-0.8,0.2-1.1-2.6-1.9-2.7c0,0,0.3,2.6,0.2,2.8c0-0.2-1.8-4.1-1.9-4.2c-0.2,0,0.9,3.8,0.9,4.5
	c-0.3-0.4-1.2-2.8-0.9-2.9c0.1,0-0.6,0.9-0.5,0.3c0-0.3-0.4-0.7-0.4-0.9c0-0.1-0.7-1.7-0.9-1.6c-0.6,0.6,1.4,3.3,1.5,3.9
	c0.2,0.8-0.4,2.7,0.6,1.4c0.3-0.6,0.4,1.7,0.4,1.7c0,1,0.5-0.2,0.5-0.2c0.2-0.5,0.2-0.3,0-1.1c0-0.1-0.3-1.3-0.1-1.3
	c0.3,0,0.7,1.6,0.7,1.9s-0.2,1.1,0.1,1.3c0.2-0.1,0.3-0.1,0.4-0.4c0.3,0,0.2,0.8,0.3,1c0,0,1.3-0.9,1.4-0.9c0.3,0.4,0,1,0.1,1.3
	c0.5,0.7,0.6,0.1,0.6,0.1c1.1,0.2,0.4-0.3,0.2-1.1c-0.2-0.7-0.3-1.5-0.2-2.1c0.5,0.9,0.8,2.1,1.5,2.8c0.4,0.4,1.8,2,1.7,2.7
	c0,0-6.9-2-7.4-2.9c-0.1-0.3-1.1-0.5-1-1c-0.1-0.3-0.1-0.7-0.2-1c-0.4-0.9-0.7-1.9-1-2.7C216.1,20.8,215.1,19.6,215.6,17.2
	L215.6,17.2z M236,20c0.2,0,0.2-0.1,0.3-0.1c0.3,0-0.3,0.9-0.5,0.9C235.6,20.5,235.8,20.2,236,20L236,20z M238.8,20.5
	c0.8-0.2,0.4,0.9-0.3,0.6C238.3,21,238.7,20.4,238.8,20.5z M236,21c0.8-1,0.7,0.8-0.1,0.8L236,21L236,21z M237.6,21.2
	c0.2-0.3,0.4-0.3,0.5,0.1c0.1,0.2-0.5,0.4-0.5,0.4C237.2,21.5,237.3,21.4,237.6,21.2L237.6,21.2z M237.7,22.5c0-0.1,0.3-0.6,0.4-0.4
	C238.9,22.4,237.6,23.2,237.7,22.5L237.7,22.5z M236.3,22.3c-0.1-0.2,0.6-0.6,0.6-0.6C237,22,236.4,22.5,236.3,22.3z M236.7,23
	c0-0.3,1.1-0.6,0.8,0.1C237.3,23.5,236.6,23.5,236.7,23L236.7,23z M238.3,23.3c0-0.2,0.2-0.3,0.4-0.3c0.5,0.1-0.2,1.1-0.4,0.6V23.3
	L238.3,23.3z M235.8,23.9c0-0.2,0.4-0.7,0.6-0.6C236.7,23.9,235.7,24.2,235.8,23.9L235.8,23.9z M237.2,23.9c0.8-1,0.8,1.1-0.1,0.3
	L237.2,23.9L237.2,23.9z M240.7,26.1c0,0,0.2-1.1,0.3-1.1c0.5,0.1,1.3,4.4,0.7,4.8c-0.2,0.3-1.6,2.2-1,2.3c0.2,0,1.1-2.1,1.2-1.8
	c1.2,2.4,1.1,5.8,1.2,8.4c0.1,0.5,0.4,5.2-0.6,5.1c-0.2,0-0.7-0.7-1-0.8c-1.2-0.5-2.7-1.4-3.5-2.3c-1-1-2.1-1.8-3.1-2.7
	c-0.7-0.6-0.4-0.7,0-1.3C237.7,33.4,240,30.5,240.7,26.1L240.7,26.1z M236.1,24.6c0.8-1,0.5,1-0.1,0.3L236.1,24.6L236.1,24.6z
	 M237.6,25.1c0-0.2,0.4-0.4,0.5-0.4C238.7,24.8,237.7,25.8,237.6,25.1L237.6,25.1z M236.4,25.6c0.1-0.3,0.5-0.4,0.8-0.2
	C237.4,25.9,236.4,26.1,236.4,25.6L236.4,25.6z M235.2,25.3c0.7-1.2,0.6,1.2-0.1,0.5L235.2,25.3L235.2,25.3z M220.9,23.5
	c-0.1-0.5,0.8,0.9,0.8,1.2c0.1,0.5,0,1.1,0.1,1.6C221.2,25.6,221,24.6,220.9,23.5L220.9,23.5z M235.5,26.4c-0.1-0.3,0.6-0.6,0.6-0.6
	S235.9,27,235.5,26.4L235.5,26.4z M236.8,26.6c0-0.3,0.9-0.5,0.8,0C237.5,26.9,236.7,27.3,236.8,26.6z M235.9,27l0.4-0.3
	c0.3-0.1-0.2,1.1-0.4,0.6V27L235.9,27z M235,27.5c0.1,0,0.2-0.1,0.3-0.1C236.4,28,234,28.3,235,27.5z M236.4,28
	c0.2-0.1,0.3-0.1,0.5,0.1C236.6,28.6,236.1,28.1,236.4,28z M235.2,28.8c-0.3-0.2,0.5-0.4,0.5-0.4C235.9,28.4,235.6,29.2,235.2,28.8z
	 M235.7,29.4c0.2-0.3,0.4-0.3,0.5,0.1c0.1,0.2-0.5,0.4-0.5,0.4C235.5,29.5,235.5,29.5,235.7,29.4L235.7,29.4z M234.5,30
	c0.1-0.5,0.7-0.2,0.6,0.1C235.1,30.4,234.4,30.5,234.5,30L234.5,30z M271.8,35.7c0.6,0.1,2.7-0.1,2.8,0.7c0.1,0.5,0.1,1.6-0.4,1.9
	c-0.2,0.1-1.3-0.2-1.1-0.2c0,0,2.3-1.1,1.1-1c-1,0-1.3,1.3-2.4,0.8c0.2-0.1,2.3-1.3,1.5-1.5c-0.6-0.3-2,1.6-3.1,1.3
	c0.4-0.3,2.4-1.3,1.5-1.5c-0.2,0-3.2,2-3.1,1.6C268.4,37.3,271.4,35.7,271.8,35.7L271.8,35.7z M269.3,35.8c0.2-0.1,0.5-0.2,0.7-0.2
	c-0.3,0-2.4,3.3-3.5,2.2C266.4,37.7,269.1,36,269.3,35.8L269.3,35.8z M233.6,30.7c0-0.1,0.4-0.6,0.6-0.6
	C234.8,30.2,233.5,31.3,233.6,30.7z M219.5,28.3c0,0.2,2.7,1.4,3,1.4c1.4,0.5,2.8,0.6,4.2,1.1c0.6,0.3,1.2,0.5,1.6,1.2
	c0.1,0.2,1.5,2,0.6,2.2c-0.3,0.1-0.3-1.3-0.8-1.4s-0.3,0.1-0.7-0.4c-0.3-0.2-0.4-0.5-0.7-0.6c-0.8-0.1-0.3,0.6-0.3,0.9
	c0,0-0.8-1.4-1.3-1.2c-0.2,0.1,0.7,1.7,0,1.9c-0.2,0.1-0.5-1.9-0.7-2c-0.4-0.2-0.1,0.8-0.9-0.3c0.1,0.2-0.7-0.9-0.7-0.8
	c-0.1,0.6,0.9,1.6,1.3,2.1c0.3,0.4-0.2,1.3,0.3,1.3c0.2-0.1,0.4-0.3,0.4-0.4c0,0,3,3.5,2.3,0.8c0.4,0.5,0.5,1,1.1,1.5
	c1.4,1.3,0.3-1.1,0.9-1c0.3,0,0.4,2,0.9,1.6l0.1-0.5c0.2,0,0.6,0.6,0.8,0.3c0,0-1.7-2.7-1-2.7c0.1,0,4.2,4.2,4.2,4.3
	c0-0.2-8.5-2.1-9.3-2.3c-1.6-0.2-2.1-2.4-2.9-3.5C221.6,31.3,219.4,28.9,219.5,28.3L219.5,28.3z M267.2,35.8c0-0.2,1-0.3,1-0.2
	c-0.1,1-2.8,2.3-3.5,2.2C265.3,37.3,266.7,36.6,267.2,35.8L267.2,35.8z M235.2,30.9c0.2-0.3,0.4-0.3,0.5-0.1c0,0.2-0.4,0.4-0.5,0.4
	C235,31,235.2,30.9,235.2,30.9L235.2,30.9z M265.9,35.6c0.2-0.1,0.5-0.1,0.6-0.1c-0.3,0.6-3.2,2.9-3.6,2.4
	C262.9,37.8,265.3,35.6,265.9,35.6L265.9,35.6z M263.1,36c0,0,1.3-0.3,1.3-0.1c-0.1,0.5-1.3,1.4-1.7,1.7c-0.2,0.1-2.2,1-2.2,0.7
	C260.5,37.4,262.4,36.3,263.1,36L263.1,36z M234.3,31.4c0.2-0.1,0.3-0.1,0.5-0.1C234.7,31.7,233.9,31.7,234.3,31.4L234.3,31.4z
	 M234.7,32.1c0.1,0,0.3,0,0.5-0.1C235.5,32.1,233.8,32.2,234.7,32.1L234.7,32.1z M260.5,36.4c0.2-0.1,1-0.3,1.3-0.1
	c-0.3-0.2-2.6,3.2-3.2,2.1C258.8,38.8,260.3,36.4,260.5,36.4L260.5,36.4z M233.1,32.8c0.1-0.3,1-0.5,1-0.2
	C234.1,32.8,233.1,33,233.1,32.8L233.1,32.8z M235,32.8c0.2-0.3,0.4-0.3,0.5-0.1C235.3,33,235.2,33,235,32.8L235,32.8z M258.5,36.9
	c0,0,1.4-0.6,1.3-0.3c-0.1,0.5-1.2,0.8-1.3,1.4s-1.7,0.7-1.7,0.7C256.8,38.5,258.1,37.2,258.5,36.9L258.5,36.9z M233.8,33.4
	c0,0,0.7-0.4,0.7-0.2C234.5,33.5,233.4,33.9,233.8,33.4L233.8,33.4z M256.6,37.6c0-0.3,1.2-0.6,1.2-0.6c-0.1,0.5-1.3,1.3-1.7,1.7
	c0,0.2-0.9,1-0.9,0.7C255.3,38.7,256.4,38.2,256.6,37.6L256.6,37.6z M226.5,32.8c-0.1-0.2-0.1-0.3,0.1-0.5c0.6,0.1,0.4,1.8,0.5,1.9
	C226.5,34.1,226.7,33,226.5,32.8L226.5,32.8z M232.8,33.9c0.2-0.1,0.3-0.1,0.5,0.1c0.2,0.5-1,0.5-0.9-0.1H232.8z M255.3,37.8
	l0.7-0.2c0.1,0.2-2.5,2.7-2.6,2.5c0,0,1.2-1.6,0.7-1.5c-1,0.2-1.9,3.1-3,2.9c0,0,1.2-1.4,0.6-1.5c-0.3,0-1.6,2.2-1.9,1.8
	c0.2-0.1,0.2-0.5,0.3-0.6c-0.4-0.5-2.9,2.3-2.9,2.2c0.1-0.5,1-0.5,0.5-1.2c-0.1-0.2-0.5,0.2-0.5,0.2c-0.2,0.3-2.4,2.9-3,2
	C243.4,43.4,254.2,38.1,255.3,37.8L255.3,37.8z M225.6,33.7c-0.1-0.3-0.1-0.5,0.1-0.5c0.1,0.2,0.9,1.7,0.4,1.7
	C225.8,34.8,225.6,34,225.6,33.7L225.6,33.7z M227.6,34.4c-0.1-0.3-0.1-0.5,0-0.8c0.6-0.4,0.5,1.8,0.4,1.7
	C227.7,34.9,227.5,34.8,227.6,34.4L227.6,34.4z M224.7,36.4c0,0,3.2,1,3.9,0.9c1.3,0.2,2.7,0.2,3.9,0.7c0.6,0.3,1,0,1.6,0.4
	c0.7,0.4,8.6,6.1,8.4,6.4c-0.2,0.5-2.6,0.1-2.9,0.2c-1.3,0-2.5-0.2-3.7-0.7c-1.6-0.4-2.7-1-4-2c-1.2-0.8-1.8-1.7-2.6-2.7
	C227.9,38.5,225.1,38.1,224.7,36.4L224.7,36.4z M246.1,44.9c1.8-0.1,3.2,0.3,4.9,0.7c0.9,0.3,1.7,0.6,2.6,0.9
	c0.5,0.1-0.3,0.9-0.5,1.2c-0.4-0.4-1.2-1.5-1.9-1.6c-0.1,0,0,1.3-0.5,1.2s0-1-0.7-0.9c-0.5-0.1-0.4,0.7-0.6,1
	c-0.7,1.2-0.6-1.5-0.3-1.2c-0.3-0.4-0.9,0.4-1.2-0.3c-0.7-0.9-0.5,0.1-1,0.2c-0.2,0.1-0.2-0.7-0.7-0.4c-0.2,0.1-0.1,0.8-0.5,0.9
	c0,0-0.8-1.4-1-1.1c-0.1,0.5,0.8,3.5,1.6,3.6c0,0,0.6-1.5,0.6-1.7c0,0,0.8,0.9,1,1c0.7-0.4,0.4-1.2,0.9,0.1c0.2,0.5,0.7-0.2,0.9-0.3
	c0.4-0.7,1.2-0.8,0.8,0.1c-0.6,0.9,0.3,0.4,0.1,0.7c-0.1,0.3-2.2,0.5-2.5,0.6c-0.9,0.4-2.6,0.9-3.3,0.5c-0.9-0.6-0.6-2.8-0.6-3.6
	C243.8,45,244.8,45.1,246.1,44.9L246.1,44.9z M253.5,48c0.2-0.1,0.5-1.2,0.8-1c0.6,0.3,1.2,0.7,1.8,1.1c0.3,0.2,2.4,1.5,2.3,2
	c0.1-0.5-5.2-1.4-5.3-1.3C253.3,48.4,253.5,48.3,253.5,48z M251.2,48.1c0.1-1,1.2-0.5,1.6-0.1c0.6,0.6-2.3,1.1-2.2,1
	C250.5,48.5,251.2,48.4,251.2,48.1L251.2,48.1z M247.2,46.9c0-0.2,0-0.2,0.2-0.3c0.5-0.1,0.7,0.9,0.2,1
	C247.6,47.6,247.2,47,247.2,46.9L247.2,46.9z M246.1,47c0.1-0.5,0.2-0.5,0.5-0.2c0,0-0.5,1.1-0.3,1.1C246,48,246.1,47,246.1,47
	L246.1,47z M242.4,47c0-0.2,0.6-0.9,0.8-0.7c0.7,0.4-0.1,3.7,0.5,4.4c0.5,0.7-0.3,3.2,0,3.5c0.9,0.8-0.1,8.5,0,8.5
	c-0.8-0.1-1.4-3.3-1.5-3.9c-0.1-1.3-0.3-2.6-0.5-4c-0.4-1.8-0.3-3.4,0-5.3c0.1-0.5,0.2-1.3,0.6-1.7C242.8,47.5,242.2,47.6,242.4,47
	L242.4,47z M240.8,46.7c0.2-0.1,0.3-0.1,0.5-0.2c-0.3,0-2.2,2.1-2.6,2.4c-1.5,1.2-2.8,2.5-4.2,3.7c-2.2,1.8-4.7,2.5-7.5,3.2
	c-2.7,0.7-5.5,2.3-7.8,3.8c-0.7,0.4-6.3,3.4-6.4,3.2c-1.1-1.3,6.5-7.1,7.4-7.6c2-1.3,4.1-2.5,6.3-3.4c2.6-1.1,5.2-1.6,7.8-2.7
	c1.2-0.5,2.4-1.1,3.7-1.4C238.7,47.4,240,47.3,240.8,46.7L240.8,46.7z M253.6,49.4c1.7,0.3,3.3,0.8,5.1,1.3c0.6,0.1,1.1,1.3,1.5,1.8
	c0.9,0.6,1.6,1.2,2.4,2c1.1,1.3,3,2.7,3.5,4.4c0.1,0.2,0.8,2.2,0.5,2.3s-1.8-0.6-2.1-0.6c-2.3-0.7-5.1-1.4-7.7-1.3
	c-1.9,0.2-4.1,0.8-6.1,0.9c-0.6-0.1-1.5,0.1-1.8-0.6c-0.4-0.9-0.9-1.3-1.3-2.1c-0.6-1.2-1.2-2.4-1.8-3.8c-0.4-0.7-1.1-1.9-1.2-2.8
	C244.4,51,252.5,49.3,253.6,49.4L253.6,49.4z M239.7,48.8c0-0.2,1.8-1.3,1.8-1.2c-0.1,1-1.2,2.6-1.6,3.5c-0.7,1.2-0.8,3-0.8,4.2
	c-0.2,3.4-1.2,6.8-1.6,10.1c-0.1,0.6,0.1,0.5-0.2,1.1s-0.5,1.2-0.6,1.8c-0.5,1.2-1,2.6-1.7,3.8c-0.6,1-1.1,2.3-1.9,3.3
	c-0.2,0.4-2.9,3.1-2.8,3c-0.1-1.5,0.5-3.5,0.8-5.1c0.2-1.4-0.1-2.6,0.1-4c0.2-2.6-0.4-5.2-0.3-7.8c0-2.4,0.1-5.3,2.1-6.9
	C235.3,52.9,237.7,51,239.7,48.8L239.7,48.8z M244.5,53.7c0,0,0.2-1.1,0.3-1.1c0,0,0.8,2.2,0.9,2.4c0.8,0.9,0.9,2.2,1.6,3.3
	c0.4,0.5,1.5,1.8,1.4,2.8c-0.1,0.6,0,2.3,0.1,2.8c0.6,1.4-0.6,3.9-0.3,5.4c0.1,0.5,0.5,3.3,0.1,3.6c-0.4,0.3-1.6-2.5-1.8-2.8
	c-0.7-0.6-2.1-2.9-2-3.8c-0.1,0.5,1.6,0.2,0.9-0.3c-0.2,0-0.1-0.5,0.1-0.6c0.3,0.1,1.1,2.3,1.5,2.7c0.3,0.2-0.1-1.2-0.2-1
	c-0.4-0.7-0.8-1.2-1.2-1.8c-0.5-0.7-1.9-1.6-1.4-2.5c0-0.3-0.1-1.5-0.2-1.8c-0.4-0.9,0.1-2.1,0.1-3
	C244.7,56.4,244.4,55.2,244.5,53.7L244.5,53.7z M229.4,55.7c0.2,0,1.5-0.3,1.3-0.1c-0.3,0.6-1,0.5-1.3,1.1s-1.1,1.3-1.7,1.7
	c-0.9,0.8-1.9,2-2.7,2.8s-1.4,1.7-2.3,2.6c-0.9,1-1.8,1.3-3,2c-2.3,1.3-4.7,2.2-6.8,3.7c-2.5,1.7-5.1,4.4-8.1,5.1
	c0.6-1.7,1.7-2.7,2.7-3.9c1.2-1.6,2.1-3.2,3.1-4.8c1.4-2.2,3.8-3.1,6.2-4.1c2.1-0.8,4.2-2.1,6.1-3.3C225,57,227.3,56.7,229.4,55.7
	L229.4,55.7z M257.5,59.7c1.6,0.2,3.3,0.3,4.9,0.9c0.9,0.3,3.7,0.7,4,1.9c0.4,1.7,0.5,3,0.8,4.6c0.1,1.2-0.2,2.2,0,3.4
	c0.1,0.3,0.7,2.7,0.5,2.8c-0.4,0.3-3-0.6-3.4-0.7c-1.1-0.2-2.1-0.1-3.2,0.2c-2.7,0.7-4.2,0-5.8-2.2c-0.8-1.1-1.6-2-2.3-3.1
	c-0.3-0.4-1.3-2.4-1.6-2.5c-0.5-0.1-1.8-3.8-1.8-4.3C249.7,60.6,256.7,59.6,257.5,59.7L257.5,59.7z M230.2,56.8
	c0.2-0.3,0.4-0.4,0.7-0.4c0.3,0.4-0.5,3.6-0.6,4.3c0,1.3-0.1,2.9,0.2,4.2c0.8,3.5,0,7.6-0.5,10.9c-0.4,2.8-1.6,4.6-4.5,5.6
	c-1.7,0.6-3.5,0.9-5.2,1.5c-0.8,0.2-5,1-5.5,0.5c-0.1-0.2,1.9-3.1,2.1-3.6c0.8-1,1.3-2.4,1.7-3.6c0.7-2.5,1.2-5.8,2.5-8
	C223.4,63.8,226.5,60.1,230.2,56.8L230.2,56.8z M249.4,62.7c0,0.3,0.2-0.1,0.3-0.1c-0.1,0,0.6,1.7,0.8,1.4c-0.4,0.4,1.1,2.3,1.4,2.6
	c0.6,1.2,1.6,2.2,2.4,3.3c1.4,2.2,2.8,4,3.7,6.5c0.1,0.5,1.4,6,1.9,5.6c-0.2,0.1-2.6-1-2.6-0.9c0-0.3-1.6-0.9-1.6-0.9
	c-0.3-0.2-2.5-2.3-2.5-2.3c0.1-0.6-1.5-1.8-1.9-2.4c-0.8-1.1-1.6-1.8-1.8-3.3c0-1.1,0-2.4-0.3-3.4c-0.1-0.7-0.1-2.4-0.1-2.8
	C249.6,64.8,249.3,63.3,249.4,62.7L249.4,62.7z M244.9,64.6c-0.1-0.5,0.5,0.1,0.4,0.4C245.3,65.3,245,64.4,244.9,64.6z M220,66.4
	c0.2-0.1,0.5-0.2,0.8-0.2c-0.5-0.1-2.7,3-3.1,3.3c-1.9,2-3.8,3.8-5.8,5.7c-1.5,1.4-3.3,2.7-4.8,4.4c-0.8,0.8-1.6,1.9-2.6,2.5
	c-0.4,0.4-1.3,2.2-1.9,2.1c0.3,0,1.8-5.8,1.9-6.5c0.1-0.8,0.1-2.1,0.8-2.4c0.9-0.7,2.1-1.3,3-1.8c2.3-1.4,4.5-3,6.8-4.5
	C216.5,67.9,218.5,67.4,220,66.4L220,66.4z M261.8,73.1c1.8-0.5,4,0.1,5.6,1c0.9,0.5,0.8,2.1,1,3.1s0.4,1.7,1.1,2.4
	c0.1,0.2,1.5,1,1.5,1c0,0.3,3.1,1.6,0.9,1.4c-3.5-0.2-6.6-2.3-9.3-4.3c-0.6-0.4-5.4-4.5-5.1-4.8c0,0,1.5,0.4,1.7,0.4
	C260,73.6,261,73.4,261.8,73.1L261.8,73.1z M220.3,67.4l0.5-0.4c-0.5-0.1-1.9,6.5-2.4,7.2c-1.1,2.9-1.9,6-3.8,8.3
	c-0.3,0.1-0.9,0.7-1.1,0.8c-0.2,0.1-1.6-0.2-1.6-0.1c0,0-3.4,0.3-3.8,0.4c-0.5,0.1-5.1,1-5.1,1c-0.3-0.5,2.7-2.8,3.2-3.4
	c1.3-1.1,2.6-2.5,3.9-3.9c1.5-1.6,3.4-3.2,5-4.6C217.2,71.1,218.6,69.1,220.3,67.4L220.3,67.4z M258,74.9c-0.1-0.2-0.1-0.2,0-0.2
	c0.8,0.1,1.5,1.8,2.3,2.1c1.4,0.5,2.4,2.1,3.8,2.8c1.2,0.7,2.2,1.3,3.4,2c0.5,0.2,3.8,1.5,4,1.2c-0.2,0.3-1.4,0.4-1.7,0.7
	c-0.5,0.4-2.4,0-3-0.1c-1.6-0.2-3-0.3-4.5-0.8c-1.4-0.5-2-1.6-2.5-2.6c-0.6-1.2-0.8-2.1-1.1-3.2C258.3,76.3,258.3,75.3,258,74.9
	L258,74.9z"/>
<path id="bM" class="st0" d="M226,5.6c0.2,0-0.9-0.6-1.1-0.5c0,0.3-0.2,1.3,0.5,1.2c0.2-0.1,0.2-0.4,0.3-0.6
	c-0.2,0.1,0.8,1.1-0.2,1.4c0.5-0.1,0.8,1.4,0.9,1.6l0.4-0.3c0.5,0.1-0.4,1.7,0.3,1.5c0.2-0.1-0.3-0.4-0.2-0.5c0,0.1,0.7-0.2,0.8-0.1
	c0.3,0.4-0.3,1.2-0.6,1.2c-0.3-0.1-2-2.6-2.4-2.1c0,0,1.9,2.2,2.1,2.4c0,0,0.9,1.7,0.7,1.7c0.2-0.1,0.2-0.3,0.4-0.4
	c0.9,0.1-0.3,1.1-0.2,1.4c0.3,0.4,0.7-0.4,0.9-0.4c0.3,0-0.4,0.9-0.6,0.9c-0.4-0.5-2.9-4.3-3.3-4c0.2-0.1,2.6,4.3,2.7,4.6
	c0.2,0.5,1.1,0.5,0.3,1.3c-0.2,0.3-0.3-0.1-0.4-0.2c-0.8-1.1-2.2-2.4-2.4-3.6c0-0.2-0.8-0.1-0.4,0.4c0.5,0.7,1.1,1.6,1.6,2.5
	c0.4,0.5,0.9,1.3,1.2,1.9l-0.1,0.8c0.6,0.4,0.6,0.1,0.5,0.9c-0.1,0.5-1.2-1.5-1.2-1.5c-0.2-0.7-1.8-4-2.2-3.6
	c-0.5,0.4,4.2,6.6,3,6.9c-0.5,0.1-1.4-2.5-1.7-2.8l-1.1-2.1c0,0-0.8-1.1-0.9-0.6c-0.1,0.5,1,1.8,1.1,2.1c0.4,0.9,0.9,1.6,1.2,2.4
	c0.3,0.4,0.8,1.4,0.6,1.7c-0.6,0.7,0.4,0.4,0.6,0.6c0.4,0.9-0.6,0.6-0.8,0c-0.3-0.4-0.4-0.9-0.6-1.2c-0.5-0.9-1.7-3.6-2.6-4.1
	c-0.4-0.2,0.6,1.5,0.6,1.5c0.6,1.1,1.3,2,1.8,3c0,0,1.7,3.5,0.8,3.2c-0.8-0.3-1-3-1.8-3.2c-0.6-0.1-0.9-2.7-1.7-2.8
	c0.2,0,1.8,4,2.2,4.7l1.9,3.7c0.7,0.9,0.3-0.8,0.3-0.9c0.1-0.5,0.7-0.2,0.6-0.7c0-0.8,1.1-1,1.3-1.4c0.3-0.9-0.6-0.3-0.8-0.3
	c0,0,1.2-1.6,1.4-1.9c0.3-0.6-0.3-0.2-0.6-0.4c0.6,0.1,1.2-1.8,0.9-1.6c-0.2,0.1-0.3,0.6-0.6,0.6c-0.5-0.1,1.9-2.8,1.2-2.7
	c0,0-0.8,1.2-0.9,0.4c0.1-0.5,0.8-0.9,1.2-1.3c1-1.3-1.4,0.4-1.2,0.5c-1.4-0.4,0.8-1.3,0.6-1c0-0.2,0.6-1.7,0.6-1.7
	c-0.2,0-0.3,0.1-0.5,0.1c0,0,0.8-0.9,0.9-1c0.6-0.7-0.9-0.3-0.6-0.3c-0.8-0.1,0.5-1.4,0.6-1.5c0.1-0.8-1.2,0.3-1.2,0.3
	c-0.4-0.7,0.8-0.9,1-1.1c0.6-0.6-1.8-2.9-2.2-3.2c-1-0.6-1.3-1-2.5-1.7L226,5.6z M226.4,6.7h0.3c0.2,0-0.1,0.9-0.5,0.9
	C226,7.6,226.3,6.6,226.4,6.7L226.4,6.7z M226.9,7.9c0-0.2,0.6-0.9,0.7-0.5C228,8,226.7,8.5,226.9,7.9z M227.8,8.3
	c0.4-0.7,1-0.2,0.6,0.4C228,9.3,227.4,9,227.8,8.3z M228.6,9.2c0.2-0.5,0.4-0.4,0.5-0.2c0,0.3-0.3,0.9-0.5,1.1
	C228.3,10.3,228.6,9.2,228.6,9.2L228.6,9.2z M229.3,10.1c0-0.1,0.2-0.3,0.4-0.4c0.2,0-0.2,1.3-0.5,1.2
	C228.8,11.1,229.3,10,229.3,10.1L229.3,10.1z M227.5,10.4c1.3-1.3,0.1,1.1-0.3,0.6C227.1,10.8,227.3,10.7,227.5,10.4L227.5,10.4z
	 M227.9,11.9c-0.4-0.4,0.6-1,0.7-0.7C228.9,11.6,228.3,12.3,227.9,11.9L227.9,11.9z M228.6,12.5c0.2-0.1,0.2-0.3,0.4-0.4
	c0.3-0.1-0.4,1.2-0.6,0.9C228.6,12.8,228.6,12.6,228.6,12.5L228.6,12.5z M229.2,13c0.2,0,0.3-0.1,0.3-0.1c0.3,0.1-0.2,1.1-0.5,1.1
	C228.8,13.8,229,13.2,229.2,13L229.2,13z M227.7,14.3c0-0.1,0.6-0.6,0.7-0.7C229.3,14.7,227.6,15.4,227.7,14.3L227.7,14.3z
	 M229.4,14.5c0.2-0.1,0.2-0.1,0.2,0C229.6,14.7,229.4,14.7,229.4,14.5L229.4,14.5z M228.3,15.5c0-0.1,0.4-0.6,0.6-0.7
	C229.4,14.9,228.3,15.8,228.3,15.5z M227.4,16.3c0.2-0.3,0.4-0.3,0.5-0.2c0,0.2-0.6,0.6-0.7,0.5C227.2,16.5,227.3,16.3,227.4,16.3
	L227.4,16.3z M227.7,17.5c-0.3-0.4,0.3-0.8,0.6-0.9C228.9,17.2,228.2,18.4,227.7,17.5L227.7,17.5z M228.6,18.1
	c0.7-0.5,0.6,0.3,0.2,0.7C228.3,19.1,228.2,18.4,228.6,18.1z M227.3,19.4c0-0.1,0.3-0.6,0.4-0.6C228.6,18.9,227.2,20,227.3,19.4
	L227.3,19.4z M227.9,20.5c-0.4-0.5,0.7-0.5,0.7-0.2C228.4,20.4,228.1,20.6,227.9,20.5L227.9,20.5z M227,21.4
	c-0.1-0.3,0.3-0.8,0.5-0.9C227.8,20.4,227.4,22,227,21.4L227,21.4z M227.6,21.9c0.2-0.3,0.4-0.3,0.5-0.1c0,0.2-0.6,0.7-0.7,0.4
	C227.4,22,227.6,22,227.6,21.9L227.6,21.9z M226.6,22.7c0.5-1,0.4,0.9,0,0.3V22.7L226.6,22.7z M227,23.9c-0.1-0.2,0.4-0.6,0.5-0.4
	C227.5,23.6,227.1,24,227,23.9z M226.2,24.4c0.2-0.1,0.4-0.3,0.5-0.3C226.8,25.1,225.5,24.9,226.2,24.4L226.2,24.4z"/>
<path id="bN" class="st0" d="M223.7,13.3c0.3,0.4-0.4,0.3-0.3,0C223.4,13,223.6,13.2,223.7,13.3L223.7,13.3z"/>
<path id="bO" class="st0" d="M217.6,12c0.1,0.5,1.3,4.1,1.1,4.2s-2.3-3.9-1.6-4.6C217.4,11.6,217.5,11.8,217.6,12z"/>
<path id="bP" class="st0" d="M216.5,11.8c-0.1,0.5,0.2,3.2,0,3.2c-0.9-0.1-0.7-3.7-0.3-3.6C216.4,11.5,216.6,11.6,216.5,11.8
	L216.5,11.8z"/>
<path id="bQ" class="st0" d="M242,31.5c-0.7-0.4-0.5,1.1-1.2,0.8c-0.2,0-1.3-0.7-0.7,0.2c0.1,0.2,0.6,1.4,0.6,1.4
	c-0.1,0.8-0.9-0.5-1.2-0.3c-0.5,0.3,0.8,2.1,0.8,2.1c0,0.2-0.2,0.1-0.4,0.3c-0.2,0-0.8-1.4-1.3-1.2c-0.4,0.3,1.3,2.1,1.4,2.3
	c0.2,0.7-2.3-1.6-2.3-1.6l2.2,3.9c0-0.2,0.2-0.3,0.2-0.3c0.4,0.2-0.2,1.1-0.5,0.9c-0.3-0.2-0.6-0.6-0.8-0.9
	c-0.3-0.2-2.3-2.6-2.4-2.4c0,0.3,3.2,4.3,3.5,4.4c0.9,0.1,0.1,1.8,1.3,1.2c0,0,2.2-2.1,1.4-2.2c-0.3,0-1.1,1.9-1.5,1.2
	c0,0,0.7-0.7,0.8-1c0.2-0.3,0.6-0.6,0.6-1l-0.3-0.4c0.1-0.5-1.3,0-0.8-0.9c0.2-0.5,0.9-0.3,0.7-1.2c-0.1-0.3-0.9,0.8-1.2,0.8
	c0,0,1.5-1.7,1.7-2c0.3-0.6-1.7,0.6-1.5,0.6c-0.2,0,0.8-1,0.8-1.2c-0.1-0.7-0.6-0.4,0-1.3c0.4-0.6-0.1-0.3-0.2-1
	C241.5,32.5,242.4,31.8,242,31.5L242,31.5z M241.1,33.2c0.1-0.3,0.2-0.3,0.4-0.3C241.6,33.2,240.9,33.6,241.1,33.2L241.1,33.2z
	 M240.6,34.7c0.2-0.3,0.8,0,0.4,0.2C240.8,35.4,240.2,35.1,240.6,34.7L240.6,34.7z M240.5,36.3c0.2-0.3,0.6,0.1,0.4,0.2
	C240.6,36.8,240.1,36.6,240.5,36.3L240.5,36.3z M240.2,38c0.1-0.3,0.2-0.5,0.5-0.3c-0.1,0.3-0.2,0.5-0.6,0.6L240.2,38L240.2,38z
	 M240.8,38.8c0-0.2,0.2-0.5,0.5-0.4C241.7,38.2,240.7,39.5,240.8,38.8L240.8,38.8z M241.3,39.6c0.1-0.3,0.7-0.5,0.8-0.7
	C242,39.2,241.3,39.6,241.3,39.6L241.3,39.6z M240.6,40.2c0.2-0.3,0.4-0.3,0.5-0.1c-0.2,0.3-0.4,0.3-0.5,0.4
	C240.4,40.3,240.4,40.3,240.6,40.2L240.6,40.2z"/>
<path id="bR" class="st0" d="M230.1,38.5l-0.3-0.4c-0.2,0,1.4,1.7,1.3,2.1c0,0.2,1.5,1.5,1.9,1.6c0.1,0,2.6,2,2.6,1.2
	c-0.1-0.7,0.5,0.1,0.6,0.4c0,0.8,0.5,0.1,0.6,0.1c-0.2,0,0.5,1,0.6,0.6c0-0.2,1.1,0.2,1.1,0c0,0-1.5-1.7-1.1-1.6
	c0,0,3.1,1.9,2.8,1.5c-0.2-0.7-2-1.4-2.6-1.8c-0.2,0-1.9-1.6-1.9-1.3c0.1-0.5-2.1-1.9-2.6-2c0.7,0.8,2.1,1.8,2,2.9
	c0,0-1.9-1.4-1.5-1.8c-0.2,0.1-0.1,0.6-0.1,0.8c-0.3-0.2-1-1.1-1.1-1c-0.3,0-0.1,0.9-0.3,0.9c-0.5-0.1-1-1.9-1-1.9l-0.1,0.8
	C231.1,39.6,230.2,38.6,230.1,38.5L230.1,38.5z M232.9,41c0-0.2-0.1-0.2-0.1-0.3c0-0.2,1.3,1,1,1.1C233.4,41.9,232.9,41.1,232.9,41z
	 M235.5,41.5c-0.1-0.3,2.3,0.8,1.1,1.5c0,0-0.2-0.8-0.5-0.9c-0.4-0.2-0.2,0.5-0.4,0.4C235.8,42,235.7,41.9,235.5,41.5L235.5,41.5z
	 M234.2,42c0,0,0-0.2,0.2-0.1l0.7,0.7C235,43,234.3,42.1,234.2,42L234.2,42z"/>
<path id="bS" class="st0" d="M236.4,49.6c0.1,0.7-1.6,1.2-1.7,1.8c-0.1,0.8-2.6,1.4-2.7,2c0.1-0.6,1.4-1.7,1.9-2.1
	C234.4,51.2,236.3,49.1,236.4,49.6L236.4,49.6z"/>
<path id="bT" class="st0" d="M233.4,50.9c0,0.3-3.9,3.6-4.2,3.4C228.6,53.7,233.4,50.7,233.4,50.9z"/>
<path id="bU" class="st0" d="M229.8,52c-0.4,0.4-3.2,3.2-3.7,3c-0.3-0.2,3.1-3.7,3.9-3.3C230,51.7,230,51.8,229.8,52L229.8,52z"/>
<path id="bV" class="st0" d="M226.4,53.1c0.1,0.3-2.7,3.1-3.2,3.2C223.1,56.3,226.2,52.4,226.4,53.1L226.4,53.1z"/>
<path id="bW" class="st0" d="M223.2,54.4c-0.1,0.8-1.4,1.6-1.9,2.1c-0.2,0.3-1.1,1-0.7,0.1c0.2-0.3,2-2.6,2.5-2.5
	C223.2,54.2,223.2,54.4,223.2,54.4L223.2,54.4z"/>
<path id="bX" class="st0" d="M220.6,55.6c0.2,0.5-2.8,2.8-2.7,2.8C217.4,57.9,220.5,55.3,220.6,55.6z"/>
<path id="bY" class="st0" d="M257.2,51.2c-0.1-0.3-0.2-0.5-0.6-0.4c-0.2,0.3,0,1.1-0.5,1.1c0,0-1-1-1.3-1.2
	c-0.6-0.1-0.3,0.8-0.6,0.9c0,0-1.2-1.8-1.7-1.4c-0.4,0.3,0,0.8-0.7,0.4c-0.2,0-0.8-0.8-1.1-0.5c-0.2,0.5,0.2,0.8-0.4,1.4
	c0.2-0.3,0.3-0.9,0-1.1l-1.1,0.2c-0.1,0.5-0.9,0.4-1.2,0.3c-0.5-0.1-1.5,1.5-1.6,1c0,0-1.1-0.2-0.1,0.8c0.6,0.6,4.2,6.3,4.4,6.1
	c0.9-0.7-3.8-3.8-1.6-5.2c-0.2,0.1,0.2,1,0.5,1c0,0-0.1-0.3,0-0.3c0.4,0.2,2.2,2.4,2.1,2.9c0.1-0.5-1.1-2.4-1.5-2.6
	c-0.4-0.2-0.8-1.4,0.1-1.4c0.6-0.1,0,1,0.1,1.2c0.4,0.2,0.3-0.6,1,0c0.6,0.6,1.6,3,2.4,3.1c-0.2,0-3.3-3.9-2.4-4.4
	c-0.3,0.1,0.9,1.6,0.8,1.1c0.1-0.3,0.2-0.1,0.3,0c0.7,0.6,1.8,3,2.6,3.1c0.3,0-2.3-3.2-0.5-3c0.3,0-0.1,0.6,0.2,0.7
	c0.5,0.1,0.1-0.6,0.6,0.1c0.3,0.2,0.6,1.2,1.1,1.3s0.9,1.4,1.5,1.5c0.5,0.1-1-1.6-0.1-1.5c0.3,0,1.8,1.7,1.9,1.3
	c0.1-0.8-1.5-1.5-1.8-2.2c0,0,0.7-0.5,1-0.3c0.1,0.2-0.1,1.5,0.1,1.5s0.5-0.4,0.6-0.6l1.2,1.6c0.5-0.3,0.5-2.5,1.5-1.5
	c0.7,0.8-0.2,1.1,0.1,1.6c0.3,0.4,0.7-0.5,0.9-0.5c0.3,0,0.5,0.7,0.9,0.8c-0.6-0.1-0.2-1.8-0.2-2.1c0.1-1-0.8-0.1-0.9,0.4
	c-0.1-0.2-0.4-0.7-0.7-0.8c-0.3,0,0.3-0.9,0-1.1c-0.6-0.4-0.4,0.8-1.1,0.2c-0.4-0.4,0-1-0.5-1.2c-0.3-0.2-0.6,0.9-1,0
	c-0.1-0.3,0.1-0.5-0.4-0.5C258.6,53.3,257.4,51.8,257.2,51.2L257.2,51.2z M252.4,51.4c-0.2-0.5,0.4-0.6,0.5-0.1
	C253.1,52,252.5,51.8,252.4,51.4z M256.8,52.1c0.2-0.5,0.7-0.1,0.3,0.2C257,52.8,256.7,52.4,256.8,52.1L256.8,52.1z M254.7,51.9
	c0-0.2,0.2-0.3,0.4-0.3c0.3,0-0.3,0.8-0.4,0.7C254.5,52.2,254.5,52.1,254.7,51.9L254.7,51.9z M250.9,51.5c0.2-0.3,0.4-0.3,0.5-0.1
	s-0.3,1.1-0.5,1C250.6,52.3,250.8,51.5,250.9,51.5L250.9,51.5z M255.4,52.5c0.1-0.3,0.2-0.3,0.4-0.3c0.2,0.5-0.6,0.9-0.6,0.7
	C255.2,52.8,255.2,52.7,255.4,52.5z M249,51.3c0,0,0.7,0.8,0.1,0.5C249.1,51.6,249,51.4,249,51.3L249,51.3z M257.6,53
	c0-0.2,0.2-0.1,0.2-0.3C258.3,52.5,257.5,53.6,257.6,53L257.6,53z M253.2,52c0.4-0.4,0.6,0.3,0.4,0.5
	C253.4,52.9,253.2,52.4,253.2,52z M251.6,53.1c-0.3-0.4,0.2-1.3,0.6-0.9C252.5,52.6,252.1,53.5,251.6,53.1L251.6,53.1z M249.5,52.3
	c-0.1-0.2,0.3-0.6,0.4-0.6S249.6,52.6,249.5,52.3L249.5,52.3z M248.2,51.6c0.2-0.1,0.2-0.1,0.3,0.2
	C248.3,51.8,248.3,51.8,248.2,51.6L248.2,51.6z M256,53.2c0-0.3,0.4-0.4,0.5-0.3c0.1,0.3-0.6,1-0.7,0.7
	C255.9,53.5,256,53.4,256,53.2L256,53.2z M258.2,53.6l0.4-0.3c0.3-0.1,0.2,0.7,0,0.8C258.2,54.2,258.1,53.7,258.2,53.6L258.2,53.6z
	 M254,53.3c0.1-0.3,0.1-0.5,0.3-0.6C254.6,52.7,254.3,53.6,254,53.3z M256.8,53.8c0.2-0.1,0.2-0.3,0.4-0.4c0.2-0.1,0.1,1.2-0.3,1.1
	S256.7,54,256.8,53.8L256.8,53.8z M252.6,53.2c0-0.2,0.2-0.3,0.4-0.4C254.2,53.3,251.8,54.4,252.6,53.2L252.6,53.2z M250.2,52.5
	c0.3-0.6,0.6,0.6,0.2,0.8C250.2,53.3,250,52.8,250.2,52.5L250.2,52.5z M248.5,52.6c0-0.2,0.2-0.3,0.4-0.4
	C249.2,52.5,248.5,52.9,248.5,52.6L248.5,52.6z M247.1,52.4c0-0.2,0.2-0.3,0.2-0.3c0.2,0-0.1,0.8-0.3,0.8
	C246.9,52.8,246.9,52.7,247.1,52.4L247.1,52.4z M259,54.5c0.1-1,1.1-0.2,0.7,0.4C259.5,55.4,259,54.8,259,54.5z M254.8,53.9
	c0.1-0.3,0.1-0.5,0.4-0.3C255.1,53.9,254.9,53.9,254.8,53.9z M249.1,53.2c0-0.2,0.1-0.3,0.2-0.5C249.7,52.6,249,53.8,249.1,53.2
	L249.1,53.2z M247.7,53.1c0,0,0.3-0.8,0.4-0.6C248,52.7,247.6,53.6,247.7,53.1L247.7,53.1z M257.6,54.6c0.3-1.1,1.2,0.8,0,0.8
	l-0.4-0.5C257.2,55,257.6,54.6,257.6,54.6L257.6,54.6z M253.5,53.8c0.1,0,0.2-0.1,0.3-0.1c0.6,0.1-0.8,1.3-0.8,0.8L253.5,53.8
	L253.5,53.8z M260.2,55.1c0.4-0.6,0.5-0.2,0.9,0.1c0.3,0.4-0.3,1.1-0.5,1.4C260.6,56.8,259.8,55.7,260.2,55.1L260.2,55.1z
	 M255.3,54.4c-0.3-0.5,0.5-0.4,0.5-0.1C255.8,54.5,255.4,54.8,255.3,54.4z M248.1,53.5l0.1-0.3C248.3,53.1,248.2,53.7,248.1,53.5
	L248.1,53.5z M256,55.3c-0.4-0.5,0.5-0.4,0.5-0.1C256.6,55.6,256.2,55.4,256,55.3L256,55.3z M256.7,55.8c0-0.2,0-0.2,0.2-0.3
	c0.3-0.1,0.5,0.9,0.2,1C256.8,56.4,256.7,56.1,256.7,55.8z M247.7,54.3c0.2-0.1,0.2-0.1,0.3,0H247.7L247.7,54.3z"/>
<path id="bZ" class="st0" d="M264.7,57.8c0.1,0.3-0.6,1.7-0.8,1.3c-0.2,0,0.6-1.8,0.7-1.7C264.6,57.6,264.6,57.8,264.7,57.8
	L264.7,57.8z"/>
<path id="ca" class="st0" d="M251.9,57.7V58c-0.2,0.1-0.6-0.6-0.1-0.5C251.8,57.5,251.8,57.6,251.9,57.7L251.9,57.7z"/>
<path id="cb" class="st0" d="M237.9,51.9c0,0-6,4.8-5.8,5.3c0.1,0.3,3.5-3,4-2c0.2,0.5-1.4,0.4-1.4,0.6c-0.2,0.3,0.6,0.3,0.2,0.5
	c-0.4,0.4-0.9,0.8-1.3,1.3c-0.2,0.1-1.5,1.4-1.2,1.6c0.3,0.2,2.6-2.2,3.6-1.7c0.4,0.2-2.1,1.5-1.9,1.7c0.4,0.4-2.2,1.6-1.4,1.9
	c0,0,2.4-1.3,2.4-0.8c-0.1,0.5-1.7,1.7-2,1.8c-1.1,0.7-0.2,1.1,0.4,0.4c0.6-0.9,1.6-0.9,2.7-1c-0.2,0.5-0.8,0.9-1.2,0.8
	c-1.3,0-0.2,0.5-0.1,0.6c0.4,0.7-1.6,0.2-1.3,0.9c0.3,0.4-0.4,0.7-0.3,0.8c0.3,0.2,0.6-0.6,0.6,0.2c0.1,0.5-0.4,0.4-0.6,0.7
	c-0.3,0.8,1.4-0.4,1.4-0.4c0.5-0.4,1.4,0.4,2-0.2c0.7-0.5-1.4-0.5-1.2-0.8c0.2-0.5,0.9,0.1,1.3-0.3c0.4-0.6-0.4-0.4-0.4-0.7
	c0.1-0.5,1.3,0,0.9-0.8c-0.2-0.7-1.5,0.6-1-0.8c0-0.2,1.7-0.5,0.8-0.8c-0.6-0.3-1.4,0-2.1,0c0.6-1,1.3-0.1,2-0.7
	c0.9-0.5-0.7-0.8-0.7-0.8c0.1-0.5,1.4-0.6,1.3-1.1c-0.1-0.3-1.5,0.1-1.6-0.4s1.1-0.8,1.4-0.8c1.9,0.3-0.1-0.7-0.2-0.7
	c0.2-0.1,0.2-0.3,0.4-0.4c-0.1,0.6-2.2,0.6-2.6,0.6c0.6-1,1.6-0.9,2.5-0.9c1,0-1-1-1-0.6c0.1-0.5,1.7-0.7,1.8-1.5s-2.4,0.1-1.9,0.5
	l0.5,0.1c-0.4,0.3-1.3,0.3-1.6,0.2C235.2,54.9,237.8,51.9,237.9,51.9L237.9,51.9z M234.8,59.5c0.2-0.1,0.7-0.2,1-0.2
	c0.1,0.2-0.9,1-1.2,0.5C234.8,59.6,234.8,59.6,234.8,59.5L234.8,59.5z M235,63.4c0,0,1-0.3,1,0c-0.1,0.3-0.9,0.5-1.2,0.3
	C234.7,63.5,234.7,63.3,235,63.4L235,63.4z M234.3,64.2c0.3-0.1,0.5-0.2,0.6,0.1c-0.1,0.3-1.2,0.3-1,0.2
	C233.9,64.5,234.3,64.2,234.3,64.2z"/>
<path id="cc" class="st0" d="M235.6,65.7l-0.1,0.8c0.3,0.2,0.7-0.2,0.4,0.4s-1.9,0-2.1,1c0,0,2.4,0,1.3,0.7
	c-0.7,0.5-1.2,0.6-1.8,1.5c0.3,0,0.9,0.1,1.1,0.5c0.2,0.5-1,0.5-1,1.1c0,0,1.1,0.3,0.4,0.7l-1.7,0.6c0.2,0-0.7-0.6-0.7-0.6
	c-0.6-0.4,0.7-0.5,0.9-0.5c0.3,0,0.9-0.5,0.9-0.8c0.2-0.4-1.6-0.1-1.7-0.4c-0.2-0.7,1.2-0.3,1.2-0.5c0.1-0.5,0.8-1.2,1-1.5
	c-0.6-0.1-1.4,0.6-1.6-0.1c-0.1-0.3,2.1-1.3,1-1.5c-1.1,0,0.1-0.5,0.6-0.6C234.6,66.4,235.6,66,235.6,65.7L235.6,65.7z"/>
<path id="cd" class="st0" d="M233.2,73.4c-0.1,0.5-1.8,0.5-1.8,0.1C231.5,73,233.3,72.8,233.2,73.4z"/>
<path id="ce" class="st0" d="M246.2,57.3c0.4,0.5,2.6,3.9,2.1,4.2c-0.3,0.1-3-3.8-2.9-4.5C245.8,56.8,245.9,56.9,246.2,57.3
	L246.2,57.3z"/>
<path id="cf" class="st0" d="M245.6,59c0.3,1,1,2.1,1.6,3.1c0.3,0.4,0.7,0.9,0.8,1.2c0.1,0.2-0.4,0.6-0.5,0.1s-3-5-2.2-4.8L245.6,59
	L245.6,59z"/>
<path id="cg" class="st0" d="M245.7,62.1c0.4,0.5,2.9,4,2.6,4.4c-0.6,0.4-3.1-4-3-4.8C245.4,61.5,245.5,61.7,245.7,62.1L245.7,62.1z
	"/>
<path id="ch" class="st0" d="M226.4,57.9c-0.1,0.8-4.5,5.3-4.6,5.1c-0.4-0.4,4.4-5.8,4.5-5.5C226.4,57.7,226.4,57.9,226.4,57.9z"/>
<path id="ci" class="st0" d="M223.7,58.6c0.7,0.4-4.7,5.7-4.7,5.9C218.7,64.2,223.1,58.4,223.7,58.6L223.7,58.6z"/>
<path id="cj" class="st0" d="M221.1,60.7c0.1,0.5-2.1,2.4-2.4,2.9c0,0.2-1,1.6-1,1.6c0.2,0-1,1.5-0.7,0.4c0.3-0.8,0.9-1.8,1.5-2.5
	C218.8,62.4,221.1,60.2,221.1,60.7L221.1,60.7z"/>
<path id="ck" class="st0" d="M218.4,62.2c0,0.3-3.9,5.4-4,5.4c-0.6-0.1,1.4-3,1.4-3c0.4-0.6,0.8-1.2,1.4-1.7
	C217,62.9,218.5,61.4,218.4,62.2L218.4,62.2z"/>
<path id="cl" class="st0" d="M215.9,63.6c0.1,0.3-4,5.1-4,5.1C211.4,68.3,215.7,62.9,215.9,63.6L215.9,63.6z"/>
<path id="cm" class="st0" d="M213.5,64.4c-0.6,0.7-1.2,1.9-1.9,2.8c-0.2,0.3-2.1,2.4-2,2.6c-0.3-1.2,1.7-3,2.3-3.7
	c0.2-0.3,0.8-0.8,0.8-1.2C212.9,64.5,213.7,64.3,213.5,64.4L213.5,64.4z"/>
<path id="cn" class="st0" d="M258.1,61.6c0.3-1.1-0.9-0.5-1.1,0c-0.2,0.3,0.4,0.9-0.2,1.1c-0.5,0.1-0.2-1-0.2-1
	c0.4-1.6-0.5-0.1-0.8-0.1c-0.1,0-0.6,1.7-0.8,2c-0.7-0.9-0.1-1.2,0-2.1c0.1-0.5-0.6-0.1-0.6-0.1c-0.5,0.4-0.8-0.3-0.8-0.1
	c0,0,0.1,1.8-0.1,2.1c-0.6,1.5,0.6-0.1,0.6-0.1l1.2,1.8c0.4,0.6,0.8,1.3,1.2,1.8c0.3,0.4,2.3,3.9,2.8,3.8c0.3-0.1-2.7-4.4-3-4.8
	c-0.7-0.9-0.4-0.7-0.3-1.5c0.2-1.4,0.7,0.4,0.7,0.6c0.1,0.3,0.5,0.2,0.7,0.4c0.6,0.6,0.9,1.3,1.3,1.8s0.9,2.6,1.7,2.8
	c0.3,0.1-0.4-1.7-0.5-1.8c-0.4-0.5-0.1-1.6,0.3-0.9c0.5,0.9,0.8,1.9,1.5,2.8c0.5,0.7,0.3-0.6,0.8-0.7c-0.2,0,0.3,1,0.5,1
	c0.2-0.1,0.8-1,0.8-1c1.1,0.2,0.2,2.1,0.3,2.5c0.1,0.5,1.3-1.3,1.5-1.2c0.4-0.3,0.6,0.1,0.8,0l0.4-1.2l-0.5-0.1
	c-0.1-0.3,0.4-0.6,0.3-0.9c-0.1-0.2-0.5-0.1-0.4-0.4c0.1-0.5-0.3-1.2-0.4-1.5c-0.1-0.5-1.3-3.9-1.9-3.5c-0.3,0.1,1.3,2.1,1.2,2.6
	c0,0.3,0.4,2.6-0.8,2.4c-0.5-0.1,0.2-1.4,0.2-1.6c0-0.3-0.6-0.3-0.6-0.4c0-0.3,0.9-0.5,0.5-1.1c-0.4-0.7-0.5,0.4-0.9,0.5l-0.8-1.9
	c0-0.2-1.1-1.5-1.4-1.7c0,0-1.1,2.9-0.7,0.2c-0.1,0.5-1.5-0.5-1.6-0.9C259,61.7,257.6,63.3,258.1,61.6L258.1,61.6z M258.7,62.7
	c0.3-0.6,1-0.2,0.8,0.3c0,0.3-0.3,0.6-0.5,0.9C258.7,63.7,258.5,63.1,258.7,62.7L258.7,62.7z M261.3,63.6c0-0.3,0.2-0.5,0.5-0.4
	c0.3,0.2-0.2,1.1-0.3,1.2C261,64.5,261.3,63.6,261.3,63.6L261.3,63.6z M257,63.1c0.1-0.6,0.9-0.5,0.6,0.1
	C257.6,63.8,256.9,63.7,257,63.1L257,63.1z M255.5,63.5c0-0.3,0.2-0.5,0.4-0.7c0.4,0.2-0.1,1.9-0.3,1.7
	C255.3,64.3,255.5,63.9,255.5,63.5L255.5,63.5z M259.4,64.3c0.2-1.3,1.5-0.3,0.4,0.7C259.6,65.1,259.4,64.4,259.4,64.3L259.4,64.3z
	 M262,64.6c0.8-1.2,0.4,0.7,0.1,1.3C261.7,65.4,261.6,65.1,262,64.6z M257.9,64c0.3-0.6,1.1,0.5,0.5,1.2
	C258.1,64.9,257.6,64.5,257.9,64L257.9,64z M260.3,65.2c0.7-1.7,1,0.8-0.1,0.6C260,65.8,260.1,65.5,260.3,65.2L260.3,65.2z
	 M262.6,66c0-0.2,0.2-0.3,0.2-0.3c0.5-0.1-0.1,1.9-0.5,1.4C262.1,66.8,262.4,66.2,262.6,66L262.6,66z M258.8,65.3l0.4-0.3
	C260.4,65.2,258,66.8,258.8,65.3z M260.6,66.2c0.3,0.1,0.4-0.6,0.7-0.5c0.6-0.1,0.2,1.8-0.2,1.6C260.8,67.2,260.6,66.2,260.6,66.2
	L260.6,66.2z M259.4,66.5c0-0.2,0.2-0.3,0.4-0.3c0.5,0.1,0.2,1-0.3,0.9C259.4,66.9,259.3,66.7,259.4,66.5L259.4,66.5z M263,67.2
	c0-0.2,0.2-0.3,0.4-0.4c0.5,0.1-0.3,1.2-0.5,1.1C262.8,67.5,262.9,67.4,263,67.2L263,67.2z M264.5,68.9c0.1-0.5,0.6-1,1-1.5
	c0.2,0.7-0.3,1.9-1,2.3C264.6,69.9,264.5,69.1,264.5,68.9L264.5,68.9z M261.5,67.8c0-0.3,0.2-0.4,0.6-0.6c0.3,0.1-0.2,1.3-0.5,1.2
	C261.3,68.3,261.3,68,261.5,67.8L261.5,67.8z M263.1,68.7c0-0.2,0.3-0.8,0.4-0.7c0.5,0.2,0,1.3-0.2,1.6
	C263.5,69.4,263.1,68.9,263.1,68.7L263.1,68.7z M261.9,69.2c-0.3-0.2,0.3-0.8,0.5-0.9C262.6,68.3,262.2,69.5,261.9,69.2L261.9,69.2z
	 M265.4,69.7c0.2-0.1,0.2-0.3,0.4-0.4c0.3-0.1-0.3,1.2-0.6,0.9C265.2,70,265.4,69.9,265.4,69.7L265.4,69.7z"/>
<path id="co" class="st0" d="M253.3,62.1c0.2,0.5-0.8,1-0.7,1.3c0.2,0.5,0.6,1.1,0.9,1.4c0.4,0.5,3.8,5.6,3.8,5.6
	c-0.5,0.4-4.2-5-4.7-5.4c-0.5-0.7-0.9-0.5-1.1-1.4c-0.2-0.8,0.1-2.1,0.4-0.7C252.5,62.6,253,61.4,253.3,62.1L253.3,62.1z"/>
<path id="cp" class="st0" d="M228.4,60.3c0.1-0.6-1.3,0.9-1.4,1.1c-0.4,0.4-0.6,0.7-1,1.1c-1.1,1-1.8,2.3-2.8,3.5
	c-0.2,0.1-1.4,1.7-0.7,1.3c0.5-0.4,0.9-1,1.4-1.6c0.2-0.3,3.4-4.3,3.4-3.4c0.1,0.3-0.5,0.1-0.5,0.2c-0.2,0.3,0.1,0.7-0.3,1.1
	c-0.4,0.3-0.6,0.7-0.9,1c-0.8,0.9-1.4,1.6-2.1,2.4c-0.2,0.3-1.3,1.3-1.4,1.7s2.2-2.1,2.6-2.5c0-0.2,0.8-1.2,1.1-0.7
	c0.1,0.3,1.4-0.4,1.3,0c-0.1-0.3-2.2,1.9-2.2,2.1c-0.4,0.3-3.5,2.9-2.9,3.3c0.2,0,2.6-2,2.6-2.4c0.2-1.1,2.1-0.8,2.7-0.9
	c-0.4,0.4-0.7,0.7-1.2,0.6c-1.4-0.1-0.2,0.4-0.4,0.7s-1.8,1.5-2.2,1.8c-0.2,0.1-2.4,1.9-2.1,1.9c0.5-0.1,4.7-3.7,5.2-2.5
	c0.3,0.4-1.7,0.4-1.7,0.4c-0.5,0.2,0.2,0.7,0.4,0.5c-0.3,0.6-5,2.6-4.9,3c0.3,0.5,1.9-0.5,2.2-0.7c0.5-0.4,0.5-0.4,1-0.2
	c0,0,1,0,0.8,0.1c-0.5,0.2-3.9,2.2-4.1,2c0.4,0.5,2.3-0.3,2.8-0.6c0.4-0.3,1.1-0.8,1.3-0.3c0.3,0.4-0.1,0.6-0.4,0.7
	s-1.7,0.4-1.7,0.9c-0.1,0.5-2,0.2-2.1,0.8c0,0.2,3.6-0.6,3.5-0.1c-0.1,0.6-4.1,0.7-4.3,1.6c-0.1,0.6,1.9,0,1.9-0.2
	c-0.3,0.8-2.4,1.1-2.5,1.6s2.7-0.6,2.8-0.6c0.8,0.1,1.5-0.6,2.6-0.3c-0.1,0-1.4,0.4-1.7,0.6c-1.2-0.3-1.5-0.6-2.3,0.1
	c-0.4,0.4-2.3,0.5-2.1,1.1c0.1,0.3,0.5,0.7,0.9,0.8c1.6,0.1,3.9-0.1,5.1-1c0.4-0.3,1.8-1.5,2.5-1.4c0.3,0,0.9-0.8,0.8-0.9
	c-0.6-0.1-0.9,0.5-1.4,0.8c-0.2,0.1-1.4,0.9-1.3,0.3c0.1-0.3-0.4-0.4-0.4-0.2c0.4-0.8,1.3-0.3,1.8-0.4c0.7-0.2-0.1-0.5,0.5-0.9
	c1.9-1.2-1.2-0.7-1-1c0.3-0.6,1.1-0.2,1.5-0.4c0.2-0.1,0.1-0.6,0.4-0.7c0.2-0.1,1.3-0.9,1.3-1.1c0,0-2.2,0.5-1.8,0.1
	c0-0.2,1.1-1,1.1-1c0.9-0.5-0.1-1.3-0.6-1.2c0.2-0.1,1.1,0.3,1.3-0.1c0.1-0.5-0.6-0.3,0-0.8c0.8-0.9-0.1-0.7-0.5-1
	c-0.3-0.4,1.1-0.2,1.2-0.5c-0.1-0.7-1-0.6-1.3-0.7c-0.8,0-1.8-0.1-2.7-0.1c0.5-0.4,1.1-0.7,1.7-0.7c1,0,0.7,0.6,0.6,0.6
	c0.2-0.1,0.5-0.3,0.9-0.4c0.3,0.2,0.8,0.3,1.1,0.3c0.3-0.1,0.1-0.6-0.2-0.7c-0.6-0.4-1.7-0.4-2.5-0.5c0.5-0.4,0.9-0.7,1.5-0.6
	c1.3,0.2,0.1,0.3,0.6,0.6c0.3,0.2,0.9-0.5,0.4-0.9l-0.9-0.3c0.1-0.3,1-0.5,0.3-1.1c-0.1-0.2-1.4-0.4-1.4-0.4c0,0.2,2.5-0.6,1.1-0.8
	c-0.2,0-2.9,0.1-2.9,0.1c0.2-1.6,3.2,0,3.8-0.7c0.4-0.6-2.1-0.7-2.5-0.5c0.4-0.4,3.3-0.5,2.9-1.2c-0.1-0.2-1.3,0.1-1.6-0.1
	c0,0,1.5-0.4,1.4-0.8c-0.2-0.8-1.9,0-2-0.3c-0.1-0.2,0.9-0.7,0.9-1L228.4,60.3z M227.3,62.2c0-0.2,0.5-0.1,0.5-0.1
	C228.1,62.4,227.3,62.5,227.3,62.2L227.3,62.2z M226,66.7c0.7-0.5,1.5-0.4,2.3-0.3c-0.5,1.1-1.7,0.9-2.7,0.7
	C225.7,67,225.8,66.8,226,66.7L226,66.7z M226.6,70.5c0.2-0.1,1.4-0.4,1.4,0.1c0.1,0.3-1.9,0.5-1.8,0.2
	C226.4,70.6,226.4,70.5,226.6,70.5L226.6,70.5z M227.2,71.7c0.2-0.1,1-0.3,1.3-0.1c0.4,0.5-2,0.7-1.7,0.4
	C226.9,71.8,227,71.9,227.2,71.7L227.2,71.7z M225,71.6c0.2-0.1,2-0.5,1.9-0.2c-0.1,0.5-2.1,1-2.3,0.6
	C224.8,71.8,224.8,71.7,225,71.6L225,71.6z M225.8,72.6c-0.1-0.3,0-0.3,0.5,0.1C226.1,72.8,225.9,72.8,225.8,72.6z M226.4,72.9
	c0-0.2,0.5-0.1,0.5-0.1C227,72.8,226.3,73.2,226.4,72.9L226.4,72.9z M224,72.7c0.1,0,1.1-0.2,1.1,0s-1.3,0.1-1.4-0.1
	C223.7,72.5,223.9,72.5,224,72.7L224,72.7z M226.3,73.7c0.5-0.4,1.1,0,1.7,0.3c-0.2,0.1-2.2,0.5-2.1,0L226.3,73.7z M224.5,73.6
	c0.5-0.2,1-0.3,1.5-0.1c-0.2,0.3-1.8,1.2-2,0.5L224.5,73.6L224.5,73.6z M224.6,74.9c0.7-0.4,1.3-0.1,2.1,0.1c-0.7,0.2-1.5,0.3-2.3,0
	L224.6,74.9L224.6,74.9z M225.4,76c0,0,1.3-0.1,1.1,0.3C226.3,76.4,225.1,76.1,225.4,76L225.4,76z M223.2,75.8
	c0.5-0.2,1.3-0.1,1.9,0C224.6,76,222.9,75.9,223.2,75.8L223.2,75.8z M224,76.7c0.2-0.1,1.3-0.1,1.3,0c0,0-2.1,0.8-1.9,0.8
	C222.6,77.5,224,76.7,224,76.7z M223.8,78.2c0.2-0.1,1.9-0.2,1.9,0C225.7,78.6,223.1,78.4,223.8,78.2L223.8,78.2z M221.8,77.9
	c0.5-0.1,1,0,1.5-0.1c-0.5,0.4-1.4,0.6-2,0.2C221.3,77.8,221.5,77.7,221.8,77.9L221.8,77.9z M222.9,80.1l1.4,0.2
	c-0.4,0.6-4.3,0.5-4.2,0.3C220.3,80.2,222.6,80.1,222.9,80.1L222.9,80.1z M219.3,80.9c0.2-0.1,0.3-0.1,0.6,0.1
	C220,81.3,219.2,81.2,219.3,80.9L219.3,80.9z"/>
<path id="cq" class="st0" d="M250.7,66.8c0.6,1.4,1.9,2.5,2.8,3.8c0.4,0.5,1.6,2.5,2.2,2.6c0.3,0,0.8,0.8,0.4,0.9
	c-0.8,0.2-3.3-3.7-3.9-4.3c-0.7-0.7-1.2-1.6-1.7-2.4C250.2,66.9,250.4,65.8,250.7,66.8L250.7,66.8z"/>
<path id="cr" class="st0" d="M251.7,69.9c0.9,1.3,2,2.6,3,3.7c0.4,0.5,2.2,1.6,2.1,2.4c0,0-1.6-1-1.7-1.2c-1-1-1.9-2.1-2.8-3
	c-0.7-0.9-1.4-1.7-1.9-2.7C250.1,67.9,251.7,69.7,251.7,69.9L251.7,69.9z"/>
<path id="cs" class="st0" d="M251.2,71.1c0.6,1.1,1.5,1.8,2.3,2.6c0.6,0.6,3.7,3.1,3.6,3.8c0,0.2-3-2.4-3.4-2.8
	c-0.7-0.6-3.4-3.1-3.3-4C250.5,70.2,251.2,71.1,251.2,71.1z"/>
<path id="ct" class="st0" d="M251,72.7c0.8,1.1,1.8,2.2,2.7,3.1c0.3,0.4,2.9,2.9,2.9,2.9c-0.9,0.3-3.3-2.4-3.6-2.9
	c-0.4-0.7-1.3-1.3-1.8-1.9C251,73.5,250.2,71.6,251,72.7L251,72.7z"/>
<path id="cu" class="st0" d="M215.8,69.4c0.4,0.2-1.4,2.7-1.7,2.7C213.8,72,215.1,69.1,215.8,69.4L215.8,69.4z"/>
<path id="cv" class="st0" d="M214.2,70.9c0.1,0.2-1.5,3.3-1.9,3.1C211.7,73.6,213.9,70.2,214.2,70.9L214.2,70.9z"/>
<path id="cw" class="st0" d="M212.4,72.3c0.1,0.2-1.5,2.8-1.9,2.8C209.9,75,212,71.2,212.4,72.3z"/>
<path id="cx" class="st0" d="M210.8,73.2c-0.1,0.5-1.5,3.5-1.8,3.6c-0.6,0.1,1-4.4,1.7-3.8C210.7,73,210.6,73.1,210.8,73.2
	L210.8,73.2z"/>
<path id="cy" class="st0" d="M208.8,74.5c-0.1,0.6-1.2,3.7-1.7,3.9c-0.2,0,1-4.7,1.8-4.3L208.8,74.5L208.8,74.5z"/>
<path id="cz" class="st0" d="M207.2,75.5c0.2,0.5-1,2.4-1.2,2.9c0,0.3-1.3,3-1.4,2.9c-0.7-0.6,1.4-3.2,1.2-4
	C205.7,76.9,207,75.2,207.2,75.5L207.2,75.5z"/>
<path id="cA" class="st0" d="M263.8,74.9c0.4,0.5,4.1,4,4,4.3c-0.3,0.6-6.2-4.5-5-5.4C262.9,73.6,263.6,74.9,263.8,74.9z"/>
<path id="cB" class="st0" d="M265.4,74.8c0.1,0.2,1.6,3,1.6,3c-0.6,0.1-2.1-2.1-2-2.6c0-0.3-0.8-0.8-0.5-1
	C264.9,73.8,265.3,74.6,265.4,74.8L265.4,74.8z"/>
<path id="cC" class="st0" d="M261.6,74.4c0.4,0.5,3.2,3.2,3.1,4c0,0.3-2.1-1.9-2.4-2.1c-0.4-0.5-1-1.1-1.3-1.8
	C260.7,74,261.2,73.9,261.6,74.4z"/>
<path id="cD" class="st0" d="M218.7,71.8c-0.1,0.6-3.3,1.8-3.3,1.8C215.5,72.7,218.7,71.4,218.7,71.8z"/>
<path id="cE" class="st0" d="M217.1,73.9c-0.1,0.6-3.7,2.2-3.8,1.9c-0.2-0.5,3.9-2.2,3.9-2.2L217.1,73.9L217.1,73.9z"/>
<path id="cF" class="st0" d="M217.2,75.1c-0.1-0.3-2.1,1-2.7,1c-0.3,0.1-4.2,1.2-3.6,1.7c-0.1-0.2,2.3-0.5,1.9,0
	c0,0-3.7,1.2-3.3,1.6c0.3,0.4,2-0.7,2.5-0.6c0.2,0,1.9,0.1,1.9,0.1c-0.9,0.5-2.3,0.2-3.1,0.5c-0.5,0.1-2.9,1.5-2.9,1.5
	c0.4,0.4,1.7-0.6,2.2-0.5c0.8,0.1-0.9,0.8-0.8,0.8c-0.3-0.1-2.9,0.9-2.9,0.9c0.3,0.4,2.3-0.5,2.8-0.2c-0.5-0.1-2.8,0.7-3.4,0.9
	c-0.7,0.5,0.1,0.5,0.4,0.4c0.8-0.2,1.7-0.6,2.5-0.8c0.3-0.1,3.4-0.5,3.4-0.3c0.1-0.3,2.3-0.2,2-0.5c0,0-0.8-0.1-0.8-0.3
	c0,0,1-0.5,0.4-0.7c-0.3-0.1-0.4-0.2-0.9-0.3c-0.1,0-2.4,0.3-2.6-0.1c-0.1-0.5,4.5-0.3,4.5-0.1c0.1-0.5-1.2-0.8-1.5-0.9
	c0.2,0,2.3-0.5,1.9-0.8c-0.3-0.2-1.7-0.3-1.7-0.4c0.1-0.5,2.6,0.1,2.2-0.7c-0.4-0.9-1.4-0.2-2.2-0.3c-0.1-0.2,1.5-0.3,1.2-0.3
	c0.6-0.1,1.4,0.2,2.1,0.1c0.8,0-0.2-0.8-0.7-0.6C216.5,76,217.4,75.6,217.2,75.1L217.2,75.1z M211.2,81.1c0.4-0.3,2-0.2,2.2,0.2
	c0.1,0.3-2.7,0.1-2.7,0.1C210.9,81.2,211,81.3,211.2,81.1L211.2,81.1z"/>
<path id="cG" class="st0" d="M260.5,78.6c0.5,0.7,5.3,3,5.3,3c-0.4,0.7-5.9-2.2-5.8-3.1C260.4,78.3,260.4,78.3,260.5,78.6
	L260.5,78.6z"/>
<path id="cH" class="st0" d="M261.5,80.4c0.8,0.3,1.5,0.9,2.2,1.1c0.4,0.2,2.1,0.6,1.3,1.2c-0.4,0.3-4.2-2.2-4.1-2.5
	C261.2,80.3,261.4,80.4,261.5,80.4L261.5,80.4z"/>
</svg>
