<?xml version="1.0" encoding="utf-8"?>
<!-- Generator: Adobe Illustrator 19.2.0, SVG Export Plug-In . SVG Version: 6.00 Build 0)  -->
<svg version="1.1" id="Calque_1" xmlns="http://www.w3.org/2000/svg" xmlns:xlink="http://www.w3.org/1999/xlink" x="0px" y="0px"
	 viewBox="0 0 99 116" style="enable-background:new 0 0 99 116;" xml:space="preserve">
<style type="text/css">
	.st0{fill:#BDBDBD;}
</style>
<path id="io" class="st0" d="M0.3,56.8c0.5,1.5,2.1,3.1,3.1,4.4c1.2,1.1,2.6,1.9,4.1,2.5c2.4,0.8,4.9,1.3,7.4,1.6
	c1.3,0.2,1-3.9,1.3-4.9c1.5-5.1,5.1-10.1,11-10c2.1,0,3.4,0.8,5.3,1.8c1.6,1,1.2,3.6,3.6,3.6c2.3,0,3.9,2,6.4,1
	c1.2-0.5,2.5-0.3,3.8-0.7c1.2-0.3,2.3-0.7,3.4-1.1c2.2-1.1,4.1-2.6,5.6-4.6c1.5-1.8,3.3-3.3,4.3-5.4c1.6-3.6,3.6-6.7,4.1-10.6
	c0.5-5.1,0.5-10.1-1.2-15C60.3,13.1,57,7.7,51,4.6c-2.7-1.4-5.5-2.6-8.4-3.4C38.3-0.2,33.9,0,29.5,0c-6.2,0.2-12,2.7-16.4,7
	c-1.8,2-3,4.3-3.6,6.9c-0.2,1.1-0.8,9.6,2.1,8.3c-0.1,1.3-0.4,2.5-0.8,3.8c-0.3,0.8-0.8,1-0.3,1.6c0.6,0.6,1.4,0.9,2.3,0.8
	c0.3,0,1.8-0.2,1.6,0.5c-0.1,0.8-0.4,1.7-0.7,2.5c-1.3,2-2.9,3.8-4.8,5.3c-2.1,2.1-4.6,4.7-5.7,7.3C1.6,47.8-0.8,52.5,0.3,56.8
	L0.3,56.8L0.3,56.8z M0.8,52.7c0.8-4.2,2.5-8.2,4.9-11.8c1.5-2.1,3.8-3.9,5.6-5.9c0.8-0.8,1.6-1.6,2.3-2.5c0.7-0.8,0.8-2,1.5-2.8
	c-0.1,0.3-0.2,0.7-0.2,1c-0.3,0.9-0.8,1.7-1.5,2.4c-0.6,0.8-1.3,1.6-2,2.3c-0.5,0.3-1.6,1.1-1.6,1.6c0,0.9-2.3,2.6-2.8,3.3
	C6.3,41.1,5.7,42,5.4,43c-0.3,0.8-0.7,1.6-1.2,2.3c-0.5,1-0.8,2-1.3,2.9c-0.3,0.8-2.8,9.2-1.6,9C0.3,57.2,0.8,53,0.8,52.7L0.8,52.7
	L0.8,52.7z M1.9,54.1c0.2,0.2,0.2,0.2,0,0.3C1.6,54.5,1.6,54.3,1.9,54.1L1.9,54.1L1.9,54.1z M2.3,53c0.5-0.2-0.2,1-0.3,0.5
	C1.9,53.3,2,53.1,2.3,53C2.3,53,2.3,53,2.3,53L2.3,53L2.3,53z M2.4,57.3c0.3,0.4,0.3,0.9,0,1.3C1.9,58.6,2.1,57.2,2.4,57.3L2.4,57.3
	L2.4,57.3z M2.1,56.3c0.2-0.2,0.4-0.3,0.6-0.3C3.6,56.8,1.4,57.4,2.1,56.3L2.1,56.3z M2.3,52.2c0.2-0.3,0.5-0.4,0.8-0.3
	c0.2,0.2-0.7,0.7-0.8,0.7V52.2L2.3,52.2z M2.6,54.8c0.5-0.5,0.8,0.7,0,0.7C2.3,55.1,2.3,55,2.6,54.8L2.6,54.8L2.6,54.8z M2.8,53.6
	c0-0.2,0.8-0.5,0.8-0.2C3.4,53.8,3.1,54,2.8,54C2.6,54,2.6,53.8,2.8,53.6L2.8,53.6z M3.1,50.5c0.1-0.2,0.3-0.4,0.5-0.3
	c0,0.5-1,1.3-1,1C2.7,50.9,2.9,50.7,3.1,50.5L3.1,50.5L3.1,50.5z M3.7,58.9c0.8-0.2,0.2,1.6,0.2,1.6C3.1,60.5,2.8,59,3.7,58.9
	L3.7,58.9z M3.3,57.4c0.2-0.4,0.7-0.6,1.2-0.7c0,0.3-0.5,2.5-1.3,1.6C3.1,58.1,3.3,57.7,3.3,57.4L3.3,57.4L3.3,57.4z M3.3,49.6
	c0.1-0.4,0.6-0.6,1-0.5c-0.3,0.5-0.7,0.8-1.2,1C2.9,49.9,3.1,49.7,3.3,49.6L3.3,49.6z M3.6,52.5h0.3c0.2,0.2-0.6,0.7-0.8,0.5
	C3.3,52.7,3.3,52.5,3.6,52.5z M3.7,55.8c0.4-0.2,0.8-0.4,1.3-0.3c-0.2,0.7-0.8,1.2-1.5,1.3C3.3,56.4,3.4,56,3.7,55.8
	C3.7,55.8,3.7,55.7,3.7,55.8L3.7,55.8L3.7,55.8L3.7,55.8z M3.9,47.9c0.2-0.1,0.4-0.1,0.7-0.2c0.5,0.3-0.8,1-1,0.7
	C3.6,48.2,3.7,48,3.9,47.9L3.9,47.9L3.9,47.9z M4.7,51c0.2,0.2-0.7,0.8-0.8,0.8C4,51.4,4.3,51.1,4.7,51z M4.1,54.3
	c0.3-0.5,1.2-0.2,1.3-0.7c0.5-0.7-1,0-1-0.3s2-0.8,2-0.7c-0.2,1.1-1,2-2.1,2.3C3.9,54.8,3.8,54.6,4.1,54.3L4.1,54.3L4.1,54.3z
	 M4.4,46.8c0.2-0.2,0.8-0.5,1-0.7C6.2,46.3,3.3,48.1,4.4,46.8L4.4,46.8L4.4,46.8z M4.9,49.9h0.3c-0.2,0.4-0.6,0.6-1,0.7
	C4.1,50.4,4.9,49.9,4.9,49.9L4.9,49.9L4.9,49.9z M4.7,59c0.2-2.3,1.3-4.4,2.1-6.4c1-2.3,2.8-4.6,3.6-6.9c0.3-1.1,1.6-2.3,2.3-3.1
	c1-1.3,2.1-2.5,3.3-3.8l2.3-2.8c0-0.2,1.5-3,1.6-2.8c0.5,0.3,0,1.2,0.8,1.3s-0.2,0.8-0.5,1.1c-1.3,1.3-2.8,2.6-4.1,3.9
	c-2.2,2-4.1,4.3-5.7,6.8c-1.5,2.6-2.8,5.3-3.8,8.2c-0.2,0.7-1.8,7-2.1,7C4.6,60.8,4.6,59.9,4.7,59L4.7,59L4.7,59z M4.9,48.9
	c0.3-0.3,0.7-0.4,1.2-0.5c-0.2,0.5-0.7,1.3-1.2,1C4.8,49.3,4.7,49.1,4.9,48.9L4.9,48.9L4.9,48.9L4.9,48.9z M4.9,45.4
	C6,43.1,7.4,40.9,9,38.9c2-2.3,4.8-4.4,6.2-7.2c0.2-0.3,0.3-1.6,0.6-1.6c0.7,0-0.2,1.5-0.3,1.8C15,33,14.3,34,13.5,35
	c-1.1,1.5-2.2,2.9-3.4,4.3c-0.5,0.5-0.8,1-1.1,1.3c-0.3,0.3-0.5,0.6-0.7,1C8.1,41.8,7.8,42,7.5,42c0.2,0.3,0.1,0.7-0.2,1
	c0,0-1.3,0.8-1,1c0.1-0.1,0.3-0.2,0.5-0.2c0.3,0.5-1.6,1.3-1.3,1.3c0.3-0.1,0.6-0.1,0.8,0C6,45.6,5.4,45.9,4.9,46
	C4.8,45.8,4.8,45.7,4.9,45.4L4.9,45.4z M5.2,51.8c0.4-0.3,0.9-0.5,1.5-0.5c0.3,0-1,1.5-1.8,1C4.7,52.2,5.2,51.8,5.2,51.8L5.2,51.8
	L5.2,51.8z M6.1,50.5c2.8-0.7-0.5,0.7-0.5,0.5c0-0.2,0.1-0.5,0.4-0.5H6.1z M5.5,47.6c0,0,1-0.5,1-0.2c-0.2,0.5-0.6,0.8-1.2,0.8
	C5.2,48,5.3,47.8,5.5,47.6z M6.2,59c1-4.4,2.8-10.1,5.8-13.7c2-2.3,4.1-4.6,6.2-6.7c1-1,2.5-2.8,3.9-3.3c0.5-0.2,0.8,0,0.8,0.5
	c0.2,1.1-0.8,1-1.5,1.5c-3.8,3.3-7.4,6.2-10,10.6c-1.3,2.3-2.4,4.8-3.3,7.4c-0.3,0.3-2.1,6.9-2.3,6.9C5.3,61.9,6.1,59.2,6.2,59
	L6.2,59L6.2,59z M6.5,49.6c0.2,0,0.2-0.2,0.3-0.2C7,48.9,6.2,48.8,7,48.3c0.5-0.2,1-0.4,1.5-0.5c-0.3,0.2-0.8,2.9-2.5,2.3
	C5.7,49.9,6.3,49.6,6.5,49.6L6.5,49.6L6.5,49.6z M6.3,46.1c0.2-0.1,1.2-0.7,1.2-0.3C7.5,46.5,5.5,47.1,6.3,46.1L6.3,46.1L6.3,46.1z
	 M7.2,59.9c1.4-5.2,3.6-10.1,6.7-14.5c1.9-2.2,3.9-4.4,6.1-6.4c0.8-0.6,1.6-1.2,2.5-1.6c0.3-0.2,0.6-0.7,1-0.5c0.2,0.2,1.1,0.8,1,1
	c-0.4,0.2-0.8,0.4-1.1,0.5c-0.7,0.4-1.4,0.8-2,1.3c-0.5,0.3-3.1,2.3-3.1,2.3c-0.8,0.7-1.6,1.5-2.3,2.3c-0.8,1-1.5,2-2.1,3.1
	c-1.9,2.9-3.4,6.1-4.6,9.3c-0.5,1.6-1.3,2.9-1.3,4.7c0,0.3,0,1.6-0.7,1.3S7,60.4,7.2,59.9L7.2,59.9z M7.7,44.5
	c0.2-0.1,0.5-0.2,0.8-0.2c0.2,0.2-1.2,1.2-1.5,0.8C6.5,44.8,7.8,44.3,7.7,44.5L7.7,44.5L7.7,44.5z M7.8,47c0.4-0.3,0.9-0.5,1.5-0.5
	c0.5,0.3-2,1.3-2,1c0-0.2,0.1-0.5,0.3-0.5c0,0,0,0,0,0H7.8L7.8,47z M8.3,43.2C8.5,43.1,8.8,43,9,43c0.5,0.5-1.2,1-1.3,1
	C7.4,43.8,8.5,43.2,8.3,43.2L8.3,43.2L8.3,43.2z M8.5,45.5c0.5-0.2,1-0.3,1.5-0.3c0.3,0.2-1.6,1.2-2,1C8.1,45.9,8.2,45.6,8.5,45.5
	L8.5,45.5z M8.5,61.3c-0.7-1,1.1-4.4,1.5-5.2c0.8-2.1,1.8-4.1,2.9-6c1-1.9,2.1-3.8,3.4-5.6c0.9-1,1.9-2,3-2.8c0.8-0.5,1.6-1,2.3-1.6
	c0-0.2-0.2-0.2-0.2-0.3c1.8-0.3,2.6-2.5,4.3-0.8c0.3,0.3,1.3,1.8,0.5,2c-1.2,0.3-2.4,0.8-3.4,1.5c-2.1,1.5-4.1,3.1-5.9,4.9
	c-0.7,0.6-1.4,1.3-2,2.1c-0.3,0.7-1.6,3.1-2.3,3.3c0.5-0.2,1-2.8,1.8-3.1c0.3-0.4,0.5-0.8,0.6-1.3l1.5-2c1.2-1.3,2.4-2.6,3.8-3.8
	l2-1.5c0.8-0.5,2.8-1.2,3.3-2c0.3-0.5-1.6,0.3-1.8,0.5c-1.1,0.6-2.1,1.2-3.1,2C20,42,19.5,42.4,19,43c-1-0.3-1,1.3-1.1,1.5h-0.7
	c-0.5,0.4-0.9,0.8-1.2,1.3c-0.8,0.9-1.5,1.8-2.1,2.8c-1.1,1.6-2,3.4-2.6,5.2c-1,1.9-1.7,4-2,6.2c0,0.3-0.5,2-0.2,2.5
	c0.5,0.7,1.1-3.1,1.1-3.3c1-4.1,3.8-8,6.6-11c1.4-1.6,3-3,4.8-4.2c0.6-0.5,6.6-4.6,6.6-2c0-0.2-6.4,2.8-6.9,3.1
	c-2.8,1.7-5.1,4.1-6.7,6.9c-1.3,2.1-2.1,4.6-3.3,6.7c-0.7,1.5-0.5,3.4-1.1,4.7c-0.4,0-0.7-0.1-1-0.3C8,62.8,8.8,62,8.5,61.3
	L8.5,61.3z M8.7,42c0.2-0.2,1.5-1,1.6-0.7c0.5,0.5-2,1.3-2,1.2C8.5,42.3,8.5,42.2,8.7,42L8.7,42L8.7,42z M9.3,44.3
	c0.5-0.4,1.1-0.6,1.7-0.5c0.2,0-0.5,1.3-0.8,1.1c-0.3-0.2-0.6-0.3-1-0.3C9.2,44.5,9.3,44.4,9.3,44.3L9.3,44.3L9.3,44.3z M9.3,40.9
	c0.5-0.5,1.3-0.7,2-0.7c0.3,0.2-2.1,1-2.1,1C9.3,41.1,9.3,41,9.3,40.9L9.3,40.9z M10.6,42.7c0,0,1.6-0.3,1.6,0
	c0,0.5-2.3,0.8-2.3,0.7C9.8,43,10.3,42.7,10.6,42.7z M10.1,14c1.1-4.1,3.7-7.6,7.4-9.8c0.3-0.2,0.7-0.7,1-0.8c0.2-0.2,0.5,0.2,0.8,0
	c1.3-0.6,2.6-1.2,3.9-1.6C24.5,1.3,25.7,1.1,27,1c3.4-0.2,6.9-0.3,10.3-0.2c3.8,0.2,7.9,1.8,11.2,3.4c4.8,2.3,8.7,5.2,11,10.3
	c1.8,3.9,3.4,8.5,3.6,12.9c0.4,9.9-3.9,19.4-11.5,25.7c-2.3,2-5.9,2.3-8.7,2.9c-1.7,0.5-3.6,0.4-5.2-0.3c-0.3-0.2-3.4-0.7-3.1-1.6
	c0.5-1.5,1.2-2.3,0.7-4.3c-0.3-1.2,0.5-4.4-0.3-5.1c-0.8-0.8-0.8-2.5-1.5-3.4c-0.3-0.5-0.5-1.3-0.8-1.8c-0.4-0.7-0.8-1.4-1.1-2.1
	c-0.5-3.4-4.1-4.1-5.9-6.7c-0.8-1.1-1-3.1-2-3.9c-0.7-0.4-1.4-0.9-1.8-1.6c-0.3-1.1-1.3-1-2.1-1.1c-1.6-0.3-2.3-1.8-4.1-1.8
	c-1-0.3-1.9-0.7-2.8-1.1c0-1.1,2.9-2.1,3.6-2.6c0.5-0.3,3.4-1.3,3.4-2c0,0.2-5.9,2-5.9,2.5c0-1.3,3.4-2.6,4.3-2.9
	c0.7-0.3,0.2-0.6-0.3-0.5s-1,0.6-1.5,0.8s-2.6,1.6-2.9,1.5c0-0.8,1-1.5,0.6-1.8s-1.3,1.5-1.5,1.6S11,20,12,20c0.5,0,0.8-2,1.8-2
	c-0.3,0-1.5,2.3-1.6,2.6c-0.5,1-0.6,0.8-1.3,0C9.4,19.1,9.7,16,10.1,14L10.1,14L10.1,14z M10.6,39.2c0.2,0,1.6-0.5,1.6-0.5
	c0.2,0.5-1.6,1.1-2,1.1C10.2,39.6,10.3,39.3,10.6,39.2L10.6,39.2L10.6,39.2z M10.8,62.1c0.5-4.9,3.8-10.3,7.4-13.7
	c1.1-1.1,2.3-2.1,3.6-2.9c0.8-0.7,2.5-2,3.6-2c1,0,2.8-1.6,3.4,0c0.7,1.8-0.2,1.5-1.8,2c-2.1,0.7-4.9,1-6.7,2.3
	c-1.8,1.5-3.1,3.3-4.8,4.8c-1.8,1.8-2.5,5.1-3.3,7.4c-0.5,1.1-0.8,2.2-0.8,3.4c0,0.7-0.7,1-0.7,0.2C10.7,63,10.7,62.5,10.8,62.1
	L10.8,62.1z M11.3,41.3c0.6-0.4,1.4-0.7,2.1-0.7C14.1,41.2,9.6,43.3,11.3,41.3L11.3,41.3z M11.3,26.6c0.1-0.3,0.3-0.7,0.5-1
	c0.1,0.4,0.2,0.8,0.2,1.1C11.9,27.5,10.6,27.2,11.3,26.6L11.3,26.6L11.3,26.6z M11.8,37.9c0.2-0.2,1.6-1.2,2-0.8
	c0.5,0.5-2.3,1.6-2.3,1.3C11.4,38.2,11.6,38,11.8,37.9L11.8,37.9L11.8,37.9z M12.3,60.8c0.7-2.1,1.6-4.2,2.6-6.2
	c1.1-2.4,3.1-4,5.3-6c1.6-1.5,4.1-2,6.2-2.5c0.5-0.1,2.8-1.1,3.1-0.3c0.5,1.3-0.2,2-1.5,1.8c-4.9-0.7-9.2,2.1-11.6,6.2
	c-1.6,2.6-3.8,6.7-3.4,9.8c0-0.3-0.5,0.8-0.5,0.8C11.8,64.5,12.6,61.2,12.3,60.8L12.3,60.8z M12.9,39.7c0.5-0.1,1.1-0.2,1.6-0.2
	c-0.3,0.5-2.5,0.8-2.5,0.5C12.3,39.8,12.6,39.7,12.9,39.7L12.9,39.7z M12.4,26.1c0,0-0.2-1,0.2-1c0.5,0-0.3,2.8-0.3,2.5
	C12.2,27.1,12.3,26.6,12.4,26.1L12.4,26.1L12.4,26.1z M12.3,23.4c0.3,0,0.3,1.6,0.2,1.6C12.2,24.5,12.2,23.9,12.3,23.4L12.3,23.4
	L12.3,23.4z M12.8,21.7c3.1-0.5,2,4.1,2.3,6c0.2,0.6,0.7-0.3,0.7-0.6c-0.3-1.1,0.2-3.3-0.5-4.3c0,0,0.7-0.6,0.7,0v2.8
	c0,0.5-0.2,2.6,0.3,2.9c0.2-1.9,0.2-3.8,0.2-5.7c2.3,0.2,1.8,2.9,1.8,4.6c0,0,0,2.1,0.5,1.3c0.3-0.5,0-1.6,0-2.3
	c0-0.2,0-3.4,0.5-2.1c0.2,0.6,0.2,5.6,0.3,5.4c0.6-0.3-0.3-6.9,1.3-5.2c1.1,1.3,0.7,2.9,0.5,4.6c0,0.2-0.3,2.5,0.3,2.1
	c0.3-0.2,0.2-1.1,0.3-1.5v-2.6c0,0,0.3-1.5,0.7-0.5c0.3,0.8-1,5.9,0,6.2c0.8,0.2-0.3-5.8,0.3-5.8c0.5,0,1.1,2.3,0.8,2.5
	c-0.1-0.1-0.2-0.3-0.3-0.3c-0.5,0.2-0.2,4.9,0,4.9c0.6,0,0.3-4.4,0.5-4.4c1.3,0.8,0.7,4.2,0.8,5.4c0,1,0.5,0.5,0.5-0.2v-2.2
	c0-0.2-0.3-1.3-0.3-1.6c0-0.2,1.3,0.8,1.1,1.5c-0.1,1.3-0.1,2.5,0.2,3.8c0.2,1,0.5-0.3,0.5-0.7c0-1.2-0.5-2.6-0.3-3.8
	c0,0.2,0.6,0.3,0.8,0.6c0.1,0.5,0.2,1,0.2,1.5c0,1,0.2,1.8,0.2,2.8c0,0,0,2.5,0.5,1.6s0-4.3-0.3-5.1c0.3,0.5,2.3,1.5,2.3,2.1
	c-0.2,1.1-0.2,2.3,0,3.4c0,0.5-0.2,1.8,0.5,1.8s-0.2-4.1,0-4.1c1.3,0,0.3,6.5,0.8,6.5c0.8,0,0.5-3.4,0.3-4.1c0.4,0.6,0.7,1.3,1,2
	c0.2,0.7-0.5,1.8-0.5,2.6c-0.2,4.1,1.2-1.3,0.8-1.5c1.5,0.7-0.8,4.7,0.2,5.4c0.7,0.5,0.5-3.3,0.5-3.6c1.2,0.7,0.3,3.3,0.3,4.6
	c-0.2,1,0.7,3.1,0.2,3.9c0,0.2-4.4-2.6-4.9-2.6c-0.8,0,0.5-1.5,0.7-1.6c1.1-0.8,0.8-1.5,0.3-2.8c-0.3-1.6-1-3-2-4.3
	c-0.3-0.3-3.4-4.9-3.8-4.6s-1.1-2-1.1-2c-0.5-0.5-2-0.3-2-1.5c0-0.8-2.5-1.6-3-2.3c-0.8-1.1-1.3-1.1-2.5-2c-1.3-0.8-1.3-1.8-1.5-3.3
	c0-0.5-0.8-3.9-1-3.8c-0.3,0.3,0.3,3.4,0.3,4.1c0,0.2,0.3,2.5-0.3,1.6c-0.7-0.5-0.4-2.6-0.4-3.4C13,23.6,12,21.7,12.8,21.7
	L12.8,21.7z M13.2,38.7c0.7-0.7,2-0.7,3-0.8c-0.6,0.8-2.1,1.8-3.3,1.3C13,39,13.1,38.8,13.2,38.7C13.2,38.7,13.2,38.7,13.2,38.7z
	 M13.9,36.1c0.2-0.1,0.4-0.2,0.7-0.2c0,0.3-1.5,0.5-1.5,0.5C13.3,36.2,13.6,36.1,13.9,36.1z M13.4,63.8c0.2,0,0.3,0.7,0,0.7
	S13.3,63.8,13.4,63.8L13.4,63.8L13.4,63.8z M13.4,62.4c0,0,0.8-2.5,0.8-2.6c0.1-0.4,0.3-0.9,0.5-1.3c0.3-0.8-0.2-0.5,0-0.8
	c0.5-0.9,1-1.7,1.6-2.5c0.3-0.7,0.8-1.3,1.1-2c1-1.4,2.3-2.6,3.8-3.4c0.7-0.5,4.6-2.3,5.1-1.3c-1.7,0.3-3.3,0.8-4.9,1.5
	c-1.4,0.8-2.6,1.9-3.5,3.3c-0.9,1.3-1.7,2.8-2.3,4.3c-0.3,0.5-2.1,6-2.1,6C13.2,63.5,13.4,62.2,13.4,62.4L13.4,62.4L13.4,62.4z
	 M14.9,34.6c0.2,0,0.5,0,0.7-0.2c-0.5,0.6-1.2,0.9-2,1C13.9,35.1,14.4,34.8,14.9,34.6L14.9,34.6z M14.2,63.6c0.2-1.2,0.5-2.4,1-3.6
	c0.2-0.3,1.1-2,1.1-2c0,0.8-0.8,1.5-0.8,2.3c0,0.7-0.3,1.3-0.3,2c0.1,0.7,0.1,1.3,0,2C14.7,65.1,14.1,64.3,14.2,63.6L14.2,63.6
	L14.2,63.6z M15,36.6c0.8-0.5,3.1-0.5,1.5,0.8c-0.8,0.2-1.6,0.3-2.5,0.3C14.2,37.2,14.6,36.8,15,36.6L15,36.6L15,36.6z M15.2,33.3
	c0,0,1.1-0.8,1.1-0.3c-0.1,0.7-0.8,1.2-1.5,1.2C14.5,34.1,15.4,33.1,15.2,33.3L15.2,33.3z M15.7,35.6c0.3-0.2,2.6-0.5,2.6-0.8
	c0-1-1.8,0.2-2.1,0c-0.5-0.3,2.5-1.1,2.5-1.3c0-0.7-1.6,0.3-1.8,0.3c-0.5,0,2.5-2.9,2.6-0.8c0,0.5-1.1,2.9-1.6,2.9
	c-0.2,0-2.3-0.2-2.1-0.2C15.5,35.8,15.5,35.6,15.7,35.6C15.7,35.6,15.7,35.6,15.7,35.6z M15.9,32.2c0.5,0,0.5-2,1-2
	s-0.3,2.6-1.1,2.5C15.5,32.9,15.9,32.2,15.9,32.2L15.9,32.2z M17.5,31.5c0.3,0,0.3,0.2,0.2,0.5C17.4,31.9,17.4,31.7,17.5,31.5
	L17.5,31.5L17.5,31.5z M18.2,54c1-1.3,2.3-3.1,3.9-3.9c0.5-0.3,5.6-1.5,5.6-1.1c0-0.3-1-0.2-1-0.5s2.1-0.8,1.5,0.5
	c-0.5,1.2-2.1,0.5-3.1,0.8C23.4,50.2,22,51,20.6,52c-0.5,0.3-3,2.3-3,2.9C17.7,54.6,17.9,54.2,18.2,54C18.2,53.9,18.2,54,18.2,54z
	 M21.5,51.7c0.2,0,0.2,0.2,0,0.2C21.3,52,21.3,51.9,21.5,51.7L21.5,51.7z M34.6,50.9V50c0,0.9,0,1.9-0.2,2.8c0-0.7,0-1.3,0.2-2V50.9
	L34.6,50.9z"/>
<path id="ip" class="st0" d="M11,16.9c0.5,0-0.2,1,0.5,1.1c0.3,0,0.5-1,0.7-1.3c1-1.1,3.1-1.6,4.4-2c1.5-0.3,1.3-1,0-0.5
	c-1,0.4-2,0.7-3.1,0.8c0.3-0.3,0.5-0.6,0.6-1c0.8-0.4,1.6-0.7,2.5-0.8c0.6-0.2,1.3-0.5,2-0.6s-1.1-0.3-1.5-0.2
	c-0.9,0.4-1.8,0.6-2.8,0.8c-0.3,0-0.2-0.5-0.8,0c-0.6,0.3-1.2,0.7-1.6,1.3C11.7,14.7,10.4,16.8,11,16.9L11,16.9z M12.1,15.2
	c0.2-0.3,0.5-0.5,0.8-0.6c-0.3,0.6-0.8,1.1-1.3,1.4C11.3,16.2,12.4,14.9,12.1,15.2L12.1,15.2z"/>
<path id="iq" class="st0" d="M11.1,14.3c-0.2-0.2,2.1-1.6,2.6-1.6c1.7-0.2,3.3-0.7,4.8-1.5c0.5-0.3-1.3,0-1.5,0
	c-0.5,0.2-3.4,1.3-3.8,1c-0.5-0.5,1.8-1.6,2.1-1.8c1.3-0.3,2.6-0.2,3.8-0.5c0.3,0,1-0.5,0.3-0.6c-0.6,0-1.2,0-1.8,0.2
	C16.3,9.5,15,9.7,13.6,10c1.1-1.3,2.8-1.6,4.6-2c0.3,0,2.6,0,2.6-0.7s-2.8,0.3-3.1,0c-0.8-0.5,3-1.3,2.8-1.2c0.2,0,1.6,0,1.6-0.3
	c0.2-0.5,1-0.7,1-1s-2.8,0-3.1-0.3c-0.2-0.2,1.6-0.8,1.8-0.8c0.5,0,2.3,0.2,2.5,0.5c0,0.2,4.7,1.5,4.7,1.5c0.5-0.5-4.1-1.5-4.3-1.6
	s0.3-0.7,0.5-0.7c0.6,0,1.3,0.2,1.8,0.5c1.1,0.5,2.1,1,3.1,1.5c1.1,0.5,0-0.5-0.3-0.8c-0.9-0.6-1.9-1-3-1.5c0.6-0.2,5.3,2,5.3,2
	c0-1.5-6.4-2.6-6.4-2.6c0.2,0.2,0.4,0.4,0.7,0.5c-0.8-0.2-1.6-0.1-2.3,0.3c-0.6,0.3-1.5,0-2.1,0.2c-0.8,0.1-1.7,0.3-2.5,0.7
	c-0.4,0.1-0.7,0.3-1,0.7c-0.3,0.3,0.2,0.5,0,0.7c-0.2,0.5-2.1,0.8-2.6,1.1c-0.6,0.5-1.1,1.1-1.3,1.8c-0.7,1-2,1.5-2.3,2.4
	c-0.5,1.1,1.1-0.2,1.1-0.2C13.9,11.1,10.1,13.5,11.1,14.3L11.1,14.3z M15.7,7.4c0.2-0.2,1.3-1,1.5-0.3c0.2,1-1.5,1.1-1.5,0.7
	L15.7,7.4L15.7,7.4L15.7,7.4z M19.8,5.4c0.2-0.2,2.3-0.4,2.3,0c0,0.5-2.8,0.3-2.6,0.2C19.6,5.6,19.7,5.5,19.8,5.4z"/>
<path id="ir" class="st0" d="M15.2,20.8c0.8,0,2-1.1,2.6-1.5c0,0,2-1.1,1.3-1.3c-0.5-0.2-1.3,0.6-1.6,0.8
	C17.4,19,14.4,20.8,15.2,20.8L15.2,20.8L15.2,20.8z"/>
<path id="is" class="st0" d="M17.2,21.3c1.1-0.4,2.1-0.9,3-1.6C20.5,19,16.2,20.3,17.2,21.3z"/>
<path id="it" class="st0" d="M18.8,22.1c0.5,0.2,1.3-0.6,1.6-0.8c0.2,0,2.3-1.3,1-1.1C21,20.3,18.2,21.8,18.8,22.1L18.8,22.1z"/>
<path id="iu" class="st0" d="M19,11.5c0.2,0,2,0.2,2-0.2C20.5,10.3,18.8,11.5,19,11.5z"/>
<path id="iv" class="st0" d="M19.8,10.3c0.2,0,3.1-0.2,2.1-0.5c-0.2-0.2-2.3-0.3-2.3,0.3L19.8,10.3z"/>
<path id="iw" class="st0" d="M20.1,9.2c0.5,0.2,2.6,0.5,3.1,0.2C23.7,8.7,19.3,8.8,20.1,9.2z"/>
<path id="ix" class="st0" d="M21,22.6c0.7-0.1,1.4-0.2,2-0.5C24.1,21.4,19.8,21.4,21,22.6z"/>
<path id="iy" class="st0" d="M21.5,8.4c0.3,0,2.5,0.5,2.6,0.2c0.3-0.3-2.6-1.1-2.9-0.5C21.1,8.4,21.1,8.4,21.5,8.4z"/>
<path id="iz" class="st0" d="M22.1,7.5c0.9,0.4,1.8,0.6,2.8,0.6c0.3,0-0.3-0.7-0.3-0.7c0.2-0.2,1.5,0.8,1.5,0.2c0-0.5-3.3-1.2-3.8-1
	c0.3-0.2-0.7,1.1-0.5,0.7C22,7.3,22,7.5,22.1,7.5L22.1,7.5L22.1,7.5z"/>
<path id="iA-2" class="st0" d="M22.1,23.9c0.6-0.1,1.2-0.5,1.5-1C23.4,22.3,21.3,23.6,22.1,23.9z"/>
<path id="iB-2" class="st0" d="M22.9,6.4c0.8,0.2,1.6,0.2,2.3,0.3c0.4,0,0.7,0.1,1,0.3c0.5,0.3,0.6-0.2,0.5-0.3
	c-0.5-0.2-3.4-1.5-3.9-0.7C22.9,6.1,23,6.3,22.9,6.4L22.9,6.4L22.9,6.4z"/>
<path id="iC-2" class="st0" d="M23.1,25c0.5-0.1,1-0.4,1.3-0.8C24.1,23.5,22.4,24.7,23.1,25z"/>
<path id="iD-2" class="st0" d="M23.8,5.6C24.1,5.7,28,6.2,28,6.4C28.3,5.4,23.3,5.3,23.8,5.6z"/>
<path id="iE-2" class="st0" d="M24.4,26.4c0.5-0.2,1.3-0.6,0.3-0.8C24.1,25.5,23.3,26.5,24.4,26.4z"/>
<path id="iF-2" class="st0" d="M24.6,27.8c0.7,0.3,1.8-1,1.1-1C25.5,26.8,24.1,27.5,24.6,27.8z"/>
<path id="iG-2" class="st0" d="M27.9,2.5c0.5,0.2,5.7,2.3,5.6,2.8C33.8,4.1,30.6,3,30,2.6c-1-0.3-2-0.5-3-0.6
	C27.3,2.2,27.5,2.4,27.9,2.5L27.9,2.5L27.9,2.5z"/>
<path id="iH-2" class="st0" d="M29.3,1.6c1,0.5,2.1,1,3.1,1.5c0.3,0.2,2.1,1.6,2.6,1.6c1-0.2-6-4.4-6-3.4
	C29.1,1.5,29.2,1.6,29.3,1.6L29.3,1.6L29.3,1.6z"/>
<path id="iI-2" class="st0" d="M31.8,36.7c0.5,0.5,1.6-1.6,0.6-1.6C32,35.5,31.8,36.1,31.8,36.7L31.8,36.7L31.8,36.7z"/>
<path id="iJ-2" class="st0" d="M31.8,1.6c1,0,2.6,1.5,3.4,2.1c0.5,0.2,0.8,0.6,1.2,1c0.2,0.8,1.2,0.3,0.3-0.7
	c-0.8-0.6-1.6-1.1-2.5-1.5c0.2-0.2-1.2-0.8-1.3-1c-0.3-0.1-0.7-0.2-1-0.3C31.9,1.3,31.3,1.7,31.8,1.6L31.8,1.6L31.8,1.6z"/>
<path id="iK-2" class="st0" d="M32.9,38.3c0.8,0.3,1-1.8,0.7-2C33.3,36.3,32.6,38.1,32.9,38.3z"/>
<path id="iL-2" class="st0" d="M34.1,39.8c0.5,0.5,1.8-2.3,1-2.6C34.9,37.1,33.8,39.4,34.1,39.8z"/>
<path id="iM-2" class="st0" d="M34.2,1.6c1,0.5,1.8,1.1,2.6,1.8c0,0.5,1.5,0.8,1.6,1.5s1,0,0.7-0.3c-0.9-1-2-1.8-3.1-2.5
	c-0.3-0.4-0.7-0.6-1.2-0.8C34.7,1.5,33.8,1.6,34.2,1.6z"/>
<path id="iN-2" class="st0" d="M34.9,42.2c0.3,0.2,2-3.9,1.5-3.9C36,38.3,34.4,41.9,34.9,42.2L34.9,42.2L34.9,42.2z"/>
<path id="iO-2" class="st0" d="M35.9,43.5c0.5,0,1.6-3.8,1.3-3.9C36.7,39.4,35.1,43.5,35.9,43.5z"/>
<path id="iP-2" class="st0" d="M36.2,53.8c0.2,0.2,0.5-0.3,0.7-0.3c-0.1,0.2-0.2,0.4-0.2,0.7c0.3,0.3,0.7-0.7,0.8-0.8
	c0.5-0.8,1-1.6,1.3-2.5C40,47.1,35.9,53.5,36.2,53.8L36.2,53.8L36.2,53.8z"/>
<path id="iQ-2" class="st0" d="M36.2,1.8c1.4,0.8,2.6,1.7,3.8,2.8c0.3,0.3,1.2,1.5,1.5,1.3C42.1,5.3,39,3.3,39,3.3
	c0.2-0.3-1.2-1-1.2-1C37.5,1.8,35.6,1.5,36.2,1.8L36.2,1.8L36.2,1.8z"/>
<path id="iR-2" class="st0" d="M36.5,52c0.7,0,2-3.6,1.3-3.8C37.7,48.3,36,52,36.5,52z"/>
<path id="iS-2" class="st0" d="M36.5,46.5c0.7,0,1.3-3.1,1.5-3.4c0,0.2,0.8-2.5,0-2.1C37.5,41.1,36.7,46.5,36.5,46.5z"/>
<path id="iT-2" class="st0" d="M37.5,54.5c0.2,0,1.5,0.8,1.5,0.5c0-0.2,0.8-1.8,1.2-1.8c0.6-1,1.1-2.1,1.5-3.2
	c0.5-1.5,0.9-3.1,1.2-4.7c0.3-1,0.2-2.3-0.3-0.7c-0.4,1.3-0.8,2.7-1,4.1c0,0.3-1.5,3.4-1.8,2.8c-0.5-1,0.5-3.1,0.8-3.9
	c0.2-0.8,0.5-1.6,0.7-2.5c0.1-0.6,0.2-1.2,0.2-1.8c-1,1-1.2,3.9-1.6,5.4C39.5,49,38.2,54.6,37.5,54.5L37.5,54.5z M38.7,54
	c0-0.2,0.7-1.2,0.8-1l-1,1.8C38,54.8,38.6,53.8,38.7,54L38.7,54z"/>
<path id="iU-2" class="st0" d="M38.3,47.3c0.3,0.2,2.3-5.1,2.1-5.7c-0.2-0.8-1.2,2-1.2,2.1C39.2,44.2,38,47.1,38.3,47.3L38.3,47.3
	L38.3,47.3z"/>
<path id="iV-2" class="st0" d="M39.3,2.5c0.8,0,3.9,4.4,4.3,4.3c0.8-0.5-3.8-4.9-4.3-4.6C39.2,2.3,39.2,2.5,39.3,2.5z"/>
<path id="iW-2" class="st0" d="M39.7,55.3c0.3,0.3,0.5-0.3,0.8-0.3c0.3-0.2,0.7,0.7,1.3,0.2c0.6-0.8,1.1-1.7,1.5-2.6
	c0.3-0.5,2-7.7,1.3-7.8c0,0-1.5,8.8-3.3,9.2c0.3,0,1-2.5,0.7-2.3C41.5,51.4,39.3,55,39.7,55.3L39.7,55.3L39.7,55.3z"/>
<path id="iX-2" class="st0" d="M41.9,3.1c0.5,0,1.6,2,2,2.3c0.4,0.6,0.8,1.2,1.3,1.8c0.3-1-1.5-2-1.5-2.9c-0.3-0.7-0.7-1.3-1.3-1.8
	C42,2.1,41.8,3.1,41.9,3.1L41.9,3.1L41.9,3.1z"/>
<path id="iY-2" class="st0" d="M42.6,55c0.3,0,0.3-0.5,0.7-0.7l-0.5,1.3c1.3,0.2,1.8-4.1,2.6-4.7s1-6.7,1-6.7c-1,0.2-0.7,5.4-1,6.4
	C45.2,50.6,41.6,55.2,42.6,55L42.6,55L42.6,55z M43.8,53.5c0.1,0.1,0.1,0.2,0,0.3c0,0.1-0.1,0.1-0.2,0.1
	C43.6,53.7,43.6,53.5,43.8,53.5L43.8,53.5z"/>
<path id="iZ-2" class="st0" d="M44.1,3.6c0.2,0.3,2.5,4.1,2.3,4.1c0.8-0.2-0.5-2.4-0.5-2.6c-0.2-0.2-2-2.5-2-2
	C43.9,3.3,44,3.4,44.1,3.6L44.1,3.6z M44.4,3.3c0.2,0,0.2,0.2,0.2,0.3C44.4,3.5,44.2,3.5,44.4,3.3z"/>
<path id="ja" class="st0" d="M44.7,54.6c0.3,0,0.5-0.8,0.7-1c0.4,0.1,0.7,0.3,1,0.7c0.8-0.2,3.3-4.7,2.6-4.9c-0.8,1-1.5,2.1-2.1,3.3
	c0.5-0.8,0.8-1.7,1-2.6c0-0.3-1.2,1.3-1.2,1.2s0.7-1.2,0.3-1.3C46.2,49.9,44.4,54.6,44.7,54.6L44.7,54.6z"/>
<path id="jb" class="st0" d="M46.7,5.1c0.4,1,0.8,2,1.3,2.9C49.6,8,44.7,1.1,46.7,5.1L46.7,5.1L46.7,5.1z"/>
<path id="jc" class="st0" d="M47.7,4.9c0.5,1,0.9,2,1.2,3.1c0.2,0.3,0.7,1.1,0.7,0.2c-0.2-0.8-0.5-1.7-0.8-2.4
	c-0.2-0.6-0.5-1.2-1-1.6C47.5,3.9,47.3,4.7,47.7,4.9L47.7,4.9L47.7,4.9z"/>
<path id="jd" class="st0" d="M47.5,49.6c1.3,0,0.8-6,0.8-6C47.3,43.5,48,49.6,47.5,49.6z"/>
<path id="je" class="st0" d="M48.5,53.5c0.7,0.3,2.3-3.6,2.5-3.4c0.5,0.5-1.2,2.1-0.5,2.3c0.5-0.6,1.1-1.1,1.8-1.5
	c0.3-0.5,0.2-1.2,0.8-1.3c0.8-0.2,0.8-1.5,1.6-1.5c1.3,0.2,0.5-2.8,0.8-3.1c-0.8,0.5-0.3,1.6-1,2.3c-0.2,0.2-0.3-0.8-0.2-1.2
	c0.5-0.5,0.3-1.6,0.2-2.3c0-0.8-1-3.8-0.7-1.5c0.1,1.1,0.2,2.2,0.2,3.3c0,0.2-0.2,1.3-0.5,0.7c-0.2-0.5-1.3-4.4-1.5-4.3
	c-0.5,0.3,0.7,3.4,0.8,3.9s0.7,0.7,0.7,1.2c0,0.2-0.5,2.1-0.8,1.8c-0.2-0.2,0.7-1.8,0.3-1.8s-1.2,1.6-1.2,1.8c0.3-1.1-1.2-6-1-6.2
	c-0.5,0.5,0.2,3.6,0.3,4.3c0,0.5,0.7,2.1-0.2,2.5c0-0.2-0.1-0.4-0.3-0.5c-0.2,0.3-0.4,0.5-0.7,0.7c-0.7-0.2,0.5-6.5-0.7-6.5
	c0,0,0,5.9,0.2,6.4C49.6,50.2,48.1,53.3,48.5,53.5L48.5,53.5L48.5,53.5z"/>
<path id="jf" class="st0" d="M48.8,5.4c0.5,0,1.2,2.3,1.2,2.8c0,0.2,1,2.3,1,1c-0.2-0.9-0.5-1.7-1-2.4c-0.1-0.5-0.3-0.9-0.7-1.3
	C48.9,4.4,48.9,5.4,48.8,5.4L48.8,5.4L48.8,5.4z"/>
<path id="jg" class="st0" d="M50.5,6.9c0.4,1,0.7,2.1,0.8,3.3c0.2,1,0.5-0.3,0.3-0.8l-0.5-2.5C50.7,5.6,49.7,5.3,50.5,6.9z"/>
<path id="jh" class="st0" d="M51.8,7.7c0.5,1,0.8,2.1,1,3.3c0.2,1.5,0.8,0.5,0.7-0.5c-0.1-0.8-0.4-1.6-0.8-2.3
	C52.1,7.5,51,6.6,51.8,7.7L51.8,7.7L51.8,7.7z"/>
<path id="ji" class="st0" d="M53.8,9.7c0,0.3,0.5,2.9,0.8,2.9c0.7,0,0-1.6,0-2c-0.1-0.7-0.4-1.4-0.7-2L53.3,8
	C53.4,8.5,53.6,9,53.8,9.7L53.8,9.7L53.8,9.7z"/>
<path id="jj" class="st0" d="M55.1,40.4c0.7,0,0.8,3.1,0.8,3.4c0,0,0,3.1,0.7,2.1s0-2,0-2.8c0-0.8-0.2-1.7-0.5-2.5
	c-0.1-0.3-0.3-0.6-0.7-0.8C54.9,40.1,54.9,40.3,55.1,40.4L55.1,40.4L55.1,40.4z"/>
<path id="jk" class="st0" d="M55.2,10.6c0.3,1.1,0.5,2.2,0.7,3.3c0,0.3,0.5,1.6,0.7,0.5c0.1-0.8-0.1-1.6-0.3-2.4
	c-0.1-0.7-0.4-1.4-0.7-2c0,0.2-0.7-0.8-0.5-0.5C55.1,10,55.2,10.3,55.2,10.6C55.2,10.7,55.2,10.7,55.2,10.6z"/>
<path id="jl" class="st0" d="M56.5,39.6c0.3,0.5,0.7,4.7,0.8,4.7c1.8,0-0.5-5.7-0.8-5.7C56.2,38.8,56.5,39.6,56.5,39.6L56.5,39.6
	L56.5,39.6z"/>
<path id="jm" class="st0" d="M57.2,37.5c0,0.7,0.2,0,0.5,0.3c0,0,0.3,1.2,0.3,1.3c0.2,0.7,0.4,1.4,0.5,2.1c0.5,1.8,1.3-1.5,1-1.5
	c-0.7,0-0.5,0.5-0.8-0.5c-0.2-0.5-0.5-2.6-1.3-2.5C57,37.2,57,37.3,57.2,37.5L57.2,37.5L57.2,37.5z"/>
<path id="jn" class="st0" d="M57,13.9c0.2,0.4,0.3,0.7,0.3,1.1v1.3c0.3,0.6,0.7-0.7,0.7-0.7c0-0.5,0-2.9-0.8-2.9
	C56.8,12.8,57,13.9,57,13.9L57,13.9L57,13.9z"/>
<path id="jo" class="st0" d="M58.3,37.8c0.1,0.6,0.4,1.2,1,1.5c0.3,0.2-0.8-3.4-1.3-3.1C57.7,36.5,58.4,37.6,58.3,37.8L58.3,37.8
	L58.3,37.8z"/>
<path id="jp" class="st0" d="M58.2,17.4c-0.2,0,1.5,1.5,1.3,0.8c-0.1-0.8-0.2-1.7-0.5-2.4c-0.2,0.4-0.4,0.8-0.5,1.3
	C58.7,16.5,57.7,17.4,58.2,17.4z"/>
<path id="jq" class="st0" d="M58.7,19.8c-0.2,0,1.3,0.5,1.3,0.2C59.8,18.7,56.9,19.1,58.7,19.8z"/>
<path id="jr" class="st0" d="M58.5,35c0.2,0.5,1.8,3.1,2,2.6c0.2-0.7-0.7-1.6-1-2.3C59.2,34.8,58,34,58.5,35z"/>
<path id="js" class="st0" d="M59.2,33.2c0.2,0.2,1.6,2.6,1.8,2.5c0.3-0.3-1.3-3.4-1.8-3.4C58.5,32.2,59.2,33.2,59.2,33.2L59.2,33.2
	L59.2,33.2z"/>
<path id="jt" class="st0" d="M59.5,21.3c0.4,0.3,0.6,0.7,0.8,1.1c0.7,1.3,0.7,0.3,1,0.5c-0.2-0.2-1.6-3.1-2.3-2.3
	C59.2,20.9,59.3,21.1,59.5,21.3L59.5,21.3L59.5,21.3z"/>
<path id="ju" class="st0" d="M60,32.2c0.2,0.2,1.2,2.3,1.5,2s-1.6-3.6-2.1-3.3C59,31,60,32.3,60,32.2L60,32.2L60,32.2z"/>
<path id="jv" class="st0" d="M59.8,28.8c0.3,0.3,2,2.8,2,2.8c0.5-0.5-1-2.5-1.3-2.8C60.2,28.1,59,28.3,59.8,28.8L59.8,28.8
	L59.8,28.8z"/>
<path id="jw" class="st0" d="M60.3,24.5c0.2,0.2,1.2,1.8,1.5,1.1c0.2-0.3-1.6-2.5-2-2.3S60.1,24.4,60.3,24.5L60.3,24.5L60.3,24.5z"
	/>
<path id="jx" class="st0" d="M60.5,27c0.2,0.3,1,1.8,1.5,1.5c0.2,0-1.3-2.8-1.8-2.8C59.4,25.7,60.5,27.2,60.5,27z"/>
<path id="jy" class="st0" d="M17.4,29c0.3,0.2,1-5.4-0.2-5.6C17.5,23.5,16.5,28.7,17.4,29z"/>
<path id="jz" class="st0" d="M20.5,28.1c0,1.6,0.8,2,0.7,0.2c-0.1-1.2-0.2-2.4-0.5-3.6C20.2,25.3,20.5,27.5,20.5,28.1L20.5,28.1
	L20.5,28.1z"/>
<path id="jA-2" class="st0" d="M28.7,35.8c0.3,0.3-0.2,3.4,0.3,3.6c0.7,0,0.3-4.4,0-4.7C28.8,35,28.7,35.4,28.7,35.8z"/>
<path id="jB-2" class="st0" d="M39.2,99.3c1.2,9.2,10.3,15.5,19.2,16.2c1.2,0,2.3,0.3,3.4,0.3c0.8,0.1,1.6,0.2,2.5,0.2
	c0.3-0.2-0.3-0.3,0.3-0.5h1.6c1.4-0.1,2.7-0.4,4.1-0.7c4.3-1.2,8.3-3.4,11.8-6.2c3.5-3.2,6.7-6.8,9.5-10.6c2.3-2.9,4.8-6.2,6.1-9.8
	c1.2-3.1,1.2-6.2,1.2-9.7c0-0.5-0.3-2.9,0-3.3c0.5-0.3-0.2-1.8-0.2-2.1c-0.2-1.5-0.5-3.1-0.5-4.4c0-3.6-3.3-6.5-6.1-8.3
	c-2.3-1.6-4.8-2.8-7.5-3.6c-2.9-0.8-5.9-1-8.8-0.5c-2.3,0.3-4.5,1.1-6.6,2.3c-0.3,0.2-4.1,2.6-3.9,2.8c0.3,0.5,0.8-0.2,1-0.2
	l-0.2,2.3c-0.7,0-0.7-1-0.8-1.3c-0.5-0.8-1.2-1.4-2.1-1.8c-1.4-0.4-2.8-0.1-3.9,0.8c-1.9,1.3-3.8,2.8-5.4,4.4
	c-1.3,1.1-2.3,2.8-3.6,3.8c-2.6,2.1-4.7,4.7-6.4,7.5c0,0.2-1.2,2.3-1,2.4c-1.6-0.3,0.3,1.5,0.7,1.6c0.5,0.5,3.6,4.3,3.4,4.4
	c-0.3,0.1-0.5,0.2-0.8,0.2c0-1.5-0.3-0.2-0.7,0.7s-0.8,2.9-1.5,3.6c-0.3,0.3-0.3-0.7-0.3-0.8c0.2-0.7,0.3-1.3,0.5-1.8
	c0.2-0.7,1.5-2.8,1.2-3.3c-0.3-0.7-2,1.3-2,1.6c0,1-0.7,2-0.7,2.9c0,1,0.6,1.9,1.5,2.3c0.7,0.3,2.8,0.8,3.4,0.5
	c1.6-0.8,3.8-0.8,5.6-1.6c0.7-0.3,6.6-3.3,6.1-3.8c0.7,0.7,5.9-5.1,6.6-5.7c2-2.2,3.7-4.5,5.3-7c1.4-2.5,2.2-5.2,2.5-8
	c0.2-1.5-0.5-2.6-1-3.9c-0.2-0.6-0.5-1.1-1-1.5c-0.6-0.2-1.1-0.4-1.6-0.8c-0.3-0.7,3.6-1.6,3.9-1.8c2-0.5,4.2-0.6,6.2-0.3
	c1.8,0.3,3.4,0.5,5.2,0.8c0.3,0.2,4.3,1.5,4.1,1.6s-1.5-1-1.5-0.2c0,0.5,2.8,1.8,3.4,2.1c1.5,0.7,2.9,1.7,4.3,2.7
	c1,0.9,1.7,2.1,2,3.4c0.2,0.5,0.7,4.7,0.3,4.7c-0.5,0-2.6-2.6-3.1-3.1c-0.5-0.5-1.1-0.9-1.6-1.3c-0.7-0.3,0.3,0.8,0.3,0.8
	c1.4,1.1,2.7,2.3,3.8,3.8c1,1.3,0.8,2.4,0.8,3.9c-0.5-1.3-1.3-2.5-2.3-3.6c-0.4-0.7-1-1.2-1.6-1.7c-0.8-0.5,0,0.7,0.2,0.8
	c2.4,2,3.8,5,3.8,8.2c-0.3-0.5-3.8-6-4.3-5.6c-0.3,0.3,3.9,5.7,4.1,6.5c0.1,1.5-0.1,3.1-0.3,4.6c-0.2,0.5-1.3,4.1-1.5,3.9
	c-0.3-0.6-0.4-1.2-0.5-1.8c-0.3-1-0.8-1.8-1.2-2.8c-0.5-0.8-2-2.6-1-0.7c0.5,1.1,1.2,2.1,1.6,3.4c0.3,0.8,0.6,1.6,0.8,2.4
	c-0.2,0.7-1.8,3.6-2.5,3.9c-0.3,0.2-1.3-4.7-2-4.9s0.7,3.1,0.7,3.3c0.3,0.8,0.8,2.1,0.5,2.9c-0.4,0.8-1,1.5-1.6,2.1
	c-1.6,0.8-2.3-2.4-2-2.6c-0.8,0.5,0.3,2.1,0,2.6s-2.6,0.3-2.6,0.8c0,0.8,2.9-0.7,2.8-0.5c0.2,0,1.2,0.2,1.3,0.2
	c0.5,0.3-1.8,1.8-2.3,2c-0.7,0.2-4.3,0.3-4.4,0.3c0.8,0.8,4.1,0.3,5.1,0c-1.2,1.8-4.4,1.1-6.4,1.5c-1.2,0.2,1.6,0.5,2,0.3
	c1-0.2,2-0.3,3-0.3c0,2.6-4.6,1.6-5.9,1.6c-1.6,0,0,0.5,0.5,0.5c1.1,0.1,2.3,0.1,3.4,0c-0.5,1.2-1.5,1-2.6,1.2
	c-1.1-0.2-2.3-0.3-3.4-0.3c-0.3,0.2,1,0.7,1.2,0.7c1.1,0.1,2.2,0.2,3.3,0.2c-0.2,0-0.5,0.5-0.8,0.7c-0.5,0.1-1,0.2-1.5,0.2
	c-1.5,0-3.1-0.1-4.6-0.3c-0.2,0-1.5,0-0.8,0.3c0.5,0.2,1.1,0.3,1.6,0.3c0.3,0,4.3,0.2,4.3,0.2c0,0.7-2,1.6-2.5,2s-2.1-0.2-2.6-0.3
	c-0.8-0.2-3.4-1.5-3.9-1.3s2.3,1.3,2.5,1.5c0.3,0.2,3.1,1,3.1,1c-0.7,1-2.6,1-3.4,1c-1.6-0.3-3.4-1.7-5.1-1.7
	c-0.5,0,0.3,0.7,0.5,0.7c0.7,0.4,1.5,0.7,2.3,0.8c1.1,0.1,2.1,0.4,3.1,0.8c0.2,0-1.8,0.8-2,1c-0.7,0.2-1.6-0.5-2.3-0.7
	c-0.3-0.2-4.3-2.4-4.3-2.3c-0.7,0.7,5.3,3.3,5.7,3.6c-0.9,0.1-1.9,0.4-2.6,1c-1,0.8-1.2-0.3-1.8-0.3c-0.7,0-1.4-0.2-2-0.5
	c-1.3-0.7-2.5-1.4-3.7-2.3c-0.3,1.1,4.9,3.9,5.4,3.6c-1,1.2-4.4-0.5-5.3-1.1c-0.5-0.3-3.4-2.8-3.4-2.4c0,0.5,1.6,1.6,2.1,2
	c0.3,0.3,2.9,1.6,2.9,2c0,1.3-3.6-1-3.8-1c-0.5-0.3-3.8-3.1-3.8-3c-0.5,0.5,4.3,4.6,4.6,4.3c-1.6,1.3-5.3-4.1-6.4-4.4
	c-0.5-0.2,1.2,1.6,1.3,1.6c0.3,0.3,2.8,2.1,2.8,2.6c0,0.7-2.3-1-2.5-1.1c-0.7-0.6-1.4-1.2-2-1.8l-2.1-2c0,0.7,1.6,2.1,2.1,2.6
	c0.8,0.9,1.8,1.7,2.8,2.4c-3.6-0.1-7-1.4-9.7-3.8c-1-1.1-2-2.2-2.8-3.4c-0.6-0.8-1.2-1.6-1.6-2.4c-0.7-1.3-0.5-3.1-1.3-4.6
	c-0.5-1-0.5,0.3-0.5,0.7c0.3,1,0.7,2.1,1,3.1c0.4,1.2,1,2.3,1.6,3.3c0.3,0.3,1.5,2.6,1.6,2.6c-1,0-3-2.3-3.6-3.1
	c-0.5-0.7-1-1.5-1.4-2.3c-0.2-0.5-0.5-1-0.8-1.5c-1.5-0.8-1.3-6-1.3-7.5c0-2.5,0.4-5,1.2-7.4c0.4-1,0.8-2,1.3-2.9c0.5-0.7,2-2,2-2.8
	s-2.1,1.6-2.3,2c-0.5,0.7-0.5,1.3-1,2c-1.2,1.6-1.5,4.4-1.8,6.4C38.9,95.3,39.1,97.3,39.2,99.3L39.2,99.3z M43.4,78.2
	c0.1-0.4,0.3-0.7,0.7-1c0,0.8-0.3,1.5-0.7,2.1C43.1,79.3,43.3,78.5,43.4,78.2L43.4,78.2L43.4,78.2z M43.6,86.5
	c0.3-0.7-0.2,0.8-0.2,0.3C43.4,86.7,43.5,86.6,43.6,86.5L43.6,86.5L43.6,86.5z M44.2,80.5c0.5,0,3.1,3.1,3.3,3.6
	C47.5,84.4,43.3,80.5,44.2,80.5z M44.4,77.9c0.2-0.8,1.3-4.1,2.5-4.3c0.3,0-1.2,3.1-1.3,2.6c0.2,0.2,0.5,0.3,0.8,0.3
	c-1-0.2-1.2,1.8-1.2,2.6c0,0.5-0.5,0.7-1,0.5S44.4,78.1,44.4,77.9L44.4,77.9L44.4,77.9z M44.6,88.7c0.2-0.2,1.5-2.9,1.5-2.9
	c0.2,0.5-0.7,1.6-0.8,2.1s-0.5,0.8-0.7,1.3c-0.3,0.7,0.3,0.2,0.7,0.3c0.2,0.2-0.2,0.7-0.7,0.5S44.2,89,44.6,88.7L44.6,88.7
	L44.6,88.7z M45.6,88.4c0-0.1,0.1-0.3,0.2-0.4c0,0.4-0.1,0.8-0.3,1.1C45.4,88.9,45.4,88.6,45.6,88.4L45.6,88.4L45.6,88.4z
	 M45.4,80.4c1,0,2.1,3.6,2.8,3.6c-0.7,0-1.5-1.5-1.8-2C46.2,81.8,45.4,80.3,45.4,80.4L45.4,80.4L45.4,80.4z M45.9,89.4
	c0.3,0-0.2,0.8-0.3,1C45.5,90.4,45.5,89.4,45.9,89.4z M45.9,78.2c0-0.3,0.2-1.5,0.8-1.5c0.5,0-0.5,1.3-0.5,1.3c0.2,1,1-1,1-0.8
	c0.2-0.2,0.3-1.3,0.8-1c-0.1,0.6-0.3,1.2-0.7,1.8c0.5,0,1-1.1,1-1.6c0-0.3,1.3-0.7,0.7,0.5c-0.8,1.2-2,2.1-3.4,2.4
	C45.7,79,45.8,78.6,45.9,78.2L45.9,78.2z M46.9,80.7c0.2,0.3,2.5,2.8,2.3,2.9C48.7,84,46.1,80,46.1,80
	C46.4,80.2,46.7,80.4,46.9,80.7L46.9,80.7L46.9,80.7z M46.2,88.2c0.2-0.3,0.7-2.8,1-2.8s-1,3.8-1.2,3.6
	C46.1,88.7,46.3,88.5,46.2,88.2L46.2,88.2L46.2,88.2z M47.1,89.5h0.3C48.2,90.9,44.9,89.5,47.1,89.5L47.1,89.5z M46.9,79.7
	c0.5-0.2,3.1,3.6,3.1,3.6s-3.4-3.1-3.4-3.4C46.7,79.9,46.8,79.8,46.9,79.7L46.9,79.7L46.9,79.7z M46.9,75.3c0-0.2,0.8-3.1,1-2.9
	c-0.2,1.2-0.5,2.5-1,3.6C46.6,75.8,46.6,75.6,46.9,75.3L46.9,75.3L46.9,75.3z M47.2,87.7c0,0,1.3-3.9,1.6-3c0.3,0.8-1.6,4.6-2,4.4
	C46.8,88.6,46.9,88.1,47.2,87.7L47.2,87.7L47.2,87.7z M47.6,84.9c0,0.3,0,0.3-0.3,0.2C47.2,84.8,47.4,84.8,47.6,84.9z M47.9,89.7
	c0.2,0.2,0,0.3-0.2,0.5C47.7,90,47.8,89.8,47.9,89.7L47.9,89.7z M48,79.2c0.1,0,0.3,0,0.3-0.2c0.1,0.5,0.3,0.9,0.7,1.3
	c0.8,0.9,1.4,1.8,2,2.8C50.2,83.2,47.6,79.6,48,79.2C48,79.2,48,79.2,48,79.2z M47.8,74.8c0.3-0.3,0.7,0,0.5,0.3
	C47.8,75.6,47.3,75.4,47.8,74.8L47.8,74.8z M48.3,88.6c0.2,0.2,0.2,0.5,0,0.7C48.3,89.2,47.6,88.5,48.3,88.6L48.3,88.6z M48.7,71.6
	c0.1-0.4,0.4-0.8,0.8-1c0.3,0.3-0.7,2.6-0.8,3.1c0,0.2-0.8,1-0.8,0.3C48,73.2,48.5,72.2,48.7,71.6L48.7,71.6L48.7,71.6z M48.8,87.3
	c0.3-0.7,0.6-1.5,0.7-2.3c0-0.3,0.1-0.6,0.2-0.8c0,0,1-0.5,1-0.2l-2,3.9c-0.2-0.3-0.1-0.6,0.1-0.8c0,0,0,0,0,0l0,0L48.8,87.3z
	 M48.7,78.7c1.3,0,1-1.5,2,0c0.3,0.7,2.8,2.8,2.8,3.3c0,1-1.5-0.5-1.5-0.5c-0.3-0.3-2.3-2.9-3-2.6c-0.2,0.2,2.8,2.9,2.8,3.6
	C52,83.3,48.3,78.7,48.7,78.7L48.7,78.7L48.7,78.7z M48.7,89.7c0.2,0.2,0.2,0.2,0,0.2S48.5,89.7,48.7,89.7z M48.9,88.9
	c0-0.2,0.7-0.5,0.8-0.2C49.8,89.3,48.5,89.8,48.9,88.9z M49.2,74.5c0.3-0.2,1.2,0,0.5,0.5C49.2,75.2,48.5,74.8,49.2,74.5L49.2,74.5z
	 M49.2,75.5c0.2,0.2,0.2,0.2,0,0.2S49,75.7,49.2,75.5L49.2,75.5L49.2,75.5z M49.7,87c0.3-1,0.7-2,1.2-2.9c0.3,0-0.3,3.4-1,3.3
	C50,87.3,48.8,89.1,49.7,87L49.7,87L49.7,87z M49.8,76.2c0-0.3,0.2-0.3,0.5-0.2c0.2,0.2-0.5,1.5-0.8,1.3
	C49.5,77,49.6,76.6,49.8,76.2L49.8,76.2L49.8,76.2z M49.5,73.4c0.2-0.7,0.4-1.4,0.8-2c0,0.2-0.2,1.5-0.2,1.6
	C50,74.4,49.2,73.4,49.5,73.4L49.5,73.4L49.5,73.4z M50,88.8l0.3-0.3C51.5,89,49.3,90.1,50,88.8z M50.7,88c0.5,0-0.2,0.7-0.2,0.2
	C50.5,88,50.5,88,50.7,88z M50.7,77.4c0.7-0.2,3,2.9,3.6,3.4c0.3,0.2,0.3-0.8,0.2-0.8c-0.5,0.2-1.2-1.3-1.6-1.3c-1,0-2-2.6-0.7-1.8
	c1.4,0.9,2.5,2.1,3.4,3.4c0.5,0.7-1.1,1.4-1.5,1.1C53.5,81.1,49.9,77.5,50.7,77.4L50.7,77.4L50.7,77.4z M50.7,74.1
	c0.1,0.1,0.2,0.3,0.1,0.4c0,0,0,0,0,0l-0.1,0.1C50.5,74.4,50.5,74.4,50.7,74.1L50.7,74.1z M50.8,86.7c0.3-0.2,0.2,1-0.2,0.7
	C50.7,87.1,50.7,86.9,50.8,86.7L50.8,86.7L50.8,86.7z M50.8,76.1c0.7-0.3-0.2,0.5-0.2,0.3C50.7,76.3,50.7,76.1,50.8,76.1L50.8,76.1
	L50.8,76.1z M51,72.8c1,0-0.7,1-0.3,0C50.8,73,50.8,73,51,72.8L51,72.8L51,72.8z M51,88.8c0.3,0,0.5,0,0.5,0.3
	c-0.2,0.1-0.4,0.2-0.7,0.2C50.8,89.1,50.9,88.9,51,88.8z M51.5,84.9c0,0,0.2-1.6,0-1.3c0.8-1.1-0.2,3.6-0.7,2.8
	C50.8,86.2,51.5,85,51.5,84.9L51.5,84.9L51.5,84.9z M51.2,71.5c0.2-0.3,3.9-3.6,3.9-2.9c0,0.8-1.3,2-2,2.4c-0.3,0.3-2.3,1.5-2.3,1.1
	C50.8,71.9,51,71.7,51.2,71.5L51.2,71.5z M51,69c0,0.4-0.1,0.8-0.3,1.1C50.8,69.8,50.9,69.4,51,69z M51.5,88c0.2,0,0.3,0,0.3,0.2
	c-0.2,0.3-0.7,0.2-0.8,0C51.1,88,51.3,87.8,51.5,88L51.5,88z M51.8,87c1.2,0-0.5,1-0.5,0.2C51.3,87,51.5,86.8,51.8,87L51.8,87z
	 M51.6,73.8c0.3,0,0.3,0,0.5,0.3c-0.1,0.2-0.3,0.3-0.5,0.3C51.4,74.2,51.4,74,51.6,73.8L51.6,73.8L51.6,73.8z M51.8,68.9
	c0.2-0.2,0.7-1.6,0.8-1.3c0.3,0.3-0.8,2.3-1.3,2.6C51.4,69.7,51.6,69.3,51.8,68.9z M51.8,85.9c0.3,0,1-3.8,1.8-3.1
	c0,0-0.8,2.6-1,2.9C51.9,86.5,51.9,86,51.8,85.9L51.8,85.9L51.8,85.9z M52.1,72.6c0.5-0.3,0,0.5-0.2,0.5S51.9,72.8,52.1,72.6
	L52.1,72.6L52.1,72.6z M53.1,75.5l0.3-0.3c0.2,0,2.1,2.4,2.5,2.8c0.5,0.4,0.9,0.9,1.1,1.5c0,0.3-0.7,0.2-0.7,0.5
	c-0.6-0.4-1.1-0.9-1.6-1.5C54,77.6,53,76.9,52,76.3C52.4,76.1,52.8,75.8,53.1,75.5L53.1,75.5L53.1,75.5z M52.4,74.9h0.3
	c-0.2,0.2-0.4,0.3-0.7,0.3C52.2,75.1,52.3,75,52.4,74.9L52.4,74.9L52.4,74.9z M52.8,88c0.3,0,0.6,0,0.8,0.2c0,0-1.3,0.7-1.3,0
	C52.3,88,52.4,88,52.8,88z M52.8,87c0.5,0-0.3,0.5-0.3,0.5C52.4,87.2,52.4,87,52.8,87z M53.6,67.4c0.3,0-0.3,1.1-0.7,1.1
	C52.9,68.7,53.1,67.4,53.6,67.4L53.6,67.4z M52.9,86.2c0.2,0.2,0.2,0.2,0,0.2S52.8,86.2,52.9,86.2L52.9,86.2L52.9,86.2z M53.3,73.4
	c0.2-0.2,1.6-0.7,1.5-0.3c-0.5,0.6-1.1,1.1-1.8,1.5C52.6,74.7,53.1,73.6,53.3,73.4z M53.1,71.8c0.5,0-0.2,0.8-0.3,0.8
	C52.9,72.6,52.9,71.8,53.1,71.8z M53.6,87c0.3-0.2,0.5-0.2,0.7,0.2c0.3,0.5,0.5-0.2,0.8-0.2l0.5,0.7C55.5,88,52.1,87.7,53.6,87z
	 M53.7,83.9c0-0.2,0.3-1.5,0.7-1.3c-0.2,1.1-0.6,2.1-1.2,3.1C53.3,85.1,53.5,84.5,53.7,83.9L53.7,83.9L53.7,83.9z M53.6,86.2
	c0.2,0,0.2,0.2,0,0.2S53.4,86.3,53.6,86.2L53.6,86.2z M53.7,71.6c0,0,0.5-0.2,0.5,0c0.1,0.4-0.2,0.8-0.6,0.8c0,0,0,0,0,0l0,0
	C53.6,72.2,53.7,71.9,53.7,71.6L53.7,71.6L53.7,71.6z M54.1,85c0.3-0.2,0.5,0,0.3,0.3C54.1,86,53.4,85.5,54.1,85z M54.4,74.2
	c0.5-0.5,1.5-2.1,2.3-2.1c0.5,0,1.2,1.3,1.3,1.5c0.3,0.5,2,2,2,2.6c0,0.3,1.2,0,0.5-0.5c-0.3-0.2-0.5-0.5-0.7-0.8
	c-0.8-0.8-1.5-2-2.3-3c-0.7-0.8-0.5-0.5,0.5-1.5c0.7-0.7,1.2-1.5,1.8-2.1c0.2-0.3,1.2-2,1.5-2c0,0,3.9,4.6,3.9,5.1
	c-0.4,0.6-0.8,1.2-1.3,1.8c-1.2,1.3-2.4,2.6-3.8,3.8c-1.5,1.3-2,2.6-3.3,1.1l-1.8-1.8C54.4,75.4,53.3,75.1,54.4,74.2L54.4,74.2z
	 M54.2,65.9c0,0.1,0,0.3-0.2,0.3c0,0-0.1,0-0.1,0C53.9,66.1,53.9,65.9,54.2,65.9L54.2,65.9L54.2,65.9z M54.4,83.9
	c0.1-0.3,0.3-0.7,0.5-1c0.5,0.5-0.8,1.6-0.8,1.8C54.2,84.4,54.4,84.2,54.4,83.9L54.4,83.9L54.4,83.9z M54.7,67.2h0.3
	c0,0.2-1,0.7-0.8,0.2C54.4,67.4,54.6,67.2,54.7,67.2z M54.6,70.5c0.1-0.3,0.4-0.4,0.7-0.3c0.3,0.3-0.7,0.8-1,0.8
	C54.3,70.8,54.4,70.6,54.6,70.5L54.6,70.5L54.6,70.5z M54.9,71.6l0.3,0.3c0.2,0,0.3-1,0.7-0.7s-0.3,1.3-0.7,1.5
	C54.9,72.8,54.6,71.8,54.9,71.6L54.9,71.6L54.9,71.6z M55.2,85c0.3,0,0.3,0.3,0.2,0.5C54.9,85.8,54.7,85,55.2,85L55.2,85L55.2,85z
	 M55.2,81.7c0.1,0.3,0.1,0.7-0.2,1C54.9,82.7,55.1,81.4,55.2,81.7L55.2,81.7z M55.4,65.7c0,0.3,0,0.3-0.3,0.2
	C55.1,65.7,55.1,65.6,55.4,65.7L55.4,65.7z M55.5,83.6c1-0.7-0.2,1.8-0.3,1C55.1,84.2,55.3,83.8,55.5,83.6L55.5,83.6z M55.3,64.6
	c0.2,0.2,0.2,0.3,0,0.3S55.2,64.8,55.3,64.6L55.3,64.6z M55.8,81.7c-0.3-0.5,0.8-1.1,1-1c0,0.2-1,2-0.7,2.1h0.7
	c0.3,0.2-1.2,0.5-1.3,0.5C55.7,82.9,56.2,82.1,55.8,81.7L55.8,81.7z M55.7,70.1c0-0.2,0.3-0.7,0.5-0.3C56.7,70.5,55,71.8,55.7,70.1z
	 M55.8,67c0.5-0.2,0.2,0.5,0.2,0.8C56,67.7,54.8,67.2,55.8,67z M55.8,86.8c0.5,0-0.2,0.5-0.2,0.5c-0.1-0.1-0.1-0.3,0-0.4
	C55.8,86.8,55.8,86.8,55.8,86.8L55.8,86.8z M56.4,69c0,0.1,0,0.3-0.2,0.3c0,0-0.1,0-0.1,0C56,69.2,56.2,69,56.4,69z M56.4,65.2h0.5
	c0.1,0.2-0.9,0.7-0.9,0.3C56.1,65.4,56.2,65.3,56.4,65.2L56.4,65.2L56.4,65.2z M56.5,68.2C57,68,56,69,56.2,68.5
	C56.2,68.4,56.4,68.3,56.5,68.2L56.5,68.2z M56.7,70c0.2-0.3,1-0.7,0.8-0.2c-0.3,0.4-0.7,0.8-1.1,1.2C56.3,70.6,56.4,70.3,56.7,70
	C56.7,70,56.7,70,56.7,70z M56.8,64.4c0.8,0-0.7,0.5-0.5,0.2C56.5,64.5,56.7,64.4,56.8,64.4L56.8,64.4L56.8,64.4z M56.8,63.3
	C58,63,57,64.4,56.5,64C56.2,63.8,56.7,63.3,56.8,63.3L56.8,63.3z M57.3,86h0.5c0.3,0.2-1.6,0.7-1.3,0.2C56.8,86.1,57.1,86,57.3,86
	L57.3,86z M56.9,84.9c0.3,0,0.2,0.5,0,0.7C56.5,85.7,56.4,84.9,56.9,84.9L56.9,84.9z M56.7,67c0.2,0,0.2-0.2,0.3-0.2
	c0.3,0.2,0,1-0.3,1C56.4,67.5,56.4,67.2,56.7,67L56.7,67L56.7,67z M57.2,83.7c0.5,0.2,0,0.8-0.2,0.7C56.9,84.1,57,83.9,57.2,83.7
	L57.2,83.7z M57,81.1c0,0.3,0.3-1.3,0.5-0.8c0,0.6-0.2,1.3-0.5,1.8C56.9,81.8,56.9,81.4,57,81.1L57,81.1L57,81.1z M57.3,68.8
	c0.7,0-0.2,0.3-0.2,0.2C57.2,68.9,57.3,68.9,57.3,68.8L57.3,68.8L57.3,68.8z M57.5,65.9c0,0.1,0,0.3-0.2,0.3c0,0-0.1,0-0.1,0
	c0-0.1,0-0.3,0.2-0.3C57.4,65.9,57.5,65.9,57.5,65.9L57.5,65.9z M57.5,82.6c0.5,0,0.2,0.7-0.2,0.7S57.3,82.6,57.5,82.6L57.5,82.6
	L57.5,82.6z M57.8,64.9c0.3,0.3-0.5,0.5-0.5,0.3C57.3,65.2,57.7,64.8,57.8,64.9L57.8,64.9z M58,84.7c0.5-0.1,1-0.1,1.5,0
	c-0.3,0.3-0.6,0.5-1,0.7C57.7,85.7,57.2,84.7,58,84.7L58,84.7L58,84.7z M58.2,80.1c0-0.3,0.1-0.6,0.3-0.8c0,0,0,2.6-0.8,2.6
	C57.7,81.3,57.9,80.7,58.2,80.1z M57.7,66.7c0.2-0.2,0.3-0.2,0.3,0c0,0-0.3,0.8-0.5,0.7C57.7,67.2,57.7,67,57.7,66.7L57.7,66.7
	L57.7,66.7z M58.2,83.7c0.5,0-0.3,0.8-0.3,0.3c0-0.1,0.1-0.3,0.2-0.3c0,0,0,0,0,0L58.2,83.7L58.2,83.7L58.2,83.7z M58.2,63.1
	c0.1-0.1,0.2-0.1,0.3-0.1c-0.1,0.2-0.3,0.5-0.5,0.7C57.7,64,58.2,63.3,58.2,63.1L58.2,63.1z M58.5,67.7c0.1,0,0.3,0,0.3-0.2
	c0,0.5-0.2,1-0.5,1.3C58,68.8,58.3,67.8,58.5,67.7L58.5,67.7L58.5,67.7z M58.3,65.7c0.7,0-0.5,0.5-0.2,0.2
	C58.2,65.8,58.2,65.7,58.3,65.7L58.3,65.7L58.3,65.7z M58.3,82.4c0.5-0.3,0.2,0.7,0,0.7C58,83.3,58.2,82.6,58.3,82.4L58.3,82.4z
	 M58.7,61.8c0.7-0.5-0.3,1.1-0.5,0.7C58.3,62.2,58.5,62,58.7,61.8L58.7,61.8z M58.8,64.7c0,0.1,0,0.3-0.2,0.3c0,0-0.1,0-0.1,0
	C58.5,64.9,58.5,64.8,58.8,64.7L58.8,64.7L58.8,64.7z M58.7,81.5c0.2,0,0.2,0.2,0,0.2C58.5,82,58.5,81.8,58.7,81.5L58.7,81.5z
	 M58.8,66.5c0.5,0-0.2,1-0.3,0.5C58.7,66.9,58.7,66.4,58.8,66.5L58.8,66.5L58.8,66.5z M59.2,83.7c0.7,0,1.3-0.2,2-0.2
	c-0.2,0.2-2.5,1.3-2.5,0.3C58.8,83.7,59,83.6,59.2,83.7L59.2,83.7L59.2,83.7z M59,80.3c0.3-0.8-0.2,0.8-0.2,0.5
	C58.8,80.6,59,80.5,59,80.3L59,80.3L59,80.3z M59.2,67.7c0.2,0.2,0.2,0.3-0.2,0.5C58.8,68,59,67.9,59.2,67.7L59.2,67.7L59.2,67.7z
	 M59.2,82.4c0.5,0,0,0.7-0.2,0.7C58.9,82.8,58.9,82.5,59.2,82.4L59.2,82.4z M59.3,78.6c0.1-0.1,0.3-0.2,0.4-0.1l0.1,0.1
	c-0.2,0.4-0.4,0.8-0.7,1.1C59,79.4,59.1,79,59.3,78.6L59.3,78.6z M59.2,63c0.2-0.2,0.2-0.2,0.3,0c-0.1,0.3-0.3,0.5-0.5,0.7
	C59.1,63.4,59.1,63.2,59.2,63z M59.6,81.2c0.8,0-0.3,1-0.3,0.5C59.2,81.6,59.5,81.1,59.6,81.2L59.6,81.2L59.6,81.2z M59.6,64.6
	c0.4,0.2,0.4,0.4,0.2,0.7C59.3,65.6,59,64.6,59.6,64.6L59.6,64.6L59.6,64.6z M59.6,80.3c0.7-0.2-0.2,0.8-0.2,0.2L59.6,80.3z
	 M59.6,66.6c0-0.1,0.1-0.2,0.2-0.2h0l0,0c0-0.2-0.5,0.8-0.5,0.7C59.5,67,59.6,66.8,59.6,66.6L59.6,66.6z M59.8,61.2
	c0.5-0.3,0.2,0.5,0,0.5S59.7,61.3,59.8,61.2L59.8,61.2L59.8,61.2z M60.1,82.5c0.7,0,0,0.7-0.2,0.5C59.8,82.9,60,82.5,60.1,82.5
	L60.1,82.5L60.1,82.5z M60.3,77.9c0-0.2,0.2-0.3,0.3-0.3c-0.1,0.7-0.4,1.4-0.7,2C60,79,60.1,78.4,60.3,77.9L60.3,77.9L60.3,77.9z
	 M60.1,62.9h0.4c0,0.3-0.2,0.6-0.5,0.7C59.9,63.7,60,62.9,60.1,62.9L60.1,62.9L60.1,62.9z M60.5,81.1c0.3-0.2,0.2,1-0.2,0.8
	S60.3,81.1,60.5,81.1L60.5,81.1z M60.7,65.3c0-0.2,1.2-1.8,1.2-1.3c-0.3,0.9-0.8,1.7-1.5,2.5C60.5,66,60.6,65.7,60.7,65.3L60.7,65.3
	L60.7,65.3z M60.8,80.1c0.7,0-0.5,0.5-0.3,0.2C60.6,80.3,60.8,80.3,60.8,80.1L60.8,80.1L60.8,80.1z M60.8,61c0,0,1.2-0.8,1.2-0.3
	c0,0-1.5,1.2-1.5,0.8C60.7,61.4,60.8,61.2,60.8,61L60.8,61L60.8,61z M61.8,82.4h0.7c0.2,0.3-1.8,0.5-1.6,0.2
	C61.1,82.5,61.5,82.4,61.8,82.4L61.8,82.4z M61,79.2h0.3c0.3,0.2-0.7,0.8-0.5,0.3C60.9,79.3,61,79.3,61,79.2z M61.2,78
	c0.1-0.4,0.2-0.8,0.3-1.1c0.7-0.7-0.3,2.6-0.5,1.6C61,78.3,61.1,78.1,61.2,78L61.2,78z M61.3,81.3c0-0.5,0.8,0.7,0,0.7
	C61.2,81.7,61.2,81.5,61.3,81.3L61.3,81.3z M61.2,62.7c0.3-0.3,0,0.5-0.2,0.5C61,63,61.1,62.8,61.2,62.7z M61.8,65.6
	c0-0.2,0.2-0.4,0.3-0.5c0.5,0.7,3.1,5.1,3.6,4.7c0.7-0.3-4.3-4.9-3-6c-0.2,0,2.6,3.3,2.8,3.6c1,1.1,1.3,1.6,0.3,2.9
	c-0.2,0.3-0.2,1-0.7,0.7c-0.6-0.8-1.3-1.6-2-2.3C62.5,68.1,61.2,66.6,61.8,65.6L61.8,65.6L61.8,65.6z M61.7,80.1
	c0.2,0,0.2,0.2,0,0.2C61.5,80.5,61.5,80.3,61.7,80.1L61.7,80.1L61.7,80.1z M61.8,79.1c0.2,0.2,0.2,0.2,0,0.3
	C61.7,79.5,61.7,79.3,61.8,79.1z M61.8,62.8c0.2-0.2,0.4-0.3,0.7-0.3c0,0.2-0.7,1.1-0.8,0.7C61.7,63,61.8,62.9,61.8,62.8L61.8,62.8z
	 M62.8,81.1h1c0.3,0.2-1.5,0.7-1.5,0.7C61.6,82.1,62.1,81.1,62.8,81.1L62.8,81.1z M62.2,76c0.2-0.2,0.2,0.3,0.2,0.5
	C62.1,76.5,61.8,76.2,62.2,76L62.2,76z M62.7,80.1c0.6,0,1.1-0.1,1.6-0.3c0.7-0.3,0.2-0.3,0.2-0.8c0.4-0.1,0.9-0.1,1.3,0
	c-0.3,0.6-0.8,1.2-1.3,1.6c0,0-2.1,0-2.1-0.3C62.3,80.1,62.5,80.1,62.7,80.1C62.7,80.1,62.7,80.1,62.7,80.1z M62.8,79
	c0.3,0.2,0.3,0.3,0,0.5C62.5,79.3,62.4,79.2,62.8,79L62.8,79z M63,75.5c0.1-0.5,0.4-0.9,0.8-1.1c0,0.3-1.2,3.9-1,4.1
	c0,0-0.3-2.4-0.3-2.3C62.7,76.1,62.9,75.8,63,75.5L63,75.5z M63.2,62.8c0.3-0.5,2.8,3.8,3,3.8c1,0.3-1.2-2.8-1.2-3.1
	c0-0.2-2-2.5-1.3-2.3c0.6,0,2.3,2.3,2.5,2.8c0.3,0.6,0.7,1.1,1.2,1.5c0.7,1,0,0.3-0.2,1c0.2,0,0.3,0.1,0.3,0.3c0,0,0,0,0,0l0,0
	c-0.2,0.3-0.2,0.8-0.3,1.1c-0.5-0.5-1.1-1-1.6-1.5c-0.2,0-0.7-1.3-1-1.6S62.7,63.4,63.2,62.8L63.2,62.8L63.2,62.8z M63.8,79
	c0.3,0,0.5,0.2,0.2,0.5C63.4,79.7,63.3,79,63.8,79z M63.9,77.9c0.2,0.3,0,0.5-0.3,0.7C63.3,78.2,63.7,77.5,63.9,77.9L63.9,77.9
	L63.9,77.9z M64.1,75.2c0.1-0.6,0.2-1.2,0.5-1.8c-0.1,1.2-0.2,2.4-0.5,3.6C63.3,77,64.1,75.6,64.1,75.2
	C64.1,75.2,64.1,75.2,64.1,75.2z M64.6,77.7c0.5-0.7,4.3-1.3,1.6,0.8C65.9,78.7,63.9,78.7,64.6,77.7L64.6,77.7z M65,76
	c0.5-0.2-0.2,1.1-0.3,0.8C64.7,76.6,64.8,76.3,65,76L65,76z M65.4,72.4c0.1-0.2,0.2-0.3,0.3-0.4c-0.1,1.1-0.2,2.2-0.5,3.3
	C64.7,74.9,65.2,73,65.4,72.4L65.4,72.4L65.4,72.4z M65.9,75.9c0.1,0.2,0.2,0.5,0.3,0.7C65.7,77.2,65.2,75.9,65.9,75.9L65.9,75.9
	L65.9,75.9z M66.2,74.2c0.3,0,0.2,1.3-0.3,1.1C65.5,75.4,65.9,74.3,66.2,74.2L66.2,74.2z M66,73.1c0-0.2,0.2-0.3,0.3-0.3
	c0.5,0-0.3,1.3-0.3,0.8V73.1L66,73.1z M66.5,70.8c0-0.2,0-0.3,0.2-0.3c0.1,0.6,0,1.2-0.3,1.8C66.3,71.8,66.3,71.3,66.5,70.8
	L66.5,70.8L66.5,70.8z M66.7,75.9c0.5-0.3,1.1-0.4,1.6-0.3c0.5,0.5-1.6,1.5-1.8,1C66.5,76.3,66.5,76.1,66.7,75.9L66.7,75.9
	L66.7,75.9z M66.7,74.6c0-0.1,0.1-0.2,0.2-0.3c0.3-0.3,0,1.1,0,1C66.5,75.9,66.8,74.4,66.7,74.6L66.7,74.6L66.7,74.6z M66.8,60.5
	c0.2,0,0.2-0.2,0.3-0.2c0,1.3,0,2.6-0.1,3.9C67,63.5,66,61.5,66.8,60.5L66.8,60.5L66.8,60.5z M67,72.8c0.2,0,0.2-0.2,0.3-0.2
	c0.1,0.3,0,0.7-0.3,0.8l0,0C66.9,73.2,66.9,73,67,72.8L67,72.8L67,72.8z M67.3,69.7c0-0.3,0-0.6,0.2-0.8c-0.3,0.7,0.3,2.4-0.3,3.1
	C67.1,71.2,67.2,70.4,67.3,69.7L67.3,69.7L67.3,69.7z M67.5,74.4c0.3,0,0-0.7,0.5-0.7c0.2,0,1.6,0,1.6-0.3c-0.2-0.7-0.7-0.3-0.3-1
	c0.2-0.3,0.5-0.5,0.7-0.8C69.8,72,69.5,71,69.5,71c0-1.6,0.1-3.2,0.3-4.7c0.2-1.6,0.5-3.1,0.7-4.7c0-0.5-0.3-2-0.3-1
	c-0.3,3.1-0.8,6.2-1.2,9.5c0,0.2,0,1.6-0.3,1.6c-0.5,0-0.7,0.2-0.7-0.5c0.2-0.8-0.2-1.3,0-2.3c0,0.2,0.2,1,0.2,1.1
	c0.1-1.1,0.3-2.2,0.5-3.3c0.4-1.8,0.6-3.7,0.7-5.6c0-4.7,3.8,1.8,3.3,2.1c-0.5,0.2-0.3-1.1-0.7-1.1s-0.3,7-1.3,7
	c0,0,0.3-4.7,0.3-5.4c0-0.5,0.2-1,0.2-1.5s-0.3-1.3-0.5-0.7c-0.2,0.8-1.3,9.5-0.8,9.7s0.3-1.5,0.7-1.6c0.3-0.3,0.5,0.5,0.7-0.3
	c0.2-0.3,0-2,0.5-2.1c0,0.5,0.2,1,0.3,1.5c-0.2,1.2-1,2.1-1.3,3.1c-0.3,1-0.9,1.9-1.6,2.6c-0.4,0.3-0.8,0.5-1.3,0.5
	C67.4,75,67.4,74.4,67.5,74.4L67.5,74.4z M67.5,64.6c0.2-0.2,0.3,0.7,0,0.7C67.3,65.1,67.3,64.8,67.5,64.6L67.5,64.6z M67.8,60.5
	c0-0.5,0.2-1.2,0.8-1c0.5,0.2,0.2,1.8,0.2,2.1S68.7,68,68.2,68c-0.2,0,0.3-5.7,0.3-6.5c0-0.3,0-2.6-0.3-1.3c-0.3,1,0.2,2.8-0.5,3.6
	C68,63.4,67.7,61.1,67.8,60.5L67.8,60.5L67.8,60.5z M68,72.3c0.8-1.5,1,2-0.2,1C67.7,72.9,67.8,72.6,68,72.3L68,72.3L68,72.3z
	 M72.3,65.9c0,0,0.5-2.3,0.5-2.6c0.2,1,0.5,3.4-0.5,4.1C72.2,66.9,72.2,66.4,72.3,65.9L72.3,65.9z M90.8,60c0.4,0.2,0.8,0.5,1.2,0.8
	c0,0.2-2.1-1-2-1.3C90.3,59.7,90.5,59.9,90.8,60z"/>
<path id="jC-2" class="st0" d="M40.5,100.1c0,0,0,2.3,0.5,1.6c0.3-0.3,0.2-2,0.2-2.4s0.2-1-0.5-0.8C40.2,98.8,40.5,99.6,40.5,100.1
	L40.5,100.1L40.5,100.1z"/>
<path id="jD-2" class="st0" d="M41,95.2c0,0.5,1,3.8,1,3.8c0.3-0.5-0.3-2.3-0.5-3c0-2,0.2-3.8,0-5.7c0-1.3-0.5,0-0.5,0.7L41,95.2
	L41,95.2L41,95.2z"/>
<path id="jE-2" class="st0" d="M41.6,101.6c0,0.8,0,2.8,1.2,2.8c-0.3-0.8-0.5-1.6-0.7-2.4c0-0.3,0-2.1-0.3-2.1
	C41.3,99.8,41.6,101.2,41.6,101.6L41.6,101.6L41.6,101.6z"/>
<path id="jF-2" class="st0" d="M42.3,96.2c0,0.2,0.5,3.3,1,2.8c-0.1-1.2-0.3-2.3-0.5-3.4c0.1-1.6,0.1-3.3,0-4.9
	c0-0.5-0.5-0.3-0.5,0.2C42,92.6,42,94.4,42.3,96.2L42.3,96.2L42.3,96.2z"/>
<path id="jG-2" class="st0" d="M43.1,94.9c0,0.5,0.5,5.2,1.2,4.7c0.2,0-0.7-6.4-0.7-6.9c0,0.2-0.2-1.8-0.5-1S43.1,94,43.1,94.9z"/>
<path id="jH-2" class="st0" d="M44.1,102.7c0.2,0.3,1.3,3.6,1.8,3.6c0.7,0-1-2.6-1.2-2.9c-0.2-0.5-0.8-2.8-1.3-2.8
	C43.1,100.4,43.9,102.6,44.1,102.7z"/>
<path id="jI-2" class="st0" d="M44.1,96c0,0.5,0,3.8,1,3.6c0.3,0-0.3-3.1-0.5-3.6c0-0.5,0.2-3.8-0.2-3.8
	C43.8,92.3,44.1,95.5,44.1,96z"/>
<path id="jJ-2" class="st0" d="M44.7,101.6c0.7,0.7,1.6,5.2,3,5.2c-0.4-1-0.8-2-1.3-3c-0.3-0.5-0.5-1-0.7-1.5c0-0.5-1.3-2-1.3-1.1
	C44.5,101.3,44.7,101.4,44.7,101.6L44.7,101.6L44.7,101.6z"/>
<path id="jK-2" class="st0" d="M45.4,94.5c0.1,1.4,0.4,2.8,1,4.1c0.8,1.6,0.5,0,0.2-0.8c-0.4-1.5-0.6-3-0.8-4.6
	c-0.2-1.3-0.5-1.1-0.3-0.5C45.3,93.3,45.3,93.9,45.4,94.5L45.4,94.5L45.4,94.5z"/>
<path id="jL-2" class="st0" d="M46,101.7c0.5,0.7,0.8,1.6,1.3,2.4c0.2,0.2,2.1,3.1,2.3,2.8c0.2-0.5-1.5-2.4-1.8-2.9
	c-0.3-0.7-1.2-2.9-1.8-3.3C45.4,100.8,46,101.9,46,101.7L46,101.7L46,101.7z"/>
<path id="jM-2" class="st0" d="M46.5,94.4c0.2,0.5,1.2,5.7,2,5.7c0.5,0-0.7-3.3-0.8-3.4c-0.2-0.3-0.8-3.9-1.2-3.9
	C45.9,92.6,46.4,94.2,46.5,94.4L46.5,94.4L46.5,94.4z"/>
<path id="jN-2" class="st0" d="M46.5,107c1.5,2.3,3.3,4.3,5.4,6c0.4,0.3,0.8,0.5,1.3,0.7c0.3,0.2,0.6,0.3,1,0.3
	c0.5-0.5-0.5-0.5-0.5-1s-2-2.3-2.3-2.8c-0.5-0.5-1.5-3-2.1-3.1c-0.8-0.2,3,5.6,3.3,5.4c-0.5,0.5-5.3-6.2-5.9-6.2
	C46.4,106.4,46.4,106.6,46.5,107L46.5,107z"/>
<path id="jO-2" class="st0" d="M46.9,101.3c0.5,1,2.8,5.9,4.1,5.9c0.3,0-1.8-2.9-2-3.1c-0.4-0.6-0.8-1.2-1.2-1.8
	c0,0.2-1.3-2-1.3-1.3C46.7,100.9,46.8,101.1,46.9,101.3L46.9,101.3L46.9,101.3z"/>
<path id="jP-2" class="st0" d="M47.7,93.7c0.3,1.1,0.7,2.3,1,3.3c0,0.2,1,2.3,1.2,1.1c0.2-0.3-1-2.1-1.2-2.4s-0.8-3.3-1.3-2.9
	C47.5,93.1,47.6,93.4,47.7,93.7L47.7,93.7z"/>
<path id="jQ-2" class="st0" d="M49.5,103.4c0.2,0.2,2.6,3.4,2.6,3.1c0-0.7-3.8-5.4-3.9-5.2C48,101.3,49.5,103.3,49.5,103.4
	L49.5,103.4L49.5,103.4z"/>
<path id="jR-2" class="st0" d="M49.3,94.5c0.3,0.9,0.7,1.7,1.2,2.5c0,0,1.5,1.5,1.3,0.8c-0.2-0.3-2.6-4.7-2.6-4.7
	C49.2,93.6,49.2,94.1,49.3,94.5L49.3,94.5z"/>
<path id="jS-2" class="st0" d="M50.1,101.4c0.5,0.8,3.3,5.7,4.6,5.2c-1-1.1-1.9-2.2-2.8-3.4c-0.5-0.9-1-1.8-1.6-2.6
	C49.6,99.8,49.8,101.1,50.1,101.4L50.1,101.4z"/>
<path id="jT-2" class="st0" d="M51.3,109.4c1.3,1.7,2.7,3.3,4.3,4.7c0.2,0.2,0.7,0.2,0.5-0.2c-0.4-0.4-0.8-0.8-1.3-1.1
	c-0.7-0.7-2.6-3.9-3.6-3.9C50.8,108.9,50.8,109.3,51.3,109.4L51.3,109.4L51.3,109.4z"/>
<path id="jU-2" class="st0" d="M51.8,101.1c0.6,1,1.3,2,2,2.9c0.4,0.6,0.9,1.1,1.5,1.6c0.3,0.2,1.3,0.3,1,0.2
	c-1.3-1-2.3-2.2-3.1-3.6c-0.4-0.9-1-1.6-1.6-2.3C50.8,99.3,52,101.2,51.8,101.1L51.8,101.1L51.8,101.1z"/>
<path id="jV-2" class="st0" d="M51.9,95.2c0,0,1.6,2.6,1.8,2.3c-0.6-1.6-1.4-3.1-2.3-4.6C51,92.7,51.9,95,51.9,95.2L51.9,95.2z"/>
<path id="jW-2" class="st0" d="M53.1,100.9c0.8,1.2,1.6,2.4,2.6,3.6c0.4,0.5,0.9,0.9,1.5,1.3c1,0.7,0.3-0.3,0-0.7
	c-0.5-0.4-1-0.8-1.5-1.3c-0.3-0.7-2.5-4.1-3.1-4.1C52.1,99.6,53.1,100.9,53.1,100.9L53.1,100.9L53.1,100.9z"/>
<path id="jX-2" class="st0" d="M53.9,99.8c0.5,0.5,1.8,2,1.8,2.6s1.3,1.6,1.8,2c0,0,1.8,1.3,1.6,0.8s-1.3-0.7-1.5-1.1
	c-0.3-0.7-1-1.1-1.3-1.8c-0.3-0.5-0.8-1.1-1.2-1.6c-0.2-0.4-0.5-0.7-0.8-1C54.1,99.3,53.4,99.3,53.9,99.8z"/>
<path id="jY-2" class="st0" d="M56.2,100.6c0.8,1.2,1.7,2.4,2.8,3.4c0.2,0.2,2.5,1.6,2.3,1.3c-0.2-0.5-1.8-1.3-2.3-2
	c-0.7-0.8-1.3-1.8-2-2.6c-0.4-0.7-0.9-1.4-1.5-2C54.7,98.2,56.2,100.3,56.2,100.6L56.2,100.6z"/>
<path id="jZ-2" class="st0" d="M56.5,99c0.3,0.2,4.9,6.7,5.7,5.9c0.3-0.3-3.1-3.1-3.4-3.6c-0.4-0.6-0.8-1.3-1.2-2
	c-0.3-0.3-0.5-0.6-0.7-1C57,97.8,55.7,98.3,56.5,99L56.5,99z"/>
<path id="ka" class="st0" d="M58.7,98.6c0.7,1.1,1.6,2.1,2.5,3.1c0.3,0.3,3,2.8,3,2.3s-2.6-2.4-3-2.9l-1.5-2c-0.3-0.5-0.6-1-1-1.5
	C57.8,97.3,58.8,98.9,58.7,98.6L58.7,98.6L58.7,98.6z"/>
<path id="kb" class="st0" d="M59.7,97.7c0.5,0.2,1.5,2,2,2.4c0.7,0.8,2.6,2.9,3.6,2.9l-2.8-2.8c-0.7-0.7-1.4-1.5-2-2.3
	c-0.2-0.2-0.3-0.4-0.3-0.7C60.1,96.8,59.2,97.3,59.7,97.7z"/>
<path id="kc" class="st0" d="M61.3,96.7c0.3,0,5.1,7,5.7,5.6c0-0.2-2.9-2.6-3.1-2.9c-0.2-0.4-0.5-0.8-0.8-1.1l-1-1.5
	C61.3,96,61.1,96.7,61.3,96.7L61.3,96.7L61.3,96.7z"/>
<path id="kd" class="st0" d="M63.4,97c0.7,0.8,1.5,1.6,2.3,2.3c0.2,0.2,2.3,1.8,2.3,1.5c0-0.8-2.9-2.8-3.6-3.6
	C63.6,96.2,61.8,95.4,63.4,97L63.4,97L63.4,97z"/>
<path id="ke" class="st0" d="M64.9,96.3c0.8,0.9,1.6,1.7,2.5,2.4c0.6,0.5,1.3,0.9,2,1.3c0.7,0.3,0.8-0.3,0.5-0.5
	c-1.2-0.3-2.2-1-2.9-2c-0.5-0.5-2-2.8-3-2.8C63.6,94.8,64.9,96.3,64.9,96.3L64.9,96.3z"/>
<path id="kf" class="st0" d="M65.7,111c0.5,0.3,6.2,3.3,6.2,1.6c0,0-2.8-0.3-3.3-0.5l-3.4-1.8C65.3,110.6,65.5,110.9,65.7,111
	L65.7,111z"/>
<path id="kg" class="st0" d="M66.7,95.8c1,1,2,1.9,3.1,2.8c0.2,0.2,1.5,0.2,1.2,0c-1-0.6-1.9-1.3-2.8-2L66,94.5l-0.7-0.8
	C64.7,93.3,66.6,95.8,66.7,95.8L66.7,95.8L66.7,95.8z"/>
<path id="kh" class="st0" d="M68.5,95.4c0.2,0.2,3.5,3.4,3.9,2.6c0.3-0.5-2.8-1.5-2.8-2.1c0-0.5-2.5-2.8-2.9-2.8
	C66.4,93.1,68.3,95.2,68.5,95.4L68.5,95.4L68.5,95.4z"/>
<path id="ki" class="st0" d="M69.7,94.2c0.5,0.5,2.6,2.9,3.6,2.4c0.2-0.2-2.1-1.6-2.3-1.8c-0.3-0.3-2.5-2.8-3-2.4
	C68.4,93.1,69,93.7,69.7,94.2z"/>
<path id="kj" class="st0" d="M69.3,92.1c1.2,1,2.1,2,3.4,2.9c0.5,0.4,1.1,0.8,1.6,1.1c0,0,1.3,0,1.2-0.2c-0.5-0.7-2.3-1-3.1-1.6
	c-0.3-0.4-3.4-3.1-3.6-2.6C69,91.9,69.1,92,69.3,92.1L69.3,92.1L69.3,92.1z"/>
<path id="kk" class="st0" d="M71.1,91.6c0.7,0.5,4.3,4.3,4.9,2.8c-0.2,0.2-2.6-1.5-2.8-1.6c-0.5-0.3-2.1-2.4-2.9-2.1
	C70,90.8,71.3,91.8,71.1,91.6L71.1,91.6L71.1,91.6z"/>
<path id="kl" class="st0" d="M71.9,90.1c0.5,0.5,5.3,4.3,5.9,3.6c0.3-0.3-2.1-1.3-2.3-1.6c-0.5-0.7-3-2.6-3.8-2.6
	C71.6,89.6,71.6,89.8,71.9,90.1L71.9,90.1L71.9,90.1z"/>
<path id="km" class="st0" d="M72.1,58.9c1.1-0.2,2.2-0.4,3.3-0.7c0.3,0,5.2,0.2,5.4-0.2c0.3-0.5-4.1-0.5-4.4-0.5
	c-1,0-2.1,0.2-3.1,0.2C72.9,58.1,71.1,58.9,72.1,58.9L72.1,58.9L72.1,58.9z"/>
<path id="kn" class="st0" d="M73.3,89.3c1,0.8,3.9,3.6,5.4,3.1c0,0-2.1-1.8-2.6-1.3c0,0-2.8-2.8-3.3-2.6
	C72.4,88.7,73.1,89.3,73.3,89.3L73.3,89.3z"/>
<path id="ko" class="st0" d="M73.1,60.4c0.7,0.3,3.8-0.5,4.6-0.5c0.3,0,4.3,0,3.9-0.5s-3.9,0-4.6,0C76.7,59.2,72.1,59.7,73.1,60.4z"
	/>
<path id="kp" class="st0" d="M73.7,87.5c0.7,0.5,6.1,3.4,6.1,3.1s-2.6-1.6-2.9-1.8c-0.7-0.5-1.3-0.8-2-1.3
	C74.5,87.3,72.9,86.7,73.7,87.5L73.7,87.5L73.7,87.5z"/>
<path id="kq" class="st0" d="M74.1,61.2c0.5,0.3,2.9-0.3,3.4-0.3h3.1c0.2,0,1.6-0.5,0.8-0.5c-1.3,0-2.8-0.2-4.1-0.2
	C77.3,60.4,73.2,60.7,74.1,61.2L74.1,61.2L74.1,61.2z"/>
<path id="kr" class="st0" d="M74.2,62.5c0.5,0.3,7.5-0.2,7.4,0.2c0-0.8-3.8-0.8-4.1-0.8C77.4,61.8,73.6,62.2,74.2,62.5L74.2,62.5
	L74.2,62.5z"/>
<path id="ks" class="st0" d="M76.7,63.5c0.5,0,5.4,0.3,5.4,0.3c0.3-1.5-7.5-0.5-7.4-0.3C75.4,63.6,76.1,63.6,76.7,63.5L76.7,63.5
	L76.7,63.5z"/>
<path id="kt" class="st0" d="M75.2,86.4c1.3,1.2,2.7,2.2,4.3,3.1c0.6,0.3,1.2,0.5,1.8,0.7c0.7,0.2,0.3-0.7-0.2-0.7
	c-1.2,0-2.1-1-2.9-1.6l-3.4-2.3C74.8,85.9,75,86.1,75.2,86.4L75.2,86.4z"/>
<path id="ku" class="st0" d="M75.2,70.3c0.8,0,5.4,1.8,5.7,1.5c0.3-0.5-2.9-1.5-3.3-1.6c-0.7-0.3-1.5-0.4-2.3-0.3
	C74.7,69.8,74.6,70.3,75.2,70.3L75.2,70.3L75.2,70.3z"/>
<path id="kv" class="st0" d="M76.5,64.9c1.4,0,2.8,0.1,4.3,0.3c0.5,0,0.9,0.1,1.3,0.3c0,0.2,1.2-0.8-0.5-0.8c-1.2,0-6.2-1.6-6.7-0.2
	C74.7,65,76.3,65,76.5,64.9L76.5,64.9L76.5,64.9z"/>
<path id="kw" class="st0" d="M75.2,66.4c0,0,7.1,1.3,6.9,1.5C83.1,66.7,74.2,65.4,75.2,66.4L75.2,66.4L75.2,66.4z"/>
<path id="kx" class="st0" d="M76.7,68.7c0.5,0,4.9,1.3,4.9,1.1c0.8-1.3-6.6-1.6-6.2-1.5C75.8,68.6,76.2,68.8,76.7,68.7z"/>
<path id="ky" class="st0" d="M76,85.2c0.8,0,2.1,1.1,2.9,1.6c0.7,0.3,1.4,0.7,2.1,1.1c0.5,0.5,1-0.2,0.5-0.3
	c-1.2-0.3-2.3-1.5-3.3-2.1c-0.5-0.4-1.1-0.8-1.8-1C75.8,84.4,75.6,85.2,76,85.2L76,85.2z"/>
<path id="kz" class="st0" d="M77.8,84.7c1.3,0.7,3.3,3.1,4.6,3.1c1.2,0-0.5-0.8-0.7-1c-0.5-0.3-1-0.7-1.5-1.2
	c-0.2-0.2-1.3-0.8-1.2-0.3c-0.3-0.5-1.2-1.8-2.1-1.5C76.7,84.1,78,84.7,77.8,84.7L77.8,84.7L77.8,84.7z"/>
<path id="kA-2" class="st0" d="M78.3,82.9c0.5,0.5,5.1,3.4,5.3,3.3c0.2-0.5-5.4-4.3-5.6-4.1C77.7,82.4,77.9,82.8,78.3,82.9
	L78.3,82.9L78.3,82.9z"/>
<path id="kB-2" class="st0" d="M79,81.8c0.8,0.4,1.7,0.8,2.6,1.1c0.9,0.7,1.8,1.3,2.8,1.8c0-0.7-2-2-2.5-2.3c-0.2-0.2-3.3-1.6-3.1-1
	c-0.1,0.1-0.1,0.2,0,0.3C78.9,81.7,78.9,81.8,79,81.8L79,81.8L79,81.8z"/>
<path id="kC-2" class="st0" d="M79.8,80.6c0.5,0.5,1.8,0.8,2.5,1.3c0.3,0.2,2.9,2.3,3.1,2s-5.2-4.6-5.7-3.6
	C79.6,80.5,79.7,80.6,79.8,80.6L79.8,80.6L79.8,80.6z"/>
<path id="kD-2" class="st0" d="M80,78.8c0.2,0.5,2.6,1.1,3.1,1.5c0.3,0.2,2.5,2.1,2.5,2.1C86.9,81.1,79.5,77.7,80,78.8z"/>
<path id="kE-2" class="st0" d="M80.8,77.5c1.4,0.6,2.7,1.3,3.9,2c0.2,0.2,2.3,1.8,1.8,1c-0.9-1-1.9-1.9-3.1-2.4
	c-0.5-0.3-1.2-0.7-1.6-1C81.3,76.9,80,77.1,80.8,77.5L80.8,77.5z"/>
<path id="kF-2" class="st0" d="M81.9,58.1c0.7,0,3.8,1.1,4.1,0.8c0.5-0.5-4.4-2.1-4.6-1.2C81.4,58.1,81.6,58.2,81.9,58.1
	C81.9,58.1,81.9,58.1,81.9,58.1z"/>
<path id="kG-2" class="st0" d="M81.8,75.9c0.7,0.2,5.6,2.9,5.6,2.8c0.2-0.3-2.6-2-2.9-2.3c-0.5-0.4-1.1-0.7-1.8-0.8
	C82.3,75.4,81,75.6,81.8,75.9L81.8,75.9z"/>
<path id="kH-2" class="st0" d="M83.3,74.9c1.3,0.3,3.3,3.3,4.4,3.1c-0.5-0.7-1.2-1.4-1.8-2c-0.5-0.5-2.1-2.3-2.9-1.5
	C82.8,74.7,82.9,74.9,83.3,74.9L83.3,74.9L83.3,74.9z"/>
<path id="kI-2" class="st0" d="M82.9,59.5c0.8,0.3,1.7,0.5,2.6,0.7c0.5,0.2,1.5,0.8,2,0.3s-2.1-1.2-2.5-1.3
	c-0.5-0.3-1.1-0.4-1.6-0.3C83.3,58.9,82.6,59.2,82.9,59.5L82.9,59.5L82.9,59.5z"/>
<path id="kJ-2" class="st0" d="M83.1,73.6c0.3,0.1,0.5,0.2,0.8,0.2c0.8,0.2,1.5,0.6,2,1.1c0.3,0.2,2.8,2.4,2.9,2.3
	c0.3-0.2-2.3-2.4-2.5-2.6c-0.6-0.6-1.3-1.1-2.1-1.5C84.1,73.1,82.6,73.1,83.1,73.6L83.1,73.6L83.1,73.6z"/>
<path id="kK-2" class="st0" d="M83.3,71.8c0.3,0.1,0.5,0.2,0.8,0.2c0.7,0.3,1.3,0.8,1.8,1.3c0.3,0.2,2.8,2.8,2.8,2.6
	c0.3-0.3-2.1-2.9-2.5-3.3c-0.5-0.5-1.1-0.9-1.8-1.1C84.4,71.5,82.4,71,83.3,71.8L83.3,71.8L83.3,71.8z"/>
<path id="kL-2" class="st0" d="M84.4,68.7c1.5,1.2,3.1,2.4,4.8,3.4c1.5,1,0.5,0,0.8-0.2c-0.8,0.5-4.4-4.3-5.7-3.8
	C84.1,68.4,84.1,68.5,84.4,68.7L84.4,68.7L84.4,68.7z"/>
<path id="kM-2" class="st0" d="M84.2,61c0,0.2,4.1,1.5,4.3,1.1C88.7,61,83.9,60.2,84.2,61z"/>
<path id="kN-2" class="st0" d="M84.7,70.3c1.2,0.2,2.3,1.3,3.1,2.1c0.4,0.4,0.8,0.8,1.2,1.3c0.3,0.5,0.7,0,0.3-0.3
	c-0.9-1.2-2.1-2.3-3.3-3.1c-0.5-0.3-1.1-0.6-1.6-0.8C83.9,69.7,84.5,70.3,84.7,70.3L84.7,70.3L84.7,70.3z"/>
<path id="kO-2" class="st0" d="M84.4,65.4c0.8,0.5,2,0.5,3,1c0.5,0.3,2.1,2,2.6,1.8c0.3-0.2-2.1-2.1-2.3-2.3
	c-0.4-0.3-0.8-0.6-1.3-0.8C86,65.1,83.9,65.3,84.4,65.4L84.4,65.4L84.4,65.4z"/>
<path id="kP-2" class="st0" d="M84.9,67.2c1,0.2,1.9,0.7,2.6,1.3c0.3,0.3,2,1.6,2.1,1.3c-0.6-0.7-1.3-1.4-2-2
	c-0.5-0.5-1.1-0.9-1.8-1.1c0,0-2-0.3-1.3,0.2c0,0.1,0,0.3,0.2,0.3C84.8,67.2,84.8,67.2,84.9,67.2L84.9,67.2z"/>
<path id="kQ-2" class="st0" d="M84.7,64c0.5,0.3,1.3,0.5,1.8,0.8c0.5,0.2,2.9,2.4,3.1,2c0.2-0.8-1.8-2-2.3-2.3
	C87,64.5,83.4,63,84.7,64L84.7,64L84.7,64z"/>
<path id="kR-2" class="st0" d="M84.4,62.7c0.9,0.2,1.8,0.6,2.6,1c0.2,0.2,2.5,1.5,2,0.7c-0.7-0.8-1.6-1.4-2.6-1.6l-1.5-0.5
	C84.9,62.2,84.1,62.7,84.4,62.7L84.4,62.7L84.4,62.7z"/>
<path id="kS-2" class="st0" d="M89.8,92.9c0.2,0.7,0.5,2.6,1,3.1s0.2-1.1,0.2-1.1c-0.3-1.1-0.7-2.1-1.2-3.1
	C89.5,90.9,89.7,92.9,89.8,92.9L89.8,92.9L89.8,92.9z"/>
<path id="kT-2" class="st0" d="M91.4,63.5c1,0,2.3,1.2,3.1,1.6c1,0.6,1.9,1.4,2.6,2.3c0-0.5-2.3-3.1-2.6-3l-2.1-1.1
	C92.3,62.4,90.1,63.4,91.4,63.5L91.4,63.5L91.4,63.5z"/>
<path id="kU-2" class="st0" d="M92.1,87.2c0.6,1.3,1,2.8,1.2,4.3c0.2,1.8,0.5,0.5,0.5,0.2c0.2-0.5-0.8-5.1-1.5-5.1
	C92.1,86.6,92,86.9,92.1,87.2C92.1,87.1,92.1,87.1,92.1,87.2L92.1,87.2z"/>
<path id="kV-2" class="st0" d="M92.6,65.4c2,0.8,3.1,3.3,4.4,4.7c0.7,0.7,0.3-0.7,0.2-1c-0.5-0.5-0.8-1.2-1.3-1.6
	c-0.3-0.3-3.6-3.4-3.8-2.6L92.6,65.4L92.6,65.4L92.6,65.4z"/>
<path id="kW-2" class="st0" d="M94.2,81.5c0.5,0.7,2,5.6,2.1,5.6c0.8,0-1-4.7-1.2-5.1c-0.3-0.4-0.6-0.8-0.8-1.3
	C94.1,79.8,93.8,80.6,94.2,81.5z"/>
<path id="kX-2" class="st0" d="M94.2,78.2c0.7,0.9,1.3,2,1.8,3.1c0.2,0.3,0.7,2.4,0.7,2.4c1.6,0.5-2.3-7.5-2.9-6.4
	C93.7,77.7,93.9,78,94.2,78.2L94.2,78.2L94.2,78.2z"/>
<path id="kY-2" class="st0" d="M60.6,69.2c0.4,0.7,0.9,1.3,1.5,1.8c0.5,0.5,1,1.1,1.5,1.6c0.5,0.5,0.8,0,0.5-0.3s-3.6-3.6-3.6-3.8
	C60.5,68.8,60.5,69,60.6,69.2C60.6,69.2,60.6,69.2,60.6,69.2z"/>
</svg>
