<?xml version="1.0" encoding="utf-8"?>
<!-- Generator: Adobe Illustrator 19.2.0, SVG Export Plug-In . SVG Version: 6.00 Build 0)  -->
<svg version="1.1" id="Calque_1" xmlns="http://www.w3.org/2000/svg" xmlns:xlink="http://www.w3.org/1999/xlink" x="0px" y="0px"
	 viewBox="0 0 74.5 85.6" style="enable-background:new 0 0 74.5 85.6;" xml:space="preserve">
<style type="text/css">
	.st0{fill:#BDBDBD;}
</style>
<path id="eg" class="st0" d="M17,0.4C15.1-1,16.5,2.1,16.3,2c0.9,0.2-0.3,3.2-0.5,3.3c-0.5,1.1-0.9,2.3-1.2,3.5
	c-0.5,1.6-0.8,3.2-1,4.8c-0.1,1.6,0.5,3,0.6,4.6c0,1.4,0.6,2.4,1.2,3.6c1.4,2.6,1.9,5.3,3.8,7.8c1.7,2.3,3,5.8,5.3,7.7
	c1,0.8,2.4,1.2,3.4,2.1l2.1,2.2c1.2,1.1,2.5,1.9,4,2.5c1.3,0.5,2.6,0.8,4,0.9c1.2-0.1,2.5-0.2,3.7-0.1c0.1,0.2-9.8,3.1-9.9,3.7
	s-4.6,1.6-5.4,1.8c-1.5,0.5-2.8,1.2-4.1,2c-3.8,2-7.1,4.7-9.9,7.9c-1.5,1.8-2.7,3.8-3.6,6c-0.4,1.1-1.1,2-2,2.8
	c-0.5,0.3-0.7,1.2-1,1.6c-2.2,1.6-2.1,3.4-2.8,6c-0.3,1.6-0.8,3.2-1.4,4.7c-0.6,1.3-1.1,2.6-1.5,4c0.9,0.3,3.3-1,4.2-1.3
	c1.5-0.6,3.3-0.5,4.9-0.7c1.3-0.3,5,0.9,5.8-0.1c0.2-0.3,2.7,0.1,3.2,0c0.8-0.2,1.6-0.5,2.4-0.8c1.8-0.4,3.5-1,5.1-1.8
	c2-1,3.8-2.2,5.4-3.7c0.8-0.8,3.1-3.7,3.1-4.7s1.4-3.2,2-4.4c0.8-2.2,1.3-4.4,1.5-6.7c0.1-1.9,0.8-3.6,1.1-5.5
	c0.2-2.1,0-4.3,1.4-6.1c-0.2,1.6-0.2,3.3,0.2,4.9c0.2,2,0.5,4,1,6c0.6,1.5,1.5,3.1,2,4.8c0.7,1.7,1.6,3.3,2.7,4.8
	c0.2,0.7,0.5,1.4,0.8,2.1c0.3,0.4,0.6,0.4,0.8,0.8c0.6,0.7,1.1,1.4,1.8,2c1.3,1.2,2.2,2.6,3.5,3.7c2.5,2.3,5.6,3.8,9,4.4
	c2.1,0.6,4.3,1,6.4,1c1.2-0.2,2.6-1.2,3.6-1.6c0.5-0.3,0.7-1.5,0.3-1.7c-0.7-0.3-1.4-0.7-2.1-1.1c-0.3-0.2-2.6-2.2-2-2.6l-0.2-3.7
	c-0.3-0.9-0.6-1.9-0.7-2.8c-0.5-2.3,0.2-4.6-0.3-7c-0.3-1.5-0.3-3.3-0.7-4.8c-0.5-1.2-1.2-2.4-2.1-3.4c-1-1.3-2.2-2.4-3.5-3.4
	c-1.5-1-2.2-2.6-3.3-3.7c-1.5-1.7-4-2.5-6.1-3.3c-0.8-0.3-4.9-1.8-5.3-1.1c0.6-0.9,3-1.7,4-2.1c1.2-0.5,2.4-1.1,3.5-1.8
	c1.1-0.8,3.4-1.1,4.7-1.4c0.8-0.2,9.1-0.9,9.1-0.7c0.1-0.6,6,0.9,6.5,0.8c1,0,0.8-2.3,0.9-2.9c0-1.1-0.3-1.2-1.3-1.2
	c-2-0.3-4-0.1-6.1-0.3c-4.4,0-8.7,0.7-12.8,2.1c-3.2,1.1-6.3,2.7-9,4.8c-0.2,0.1-2.2,1.9-2.3,1.1c0.2-1,0.2-2,0.1-3
	c-0.2-1.6-0.3-3.1-0.3-4.7c0-1.9-1.1-3.6-1.2-5.4c0-2.3-0.9-4.6-1.5-6.8c-0.4-2-1-4-1.8-5.9c-0.9-1.7-1.6-3.4-2.4-5.2
	c-1.4-2.6-5.1-4.6-7.6-6C24.7,2.9,20.2,2.7,17,0.4L17,0.4L17,0.4z M16.7,1.1c0.1,0.3,2.4,0.4,1.4,1.6c-0.6,0.7,2.1,1.9,1,3
	C19,5.6,18,4.3,17.8,4.6c0.4,0.9,0.9,1.8,1.4,2.6C19,6.9,18.9,6.1,18.3,6c-0.2,0,1.1,2.3,0.7,2.8c-0.8,1-0.9-1.7-1.4-1.5
	c-0.7,0.4,0.8,2.5,1,2.9c0.1,0.6,0.2,1.2,0.2,1.8c0.9,0.1,1.3-1.9,1.5-2.8C20.6,8.6,19.6,8.8,20,8c0.3-0.5,0.5-1.1,0.6-1.7
	c0.2-0.4-0.4-2.6-0.2-2.8C20,3.7,20,4.8,19.5,4.1c-0.4-0.4,0.1-0.8,0.2-1.1c0.3-1.1-0.7,0.2-1,0c-1.3-1.6,1.7-0.5,1.9-0.5
	c1.4,0.4,0.7,0.6,0.9,1.6c0,1-0.1,2-0.5,3c-0.2,1.3-0.4,2.5-0.4,3.8c-0.1,0.9-0.8,1.8-0.9,2.8c-0.2,0.7-0.4,1.3-0.6,2
	c0,0-2.2-6.9-2-7.7c0.2-0.9,0.2-1.8,0.2-2.7c-0.2-0.3-0.4-0.6-0.3-1C17,3.2,16.9,2.2,16.7,1.1L16.7,1.1z M21.7,6.9
	c0.1-1.1,0.3-2.2,0.6-3.3c0.2-0.3,2.2,0.5,2.5,0.5c1.1,0.6,2.4,1.2,3.6,1.5c0.8,0.3,1.6,0.8,2.2,1.4l-0.2,1.3
	c0.1,0.8,0.2,1.7,0.4,2.5c0.2,1.2,0.1,2.4-0.2,3.5c-0.6,3.2-1.3,6.3-2.4,9.3c-0.5,1.5-1.1,3.1-1.5,4.6c-0.6,1.8-1.8-0.9-2.3-1.8
	c-1.3-1.8-2.3-3.8-3-5.9c-0.5-1.7-1.9-3.5-1.5-5.4c0.2-1.3,1-2.6,1.1-3.9C21.2,9.8,21.4,8.3,21.7,6.9L21.7,6.9L21.7,6.9z M19.5,6.1
	c0.1-0.8,1.2-0.3,0.2,0.7C19.4,7,19,6.5,19.2,6.2C19.2,6,19.5,6.4,19.5,6.1L19.5,6.1z M31,7.8c0.4-0.6,2.3,1,2.8,1.6
	c0.9,0.9,1.6,2,2.1,3.2c0.1,0.2,0.9,2.4,0.6,2.3c-0.2,0-1.3-1.8-1.6-2c-1.1-1.4-0.6,0.7-1.4,0.8c0,0,1.1-2.1,0.7-2.3
	s-0.9,1.8-1.4,1.6c-0.6-0.3,0.4-1.6,0.3-1.9c-0.6-1.2-0.8,1.3-0.8,1.3c-0.1,0.6,1.3,2,1.7,2.5c0,0.2,1.5,2.2,0.3,2
	c-0.2,0-1.6-2.5-1.8-2.2c-0.5,1.1,3.5,3.7,1.7,4.9c-0.4-0.7-0.7-1.9-1.4-2.3c0.5,0.9,0.9,1.8,1.2,2.8c0.1,0.5,0.3,1,0.6,1.4
	c0.1,0.3-0.6,0.7-0.2,1.1c0.1,0.2,0.4-0.4,0.5-0.4s-0.3,0.8-0.4,0.7s-0.5-1-0.7-1.1c-0.4-0.7-0.9-2.5-1.6-3c0.3,0.2,2.3,5.2,1.8,5.4
	c-0.7,0.2-1.4-3.6-2.1-3.4s2.7,5.4,1.9,5.8c-0.5,0.3-2.5-4.7-2.7-4.4c0.2,1,0.5,1.9,1,2.7c0.4,0.7,0.6,1.5,1,2.2s0.1,0.5,0,1.3
	c0,0.3,0.6,0.1,0.8,0.3c0.1,0.3-0.7,0.2-0.9-0.1c-0.2-0.4-0.4-0.8-0.5-1.2c-0.3-0.4-1-2.9-1.5-3s0.5,1.9,0.5,2.2
	c0.2,0.5,1.7,2.7,1,3.2s-0.8-0.9-1-1.1s-1.7-2.9-1.7-2.6c-0.1,0.6,1.2,2.4,1.5,3s0.6,1.1,0.9,1.6s-0.4,0.3-0.6,0.7
	c0.4,0.1,0.7,0.1,1.1,0c0,0-0.7,0.7-1,0.5c-0.5-0.4-0.8-0.9-1.1-1.4c0-0.2-1.5-2.8-1.5-2.8c-0.8,0,2.6,5.2,2.6,5.4
	c-0.4,1.2-2.1-1.8-2.3-2c-0.4-0.4-0.8-0.7-1.1-1.1c1,1.8,2.4,3.4,3.4,5c0.3,0.4,0.9,1.3,0.9,0.1s-0.4-0.5,0.4-0.4
	c-0.6-0.1,1.4-1.7,1.4-1.7c0.5-0.4,0-1,0.3-1.2c0,0,1-1.6,1.1-1.8c0-0.8-0.9,0.4-0.7,0.4c-1-0.5,1-1,1-1.3c0.5-0.9-0.3-0.4-0.6-0.4
	s0.9-0.7,0.8-1c0-0.2-0.2-0.5-0.4-0.4c0.1-0.5,1-0.5,1-0.2c0-0.5,0-1.1-0.1-1.6c0.2-0.1,1,0,0.9-0.5c-0.1-0.3-0.2-0.6-0.3-0.9
	c0.1-0.6,0.9-0.5,0.4-1.5c-0.4-0.4-0.4-1,0-1.4l0,0c0.9-0.7,0.1,0.3,0.6,0.1c0.3-0.1-1.8-5.9-2-5.9c1.1,0.2,2.5,4.7,2.5,5.5
	c0.2,1,0.7,2,0.4,3c-0.4,1.2-0.6,2.5-0.7,3.8c-0.6,2.8-2.7,4.9-4.1,7.3c-0.4,0.8-1,1.5-1.6,2.2c-0.5,0.3-2.3-2-2.7-2.2
	c-1.6-1.2-2.8-2.8-3.5-4.7c-0.4-1.8,1-3.7,1.5-5.6c0.3-1.2,1-2.4,1.4-3.8c0.4-1.6,0.8-3.2,1-4.8c0.4-1.6,0.5-3.3,0.4-4.9
	C31.2,10.1,30.5,8.7,31,7.8L31,7.8z M16.3,5.6c0.1,0,0.2-0.1,0.3-0.1c0.3,0-0.1,3.2-0.1,3.7c0.2,1,0.4,2,0.7,3
	c0.1,0.5,1.9,5.3,1.9,5.4c-0.9,0.4-2.8-1.9-3.3-1.5c-0.7,0.5-1.8-2.2-1.7-2.7c0.1-1.6,0.4-3.2,1-4.7C15.4,7.9,15.7,6.1,16.3,5.6
	L16.3,5.6L16.3,5.6z M18.8,9.8c0.1-0.8,1.7-0.7,0.4,0.7C19,10.7,18.8,10,18.8,9.8z M34.3,13.7c0.5-0.9,1.4,0.1,0.9,0.6
	C34.6,15.1,34,14.3,34.3,13.7z M35.4,14.9c0.7-0.5,1.2,0.4,0.5,0.7c-0.3,0.1-0.4,0.6-0.8,0.2C34.9,15.3,35,15.1,35.4,14.9L35.4,14.9
	L35.4,14.9z M35.8,16.4c0,0,0.7-0.5,0.7-0.2c0,0.2-0.8,0.9-0.9,0.5C35.7,16.6,35.8,16.5,35.8,16.4L35.8,16.4L35.8,16.4z M36.3,17.6
	c0,0,0.5-1.1,0.6-0.7c0,0.4-0.2,0.8-0.5,1.1C36.4,17.8,36.4,17.7,36.3,17.6z M35,17.4c-0.3-0.2,0.8-0.7,0.5-0.3
	C35.4,17.3,35.2,17.4,35,17.4L35,17.4L35,17.4z M36.8,18.1c0.2-0.1,0.2-0.3,0.4-0.4c0,0,0.2,0.8-0.4,0.7
	C36.7,18.3,36.7,18.3,36.8,18.1L36.8,18.1L36.8,18.1z M35.4,18.2c0-0.3,0.1-0.5,0.4-0.6C36.4,17.9,35.6,18.9,35.4,18.2L35.4,18.2
	L35.4,18.2z M37,19.2c0-0.2,0.4-0.6,0.5-0.4C38.3,19,36.9,20,37,19.2L37,19.2z M35.6,18.9c0.1-0.1,0.3-0.2,0.5-0.3
	C36.6,18.9,35.4,19,35.6,18.9L35.6,18.9z M36.1,19.5c0.5-0.4,0.9,0.5,0.4,0.7S35.8,19.8,36.1,19.5L36.1,19.5z M14.6,16.6
	c-0.1-0.2,0-0.5,0.3-0.6c1.5,0.9,3.2,2.4,4.8,2.2c0.5-0.1,3,6.6,2.5,7.3c-0.2,0.1-0.4-1.8-0.9-1.7c-0.8,0.2-1.1-2.6-1.9-2.7
	c0,0,0.3,2.6,0.2,2.8c-0.6-1.4-1.2-2.8-2-4.2c-0.2,0,0.9,3.8,0.9,4.5c-0.3-0.4-1.2-2.8-0.9-2.9c0.2,0-0.6,0.9-0.5,0.3
	c-0.1-0.3-0.2-0.6-0.4-0.9c0-0.2-0.7-1.7-0.9-1.6c-0.6,0.6,1.4,3.3,1.5,3.9c0.2,0.8-0.4,2.7,0.6,1.4c0.3-0.6,0.4,1.7,0.4,1.7
	c0,1,0.5-0.3,0.5-0.3c0.2-0.5,0.2-0.3,0-1.1c-0.1-0.4-0.1-0.9-0.1-1.3c0.3,0,0.7,1.6,0.7,1.9c-0.1,0.4-0.1,0.9,0.1,1.3
	c0.2-0.1,0.3-0.2,0.4-0.4c0.3,0,0.2,0.8,0.3,1c0.4-0.4,0.9-0.7,1.4-0.9c0.1,0.4,0.2,0.9,0.1,1.3c0.5,0.7,0.6,0.1,0.6,0.1
	c1.1,0.2,0.4-0.3,0.2-1.1c-0.2-0.7-0.3-1.4-0.2-2.1c0.4,1,0.9,1.9,1.5,2.8c0.4,0.4,1.8,2,1.7,2.7c0,0-6.9-2-7.4-2.9
	c-0.1-0.3-1-0.5-1-1c-0.1-0.3-0.1-0.6-0.2-1c-0.4-0.9-0.7-1.9-1-2.7C15.1,20.2,14.2,18.9,14.6,16.6L14.6,16.6z M35,19.5
	c0.1,0,0.2-0.1,0.3-0.1c0.3,0-0.3,0.9-0.5,0.9C34.7,20,34.8,19.7,35,19.5C35,19.5,35,19.5,35,19.5L35,19.5L35,19.5L35,19.5z
	 M37.8,19.9c0.8-0.2,0.3,0.9-0.3,0.6C37.3,20.5,37.7,19.9,37.8,19.9L37.8,19.9L37.8,19.9z M35,20.5c0.8-1,0.7,0.8-0.1,0.8L35,20.5z
	 M36.6,20.7c0.2-0.3,0.4-0.3,0.5,0.1c0.1,0.2-0.5,0.4-0.5,0.4C36.3,21,36.3,20.8,36.6,20.7L36.6,20.7z M36.8,22
	c0-0.2,0.3-0.6,0.4-0.4C37.9,21.8,36.7,22.6,36.8,22L36.8,22L36.8,22z M35.3,21.8c0.1-0.3,0.3-0.5,0.6-0.6
	C36,21.4,35.5,22,35.3,21.8L35.3,21.8L35.3,21.8z M35.7,22.5c0-0.3,1.1-0.6,0.8,0.1C36.3,22.9,35.7,23,35.7,22.5z M37.3,22.7
	c0-0.2,0.2-0.3,0.3-0.2c0.5,0.1-0.2,1.1-0.4,0.6L37.3,22.7L37.3,22.7z M34.8,23.3c0-0.2,0.4-0.7,0.6-0.6
	C35.8,23.3,34.8,23.6,34.8,23.3L34.8,23.3L34.8,23.3z M36.2,23.3c0.8-1,0.8,1.1,0,0.3V23.3L36.2,23.3z M39.8,25.4
	c0-0.4,0.1-0.7,0.3-1.1c0.5,0.1,1.3,4.4,0.7,4.8c-0.2,0.3-1.6,2.2-1,2.3c0.2,0,1.1-2.1,1.2-1.8c1.2,2.4,1.1,5.8,1.2,8.4
	c0.1,0.5,0.3,5.2-0.6,5.1c-0.3-0.3-0.6-0.6-1-0.8c-1.3-0.5-2.5-1.3-3.5-2.3c-1-1-2.1-1.8-3.1-2.7c-0.7-0.6-0.4-0.7,0-1.3
	C36.7,32.7,39.1,29.9,39.8,25.4L39.8,25.4L39.8,25.4z M35.2,24c0.8-1,0.5,1,0,0.3V24z M36.7,24.5c0.1-0.2,0.3-0.4,0.5-0.4
	C37.7,24.2,36.8,25.2,36.7,24.5L36.7,24.5L36.7,24.5z M35.5,25c0.1-0.3,0.4-0.4,0.7-0.3l0.1,0.1C36.4,25.3,35.4,25.5,35.5,25
	L35.5,25L35.5,25z M34.3,24.7c0.7-1.2,0.6,1.2-0.1,0.5L34.3,24.7z M19.9,22.9c-0.1-0.5,0.8,0.9,0.8,1.2c0.1,0.5,0,1.1,0.1,1.6
	C20.3,24.9,20,23.9,19.9,22.9L19.9,22.9L19.9,22.9z M34.6,25.9c-0.1-0.3,0.6-0.6,0.6-0.6S35,26.4,34.6,25.9L34.6,25.9L34.6,25.9z
	 M35.8,26.1c0-0.3,0.9-0.5,0.8,0C36.7,26.4,35.8,26.7,35.8,26.1z M35,26.4l0.4-0.3c0.3-0.1-0.2,1.1-0.4,0.6L35,26.4L35,26.4z
	 M34.1,26.9c0.1-0.1,0.2-0.1,0.3-0.1C35.5,27.5,33,27.7,34.1,26.9L34.1,26.9z M35.5,27.5c0.1-0.1,0.3-0.1,0.4,0v0.1
	C35.7,28,35.1,27.5,35.5,27.5L35.5,27.5z M34.2,28.3c-0.3-0.2,0.5-0.4,0.5-0.4S34.7,28.6,34.2,28.3L34.2,28.3L34.2,28.3z M34.8,28.8
	c0.2-0.3,0.4-0.3,0.5,0.1c0.1,0.2-0.5,0.4-0.5,0.4C34.6,29,34.6,29,34.8,28.8L34.8,28.8z M33.6,29.5c0.1-0.5,0.7-0.2,0.6,0.1
	c-0.1,0.2-0.3,0.3-0.4,0.2C33.7,29.7,33.6,29.6,33.6,29.5L33.6,29.5z M70.9,35.2c0.6,0.1,2.7-0.1,2.8,0.7c0.1,0.5,0.1,1.6-0.4,1.9
	c-0.4,0-0.7,0-1.1-0.2c0,0,2.3-1.1,1.1-1s-1.3,1.3-2.4,0.8c0.2-0.1,2.3-1.3,1.5-1.5c-0.6-0.3-2,1.6-3.1,1.3c0.4-0.3,2.4-1.3,1.5-1.5
	c-0.2,0-3.2,2-3.1,1.6C67.5,36.7,70.5,35.1,70.9,35.2L70.9,35.2L70.9,35.2z M68.4,35.3c0.2-0.1,0.4-0.2,0.6-0.2
	c-0.3,0-2.4,3.3-3.5,2.2C66.4,36.6,67.3,35.9,68.4,35.3L68.4,35.3L68.4,35.3z M32.7,30.1c0.1-0.3,0.3-0.5,0.6-0.6
	C33.9,29.6,32.6,30.7,32.7,30.1L32.7,30.1L32.7,30.1z M18.5,27.7c0.9,0.6,2,1.1,3,1.4c1.4,0.5,2.8,0.6,4.2,1.1
	c0.7,0.2,1.2,0.6,1.6,1.2c0.1,0.2,1.5,2,0.6,2.2c-0.3,0.1-0.3-1.3-0.8-1.4s-0.3,0.1-0.7-0.4c-0.2-0.2-0.4-0.4-0.7-0.6
	c-0.8-0.1-0.3,0.6-0.3,0.9c0,0-0.8-1.4-1.3-1.2c-0.2,0.1,0.7,1.7,0,1.9c-0.2,0.1-0.5-1.9-0.7-2c-0.5-0.2-0.1,0.8-0.9-0.3
	c-0.2-0.3-0.4-0.5-0.7-0.8c-0.1,0.6,0.9,1.6,1.3,2.1c0.3,0.4-0.2,1.3,0.3,1.3c0.2-0.1,0.3-0.2,0.4-0.4c0,0,3,3.5,2.3,0.8
	c0.3,0.5,0.6,1,1.1,1.5c1.4,1.3,0.3-1.1,1-1c0.3,0,0.4,2,0.9,1.6l0.1-0.5c0.2,0,0.6,0.6,0.8,0.3c0,0-1.7-2.7-1-2.7
	c1.4,1.4,2.8,2.8,4.1,4.3c0-0.2-8.5-2.1-9.3-2.3c-1.6-0.2-2-2.4-2.9-3.5C20.6,30.7,18.4,28.3,18.5,27.7L18.5,27.7L18.5,27.7z
	 M66.2,35.2c0.3-0.2,0.7-0.3,1-0.2c-0.1,1-2.8,2.3-3.5,2.2C64.6,36.8,65.5,36.1,66.2,35.2L66.2,35.2L66.2,35.2z M34.2,30.3
	c0.2-0.3,0.4-0.3,0.5-0.1c-0.1,0.2-0.3,0.4-0.5,0.4C34.1,30.5,34.1,30.4,34.2,30.3C34.1,30.3,34.2,30.3,34.2,30.3z M64.9,35
	c0.2-0.1,0.4-0.1,0.6,0c-0.3,0.6-3.2,2.9-3.6,2.4C61.9,37.2,64.3,35,64.9,35L64.9,35L64.9,35z M62.2,35.4c0.4-0.1,0.9-0.2,1.3-0.1
	c-0.4,0.7-1,1.3-1.7,1.7c-0.2,0.1-2.2,1-2.2,0.6C59.6,36.8,61.5,35.6,62.2,35.4L62.2,35.4L62.2,35.4z M33.3,30.8
	c0.1-0.1,0.3-0.1,0.5-0.1C33.8,31.1,33,31.1,33.3,30.8L33.3,30.8L33.3,30.8z M33.7,31.5c0.2,0,0.4,0,0.5-0.1
	C34.5,31.4,32.9,31.6,33.7,31.5L33.7,31.5L33.7,31.5z M59.6,35.9c0.4-0.2,0.9-0.3,1.3-0.1c-0.3-0.2-2.6,3.2-3.2,2.1
	C57.9,38.2,59.4,35.8,59.6,35.9L59.6,35.9L59.6,35.9z M32.2,32.3c0-0.3,1-0.5,1-0.2C32.9,32.3,32.5,32.4,32.2,32.3L32.2,32.3z
	 M34.1,32.3c0.2-0.3,0.4-0.3,0.5-0.1C34.4,32.5,34.3,32.4,34.1,32.3L34.1,32.3z M57.5,36.4c0,0,1.4-0.6,1.3-0.3
	c-0.1,0.5-1.2,0.8-1.3,1.4s-1.7,0.7-1.7,0.7C56.3,37.5,56.9,36.9,57.5,36.4z M32.9,32.9c0.2-0.1,0.4-0.2,0.7-0.2
	C33.5,33,32.5,33.3,32.9,32.9L32.9,32.9L32.9,32.9z M55.7,37.1c0.3-0.3,0.8-0.5,1.2-0.6c-0.1,0.5-1.3,1.3-1.7,1.7c0,0.2-1,1-0.9,0.7
	C54.4,38.1,55.4,37.7,55.7,37.1L55.7,37.1L55.7,37.1z M25.6,32.3c-0.1-0.1-0.1-0.3,0-0.4h0.1c0.6,0.1,0.4,1.8,0.5,1.9
	C25.6,33.6,25.7,32.5,25.6,32.3z M31.9,33.4c0.1-0.1,0.3-0.1,0.4,0v0.1c0.2,0.5-1,0.5-0.9-0.1L31.9,33.4z M54.4,37.2l0.7-0.2
	c-0.7,1-1.6,1.8-2.6,2.5c0,0,1.2-1.6,0.7-1.5c-1,0.2-1.9,3.1-3,2.9c0,0,1.2-1.4,0.5-1.5c-0.3,0-1.6,2.2-1.9,1.8
	c0.1-0.2,0.2-0.4,0.3-0.6c-0.4-0.5-2.9,2.3-2.9,2.2c0.1-0.5,1-0.5,0.5-1.2c-0.1-0.2-0.5,0.2-0.5,0.2c-0.2,0.3-2.3,2.9-3,2
	S53.2,37.5,54.4,37.2L54.4,37.2L54.4,37.2z M24.7,33.1c-0.1-0.3-0.1-0.5,0.1-0.5c0.1,0.2,0.9,1.7,0.4,1.7
	C24.8,34,24.6,33.5,24.7,33.1C24.7,33.1,24.7,33.1,24.7,33.1z M26.7,33.9c-0.1-0.3-0.1-0.5,0-0.8c0.5-0.4,0.5,1.8,0.4,1.7
	C26.8,34.5,26.7,34.2,26.7,33.9L26.7,33.9L26.7,33.9z M23.8,35.9c1.3,0.4,2.6,0.7,3.9,0.9c1.3,0.1,2.6,0.3,3.9,0.7
	c0.6,0.3,1,0,1.6,0.4c0.7,0.4,8.6,6.1,8.4,6.4c-0.2,0.5-2.6,0.1-2.9,0.2c-1.3,0-2.5-0.2-3.7-0.7c-1.5-0.4-2.8-1.1-4-2
	c-1-0.8-1.9-1.7-2.6-2.7C27,38,24.1,37.5,23.8,35.9L23.8,35.9L23.8,35.9z M45.2,44.4c1.6,0,3.3,0.2,4.9,0.7l2.6,0.9
	c0.5,0.1-0.3,0.9-0.5,1.2c-0.4-0.4-1.2-1.5-1.8-1.6c-0.2,0,0,1.3-0.5,1.2s0-1-0.7-0.9c-0.5-0.1-0.4,0.7-0.6,1
	c-0.7,1.2-0.6-1.5-0.3-1.2c-0.3-0.4-0.9,0.4-1.2-0.3c-0.7-0.9-0.5,0.1-1,0.2c-0.2,0.1-0.2-0.7-0.7-0.4c-0.2,0.1-0.1,0.8-0.5,0.9
	c0,0-0.8-1.4-1-1.1c-0.1,0.5,0.8,3.5,1.5,3.6c0,0,0.5-1.5,0.6-1.7c0.3,0.4,0.6,0.7,1,1c0.7-0.4,0.3-1.2,0.9,0.1
	c0.2,0.5,0.7-0.2,0.9-0.3c0.4-0.7,1.2-0.8,0.8,0.1c-0.6,0.9,0.3,0.4,0.1,0.7c0,0.3-2.2,0.5-2.5,0.6c-0.9,0.4-2.5,0.9-3.3,0.5
	c-0.9-0.6-0.5-2.8-0.6-3.6C42.9,44.4,43.8,44.5,45.2,44.4L45.2,44.4L45.2,44.4z M52.6,47.4c0.2-0.1,0.5-1.2,0.8-1
	c0.6,0.3,1.2,0.7,1.7,1.1c0.3,0.2,2.3,1.5,2.3,2c0.1-0.5-5.2-1.4-5.3-1.3C52.3,48,52.5,47.7,52.6,47.4L52.6,47.4z M50.3,47.5
	c0.1-1,1.2-0.5,1.6-0.1c0.6,0.6-2.3,1.1-2.2,1C49.6,47.9,50.3,47.9,50.3,47.5L50.3,47.5L50.3,47.5z M46.3,46.3
	c0-0.1,0.1-0.2,0.2-0.3c0.5-0.1,0.7,0.9,0.2,1C46.5,46.8,46.4,46.5,46.3,46.3L46.3,46.3L46.3,46.3z M45.2,46.4
	c0.1-0.5,0.2-0.5,0.5-0.3c-0.2,0.3-0.3,0.7-0.3,1.1C45,47.4,45.2,46.5,45.2,46.4L45.2,46.4L45.2,46.4z M41.5,46.4
	c0-0.2,0.6-0.9,0.7-0.7c0.7,0.4-0.1,3.7,0.5,4.4s-0.3,3.2,0,3.5c0.8,0.8-0.1,8.5,0,8.5c-0.8-0.1-1.4-3.3-1.5-3.9
	c-0.1-1.3-0.3-2.7-0.5-4c-0.3-1.8-0.3-3.6,0-5.3c0-0.6,0.2-1.2,0.6-1.7C41.9,46.9,41.2,46.9,41.5,46.4L41.5,46.4L41.5,46.4z
	 M39.9,46.1c0.2-0.1,0.3-0.1,0.5-0.2c-0.3,0-2.2,2.1-2.6,2.3c-1.5,1.2-2.8,2.5-4.2,3.7c-2.2,1.8-4.7,2.5-7.5,3.2
	c-2.8,0.8-5.4,2.1-7.8,3.8c-0.7,0.4-6.3,3.4-6.4,3.2c-1.1-1.3,6.5-7.1,7.4-7.6c2-1.3,4.1-2.5,6.3-3.4c2.6-1.1,5.2-1.6,7.8-2.7
	c1.2-0.6,2.5-1,3.7-1.4C37.8,46.8,39.1,46.6,39.9,46.1L39.9,46.1z M52.7,48.8c1.7,0.3,3.3,0.8,5.1,1.2c0.6,0.1,1.1,1.3,1.5,1.8
	c0.9,0.6,1.7,1.3,2.4,2c1.1,1.3,3,2.7,3.5,4.4c0.1,0.2,0.8,2.2,0.5,2.3c-0.7-0.1-1.5-0.3-2.1-0.6c-2.5-0.8-5.1-1.3-7.7-1.3
	c-2,0.2-4.1,0.8-6.1,0.9c-0.6-0.1-1.5,0.1-1.8-0.6c-0.4-0.9-0.9-1.3-1.3-2.1c-0.6-1.2-1.2-2.4-1.8-3.8c-0.6-0.8-1-1.8-1.2-2.8
	C43.5,50.4,51.6,48.7,52.7,48.8L52.7,48.8L52.7,48.8z M38.8,48.2c0.5-0.5,1.1-0.9,1.7-1.2c-0.4,1.2-0.9,2.4-1.6,3.4
	c-0.6,1.3-0.8,2.8-0.8,4.2c-0.2,3.4-1.2,6.8-1.7,10.1c0,0.4,0,0.7-0.2,1.1c-0.3,0.6-0.5,1.2-0.6,1.8c-0.5,1.3-1.1,2.6-1.7,3.8
	c-0.6,1.1-1.2,2.2-1.9,3.3c-0.9,1.1-1.8,2.1-2.9,3c-0.1-1.5,0.5-3.5,0.8-5s-0.1-2.6,0.1-4c0.2-2.6-0.4-5.2-0.3-7.8
	c0-2.4,0.1-5.3,2.1-6.9C34.3,52.3,36.6,50.4,38.8,48.2L38.8,48.2z M43.5,53.1c0-0.4,0.1-0.8,0.3-1.1c0,0,0.8,2.2,0.9,2.4
	c0.8,0.9,1,2.2,1.6,3.3c0.4,0.5,1.5,1.8,1.3,2.8c-0.1,0.9,0,1.8,0.1,2.8c0.6,1.4-0.6,3.9-0.3,5.4c0.1,0.5,0.5,3.3,0.1,3.6
	s-1.6-2.4-1.8-2.8c-0.7-0.6-2.1-2.9-2-3.8c-0.1,0.5,1.6,0.2,0.9-0.4c-0.2,0-0.1-0.5,0.1-0.6s1.1,2.3,1.5,2.7c0.3,0.2-0.2-1.2-0.2-1
	c-0.4-0.6-0.8-1.2-1.2-1.7c-0.5-0.7-1.8-1.6-1.4-2.5c0-0.6-0.1-1.2-0.2-1.8c-0.3-0.9,0.2-2.1,0.1-3c0.4-1.4,0.1-2.6,0.1-4L43.5,53.1
	z M28.5,55.1C29,55,29.4,55,29.8,55c-0.3,0.6-1,0.5-1.3,1.1c-0.4,0.7-1,1.3-1.7,1.7c-0.9,0.9-1.8,1.8-2.7,2.8
	c-0.7,0.9-1.5,1.8-2.3,2.6c-0.9,0.8-1.9,1.5-3,2c-2.3,1.3-4.7,2.2-6.8,3.7c-2.5,1.7-5.1,4.4-8.1,5.1c0.6-1.7,1.7-2.7,2.7-4
	c1.2-1.6,2.1-3.2,3.1-4.9c1.4-2.2,3.8-3.1,6.2-4.1c2.1-0.9,4.2-2,6.1-3.3C24.2,56.4,26.5,56.1,28.5,55.1z M56.7,59.1
	c1.6,0.1,3.3,0.4,4.8,0.9c0.9,0.3,3.7,0.7,4,1.9c0.4,1.7,0.5,3,0.8,4.6c0.2,1.2-0.2,2.2,0,3.4c0.3,0.9,0.5,1.9,0.5,2.8
	c-0.4,0.3-3-0.6-3.4-0.7c-1.1-0.2-2.2-0.1-3.2,0.2c-2.7,0.7-4.2,0-5.8-2.2c-0.8-1.1-1.6-2-2.3-3.1c-0.3-0.4-1.3-2.5-1.6-2.5
	c-0.5-0.1-1.8-3.8-1.8-4.3c2.6-0.5,5.2-0.9,7.8-1.1L56.7,59.1L56.7,59.1z M29.3,56.2c0.1-0.3,0.4-0.4,0.7-0.4
	c0.3,0.4-0.5,3.6-0.6,4.3c-0.1,1.4,0,2.8,0.2,4.2c0.8,3.5,0,7.6-0.5,10.9c-0.2,2.6-2,4.9-4.5,5.6c-1.7,0.6-3.5,0.9-5.2,1.5
	c-0.8,0.2-5,1-5.5,0.5c-0.1-0.2,1.9-3.1,2.1-3.6c0.7-1.1,1.3-2.3,1.6-3.6c0.7-2.5,1.2-5.8,2.5-8C22.4,63.3,25.6,59.4,29.3,56.2
	L29.3,56.2L29.3,56.2z M48.5,62.1c0,0.3,0.2-0.1,0.3-0.1c-0.2,0,0.5,1.7,0.8,1.4c-0.4,0.4,1.1,2.3,1.4,2.6c0.7,1.2,1.5,2.2,2.4,3.3
	c1.5,2,2.7,4.2,3.7,6.5c0.1,0.5,1.3,6,1.9,5.6c-0.2,0.1-2.6-1-2.6-0.9c0-0.3-1.6-0.9-1.6-0.9c-0.3-0.2-2.5-2.3-2.5-2.3
	c0.1-0.6-1.5-1.8-1.9-2.4c-0.8-1.1-1.7-1.9-1.8-3.3c0.1-1.2,0-2.3-0.3-3.4c-0.1-0.9-0.1-1.8-0.1-2.8C48.4,64.3,48.5,63.2,48.5,62.1
	L48.5,62.1L48.5,62.1z M44,64c-0.1-0.5,0.5,0.1,0.4,0.4S44,63.9,44,64z M19,65.8c0.2-0.2,0.5-0.2,0.8-0.2c-0.5-0.1-2.7,3-3,3.3
	c-1.9,2-3.8,3.8-5.8,5.7C9.4,76,7.7,77.3,6.1,79c-0.7,0.9-1.6,1.8-2.6,2.5c-0.4,0.4-1.3,2.2-1.9,2.1c0.3,0,1.8-5.8,1.9-6.5
	c0.1-0.8,0.2-2.1,0.8-2.4c1-0.7,2-1.3,3-1.8c2.3-1.4,4.5-3,6.8-4.5C15.6,67.3,17.6,66.8,19,65.8L19,65.8z M60.9,72.5
	c1.9-0.4,3.9,0,5.6,1c0.9,0.5,0.8,2.1,1,3.1c0.1,0.9,0.4,1.7,1,2.4c0.5,0.4,0.9,0.7,1.4,1c0,0.3,3.1,1.6,0.9,1.4
	c-3.5-0.2-6.6-2.3-9.3-4.3c-0.6-0.4-5.4-4.5-5.1-4.8l1.7,0.4C59.1,73,60,72.9,60.9,72.5L60.9,72.5z M19.4,66.8l0.5-0.4
	c-0.5-0.1-1.9,6.5-2.4,7.2c-1.1,2.9-1.9,6-3.8,8.3c-0.4,0.2-0.8,0.5-1.1,0.8c-0.2,0.1-1.6-0.2-1.6-0.1c0,0-3.4,0.3-3.8,0.4l-5.1,1
	c-0.2-0.5,2.7-2.8,3.2-3.4c1.4-1.2,2.7-2.5,4-3.9c1.6-1.6,3.3-3.1,5-4.6C16.3,70.5,17.7,68.5,19.4,66.8L19.4,66.8L19.4,66.8z
	 M57.1,74.3c-0.1-0.2-0.1-0.2,0-0.2c0.8,0.1,1.5,1.8,2.3,2.1c1.4,0.5,2.4,2.1,3.8,2.8c1.2,0.7,2.2,1.3,3.4,2c0.4,0.2,3.8,1.5,4,1.2
	c-0.6,0.3-1.1,0.5-1.7,0.7c-0.5,0.4-2.4,0-3-0.1c-1.5-0.1-3.1-0.4-4.5-0.8c-1.2-0.5-2.1-1.4-2.5-2.6c-0.5-1-0.9-2.1-1.2-3.3
	C57.4,75.6,57.2,74.9,57.1,74.3L57.1,74.3L57.1,74.3z"/>
<path id="eh" class="st0" d="M25,5.1c-0.3-0.3-0.6-0.4-1-0.5c0,0.3-0.2,1.3,0.5,1.2c0.1-0.2,0.2-0.4,0.3-0.6
	c-0.2,0.1,0.8,1.1-0.2,1.4C25,6.5,25.3,8,25.4,8.2l0.4-0.3C26.2,8,25.3,9.6,26,9.4c0.2-0.1-0.3-0.4-0.2-0.5c0,0.2,0.7-0.2,0.8,0
	c0.1,0.5-0.2,1-0.7,1.2c-0.3,0-2-2.6-2.4-2.1c0,0,1.9,2.2,2,2.4c0.3,0.5,0.5,1.1,0.7,1.7c0.2-0.1,0.2-0.3,0.4-0.4
	c0.9,0.1-0.3,1.1-0.2,1.4c0.3,0.4,0.7-0.4,0.9-0.4c0.3,0-0.5,0.9-0.6,0.9c-0.4-0.5-2.9-4.3-3.3-4c0.2-0.1,2.6,4.3,2.7,4.6
	c0.2,0.5,1,0.5,0.3,1.3c-0.2,0.3-0.3,0-0.5-0.2c-0.8-1.1-2.2-2.4-2.4-3.6c0-0.2-0.8-0.1-0.4,0.4c0.6,0.8,1.1,1.6,1.6,2.5
	c0.5,0.6,0.9,1.2,1.2,1.9l-0.1,0.8c0.6,0.4,0.6,0.1,0.5,0.9c-0.1,0.5-1.2-1.5-1.2-1.5c-0.2-0.7-1.8-4-2.2-3.6
	c-0.5,0.4,4.2,6.6,3,6.9c-0.5,0.1-1.4-2.5-1.7-2.8L23,15.1c0,0-0.8-1.1-0.9-0.6s1,1.8,1.1,2.1c0.4,0.9,0.9,1.6,1.2,2.4
	c0.4,0.5,0.6,1.1,0.5,1.7c-0.6,0.7,0.4,0.4,0.6,0.6c0.4,0.9-0.6,0.6-0.8,0c-0.3-0.4-0.4-0.9-0.6-1.2c-0.5-0.9-1.7-3.6-2.6-4.1
	c-0.5-0.2,0.6,1.5,0.6,1.5c0.7,1,1.3,2,1.8,3c0,0,1.7,3.5,0.8,3.2c-0.8-0.3-1-3-1.8-3.2s-0.9-2.7-1.7-2.8c0.2,0,1.8,4,2.2,4.7
	l1.9,3.6c0.7,0.9,0.3-0.8,0.3-0.9c0.1-0.5,0.7-0.2,0.6-0.7c0-0.8,1.1-1,1.3-1.4c0.3-0.9-0.6-0.3-0.8-0.3c0,0,1.2-1.6,1.4-1.9
	c0.3-0.6-0.3-0.2-0.6-0.4c0.6,0.1,1.2-1.8,0.9-1.6c-0.1,0.3-0.3,0.5-0.6,0.6c-0.5-0.1,1.9-2.8,1.2-2.7c0,0-0.8,1.2-0.9,0.4
	c0.3-0.5,0.7-0.9,1.1-1.3c1-1.3-1.4,0.4-1.2,0.5c-1.4-0.4,0.8-1.3,0.6-1c0-0.2,0.6-1.7,0.6-1.7c-0.2,0-0.3,0.1-0.5,0.1
	c0.3-0.4,0.6-0.7,1-1c0.6-0.7-0.9-0.3-0.6-0.3c-0.8-0.1,0.5-1.4,0.5-1.5c0.1-0.8-1.2,0.3-1.2,0.3c-0.4-0.7,0.8-0.9,1-1.1
	c0.6-0.5-1.8-2.8-2.2-3.2C26.5,6.1,26.2,5.7,25,5.1L25,5.1z M25.5,6.1h0.3c0.1,0.4-0.1,0.7-0.5,0.9C25,7,25.3,6,25.5,6.1L25.5,6.1
	L25.5,6.1z M25.9,7.3c0-0.2,0.6-0.9,0.7-0.5C27,7.5,25.7,7.9,25.9,7.3L25.9,7.3L25.9,7.3z M26.8,7.8c0.4-0.7,1-0.2,0.6,0.4
	S26.4,8.5,26.8,7.8L26.8,7.8z M27.7,8.7c0.2-0.4,0.4-0.4,0.5-0.2c-0.1,0.4-0.2,0.8-0.5,1.1C27.3,9.8,27.7,8.7,27.7,8.7L27.7,8.7
	L27.7,8.7z M28.3,9.6c0.1-0.2,0.2-0.3,0.4-0.4c0.1,0.5-0.1,0.9-0.5,1.2C27.9,10.5,28.4,9.5,28.3,9.6L28.3,9.6L28.3,9.6z M26.5,9.8
	c1.3-1.3,0.1,1.1-0.3,0.6C26.2,10.3,26.3,10.1,26.5,9.8L26.5,9.8z M27,11.3c-0.4-0.4,0.6-1,0.7-0.7C28,11,27.4,11.7,27,11.3L27,11.3
	L27,11.3z M27.7,11.9c0.2-0.1,0.2-0.3,0.4-0.4c0.3-0.1-0.3,1.2-0.6,0.9C27.6,12.3,27.7,12.1,27.7,11.9L27.7,11.9L27.7,11.9z
	 M28.2,12.5c0.1,0,0.2,0,0.3-0.1c0.3,0-0.2,1.1-0.5,1.1C27.9,13.1,27.9,12.7,28.2,12.5L28.2,12.5z M26.8,13.7
	c0.2-0.3,0.5-0.5,0.7-0.7C28.3,14.1,26.6,14.8,26.8,13.7L26.8,13.7L26.8,13.7z M28.5,14c0.2-0.1,0.2-0.1,0.2,0S28.5,14.1,28.5,14z
	 M27.4,15c0.2-0.3,0.4-0.5,0.6-0.7C28.5,14.3,27.4,15.3,27.4,15L27.4,15L27.4,15z M26.4,15.8c0.1-0.2,0.3-0.3,0.6-0.3
	c-0.2,0.3-0.4,0.5-0.7,0.5C26.2,15.9,26.2,15.8,26.4,15.8L26.4,15.8z M26.8,17c-0.3-0.4,0.3-0.8,0.6-0.9
	C27.9,16.7,27.3,17.9,26.8,17z M27.6,17.6c0.7-0.5,0.6,0.3,0.2,0.7C27.3,18.5,27.3,17.9,27.6,17.6L27.6,17.6L27.6,17.6z M26.3,18.9
	c0-0.2,0.2-0.5,0.4-0.6C27.7,18.4,26.2,19.5,26.3,18.9L26.3,18.9z M27,19.9c-0.4-0.5,0.7-0.5,0.7-0.2C27.5,19.8,27.1,20.1,27,19.9
	L27,19.9L27,19.9z M26,20.9c0-0.4,0.2-0.7,0.5-0.9C26.8,19.9,26.4,21.5,26,20.9L26,20.9L26,20.9z M26.6,21.3
	c0.2-0.3,0.4-0.3,0.4-0.1s-0.6,0.7-0.7,0.4C26.4,21.5,26.4,21.4,26.6,21.3L26.6,21.3L26.6,21.3z M25.6,22.1c0.5-1.1,0.4,0.9,0,0.3
	V22.1L25.6,22.1z M25.9,23.3c-0.1-0.2,0.4-0.6,0.5-0.4S26.1,23.5,25.9,23.3L25.9,23.3z M25.2,23.9c0.1-0.1,0.3-0.2,0.5-0.3
	C25.7,24.6,24.5,24.4,25.2,23.9L25.2,23.9z"/>
<path id="ei" class="st0" d="M22.7,12.8c0.3,0.4-0.4,0.3-0.3,0S22.6,12.7,22.7,12.8z"/>
<path id="ej" class="st0" d="M16.7,11.4c0.1,0.5,1.3,4.1,1.1,4.2s-2.3-3.9-1.6-4.6C16.4,11.1,16.6,11.2,16.7,11.4L16.7,11.4
	L16.7,11.4z"/>
<path id="ek" class="st0" d="M15.6,11.3c-0.1,0.5,0.2,3.3,0,3.2c-0.9-0.1-0.7-3.7-0.3-3.6C15.4,10.9,15.6,11.1,15.6,11.3L15.6,11.3
	L15.6,11.3z"/>
<path id="el" class="st0" d="M41,31c-0.7-0.4-0.5,1.1-1.2,0.8c-0.2,0-1.3-0.7-0.7,0.2c0.2,0.4,0.4,0.9,0.6,1.4
	c-0.1,0.8-0.9-0.5-1.2-0.3c-0.5,0.3,0.8,2.1,0.8,2.1c-0.1,0.1-0.2,0.2-0.4,0.3c-0.2,0-0.8-1.4-1.3-1.2s1.4,2.1,1.5,2.3
	c0.2,0.7-2.3-1.6-2.3-1.6l2.2,3.9c0-0.1,0.1-0.2,0.2-0.3c0.5,0.2-0.2,1.1-0.5,0.9c-0.3-0.3-0.6-0.6-0.8-0.9
	c-0.3-0.2-2.3-2.6-2.4-2.4c1,1.6,2.2,3.1,3.5,4.4c0.9,0.1,0,1.8,1.3,1.2c0,0,2.2-2.1,1.5-2.2c-0.3,0-1.1,1.9-1.5,1.2
	c0.3-0.3,0.6-0.6,0.8-1c0.3-0.3,0.5-0.6,0.6-1l-0.3-0.4c0.1-0.5-1.3,0-0.8-0.9c0.2-0.5,0.9-0.4,0.7-1.2c-0.1-0.3-0.9,0.8-1.2,0.8
	c0,0,1.5-1.7,1.7-2c0.3-0.6-1.7,0.6-1.5,0.6c0.2-0.4,0.5-0.8,0.8-1.2c0-0.6-0.5-0.4,0-1.3c0.4-0.6-0.1-0.3-0.2-1
	C40.5,32,41.4,31.3,41,31L41,31z M40.1,32.6c0-0.3,0.2-0.3,0.4-0.3C40.6,32.7,39.9,33.1,40.1,32.6L40.1,32.6z M39.5,34.2
	c0.2-0.3,0.8,0,0.5,0.2C39.8,34.9,39.2,34.6,39.5,34.2L39.5,34.2z M39.5,35.8c0.2-0.3,0.6,0.1,0.5,0.2C39.6,36.3,39.2,36,39.5,35.8
	L39.5,35.8z M39.2,37.5c0-0.3,0.2-0.5,0.5-0.3c0,0.3-0.3,0.5-0.6,0.6L39.2,37.5L39.2,37.5L39.2,37.5z M39.8,38.2
	c0.1-0.2,0.3-0.4,0.5-0.4C40.6,37.7,39.7,39,39.8,38.2L39.8,38.2L39.8,38.2z M40.3,39.1c0.2-0.3,0.5-0.5,0.8-0.7
	C40.9,38.7,40.6,38.9,40.3,39.1L40.3,39.1L40.3,39.1z M39.6,39.6c0.2-0.3,0.4-0.3,0.5-0.1c-0.1,0.2-0.3,0.3-0.5,0.4
	C39.4,39.8,39.4,39.8,39.6,39.6L39.6,39.6L39.6,39.6z"/>
<path id="em" class="st0" d="M29.1,37.9l-0.3-0.4c-0.2,0,1.4,1.7,1.3,2.1c0.5,0.6,1.2,1.2,1.9,1.6c0.2,0,2.6,2,2.5,1.2
	c-0.1-0.7,0.5,0.1,0.6,0.4c0,0.8,0.5,0.1,0.6,0.1c-0.2,0,0.5,1,0.6,0.6c0-0.2,1.1,0.2,1.1,0c0,0-1.5-1.7-1-1.6c0,0,3.1,1.9,2.8,1.5
	c-0.2-0.7-2-1.4-2.6-1.8c-0.2,0-1.8-1.6-1.9-1.3c0.1-0.5-2.1-1.9-2.6-2c0.7,0.8,2.1,1.8,2,2.9c0,0-1.9-1.4-1.5-1.8
	c-0.1,0.2-0.2,0.5-0.1,0.8c-0.3-0.4-0.7-0.7-1.1-1c-0.3,0-0.1,1-0.3,0.9c-0.5-0.1-1-1.9-1-1.9L30,39C30.3,39,29.3,38.1,29.1,37.9
	L29.1,37.9z M31.9,40.5c0-0.1-0.1-0.2-0.1-0.3c0-0.2,1.3,1,1,1.1C32.4,41.2,32.1,40.9,31.9,40.5L31.9,40.5L31.9,40.5z M34.5,41
	c-0.1-0.3,2.3,0.8,1.1,1.5c-0.1-0.3-0.2-0.7-0.5-0.9c-0.5-0.2-0.2,0.5-0.4,0.4C34.8,41.7,34.7,41.3,34.5,41C34.6,41,34.6,41,34.5,41
	z M33.2,41.4c0-0.1,0.1-0.1,0.2-0.1l0.7,0.8C34,42.5,33.3,41.6,33.2,41.4L33.2,41.4L33.2,41.4z"/>
<path id="en" class="st0" d="M35.5,49c0.1,0.7-1.6,1.2-1.7,1.8c-0.1,0.8-2.6,1.4-2.7,2c0.1-0.6,1.4-1.7,1.9-2.1
	C33.4,50.6,35.4,48.5,35.5,49L35.5,49L35.5,49z"/>
<path id="eo" class="st0" d="M32.4,50.4c0,0.3-3.9,3.6-4.2,3.4C27.6,53.2,32.4,50.2,32.4,50.4z"/>
<path id="ep" class="st0" d="M28.9,51.5c-0.4,0.4-3.2,3.2-3.6,3s3.1-3.7,3.9-3.3C29,51.3,29,51.4,28.9,51.5L28.9,51.5L28.9,51.5z"/>
<path id="eq" class="st0" d="M25.5,52.5c0.1,0.3-2.7,3.1-3.2,3.2C22.1,55.8,25.3,51.9,25.5,52.5z"/>
<path id="er" class="st0" d="M22.2,53.8c-0.1,0.8-1.4,1.6-1.9,2.1c-0.2,0.3-1.1,1-0.6,0.1c0.2-0.3,2-2.6,2.5-2.5
	C22.2,53.6,22.2,53.7,22.2,53.8C22.2,53.9,22.2,53.9,22.2,53.8z"/>
<path id="es" class="st0" d="M19.6,55.1c0.2,0.5-2.8,2.8-2.7,2.8C16.4,57.3,19.5,54.7,19.6,55.1z"/>
<path id="et" class="st0" d="M56.2,50.7c-0.1-0.3-0.2-0.5-0.6-0.4c-0.2,0.3,0,1.1-0.5,1.1c-0.4-0.4-0.8-0.8-1.3-1.2
	c-0.6-0.1-0.3,0.8-0.6,0.9c0,0-1.2-1.8-1.7-1.4c-0.4,0.3,0,0.8-0.7,0.4c-0.2,0-0.8-0.8-1-0.5c-0.2,0.5,0.2,0.8-0.4,1.4
	c0.2-0.3,0.2-0.8,0-1.1L48.4,50c-0.1,0.5-0.9,0.4-1.2,0.3c-0.5-0.1-1.5,1.5-1.6,1c0,0-1.1-0.2-0.1,0.8c0.6,0.6,4.2,6.3,4.4,6.1
	c0.9-0.7-3.8-3.8-1.6-5.2c-0.1,0.4,0.1,0.8,0.5,1c0,0-0.1-0.3,0-0.3c0.5,0.2,2.2,2.4,2.1,2.9c-0.3-1-0.8-1.9-1.5-2.6
	c-0.5-0.2-0.8-1.4,0-1.4c0.7-0.1,0,1,0.2,1.2c0.5,0.2,0.3-0.6,1,0c0.6,0.6,1.6,3,2.4,3.1c-0.2,0-3.3-3.9-2.4-4.4
	c-0.3,0.1,0.9,1.6,0.8,1.1c0-0.3,0.2-0.1,0.3,0c0.7,0.6,1.8,3,2.6,3.1c0.3,0-2.3-3.2-0.5-3c0.3,0-0.1,0.6,0.2,0.7
	c0.5,0.1,0.1-0.6,0.6,0.1c0.3,0.2,0.6,1.2,1.1,1.3s0.9,1.4,1.5,1.5c0.5,0.1-1-1.6-0.1-1.5c0.3,0,1.8,1.7,1.9,1.3
	c0.1-0.8-1.5-1.5-1.8-2.2c0.3-0.2,0.6-0.4,1-0.3c0.1,0.2,0,1.4,0.1,1.5c0.3-0.1,0.5-0.3,0.6-0.6l1.2,1.6c0.5-0.2,0.5-2.5,1.5-1.5
	c0.7,0.8-0.2,1.1,0.1,1.6c0.3,0.4,0.7-0.5,0.9-0.5s0.5,0.7,0.8,0.8c-0.6-0.1-0.2-1.8-0.2-2.1c0.1-1-0.8-0.1-0.9,0.4
	c-0.1-0.3-0.4-0.6-0.7-0.8c-0.3,0,0.3-0.9,0-1.1c-0.6-0.4-0.4,0.7-1.2,0.2c-0.4-0.4,0-1-0.5-1.2c-0.3-0.2-0.6,0.9-1,0
	c-0.1-0.3,0.1-0.5-0.4-0.5C57.7,52.6,56.4,51.1,56.2,50.7L56.2,50.7z M51.4,50.9c-0.2-0.5,0.4-0.6,0.5-0.1
	C52.1,51.5,51.5,51.3,51.4,50.9z M55.8,51.6c0.2-0.5,0.7-0.1,0.3,0.2C56,52.3,55.7,51.9,55.8,51.6z M53.7,51.4
	c0-0.2,0.2-0.3,0.4-0.3c0.3,0-0.3,0.8-0.4,0.7C53.5,51.8,53.5,51.6,53.7,51.4L53.7,51.4z M49.9,51c0.2-0.3,0.4-0.3,0.5-0.1
	c0,0.4-0.2,0.8-0.5,1.1C49.7,51.7,49.7,51.3,49.9,51L49.9,51L49.9,51z M54.4,52c0-0.1,0.1-0.3,0.2-0.3c0,0,0.1,0,0.1,0
	c0.2,0.5-0.6,0.9-0.6,0.7C54.2,52.3,54.3,52.1,54.4,52z M48,50.8c0,0,0.7,0.8,0.1,0.5C48.1,51.1,48,50.9,48,50.8z M56.6,52.5
	c0.1-0.1,0.1-0.2,0.2-0.3C57.3,52,56.5,53.1,56.6,52.5L56.6,52.5z M52.2,51.5c0.4-0.4,0.6,0.3,0.4,0.5S52.2,51.8,52.2,51.5
	L52.2,51.5z M50.6,52.5c-0.3-0.4,0.2-1.3,0.6-0.9S51.1,52.9,50.6,52.5L50.6,52.5z M48.5,51.8c0-0.3,0.2-0.6,0.5-0.6c0,0,0,0,0,0
	C49.1,51.2,48.7,52.1,48.5,51.8L48.5,51.8z M47.2,51.1c0.2-0.1,0.2-0.1,0.3,0.2C47.3,51.3,47.2,51.2,47.2,51.1L47.2,51.1L47.2,51.1z
	 M55,52.8c0-0.2,0.1-0.3,0.3-0.3c0.1,0,0.2,0,0.2,0.1c0.1,0.3-0.6,1-0.7,0.7C54.9,53.1,55,52.9,55,52.8L55,52.8L55,52.8z M57.2,53.1
	l0.4-0.3c0.3-0.1,0.2,0.7,0,0.8S57.2,53.2,57.2,53.1L57.2,53.1L57.2,53.1z M53.1,52.8c0-0.2,0.1-0.5,0.3-0.6
	C53.6,52.2,53.3,53.2,53.1,52.8L53.1,52.8L53.1,52.8z M55.9,53.4c0.2-0.1,0.2-0.3,0.4-0.4s0.2,1.2-0.3,1.1S55.7,53.5,55.9,53.4
	L55.9,53.4L55.9,53.4z M51.6,52.7c0.1-0.2,0.2-0.3,0.4-0.4C53.2,52.8,50.8,53.9,51.6,52.7L51.6,52.7z M49.2,52
	c0.3-0.6,0.6,0.6,0.2,0.8C49.1,52.6,49,52.3,49.2,52L49.2,52L49.2,52z M47.5,52.1c0.1-0.2,0.2-0.3,0.4-0.4
	C48.2,52,47.5,52.4,47.5,52.1L47.5,52.1L47.5,52.1z M46.1,51.9c0-0.1,0.1-0.2,0.2-0.3c0.1,0.3,0,0.6-0.3,0.8
	C45.9,52.3,45.9,52.2,46.1,51.9C46.1,51.9,46.1,51.9,46.1,51.9z M58,54c0.1-1,1.2-0.2,0.7,0.4C58.5,54.9,57.9,54.3,58,54L58,54
	L58,54z M53.8,53.4c0-0.3,0.1-0.5,0.4-0.3c0,0.1-0.1,0.3-0.2,0.3C53.9,53.4,53.8,53.4,53.8,53.4L53.8,53.4z M48.1,52.7
	c0-0.2,0.1-0.3,0.2-0.5C48.6,52.1,48,53.3,48.1,52.7L48.1,52.7L48.1,52.7z M46.7,52.7c0,0,0.3-0.8,0.4-0.6S46.6,53.1,46.7,52.7
	L46.7,52.7z M56.5,54.2c0.3-1.1,1.2,0.8,0,0.8l-0.4-0.5C56.3,54.4,56.5,54.3,56.5,54.2L56.5,54.2z M52.5,53.4c0.1,0,0.2-0.1,0.3-0.1
	c0.6,0.1-0.8,1.3-0.8,0.8L52.5,53.4z M59.2,54.7c0.4-0.6,0.5-0.2,0.9,0.1c0.3,0.4-0.3,1.1-0.5,1.4C59.2,55.9,59,55.3,59.2,54.7
	L59.2,54.7L59.2,54.7z M54.3,54c-0.2-0.5,0.5-0.4,0.5-0.1C54.8,54.1,54.4,54.3,54.3,54L54.3,54L54.3,54z M47.1,53v-0.3
	C47.3,52.6,47.2,53.2,47.1,53L47.1,53L47.1,53z M55,54.8c-0.4-0.5,0.5-0.4,0.5-0.1S55.1,54.9,55,54.8L55,54.8L55,54.8z M55.7,55.3
	c0-0.1,0.1-0.2,0.2-0.3c0.3-0.1,0.5,0.9,0.2,1C55.8,55.9,55.6,55.6,55.7,55.3L55.7,55.3L55.7,55.3z M46.7,53.8
	c0.2-0.1,0.2-0.1,0.3,0H46.7L46.7,53.8z"/>
<path id="eu" class="st0" d="M63.8,57.3c0.1,0.3-0.6,1.7-0.8,1.3c0.1-0.6,0.3-1.2,0.7-1.7C63.6,57.1,63.7,57.2,63.8,57.3L63.8,57.3
	L63.8,57.3z"/>
<path id="ev" class="st0" d="M51,57.1v0.3c-0.2,0.1-0.6-0.6-0.1-0.5C50.8,57,50.9,57.1,51,57.1L51,57.1L51,57.1z"/>
<path id="ew" class="st0" d="M36.9,51.3c0,0-6,4.8-5.8,5.3c0.1,0.3,3.5-3,4-2c0.2,0.5-1.3,0.4-1.4,0.6c-0.2,0.3,0.6,0.3,0.2,0.5
	c-0.4,0.4-0.9,0.8-1.3,1.3c-0.2,0.1-1.5,1.4-1.2,1.6s2.6-2.2,3.6-1.7c0.5,0.2-2.1,1.5-1.8,1.7c0.4,0.4-2.2,1.6-1.4,1.9
	c0,0,2.4-1.3,2.4-0.8c-0.5,0.8-1.2,1.4-2,1.8c-1.1,0.7-0.2,1.1,0.4,0.4c0.6-0.9,1.6-0.9,2.7-1c-0.2,0.5-0.7,0.8-1.2,0.8
	c-1.3,0-0.2,0.5-0.1,0.6c0.4,0.7-1.6,0.2-1.3,0.9c0.3,0.4-0.4,0.7-0.3,0.8c0.3,0.2,0.6-0.6,0.6,0.3c0.1,0.5-0.4,0.4-0.6,0.7
	c-0.3,0.8,1.3-0.4,1.3-0.4c0.5-0.4,1.4,0.4,2-0.2s-1.4-0.5-1.2-0.8c0.2-0.5,0.9,0.1,1.3-0.3c0.4-0.6-0.4-0.4-0.4-0.7
	c0.1-0.5,1.3,0,0.9-0.8c-0.2-0.7-1.5,0.6-1-0.8c0-0.2,1.7-0.6,0.8-0.8c-0.7-0.2-1.4-0.2-2.1,0c0.6-1,1.3-0.1,2-0.7
	c0.9-0.5-0.7-0.8-0.7-0.8c0.1-0.5,1.4-0.6,1.3-1.1c-0.1-0.3-1.5,0.1-1.5-0.4s1.1-0.8,1.4-0.8c1.9,0.3-0.1-0.7-0.2-0.7
	c0.2-0.1,0.2-0.3,0.4-0.4c-0.1,0.6-2.2,0.6-2.7,0.6c0.6-1,1.6-0.9,2.5-0.9s-1-1-1-0.6c0.1-0.5,1.7-0.7,1.8-1.5s-2.4,0.1-1.8,0.5
	l0.5,0.1c-0.5,0.2-1.1,0.3-1.6,0.2c-0.3,0.8,2.3-2.2,2.4-2.2L36.9,51.3z M33.9,58.9c0.3-0.2,0.7-0.2,1-0.2c0.1,0.2-1,1-1.2,0.5
	C33.8,59.2,33.8,59.1,33.9,58.9L33.9,58.9z M34,62.8c0,0,1-0.3,1,0c-0.3,0.4-0.8,0.5-1.2,0.3C33.7,63,33.7,62.8,34,62.8L34,62.8z
	 M33.2,63.7c0.3-0.1,0.5-0.3,0.6,0.1s-1.2,0.3-1,0.2L33.2,63.7z"/>
<path id="ex" class="st0" d="M34.7,65.2L34.5,66c0.3,0.2,0.7-0.2,0.4,0.4s-1.9,0-2.1,1c0,0,2.4,0,1.3,0.7c-0.7,0.4-1.3,0.9-1.8,1.5
	c0.4,0,0.8,0.2,1,0.5c0.2,0.5-1,0.5-1,1.1c0,0,1.1,0.3,0.4,0.7l-1.7,0.6c-0.2-0.2-0.4-0.4-0.7-0.6c-0.6-0.4,0.7-0.5,0.9-0.5
	c0.4-0.1,0.8-0.4,0.9-0.8c0.2-0.4-1.6-0.1-1.7-0.4c-0.2-0.7,1.2-0.3,1.2-0.5c0.2-0.5,0.6-1,1-1.5c-0.6-0.1-1.4,0.6-1.6-0.1
	c-0.1-0.3,2.1-1.3,1-1.5c-1.1,0,0.1-0.5,0.6-0.6c0.8-0.2,1.8-0.5,1.9-0.8L34.7,65.2L34.7,65.2z"/>
<path id="ey" class="st0" d="M32.2,72.9c-0.1,0.5-1.9,0.5-1.8,0.1S32.3,72.3,32.2,72.9z"/>
<path id="ez" class="st0" d="M45.2,56.8c0.4,0.5,2.6,3.9,2.1,4.2c-0.3,0.1-3-3.8-2.9-4.5C44.8,56.2,45,56.4,45.2,56.8z"/>
<path id="eA-2" class="st0" d="M44.7,58.5c0.4,1.1,1,2.2,1.6,3.1c0.3,0.4,0.5,0.8,0.7,1.2c0.1,0.2-0.4,0.6-0.5,0.1s-3-5-2.2-4.8
	L44.7,58.5z"/>
<path id="eB-2" class="st0" d="M44.7,61.5c0.4,0.5,2.9,4,2.5,4.4s-3.1-4-3-4.8C44.4,61,44.5,61.1,44.7,61.5L44.7,61.5L44.7,61.5z"/>
<path id="eC-2" class="st0" d="M25.4,57.4c-0.1,0.8-4.5,5.3-4.6,5.1c-0.4-0.4,4.4-5.8,4.5-5.5C25.4,57.1,25.4,57.3,25.4,57.4z"/>
<path id="eD-2" class="st0" d="M22.7,58.1c0.7,0.4-4.7,5.8-4.7,5.9C17.7,63.7,22.1,57.9,22.7,58.1z"/>
<path id="eE-2" class="st0" d="M20.2,60.2c0.1,0.5-2.1,2.4-2.4,2.9c-0.3,0.6-0.6,1.1-1,1.6c0.2,0-1,1.5-0.7,0.4
	c0.3-0.9,0.8-1.8,1.4-2.5C17.8,61.9,20.1,59.6,20.2,60.2L20.2,60.2L20.2,60.2z"/>
<path id="eF-2" class="st0" d="M17.4,61.7c-1.2,1.9-2.6,3.7-4,5.4c-0.6-0.1,1.4-3,1.4-3c0.4-0.6,0.9-1.2,1.4-1.7
	C16,62.4,17.5,60.9,17.4,61.7L17.4,61.7L17.4,61.7z"/>
<path id="eG-2" class="st0" d="M14.9,63.1c0.1,0.3-4,5.1-4,5.1C10.4,67.7,14.7,62.4,14.9,63.1z"/>
<path id="eH-2" class="st0" d="M12.6,63.8c-0.6,0.7-1.3,1.9-1.9,2.8c-0.2,0.3-2.1,2.4-2,2.6c-0.3-1.2,1.7-3,2.3-3.7
	c0.3-0.3,0.6-0.7,0.8-1.2C11.9,63.9,12.7,63.7,12.6,63.8L12.6,63.8L12.6,63.8z"/>
<path id="eI-2" class="st0" d="M57.1,61.1c0.3-1.1-0.9-0.5-1.1,0c-0.2,0.3,0.3,0.9-0.2,1.1s-0.2-1-0.2-1c0.4-1.5-0.5-0.1-0.8-0.1
	c-0.3,0.7-0.6,1.3-0.8,2c-0.7-0.9-0.2-1.2,0-2.1c0.1-0.5-0.6-0.1-0.6-0.1c-0.5,0.4-0.8-0.3-0.8-0.1c0,0.7,0,1.4-0.2,2.1
	c-0.5,1.5,0.7-0.1,0.7-0.1l1.2,1.8c0.4,0.5,0.8,1.2,1.2,1.8c0.3,0.4,2.3,3.9,2.8,3.8s-2.7-4.4-3-4.8c-0.7-0.9-0.4-0.7-0.3-1.5
	c0.2-1.4,0.7,0.4,0.7,0.6c0.2,0.2,0.4,0.4,0.7,0.4c0.5,0.6,0.9,1.2,1.3,1.8c0.4,0.5,0.9,2.6,1.7,2.8c0.3,0-0.4-1.7-0.5-1.8
	c-0.4-0.5-0.1-1.6,0.3-0.9c0.4,1,1,1.9,1.5,2.8c0.5,0.7,0.3-0.6,0.7-0.7c0,0.4,0.2,0.7,0.5,1c0.3-0.3,0.5-0.6,0.8-1
	c1.1,0.1,0.2,2.1,0.3,2.5c0.1,0.5,1.3-1.3,1.5-1.2c0.3-0.1,0.5-0.1,0.8,0l0.3-1.2l-0.5-0.1c-0.1-0.3,0.4-0.6,0.3-0.9
	c-0.1-0.2-0.5-0.1-0.4-0.4c0-0.5-0.2-1-0.4-1.5c-0.1-0.5-1.3-3.9-1.9-3.5c-0.3,0.1,1.3,2.1,1.2,2.6c0,0.3,0.4,2.6-0.8,2.4
	c-0.5-0.1,0.2-1.4,0.2-1.6c0-0.3-0.6-0.3-0.6-0.4s0.9-0.5,0.5-1.1c-0.4-0.7-0.5,0.4-0.9,0.5l-0.8-1.9c-0.4-0.6-0.8-1.2-1.4-1.7
	c0,0-1.1,2.9-0.7,0.2c-0.1,0.5-1.5-0.5-1.6-0.9C57.9,61.1,56.5,62.7,57.1,61.1L57.1,61.1L57.1,61.1z M57.7,62.2
	c0.1-0.2,0.3-0.4,0.5-0.3c0.2,0.1,0.4,0.3,0.3,0.5c0,0,0,0,0,0.1l0,0c-0.1,0.3-0.2,0.6-0.5,0.9C57.7,63.1,57.6,62.6,57.7,62.2
	L57.7,62.2z M60.3,63c0-0.2,0.2-0.4,0.4-0.4h0.1c0.3,0.2-0.2,1.1-0.3,1.2C60,64,60.3,63,60.3,63z M56.1,62.5
	c0.1-0.6,0.9-0.5,0.6,0.1C56.6,63.3,56,63.2,56.1,62.5L56.1,62.5L56.1,62.5z M54.6,63c0.1-0.3,0.2-0.5,0.4-0.7
	c0.5,0.2-0.1,1.9-0.3,1.7C54.3,63.8,54.5,63.3,54.6,63L54.6,63L54.6,63z M58.5,63.7c0.2-1.3,1.5-0.3,0.4,0.7
	C58.7,64.6,58.4,63.9,58.5,63.7z M61,64.1c0.8-1.2,0.4,0.7,0.1,1.3C60.7,64.9,60.6,64.5,61,64.1z M56.9,63.5c0.3-0.6,1,0.5,0.5,1.2
	C57,64.4,56.8,64,56.9,63.5L56.9,63.5z M59.3,64.7c0.7-1.7,1,0.8-0.1,0.6C59,65.3,59.1,64.9,59.3,64.7L59.3,64.7z M61.6,65.5
	c0-0.1,0.1-0.2,0.2-0.3c0.5-0.1-0.1,1.9-0.5,1.4C61.2,66.2,61.3,65.8,61.6,65.5L61.6,65.5z M57.8,64.8l0.4-0.3
	C59.5,64.7,57,66.3,57.8,64.8L57.8,64.8L57.8,64.8z M59.6,65.7c0.3,0,0.4-0.6,0.7-0.5c0.7-0.1,0.2,1.8-0.2,1.6
	C59.8,66.5,59.7,66.1,59.6,65.7L59.6,65.7L59.6,65.7z M58.4,66c0-0.2,0.2-0.3,0.4-0.3c0.5,0.1,0.2,1-0.3,0.9
	C58.4,66.3,58.2,66.1,58.4,66L58.4,66L58.4,66z M62,66.7c0.1-0.2,0.2-0.3,0.4-0.4c0.5,0.1-0.3,1.2-0.5,1.1
	C61.8,67.1,61.8,66.8,62,66.7L62,66.7z M63.5,68.4c0.2-0.6,0.6-1.1,1-1.5c0.1,0.9-0.3,1.8-1,2.3C63.5,68.9,63.5,68.6,63.5,68.4
	L63.5,68.4z M60.5,67.3c0-0.3,0.3-0.5,0.6-0.6c0.3,0-0.2,1.3-0.5,1.2c-0.2-0.1-0.3-0.4-0.1-0.5C60.5,67.3,60.5,67.3,60.5,67.3
	L60.5,67.3L60.5,67.3z M62.2,68.2c0-0.3,0.2-0.6,0.4-0.7c0.5,0.2,0,1.3-0.2,1.6C62.4,68.7,62.3,68.4,62.2,68.2L62.2,68.2L62.2,68.2z
	 M61,68.6c-0.3-0.2,0.3-0.8,0.5-0.9C61.6,67.7,61.2,69,61,68.6L61,68.6L61,68.6z M64.4,69.1c0.2-0.1,0.2-0.3,0.4-0.4
	c0.3-0.1-0.3,1.2-0.6,0.9C64.3,69.4,64.4,69.3,64.4,69.1L64.4,69.1z"/>
<path id="eJ-2" class="st0" d="M52.4,61.5c0.2,0.5-0.8,1-0.7,1.3c0.3,0.5,0.6,1,0.9,1.4c0.4,0.5,3.8,5.6,3.8,5.6
	c-0.5,0.4-4.2-5-4.7-5.4c-0.5-0.7-0.9-0.5-1.1-1.5c-0.2-0.8,0.2-2.1,0.4-0.7C51.5,62.1,52,60.8,52.4,61.5
	C52.4,61.5,52.4,61.5,52.4,61.5z"/>
<path id="eK-2" class="st0" d="M27.5,59.8c0.1-0.6-1.3,0.9-1.4,1.1c-0.4,0.4-0.6,0.7-1,1.2c-1,1.1-1.9,2.3-2.7,3.5
	c-0.2,0.1-1.4,1.7-0.7,1.3c0.5-0.4,1-1,1.4-1.6c0.2-0.3,3.4-4.3,3.4-3.4c0.1,0.3-0.5,0.1-0.5,0.2c0,0.4-0.1,0.7-0.3,1.1
	c-0.4,0.3-0.6,0.7-1,1c-0.8,0.8-1.4,1.6-2.1,2.4c-0.5,0.5-1,1.1-1.4,1.7c-0.1,0.5,2.2-2.1,2.6-2.5c0-0.2,0.8-1.2,1.1-0.7
	c0.1,0.3,1.4-0.4,1.3,0c-0.1-0.3-2.2,1.9-2.2,2.1c-0.4,0.3-3.5,2.9-2.9,3.3c1-0.7,1.8-1.5,2.6-2.4c0.2-1.1,2-0.8,2.7-0.9
	c-0.3,0.4-0.7,0.7-1.2,0.6c-1.4-0.1-0.2,0.4-0.4,0.7c-0.7,0.6-1.4,1.2-2.1,1.8c-0.2,0.1-2.4,1.9-2,1.9c0.5-0.1,4.7-3.7,5.2-2.4
	c0.3,0.4-1.7,0.4-1.7,0.4c-0.5,0.2,0.2,0.7,0.4,0.5c-0.3,0.6-5,2.6-4.9,3c0.2,0.5,1.8-0.5,2.2-0.6c0.5-0.4,0.5-0.4,1-0.2
	c0,0,1,0,0.8,0.1c-0.5,0.3-3.9,2.2-4.1,2c0.4,0.5,2.3-0.3,2.8-0.6c0.4-0.3,1.1-0.8,1.3-0.3c0.3,0.4-0.1,0.6-0.4,0.7
	s-1.7,0.4-1.7,0.9s-2,0.2-2,0.8c0,0.2,3.6-0.6,3.5-0.1c-0.1,0.6-4.1,0.7-4.3,1.6c-0.1,0.6,1.9,0,2-0.2c-0.3,0.8-2.4,1.1-2.5,1.6
	s2.6-0.6,2.8-0.6c0.8,0.1,1.5-0.6,2.6-0.3c-0.6,0.2-1.1,0.3-1.7,0.6c-1.2-0.3-1.5-0.6-2.3,0.2C19,80,17,80.1,17.3,80.8
	c0.1,0.4,0.5,0.7,0.9,0.8c1.6,0.1,3.9-0.1,5.1-1c0.4-0.3,1.8-1.5,2.5-1.4c0.4-0.1,0.7-0.4,0.8-0.8c-0.6-0.1-0.9,0.5-1.4,0.8
	c-0.2,0.1-1.4,0.9-1.3,0.3c0-0.3-0.4-0.4-0.5-0.2c0.4-0.7,1.3-0.3,1.8-0.4c0.7-0.2-0.1-0.5,0.5-0.9c1.9-1.2-1.2-0.7-1-1
	c0.3-0.6,1.1-0.2,1.5-0.4c0.1-0.3,0.2-0.5,0.4-0.7c0.5-0.3,0.9-0.7,1.3-1.1c0,0-2.2,0.5-1.8,0.1c0.3-0.4,0.7-0.7,1.1-1
	c0.9-0.5-0.1-1.3-0.6-1.2c0.2-0.1,1.1,0.3,1.3-0.1c0.1-0.5-0.6-0.3,0-0.8c0.8-0.8-0.1-0.7-0.5-1c-0.3-0.4,1.1-0.2,1.2-0.5
	c-0.1-0.7-1-0.6-1.3-0.7c-0.8,0-1.8-0.1-2.7-0.1c0.5-0.4,1.1-0.6,1.7-0.7c1,0,0.7,0.6,0.6,0.6c0.3-0.2,0.6-0.3,0.9-0.4
	c0.3,0.2,0.7,0.3,1.1,0.3c0.3-0.1,0.1-0.6-0.2-0.7c-0.8-0.3-1.6-0.5-2.5-0.5c0.4-0.4,1-0.6,1.5-0.6c1.3,0.2,0.1,0.3,0.6,0.6
	c0.3,0.2,0.9-0.5,0.5-0.9l-0.9-0.3c0-0.3,1-0.5,0.3-1.1c-0.4-0.2-0.9-0.3-1.4-0.4c0,0.2,2.5-0.6,1.1-0.8l-2.9,0.1
	c0.2-1.6,3.2,0,3.8-0.7c0.4-0.6-2.2-0.7-2.5-0.5c0.4-0.4,3.3-0.5,2.9-1.2c-0.1-0.2-1.3,0.1-1.6-0.1c0,0,1.5-0.4,1.4-0.8
	c-0.2-0.8-1.9,0-2-0.3s0.9-0.7,1-1L27.5,59.8z M26.4,61.7c0.1-0.1,0.3-0.1,0.5-0.1C27.1,61.8,26.3,62,26.4,61.7z M25,66.2
	c0.7-0.4,1.5-0.5,2.3-0.3c-0.5,1.1-1.7,0.9-2.7,0.7C24.7,66.4,24.8,66.3,25,66.2L25,66.2L25,66.2z M25.6,70c0.2-0.2,1.4-0.5,1.4,0
	c0.1,0.3-1.9,0.5-1.8,0.2C25.3,70.1,25.4,70,25.6,70z M26.2,71.2c0.4-0.2,0.9-0.3,1.3-0.1c0.4,0.5-2,0.7-1.7,0.4
	C26,71.4,26.1,71.3,26.2,71.2C26.2,71.2,26.2,71.2,26.2,71.2z M24,71c0.2-0.1,2-0.5,2-0.2c-0.1,0.5-2.1,1-2.3,0.6
	C23.8,71.3,23.9,71.1,24,71L24,71z M24.8,72.1c-0.1-0.3,0-0.3,0.5,0.1C25.2,72.3,25,72.3,24.8,72.1L24.8,72.1z M25.4,72.3
	c0.1-0.1,0.3-0.1,0.5-0.1C26.1,72.3,25.4,72.7,25.4,72.3L25.4,72.3z M23,72.2c0.4-0.1,0.7-0.1,1.1,0c-0.5,0.2-1,0.1-1.4-0.1
	C22.7,72,22.9,72,23,72.2L23,72.2L23,72.2z M25.3,73.2c0.5-0.4,1.1,0,1.7,0.3c-0.2,0.1-2.2,0.5-2.1,0L25.3,73.2L25.3,73.2L25.3,73.2
	z M23.5,73.1c0.5-0.3,1-0.3,1.5-0.1c-0.2,0.3-1.8,1.2-2,0.5L23.5,73.1z M23.6,74.4c0.7-0.3,1.4-0.2,2.1,0.1c-0.7,0.2-1.5,0.2-2.2,0
	L23.6,74.4L23.6,74.4L23.6,74.4z M24.4,75.5c0,0,1.3-0.1,1.1,0.3C25.3,75.9,24.1,75.6,24.4,75.5L24.4,75.5L24.4,75.5z M22.2,75.3
	c0.6-0.2,1.3-0.2,1.9,0C23.7,75.6,21.9,75.4,22.2,75.3L22.2,75.3z M23,76.2c0.4-0.2,0.9-0.2,1.3,0c-0.6,0.2-1.3,0.5-1.9,0.8
	C21.6,77,23,76.2,23,76.2L23,76.2L23,76.2z M22.8,77.7c0.6-0.1,1.3-0.1,1.9,0C24.7,78.1,22.2,77.9,22.8,77.7L22.8,77.7z M20.8,77.3
	c0.5-0.1,1,0,1.5-0.1c-0.6,0.5-1.4,0.6-2,0.2C20.3,77.3,20.5,77.1,20.8,77.3L20.8,77.3L20.8,77.3z M22,79.6l1.4,0.2
	c-0.4,0.6-4.3,0.5-4.2,0.3C19.4,79.7,21.7,79.6,22,79.6z M18.4,80.4c0.2-0.1,0.5-0.1,0.6,0.1C19.1,80.8,18.3,80.7,18.4,80.4
	L18.4,80.4L18.4,80.4z"/>
<path id="eL-2" class="st0" d="M49.7,66.3c0.6,1.4,1.9,2.5,2.8,3.8c0.4,0.5,1.5,2.5,2.2,2.6c0.3,0,0.8,0.8,0.3,0.9
	c-0.8,0.2-3.3-3.7-3.9-4.3c-0.6-0.7-1.2-1.5-1.7-2.3C49.2,66.4,49.4,65.3,49.7,66.3L49.7,66.3L49.7,66.3z"/>
<path id="eM-2" class="st0" d="M50.7,69.4c0.9,1.3,2,2.6,3,3.7c0.4,0.5,2.2,1.6,2,2.4c-0.6-0.4-1.2-0.8-1.7-1.2c-1-1-1.9-2.1-2.8-3
	c-0.7-0.8-1.3-1.7-1.8-2.7C49.1,67.3,50.8,69.2,50.7,69.4L50.7,69.4L50.7,69.4z"/>
<path id="eN-2" class="st0" d="M50.2,70.6c0.6,1,1.4,1.9,2.3,2.6c0.6,0.6,3.7,3.1,3.6,3.8c-1.2-0.9-2.3-1.8-3.4-2.8
	c-0.7-0.6-3.4-3.1-3.3-4C49.6,69.7,50.2,70.6,50.2,70.6C50.2,70.6,50.2,70.6,50.2,70.6z"/>
<path id="eO-2" class="st0" d="M50,72.2c0.8,1.1,1.7,2.2,2.7,3.2c0.3,0.4,3,2.9,3,2.9c-0.9,0.4-3.3-2.4-3.6-2.9
	c-0.5-0.7-1.1-1.3-1.8-1.9C50,73,49.2,71.1,50,72.2L50,72.2L50,72.2z"/>
<path id="eP-2" class="st0" d="M14.9,68.9c0.4,0.2-1.4,2.7-1.7,2.7S14.1,68.6,14.9,68.9z"/>
<path id="eQ-2" class="st0" d="M13.2,70.4c0.1,0.2-1.5,3.3-1.9,3.1C10.7,73.1,13,69.7,13.2,70.4z"/>
<path id="eR-2" class="st0" d="M11.4,71.7c0.2,0.2-1.5,2.8-1.8,2.8C8.9,74.4,11.1,70.7,11.4,71.7z"/>
<path id="eS-2" class="st0" d="M9.8,72.6c-0.4,1.3-1,2.5-1.8,3.6c-0.7,0.1,1-4.4,1.7-3.8C9.7,72.5,9.7,72.6,9.8,72.6
	C9.8,72.6,9.8,72.6,9.8,72.6C9.8,72.6,9.8,72.6,9.8,72.6z"/>
<path id="eT-2" class="st0" d="M7.8,73.9c-0.1,0.6-1.2,3.7-1.7,3.9c-0.2,0,1-4.7,1.8-4.3L7.8,73.9L7.8,73.9L7.8,73.9z"/>
<path id="eU-2" class="st0" d="M6.3,75c0.2,0.5-1,2.4-1.2,2.9c-0.3,1-0.8,2-1.4,2.9c-0.7-0.6,1.4-3.2,1.2-4C4.8,76.4,6,74.7,6.3,75
	L6.3,75z"/>
<path id="eV-2" class="st0" d="M62.8,74.4c0.4,0.5,4.1,4,4,4.3c-0.3,0.6-6.2-4.5-5-5.4C61.8,73.1,62.6,74.4,62.8,74.4z"/>
<path id="eW-2" class="st0" d="M64.4,74.3c0.1,0.2,1.6,3,1.6,3c-0.7,0.1-2.1-2.1-2-2.6c0-0.3-0.8-0.8-0.5-1
	C64,73.3,64.3,74.2,64.4,74.3L64.4,74.3z"/>
<path id="eX-2" class="st0" d="M60.7,73.9c0.4,0.5,3.2,3.2,3.1,4c0,0.3-2.1-1.9-2.4-2.1c-0.5-0.6-0.9-1.1-1.3-1.8
	C59.8,73.5,60.3,73.3,60.7,73.9z"/>
<path id="eY-2" class="st0" d="M17.7,71.2c-0.1,0.6-3.3,1.8-3.3,1.8C14.6,72.2,17.8,70.9,17.7,71.2z"/>
<path id="eZ-2" class="st0" d="M16.1,73.4c-0.1,0.6-3.7,2.2-3.8,1.8c-0.2-0.5,3.9-2.2,3.9-2.2L16.1,73.4L16.1,73.4L16.1,73.4z"/>
<path id="fa" class="st0" d="M16.3,74.6c-0.1-0.3-2.1,1-2.7,1c-0.3,0.1-4.2,1.2-3.6,1.7c-0.1-0.2,2.3-0.5,1.9,0c0,0-3.7,1.2-3.3,1.6
	s2-0.7,2.5-0.6c0.2,0,1.9,0.1,1.9,0.1c-0.9,0.5-2.3,0.2-3.1,0.5c-1,0.4-2,0.9-3,1.5c0.4,0.4,1.7-0.6,2.1-0.5
	c0.8,0.1-0.9,0.8-0.8,0.8c-1,0.2-1.9,0.5-2.9,0.9c0.3,0.4,2.3-0.5,2.8-0.2c-1.2,0.2-2.3,0.5-3.3,1c-0.7,0.5,0.1,0.5,0.4,0.4
	C6,82.6,6.9,82.2,7.7,82c1.1-0.2,2.3-0.3,3.4-0.3c0-0.3,2.3-0.1,2-0.5c-0.3,0-0.5-0.1-0.8-0.2c0,0,1-0.5,0.4-0.7
	c-0.3,0-0.4-0.2-0.9-0.3c-0.2,0-2.4,0.3-2.6-0.1c-0.1-0.5,4.5-0.3,4.5-0.1c0.1-0.5-1.2-0.8-1.5-0.9c0.2,0,2.3-0.5,1.9-0.8
	c-0.3-0.2-1.7-0.3-1.7-0.4c0.1-0.5,2.6,0.1,2.2-0.6c-0.4-0.9-1.4-0.2-2.2-0.3c-0.1-0.2,1.5-0.3,1.2-0.3c0.6-0.1,1.4,0.2,2.1,0.2
	c0.8,0-0.2-0.8-0.7-0.6C15.4,75.7,16.3,75.3,16.3,74.6L16.3,74.6z M10.3,80.6c0.7-0.3,1.5-0.2,2.2,0.2c0.1,0.3-2.7,0.1-2.7,0.1
	S10.1,80.7,10.3,80.6L10.3,80.6z"/>
<path id="fb" class="st0" d="M59.5,78.1c0.5,0.7,5.3,3,5.3,3c-0.4,0.7-5.9-2.2-5.8-3.1C59.4,77.8,59.4,77.8,59.5,78.1z"/>
<path id="fc" class="st0" d="M60.5,79.8c0.8,0.3,1.5,0.9,2.2,1.1c0.5,0.2,2.2,0.6,1.3,1.2c-0.4,0.3-4.2-2.2-4.1-2.5
	C60.1,79.7,60.3,79.8,60.5,79.8L60.5,79.8L60.5,79.8z"/>
</svg>
