<?xml version="1.0" encoding="utf-8"?>
<!-- Generator: Adobe Illustrator 19.2.0, SVG Export Plug-In . SVG Version: 6.00 Build 0)  -->
<svg version="1.1" id="Calque_1" xmlns="http://www.w3.org/2000/svg" xmlns:xlink="http://www.w3.org/1999/xlink" x="0px" y="0px"
	 viewBox="0 0 90.7 56.5" style="enable-background:new 0 0 90.7 56.5;" xml:space="preserve">
<style type="text/css">
	.st0{fill:#BDBDBD;}
</style>
<path id="dW-2" class="st0" d="M10.7,29.4c1.2-3.5,4.2-11.6,4.1-13.5C13,19.5,10.6,25.9,10.7,29.4z"/>
<path id="dX-2" class="st0" d="M18.7,19.2c-1.2,3.5-4.1,10.3-4.6,13.9c1.8-3.5,5-11.8,5.4-16.2C19.3,17.5,18.1,18.6,18.7,19.2
	L18.7,19.2L18.7,19.2z"/>
<path id="dY-2" class="st0" d="M15.4,33.8c2.5-5.6,4.7-11.4,6.5-17.3C19.6,19.9,16.6,29.8,15.4,33.8z"/>
<path id="dZ-2" class="st0" d="M23.6,25.7c-1,2.6-1.9,5.2-2.5,7.9c2.2-4.8,5.3-11.7,6-16.9C26,18.7,24.8,22.8,23.6,25.7L23.6,25.7
	L23.6,25.7z"/>
<path id="ea" class="st0" d="M42.6,28.5c-0.8-0.5-2.2-0.6-2.6-1.1c0.2,0.1,0.3,0.1,0.2-0.1c-3.2-1.1-8-1.8-10.1,1.7
	c0.2,5.8,12.7,8.6,14.2,3.4C44.3,31,43.7,29.5,42.6,28.5C42.6,28.5,42.6,28.5,42.6,28.5z M42,29.3c-1.1,0.4-1.5,2.1-3,1.7
	C39.8,30.2,40.3,28.7,42,29.3L42,29.3L42,29.3z M37,33.9c-2.1-0.9-6.5-2.8-5.5-5.2c0.6-1.3,4-2.4,6.2-0.6
	C38.1,29.6,38.5,32.3,37,33.9L37,33.9L37,33.9z M39,28.4l1.2,0.4c0.1-0.2-0.3-0.3-0.4-0.3c0-0.1,0.1-0.2,0.2-0.1c0,0,0.1,0,0.1,0
	l0,0l0.5,0.2c-0.3,0.6-0.9,1-1.6,0.9C39.2,29,38.9,28.9,39,28.4L39,28.4L39,28.4z M39.7,33.9c0.9-0.7,1.8-1.2,2.8-1.6
	C42.7,33.2,40.8,33.7,39.7,33.9L39.7,33.9z M38,33.7c1.2-1.2,2.8-2.1,4.4-2.6c-0.2-0.6-1.3-0.5-1.5,0c0.3-1.9,2.9-1.4,2.3,1
	C41.4,30.9,39.9,33.6,38,33.7L38,33.7L38,33.7z"/>
<path id="eb" class="st0" d="M71.4,1.8c7.2,4.2,11.1,9.7,14.8,15.7C83.8,10.4,78.4,4.7,71.4,1.8z"/>
<path id="ec" class="st0" d="M90.7,23.5c-0.3-7.9-4.1-16.8-13.1-20.7c-2.4-4-5.6-2.9-9.5-2.2c-6.7,1-13.8,3.2-20,4.4
	C44.3,5.7,41,5.7,37.9,6.5c-1.1,1.6-1.3,3.8-2,5.8c2.2-0.4,1-4.7,2.7-4.5c0.8,0.8,0.2,0.6-0.4,1.2c0.5,1.3-0.4,1.7-1,3.6
	c-3.8,1.3-8.1-0.9-8.7-4.1c-3.4,0-6.4,1.3-10,1.9c-2.6,0.4-8.2,0.5-9.7,2.2c-1.2,1.3-0.8,3.8-1.2,5c-1,2.8-2.7,5.6-4.1,8.6
	c0.1,1.3,1.8,1.7,1.7,3.2c0,2.1-3,3.4-3.8,5.2c0,0.5,0,1,0,1.5c-0.5,1.1-1,2.3-1.4,3.4c3.4,0.4,7.3,0.6,11.5,1.4
	c3.2,0.5,6.2,2.1,9.8,2.6c8.9,1.2,17.6,3.5,25.8,6.9c0.5-0.9,0.4-1.7,1-3c3.9-2.6,10.8,0,11,4.9c5.3-0.2,11.4,2.2,16.3,3
	c0.8,0.5-0.6,0.7,0.3,1.2c4.1-1,6.5-5.8,7.4-9C85.1,39.8,89.1,31.9,90.7,23.5L90.7,23.5z M22.4,10.1c1,0.4,2.8-0.9,4.4-0.3
	c1.3,0.5,2,2.4,3.6,3.1c2.1,0.9,4.4,1.1,6.6,0.4c2-1,4.8-3.7,2.1-6.2c9.4-1.8,19.4-2.6,28.2-5.7c2,0.7,4.5-1.1,6.6-0.3
	c0.8,0.3,1.3,1.2,2.5,2c1.7,1.1,4,1.9,5.4,3.2c4,3.2,7.6,10.6,7.8,14.8c0.1,3-1.4,5.3-2.5,7.7c-1.8-0.2-4.1-0.7-5.5-1.9
	c-3.9-1.2-7.7-1.1-11.5-1.9c-2.8-0.6-5.3-2.4-8.7-3c-0.7-0.1-1.5,0-2.2,0c-6.3-0.9-13-3-19-3.9c-1.6-0.2-3,0.5-4.4,0.3
	c-3.8-0.4-8-2.8-10.9-3c-4.6,1-10.8-1.1-15.5-1.8C13.6,11.2,18.9,11.7,22.4,10.1L22.4,10.1z M38.8,9.1c1.1-0.5,0.3,1.8-0.2,2.2
	C38.1,10.2,39.7,9.7,38.8,9.1z M5.7,30.5c-0.2,1.8-1.5,3.2-3.3,3.5C3.5,32.9,4.9,32.3,5.7,30.5z M45.7,48.3c-2.7-2,2.1-6,3.5-7
	C49,44.3,46.5,46.8,45.7,48.3z M48.7,45.6c0.2-1.6,1.4-4.5,2.9-5.1C51.3,42.5,50.3,44.4,48.7,45.6L48.7,45.6L48.7,45.6z M50.6,44.6
	c1-1.2,1.1-4.3,3-4.4C53.3,41.5,52.5,45.1,50.6,44.6z M52.8,45c0.2-1.6,1.4-4.5,3.3-3.7C55.2,42.6,54.6,44.8,52.8,45L52.8,45
	L52.8,45z M54.2,45.5c1.2-0.9,1.7-3.3,3.3-3.5C56.3,43,56.2,45.9,54.2,45.5L54.2,45.5L54.2,45.5z M55.9,46.5c-0.2-1.7,2-1.9,2.2-4.1
	c0.4,0.2,0.7,0.5,1,0.9c-0.7,1.4-1.8,2-2.5,3.4L55.9,46.5L55.9,46.5L55.9,46.5z M57.1,47.5c1.1-1.7,1.5-2.8,3-3.3
	C59.8,45.3,58.7,47.6,57.1,47.5L57.1,47.5z M58.1,48.4c0.9-1,1.6-2.4,2.9-2.5c-0.2,0.7,0.3,0.8,0,1.5c-1.1-0.2-1.5,1.2-2.1,1.9
	C58,49.1,59,48.4,58.1,48.4L58.1,48.4L58.1,48.4z M59.3,50.7c-0.3-1,1-1.7,1.5-2.7C61.4,49,59.7,49.6,59.3,50.7L59.3,50.7z M75.6,54
	c-5.2-1.2-9.7-2.2-14.6-3.1c0.7-0.9,1.4-1.8,2.2-2.6c0.3-0.8-0.8-0.8-1-1.5c-0.2-6-9-9.6-13.9-6.3c-2.4,1.6-3.1,4.1-4.8,6.5
	c-5.4-0.6-8.1-2.6-13.7-3.6c-4.9-1-10.3-1-15.4-2.7c-4.2-1.4-9-1.8-13.2-2.5c0.6,0,0.2-1.2,0.1-0.7c0-0.6,0.7-0.9,1-2.4
	c4.3,0.9,8.3-7.7,2.6-9.3l2.2-6.5c0.7-2,0.9-4.9,2.8-5c0.3,3.6-2.5,8.3-2.5,11.2c1.7-3.4,2.9-7.1,3.5-10.9c0.4-0.2,1.4,0.3,2.1,0.5
	c-1.3,4.3-3.1,9.1-4.3,12.6c1.6-0.4,1.6-2.6,2-3.6c0.9-2.5,1.9-5.1,3.1-9c1,0.4,2.1,0.6,3.2,0.4c-0.6,5-3.1,10.1-4.9,16
	c1.6,0.2,1.2-2,1.5-2.8c1.8-4.2,3.3-8.4,4.6-12.8c2.2,0.8,3.9,0.2,5.8,0.5c-2.2,6.3-5.1,14.2-6.3,18.8c2.6-4.1,4.4-12.2,7.1-18.9
	c2-0.3,3.2,0.5,4.7,1.4c-1.2,5.2-3.8,9.3-5.2,13.1c1.1,0.2,1.3-1,1.6-1.5c2.1-3.9,2.9-7.4,4.7-11.4c0.4,0.2,0.9,0.3,1.4,0.3
	c-0.4,3.4-3.2,7.6-3.5,10.1c2.1-2.4,3-6.6,4.6-9.7l2,0.7c-0.5,2-2.1,5-2,6.2c1.4-0.8,1.9-4.9,3.1-6.9c0.3,0.3,0.9,0.4,1.2,0.1
	c0.1,0,0.1-0.1,0.1-0.2c0.5,1.3-1.8,3.5-0.9,4.3c1.5-0.4,1.1-2,2.2-4.1c0.9,0.7,1.2,0.4,2.3,0.8c-0.3,1.9-2.1,4.5-1.5,6
	c1.3-1,1.2-5.2,2.7-5.8c1.4,1.4-1.4,5.3-0.8,7.9c1.5-1.5,1.3-5.5,2.5-7.7c0.8,0.3,1.8,0.8,2.2,0.2c-0.1,3-2.1,5.6-1.7,8.3
	c1.4-1.4,1.7-6.1,3.4-8.1c3,1-1.5,7.1-1.7,10.9c1.2-0.3,1.5-2.8,2.2-4.8c0.5-2,1.3-3.9,2.2-5.8c0.2,0.5,0.3,0.3,0.7,0.2
	c0.7,4-3.3,10.6-3.2,13.8c1.3-0.1,0.9-1.5,1-2.4c1-3.5,2.8-8.1,3.6-11c2.3,0.8,0.4,4.2-0.4,6.5l-2.3,6.8c2.2-1.9,3.3-8.4,5.2-12.9
	l2.3,0.8c-0.9,3.8-4.1,9.4-3.3,11.7c0.7-1,1-3.4,1.8-5.3c0.2-0.5,0.6-1.1,0.7-1.6c0.7-2,0.6-5,2.8-5c0.6,2.6-2.4,7.5-2.5,11
	c1.3-0.1,1-1.9,1.2-2.9c0.7-2.5,2-5.4,2.7-8c0.5,0.3,1,0.6,1.6,0.7c-0.6,3.5-3.6,8.2-3.5,11.8c1.6-3.1,2.7-6.9,4.7-12
	c0.2,0.5,1.4,0.3,2.3,0.8c0.3,2.5-3.4,9.8-3.1,12.3c1.5-2.3,3-8.8,4.2-11.6c0.3,0.4,0.8,0.7,1.3,0.6c-0.8,4.4-3.9,10.7-4.1,14.2
	c1.3-0.1,1.1-2.2,1.4-3.6c0.4-1.7,1.3-3.8,2-5.8c0.6-1.8,0.9-4.3,2.7-4.5c-0.8,4.5-2.7,9.5-3.9,14.6c2.1-1.3,2.1-4.9,2.6-7.1
	c0.5-1.6,1-3.2,1.7-4.8c0.4-1.2,0.8-3.4,2.7-2.4c-1.7,4.4-3.5,9.6-5.8,16.8c1.8-0.5,1.7-3.3,2.1-4.5c1.3-4.2,2.9-8.3,4.8-12.3
	c0.4,0,1.1,0.7,1.2,0.2c0.3,4.2-2.5,7.9-3.8,12.8c-0.5,1.9-0.7,4-1.2,5.7c1.5-2.1,2.4-7.5,4.1-11.2c1.3-2.7,1.1-6.5,3.5-6.8
	c0.4,2.7-1.1,4.8-2.1,7.8C75,37.6,74,42.1,72.7,46c1.4-0.8,1.6-3,2.2-4.6c2-5.8,2.8-9.3,5.1-14.2c0.3,0.2,0.7,0.3,1.1,0.2
	c-2.6,8-5,14.6-6.8,21.3c2.4-4.2,4.3-12.5,6.7-17.9c0.3-1,0.5-2.6,1.6-2.6c0.9,0.5-0.3,2.7-0.7,3.7c-1.9,4.9-5.5,14.5-7,21
	c3.6-7.3,5.3-17,9.3-23.9C82,37.5,77.5,46.7,76,52.7c1.3-0.5,0.3-1.5,1.3-2.2c-0.8,1.4-1.3,2.5-1.7,3.3L75.6,54L75.6,54z M78.7,45.4
	c1.5-5.5,3.6-10.9,6.3-16c1.1,1.3-0.8,2.7-1.3,3.8C81.9,36.9,80.5,41.8,78.7,45.4L78.7,45.4z M77.4,53.1c0.1-2.5,1.9-3.4,3.4-4
	C80.5,50.7,78.6,51.9,77.4,53.1L77.4,53.1z M78.5,49.3c0.9-2.1,2.7-2.8,3.7-4.3C81.8,46.9,80.4,48.5,78.5,49.3L78.5,49.3z
	 M79.7,46.5c-0.1-3.4,2.5-2.9,3.8-5.2C83.4,43.9,80.8,44.9,79.7,46.5L79.7,46.5z M81.3,42.8c0.2-2.7,2.7-4.1,4.2-6.2
	C85.2,39.2,83,41.3,81.3,42.8L81.3,42.8z M83.1,37.6c0.8-1.7,2-3.2,3.6-4.3C86.1,34.3,84.5,37.1,83.1,37.6L83.1,37.6z M85.2,33.7
	c-0.1-2.5,2.3-3.3,3.1-5.1C88.3,31.1,86.1,32.2,85.2,33.7L85.2,33.7z"/>
<path id="ed" class="st0" d="M65.2,3.2c6,3.2,9.9,8.6,13.3,12.6C75.9,9.9,71.1,5.4,65.2,3.2L65.2,3.2L65.2,3.2z"/>
<path id="ee" class="st0" d="M82.9,16.3c-2.8-4.9-6.3-10.5-12.9-13c5.7,3.6,9.1,8.3,12.5,13C82.9,16.5,83.3,16.4,82.9,16.3
	L82.9,16.3L82.9,16.3z"/>
<path id="ef" class="st0" d="M66.7,15.1c-0.9-3.5-5.9-6.1-10.1-6.1c-0.7,0.9-1.5,1.5-2.1,2.4C56.2,14.6,64.3,20.9,66.7,15.1
	L66.7,15.1L66.7,15.1z M62.2,16.1c0.8-0.1,1.3-1,2.3-1.1C63.6,15.3,63.3,16.7,62.2,16.1z M64.3,16.1c0.2-0.7,1-0.6,1.1-1.1
	c-0.6-0.4-0.8,0.1-1.2-0.2c0.2-0.5,0.8-0.1,0.8-0.8c0.3,0.3,0.6,0.4,0.9,0.5C65.6,15.5,65.1,16.4,64.3,16.1L64.3,16.1L64.3,16.1z
	 M55.9,11.2c1.4-2.3,3.9-0.5,6.7,0.1c0.4,0.9-0.6,0.6-0.6,1.3c0.7,0.1,1.1-0.5,2.1,0c-0.6,0.6-1.6,0.4-2,1.4c1,0.4,2-1.4,3.2-0.2
	c-1.5,0.4-2.6,1.7-4,2.5C59,14.7,56.5,13.5,55.9,11.2L55.9,11.2L55.9,11.2z"/>
</svg>
