<?xml version="1.0" encoding="utf-8"?>
<!-- Generator: Adobe Illustrator 19.2.0, SVG Export Plug-In . SVG Version: 6.00 Build 0)  -->
<svg version="1.1" id="Calque_1" xmlns="http://www.w3.org/2000/svg" xmlns:xlink="http://www.w3.org/1999/xlink" x="0px" y="0px"
	 viewBox="0 0 128.4 92.6" style="enable-background:new 0 0 128.4 92.6;" xml:space="preserve">
<style type="text/css">
	.st0{fill:#BDBDBD;}
</style>
<path id="hd" class="st0" d="M64.1,30.9c1.6,0.3,3.1,1.2,4.3,2.4c0.1,0.2,0.3-0.1,0.2-0.1c-1.1-1.5-2.7-2.4-4.5-2.7
	c-1.8-0.3-3.6,0-5.1,0.9c-0.2,0.1,0.1,0.4,0.2,0.3C60.7,30.7,62.5,30.5,64.1,30.9L64.1,30.9L64.1,30.9z"/>
<path id="he" class="st0" d="M71.2,38.5l0.1,0.2c0.2,0.3,0.7,0,0.3-0.2l-0.1-0.2C71.4,38.1,71.3,38.3,71.2,38.5z"/>
<path id="hf" class="st0" d="M58.6,41.1c-2-1.3-2.7-3.9-1.8-6.1c0-0.1-0.1-0.2-0.1,0c-1.2,2.3-0.4,5.2,1.8,6.5
	C58.6,41.4,58.6,41.2,58.6,41.1L58.6,41.1L58.6,41.1z"/>
<path id="hg" class="st0" d="M110.3,52c-0.1-0.2-0.3,0.1-0.2,0.2c0.7,0.9,1.5,1.8,2.4,2.6c0.8,0.9,1.7,1.8,2.6,2.7
	c0.1,0,0.2,0,0.2,0c0-0.1,0-0.2,0-0.2l0,0l0,0c-0.8-0.8-1.6-1.8-2.4-2.6C112.1,53.7,111.2,52.8,110.3,52L110.3,52L110.3,52z"/>
<path id="hh" class="st0" d="M98.7,46.1c1.1,1.3,2.3,2.5,3.5,3.6c0.1,0,0.2,0,0.2,0c0-0.1,0-0.2,0-0.2l0,0c-1.1-1.2-2.3-2.4-3.6-3.4
	C98.8,45.8,98.6,46,98.7,46.1L98.7,46.1L98.7,46.1z"/>
<path id="hi" class="st0" d="M109.4,41.5c0.8,1.1,1.7,2.1,2.6,3.1c-0.1,0-0.2,0-0.3,0.1c-0.1-0.2-0.3-0.3-0.4-0.5s-0.4,0.1-0.3,0.2
	c0,0.1,0.1,0.2,0.2,0.3c-0.1,0-0.2,0-0.3,0.1h-0.8c-0.5-0.6-1-1.1-1.6-1.6c-0.1-0.2-0.4,0.1-0.3,0.2c0.3,0.5,0.8,0.9,1.2,1.3l-2,0
	c-0.3,0-0.2,0.4,0.1,0.4c0.4-0.1,0.8,0,1.2-0.1l0.3,0.5c0.2,0.2,0.4-0.2,0.3-0.3c0-0.1-0.1-0.2-0.2-0.2c0.2,0,0.4,0,0.5,0
	c0.5,0.3,0.8,0.8,1.3,1.2l-1.9,0.1h-0.1c-0.1,0-0.1,0-0.2,0.1c-0.1,0-0.3,0-0.4,0.1c-0.8,0-1.6,0.1-2.4,0.1
	c-0.3-0.5-0.7-0.9-1.1-1.3c-0.6-0.8-1.3-1.6-2-2.4c-0.1,0-0.3,0.1-0.2,0.1c0.5,0.9,1.2,1.7,1.8,2.5c0.3,0.3,0.5,0.8,0.9,1.1
	c-0.4,0.1-0.9,0.1-1.3,0c-0.1-0.2-0.2-0.2-0.3-0.3c-0.6-0.9-1.4-1.7-2.1-2.4c-0.1-0.2-0.3,0.1-0.2,0.2c0.7,0.9,1.4,1.7,2.1,2.5
	c-0.4,0-0.9,0-1.3,0c-0.6-0.8-1.3-1.5-2-2.2c-0.1-0.2-0.3,0.1-0.2,0.1c0.5,0.7,1.1,1.4,1.7,2h-0.8c0,0-0.2,0.4,0.1,0.3
	s0.7,0,1.1-0.1l1.9,2.2c0.2,0.2,0.5,0,0.3-0.2c-0.6-0.6-1.1-1.3-1.7-2c0.4,0,0.9,0,1.3,0c0.6,0.6,1.2,1.4,1.8,2.1
	c0.2,0.2,0.5,0,0.3-0.2l-1.7-1.9c0.4-0.1,0.9-0.1,1.3,0c0.3,0.3,0.5,0.8,0.9,1.1s0.5,0,0.3-0.2l-0.6-0.9c0.3-0.1,0.7,0,1-0.1
	l0.3,0.4c0.2,0.2,0.4-0.2,0.3-0.3c-0.1,0-0.1-0.1-0.1-0.1c0,0,0,0,0,0l0,0c0.2,0,0.4,0,0.5,0c0.2,0,0.4,0,0.7,0
	c0.1,0,0.2,0.1,0.2,0.2c0.1,0.2,0.3-0.1,0.3-0.2c0.8,0,1.6-0.1,2.3-0.1c1.3,0,2.5-0.1,3.8-0.3c0.1,0,0.1-0.1,0.1-0.1
	c0-0.1-0.1-0.1-0.1-0.1c-1.2,0-2.4,0-3.7,0.2c-0.2,0-0.4,0-0.5,0v-0.2c-0.3-0.3-0.6-0.7-0.9-1.1h0.3c0.5-0.1,1.1-0.1,1.6,0l0.3,0.5
	c0.2,0.3,0.5,0,0.3-0.2l-0.1-0.2l1.2-0.2c0.1,0,0.1-0.1,0.1-0.1c0-0.1-0.1-0.1-0.1-0.1c-0.5-0.1-1-0.1-1.5,0
	c-0.9-1.2-1.8-2.3-2.8-3.3C109.5,41.3,109.3,41.4,109.4,41.5L109.4,41.5z"/>
<path id="hj" class="st0" d="M105.6,44.1c0.4,0.7,0.9,1.4,1.5,2c0.2,0.2,0.5,0,0.3-0.2c-0.6-0.6-1.1-1.4-1.7-2
	C105.7,43.8,105.7,44,105.6,44.1z"/>
<path id="hk" class="st0" d="M95.6,40.3c0.7,0.7,1.5,1.4,2.3,2c0.2,0.2,0.4-0.2,0.3-0.3c-0.8-0.7-1.6-1.4-2.5-2
	C95.6,40,95.5,40.1,95.6,40.3C95.5,40.3,95.6,40.3,95.6,40.3L95.6,40.3L95.6,40.3z"/>
<path id="hl" class="st0" d="M98.6,40.8V41c0,0.1,0.1,0.2,0.2,0.2c0.1,0,0.2-0.1,0.2-0.2l0,0v-0.1c0-0.1-0.1-0.2-0.2-0.3
	S98.6,40.7,98.6,40.8L98.6,40.8z"/>
<path id="hm" class="st0" d="M99.6,39.7c-0.1,0-0.2-0.1-0.2-0.2c-0.2-0.2-0.3,0.2-0.2,0.4c0.1,0,0.2,0.1,0.2,0.2
	C99.5,40.2,99.8,39.9,99.6,39.7z"/>
<path id="hn" class="st0" d="M101.7,36.8c0.6,0.8,1.2,1.5,1.9,2.1c-0.4-0.1-0.8-0.1-1.2-0.1c-0.5-0.5-1.1-1.1-1.7-1.5
	c-0.1,0-0.2,0-0.2,0c0,0.1,0,0.2,0,0.2l0,0c0.3,0.5,0.8,0.9,1.3,1.3c-0.1,0-0.2,0-0.3,0.1c-0.1-0.1-0.3,0-0.5,0
	c-0.4-0.5-1-1-1.5-1.3c-0.1,0-0.2,0-0.2,0c0,0.1,0,0.2,0,0.2l0,0c0.3,0.4,0.6,0.8,1,1.1c-0.4,0-0.9,0-1.3,0c-1.6,0.1-3.4,0.1-5,0.2
	c-0.3,0-0.2,0.4,0.1,0.4c1.6,0,3.4-0.1,5.1,0c0.5,0,1.2-0.1,1.8-0.1c0.4,0.3,0.8,0.7,1.2,1.1c0.2,0.2,0.6-0.2,0.3-0.3
	c-0.3-0.2-0.6-0.5-0.8-0.8h0.8c0.4,0.3,0.8,0.7,1.2,1.2c0.2,0.2,0.4-0.2,0.3-0.3c-0.2-0.3-0.6-0.5-0.8-0.8c0.3,0,0.6-0.1,0.8-0.1
	v-0.1c0.3,0.3,0.6,0.6,0.9,1c0.2,0.2,0.6-0.2,0.3-0.3c-1-1.1-2-2.1-3.1-3C101.7,36.6,101.6,36.7,101.7,36.8L101.7,36.8L101.7,36.8z"
	/>
<path id="ho" class="st0" d="M105.2,38.3l0.3,0.4c0.1,0.1,0.3,0.3,0.3,0.5c0.2,0.4,0.8,0,0.3-0.3c-0.1-0.1-0.3-0.3-0.3-0.5l-0.3-0.5
	C105.4,37.9,105.1,38.1,105.2,38.3L105.2,38.3L105.2,38.3z"/>
<path id="hp" class="st0" d="M78.5,38.2c1.1,1,2.3,1.9,3.5,2.8c0.2,0.2,0.4-0.2,0.2-0.2c-1.2-1-2.4-1.9-3.7-2.7L78.5,38.2L78.5,38.2
	L78.5,38.2z"/>
<path id="hr" class="st0" d="M100.1,32.9c0.3,0.3,0.6,0.5,0.9,0.8c0.2,0.2,0.6-0.2,0.3-0.3c-0.3-0.3-0.7-0.5-1.1-0.9
	C100,32.6,99.8,32.8,100.1,32.9L100.1,32.9L100.1,32.9z"/>
<path id="hs" class="st0" d="M102.8,31.4c-0.1,0-0.2,0.1-0.2,0.3c0,0,0,0.1,0,0.1c0.2,0.2,0.4,0.2,0.6,0.4s0.5-0.3,0.2-0.5
	C103.2,31.5,103,31.5,102.8,31.4L102.8,31.4L102.8,31.4z"/>
<path id="ht" class="st0" d="M103.3,31c0.3,0.3,0.7,0.5,1.1,0.9c0.2,0.2,0.6-0.2,0.3-0.4c-0.3-0.3-0.8-0.5-1.2-0.9
	C103.3,30.4,103.1,30.8,103.3,31z"/>
<path id="hu" class="st0" d="M73.1,33.8c0.6,0.7,1.2,1.4,1.9,2c0.2,0.2,0.4-0.1,0.2-0.2c-0.6-0.6-1.3-1.3-2-1.8
	C73.2,33.6,73.1,33.7,73.1,33.8L73.1,33.8L73.1,33.8z"/>
<path id="hv" class="st0" d="M86.9,28.4c0.1,0.1,0.3,0.3,0.4,0.5s0.6-0.2,0.3-0.3c-0.1-0.2-0.3-0.3-0.5-0.4
	C87.2,28,87,28.1,86.9,28.4z"/>
<path id="hw" class="st0" d="M92.6,23.5l0.1,0.1l-0.4-0.1l-0.8-0.1c-0.1-0.1-0.2-0.1-0.2-0.2c-0.1,0-0.2,0-0.3,0.1
	c-1-0.2-2-0.2-3-0.4c-0.1,0-0.2,0-0.3,0.1c0,0.1,0,0.2,0.1,0.3c0,0,0,0,0,0H88c1,0.2,2.2,0.3,3.3,0.4c0.3,0.5,0.7,1,1.1,1.4
	c0.5,0.6,1.1,1.3,1.5,2c0.2,0.3,0.5,0,0.5-0.3c-0.5-0.6-1.1-1.3-1.5-2L92,23.8l0.3,0.1l0.8,0.2c0.3,0.4,0.6,0.8,1,1.1
	c0.6,0.6,1.1,1.3,1.6,1.8c0.1,0.1,0.3,0.1,0.4,0c0.1-0.1,0.1-0.2,0.1-0.3l-1.7-1.9c-0.2-0.2-0.3-0.5-0.5-0.6c0.5,0.1,1,0.1,1.4,0.1
	v0.1c0.6,0.6,1.3,1.2,2,1.7c0.2,0.2,0.6-0.2,0.3-0.4c-0.6-0.5-1.2-1-1.9-1.4h0.8c0,0,0.2-0.2,0-0.3c-1-0.3-2.1-0.4-3.1-0.4
	c-0.2-0.2-0.4-0.4-0.6-0.5C92.7,23.2,92.5,23.3,92.6,23.5L92.6,23.5L92.6,23.5z"/>
<path id="hx" class="st0" d="M95.3,17.6c0.5,0.8,1.1,1.6,1.7,2.3c0.2,0.2,0.5,0,0.3-0.3c-0.6-0.8-1.2-1.5-1.9-2.2
	C95.3,17.4,95.1,17.5,95.3,17.6L95.3,17.6L95.3,17.6z"/>
<path id="hy" class="st0" d="M73.1,21.9l0.1,0.1c0.2,0.3,0.7,0,0.3-0.2l-0.1-0.2C73.3,21.5,73,21.7,73.1,21.9L73.1,21.9z"/>
<path id="hz" class="st0" d="M75.3,18.3c0.1,0.1,0.5,0,0.3-0.2l-1.2-1.7c-0.1-0.1-0.4,0.1-0.3,0.2L75.3,18.3L75.3,18.3L75.3,18.3z"
	/>
<path id="hA-2" class="st0" d="M98.3,38c-0.4-0.1-0.8,0-1.1,0s-0.2,0.2,0,0.3c0.4,0.1,0.8,0,1.1,0S98.4,38,98.3,38z"/>
<path id="hB-2" class="st0" d="M101.3,30.7c-0.9-0.2-1.9-0.2-2.9-0.4c-0.3,0-0.3,0.5-0.1,0.5c0.9,0.2,1.8,0.2,2.9,0.4
	C101.5,31.2,101.7,30.8,101.3,30.7z"/>
<path id="hC-2" class="st0" d="M91.1,21.7c-0.3,0-0.3,0.5-0.1,0.5c0.9,0,2,0.2,2.9,0.2c0.9,0.1,1.8,0.2,2.7,0.2
	c0.1,0,0.1-0.1,0.1-0.1c0-0.1-0.1-0.1-0.1-0.1c-0.8-0.3-1.7-0.4-2.6-0.4C93,21.8,92,21.7,91.1,21.7z"/>
<path id="hD-2" class="st0" d="M59.6,39.9c-0.2,0.1,0.1,0.4,0.2,0.3c1.8-1,3.6-2.2,5.3-3.5c0.2-0.1,0-0.3-0.1-0.2
	C63.2,37.5,61.4,38.8,59.6,39.9L59.6,39.9L59.6,39.9z"/>
<path id="hE-2" class="st0" d="M123.3,63.5c-0.4,0.1-0.2,0.6,0.1,0.4c0.1,0,0.2-0.1,0.3-0.1c0.1,0,0.2-0.4-0.1-0.4
	C123.5,63.5,123.4,63.5,123.3,63.5z"/>
<path id="hF-2" class="st0" d="M94.2,66.5c1.2,1.1,2.5,2.1,3.9,3c0.2,0.2,0.4-0.2,0.2-0.2c-1.2-1.1-2.6-2.1-4-3L94.2,66.5z"/>
<path id="hG-2" class="st0" d="M92.5,63.4c-0.1,0-0.1,0-0.1,0.1c0,0,0,0,0,0l0,0c0.7,0.8,1.6,1.5,2.4,2.2c0.9,0.8,1.8,1.5,2.7,2.3
	c0.1,0,0.2,0,0.2,0c0-0.1,0-0.2,0-0.2c0,0,0,0,0,0l0,0c-0.9-0.8-1.8-1.5-2.7-2.3C94.2,64.7,93.4,64,92.5,63.4L92.5,63.4L92.5,63.4z"
	/>
<path id="hH-2" class="st0" d="M92.6,62.5c1.4,1.4,2.8,2.7,4.4,3.9c0.2,0.2,0.4-0.2,0.3-0.3c-1.5-1.2-2.9-2.7-4.4-3.7
	C92.6,62.2,92.5,62.3,92.6,62.5L92.6,62.5L92.6,62.5z"/>
<path id="hI-2" class="st0" d="M92.8,54c-1.2-0.8-2.5-1.8-3.7-2.4c-0.1,0-0.3,0.1-0.2,0.2c1.2,1,2.5,1.7,3.7,2.5
	c0.1,0.1,0.2,0.1,0.3,0c0.1-0.1,0.1-0.2,0-0.3C92.8,54,92.8,54,92.8,54L92.8,54L92.8,54z"/>
<path id="hJ-2" class="st0" d="M91.8,52.4c0.2,0.3,0.5,0,0.3-0.2L92,52c-0.1-0.2-0.4,0.1-0.3,0.2C91.8,52.2,91.8,52.3,91.8,52.4
	C91.8,52.4,91.8,52.4,91.8,52.4L91.8,52.4L91.8,52.4z"/>
<path id="hK-2" class="st0" d="M103.5,56.5c-0.2-0.2-0.5-0.2-0.7-0.4s-0.3,0.2-0.2,0.2l0.7,0.5C103.5,57,103.7,56.5,103.5,56.5z"/>
<path id="hL-2" class="st0" d="M122.2,65.3c-0.9-0.4-1.6-0.8-2.5-1.2c-0.3-0.2-0.5-0.4-0.7-0.7c-0.1-0.2-0.3,0-0.2,0.1
	c-0.5-0.2-0.9-0.5-1.3-0.8c-1.5-0.9-3.1-1.6-4.7-2.3c-0.1,0-0.1,0-0.1,0.1c0,0,0,0,0,0l0,0c1.4,0.9,3,1.7,4.5,2.5
	c0.9,0.4,1.8,1,2.7,1.4c0.4,0.5,1,1,1.5,1.5c0.2,0.3,0.6-0.2,0.3-0.3c-0.3-0.2-0.6-0.4-0.8-0.7l1.1,0.6
	C122.2,65.8,122.4,65.4,122.2,65.3L122.2,65.3L122.2,65.3z"/>
<path id="hM-2" class="st0" d="M117.6,64.3c-0.3-0.5-0.8-1-1.2-1.4c-0.1-0.2-0.3,0.1-0.3,0.2c0.3,0.5,0.7,1,1.1,1.5l0.1,0.2
	c-1.4-0.6-2.6-1.1-4-1.6c-0.1,0-0.2,0.1,0,0.1c1.6,0.8,3.1,1.6,4.7,2.3c0.2,0.2,0.3,0.5,0.6,0.6s0.5,0,0.3-0.2l4.5,2
	c0.3,0,0.4-0.2,0.2-0.4c-1.7-0.8-3.6-1.7-5.3-2.5C118,64.8,117.9,64.5,117.6,64.3L117.6,64.3L117.6,64.3z"/>
<path id="hN-2" class="st0" d="M86.5,64.6c1.1,0.9,2.1,1.6,3.2,2.4c0.2,0.2,0.4-0.2,0.3-0.3c-1.1-0.7-2.1-1.6-3.3-2.3
	C86.6,64.4,86.5,64.5,86.5,64.6L86.5,64.6L86.5,64.6z"/>
<path id="hO-2" class="st0" d="M89.2,64.3c-1.1-0.9-2.2-1.7-3.3-2.5c-0.1,0-0.1,0-0.1,0.1c0,0,0,0,0,0l0,0c1,0.9,2.1,1.8,3.2,2.6
	C89.1,64.8,89.3,64.4,89.2,64.3L89.2,64.3L89.2,64.3z"/>
<path id="hP-2" class="st0" d="M88.6,62.8c0.1,0.2,0.2,0.2,0.3,0.3s0.6-0.2,0.3-0.3c-0.1-0.1-0.3-0.1-0.4-0.2
	C88.6,62.4,88.4,62.7,88.6,62.8z"/>
<path id="hQ-2" class="st0" d="M87.8,60.3c-0.1,0-0.2-0.1-0.2-0.2c-0.2-0.2-0.3,0.2-0.2,0.4c0,0.1,0.1,0.2,0.2,0.2
	C87.7,60.7,88,60.5,87.8,60.3z"/>
<path id="hR-2" class="st0" d="M82.2,48.8c-0.5-0.4-1-0.7-1.6-1c-0.2-0.2-0.4,0.2-0.2,0.2c0.5,0.3,1.1,0.7,1.6,1.1
	C82.2,49.4,82.5,49,82.2,48.8L82.2,48.8L82.2,48.8z"/>
<path id="hS-2" class="st0" d="M88.9,61.5c-0.7-1.6-1.3-3.2-2.1-4.8c0.1-0.1,0.2-0.2,0.1-0.3c0,0,0,0,0,0v0
	c-0.2-0.1-0.3-0.2-0.4-0.4c-0.3-0.6-0.6-1-0.9-1.6c0.3,0,0.4-0.2,0.2-0.4s-0.6-0.5-0.8-0.7c-0.6-0.8-1.1-1.7-1.7-2.5
	c0-0.1,0-0.2-0.1-0.3c-0.1,0-0.2-0.1-0.2-0.2c-0.3-0.3-0.5-0.8-0.9-1.1c-0.1-0.2-0.3,0.1-0.2,0.2l1.8,2.6c-0.3-0.2-0.7-0.4-0.9-0.7
	c-0.2-0.2-0.4,0.2-0.2,0.4c0.7,0.6,1.4,1.2,2.1,1.7c0.3,0.6,0.6,1.1,1,1.7c-0.8-0.6-1.7-1.2-2.5-1.7c-0.2-0.2-0.4,0.2-0.2,0.4
	c1,0.8,2.1,1.6,3.2,2.3c0.2,0.4,0.5,0.9,0.7,1.3c-0.9-0.7-1.9-1.4-3-1.9c-0.3,0-0.4,0.2-0.2,0.4c1.2,0.9,2.4,1.7,3.6,2.4
	c0.5,1,1,2.1,1.3,3.2C88.6,61.9,88.9,61.8,88.9,61.5L88.9,61.5z"/>
<path id="hT-2" class="st0" d="M82.8,74.9c1,1.2,2.1,2.4,3.3,3.5c0.2,0.2,0.4-0.1,0.3-0.3c-1-1.2-2.1-2.4-3.3-3.4
	c-0.1-0.1-0.2-0.1-0.3,0C82.8,74.8,82.8,74.9,82.8,74.9z"/>
<path id="hU-2" class="st0" d="M85.3,75.5c0.2,0.2,0.3,0.5,0.6,0.6s0.4-0.2,0.3-0.3c-0.2-0.2-0.4-0.4-0.6-0.5
	C85.3,75.1,85,75.3,85.3,75.5L85.3,75.5L85.3,75.5z"/>
<path id="hV-2" class="st0" d="M82.3,67.8c1.1,1.5,2.3,2.9,3.7,4.1c0.2,0.2,0.4-0.2,0.3-0.3c-1.2-1.4-2.5-2.7-3.9-3.9
	C82.3,67.5,82.2,67.7,82.3,67.8L82.3,67.8L82.3,67.8z"/>
<path id="hW-2" class="st0" d="M81.6,65.2c0.5,0.8,1.4,1.4,2,2.2c0.7,0.8,1.4,1.5,2.2,2.2c0.2,0.2,0.6-0.2,0.3-0.3
	c-0.7-0.8-1.4-1.4-2.2-2.3c-0.7-0.8-1.4-1.5-2.2-2.1C81.6,65,81.5,65.1,81.6,65.2L81.6,65.2L81.6,65.2z"/>
<path id="hX-2" class="st0" d="M81.5,63.2c1.3,1.5,2.7,2.8,4.2,4.1c0.2,0.2,0.6-0.2,0.3-0.3c-1.3-1.4-2.8-2.7-4.3-3.8
	C81.6,62.9,81.4,63.2,81.5,63.2z"/>
<path id="hY-2" class="st0" d="M84.8,64.8c0.2,0.2,0.6-0.2,0.3-0.3c-0.3-0.5-0.8-0.8-1.1-1.3c-0.3-0.4-0.7-0.9-1.1-1.2
	c-0.2-0.2-0.4,0.1-0.3,0.2c0.3,0.5,0.7,0.9,1.1,1.3C84.1,64,84.4,64.4,84.8,64.8L84.8,64.8L84.8,64.8z"/>
<path id="hZ-2" class="st0" d="M83.9,61.1c0-0.3-0.1-0.5-0.3-0.7c-0.1-0.2-0.3,0-0.3,0.1c0.1,0.3,0.1,0.6,0.1,0.8
	C83.4,61.5,84,61.3,83.9,61.1z"/>
<path id="ia" class="st0" d="M82.2,57.1c-1.4-1.4-2.8-2.7-4.4-3.9c-0.1,0-0.3,0.1-0.2,0.2c1.3,1.4,2.7,2.8,4.3,4
	C82.1,57.7,82.3,57.3,82.2,57.1L82.2,57.1L82.2,57.1z"/>
<path id="ib" class="st0" d="M81.5,53.5c-1.5-1.2-2.9-2.7-4.6-3.8c-0.1,0-0.4,0.1-0.2,0.2c1.4,1.4,2.9,2.7,4.4,3.9
	C81.4,54.1,81.7,53.7,81.5,53.5z"/>
<path id="ic" class="st0" d="M69.4,72.9c1.3,1.4,2.6,2.7,4,4c0.2,0.2,0.4-0.2,0.3-0.3c-1.4-1.3-2.6-2.7-4-3.9
	C69.5,72.6,69.3,72.7,69.4,72.9L69.4,72.9z"/>
<path id="id" class="st0" d="M74.2,67.7c0.1,0.1,0.2,0.3,0.2,0.4c0.2,0.3,0.5,0,0.3-0.2c-0.1-0.1-0.2-0.3-0.3-0.3
	C74.3,67.3,74.1,67.4,74.2,67.7z"/>
<path id="ie" class="st0" d="M65,46.6c1,1.6,2,3.1,3.2,4.5c0.2,0.3,0.5,0,0.3-0.2c-1.2-1.4-2.1-3.1-3.5-4.4V46.6L65,46.6z"/>
<path id="if" class="st0" d="M68.5,47.9c0.1,0.2,0.1,0.3,0.2,0.4s0.5,0,0.3-0.2c-0.1-0.1-0.2-0.2-0.3-0.3
	C68.7,47.5,68.4,47.7,68.5,47.9z"/>
<path id="ig" class="st0" d="M69.4,15.4c0.1,0,0.1-0.1,0.1-0.1s-0.1-0.1-0.1-0.1c-2.3-0.5-4.8,0.2-6.5,1.8c-0.2,0.1,0.1,0.4,0.2,0.3
	C64.9,15.8,67.1,15.1,69.4,15.4z"/>
<path id="ih" class="st0" d="M95.3,68.4c-0.2-0.1-0.5,0-0.6,0.2c0,0.1-0.1,0.2,0,0.3c0.3,1,0.5,2,0.4,3c1.1-0.8,2.5-1.2,3.8-1.1
	C97.9,69.9,96.7,69,95.3,68.4L95.3,68.4L95.3,68.4z"/>
<path id="ii" class="st0" d="M107.2,61l-0.6-0.9h0.1C106.9,60.4,107,60.7,107.2,61z"/>
<path id="ij" class="st0" d="M102.7,66.1C102.8,66.3,102.8,66.1,102.7,66.1z"/>
<path id="ik" class="st0" d="M62.6,43.4l-0.1-0.2c0.1,0,0.3,0,0.4-0.1L62.6,43.4L62.6,43.4L62.6,43.4z"/>
<path id="il" class="st0" d="M68.3,22.7c0,0.1-0.1,0.2-0.2,0.2h-0.1c-0.1,0.1-0.2,0.2-0.3,0.2L67.5,23
	C67.8,22.9,67.9,22.8,68.3,22.7L68.3,22.7L68.3,22.7z"/>
<path id="im" class="st0" d="M68.3,43c0.4,1.2,1.1,2.4,1.9,3.4c-0.2,0.7-0.2,1.5-0.5,2.1c-0.1,0.4-0.2,0.6-0.3,1
	c-0.1-0.2-0.3,0-0.3,0.2c0,0.1,0,0.3,0.1,0.4l-0.8,2.3v0.1c-0.6-0.6-1-1.4-1.5-2c-0.5-0.7-1-1.4-1.7-2c-0.1-0.2-0.3,0.1-0.2,0.2
	c0.4,0.7,0.9,1.4,1.4,2c-0.2,0.4-0.4,0.7-0.4,1.1c-0.3-0.4-0.6-0.8-1-1.1c-0.1-0.2-0.3,0.1-0.2,0.1c0.3,0.5,0.6,1,0.9,1.5l-0.7,1.4
	c-0.4-0.5-0.8-1.1-1.2-1.5c-0.1-0.2-0.3,0-0.2,0.1c0.3,0.6,0.7,1.2,1.2,1.8c-0.1,0.3-0.2,0.5-0.3,0.8c-0.4-0.5-0.9-0.8-1.4-1.3
	c-0.1,0-0.3,0.1-0.2,0.1c0.4,0.6,0.9,1.1,1.5,1.6c-0.1,0.3-0.2,0.5-0.3,0.8c-0.5-0.6-1-1.1-1.6-1.6c-0.1-0.2-0.3,0.1-0.2,0.1
	c0.4,0.7,1,1.4,1.7,1.9c-0.2,0.4-0.3,0.9-0.5,1.3c-0.3-0.3-0.8-0.7-1.2-1c-0.1,0-0.3,0.1-0.2,0.2c0.6,0.7,1.3,1.3,2,1.8
	c0.2,0.2,0.4-0.2,0.3-0.3s-0.3-0.3-0.4-0.5c0.2-0.4,0.3-0.8,0.5-1.1c0.4,0.3,0.7,0.7,1,1.1l-0.5,0.7c-0.2,0.2,0.2,0.6,0.3,0.3
	c1.6-1.9,2.9-4.1,3.9-6.4c0.8-1.7,1.3-3.6,1.6-5.5c0.8,1.3,1.6,2.7,2.2,4.1c-0.2,1-0.3,2-0.4,3c-0.3,1.6-0.8,3.1-1.3,4.6
	c-1.1,2.6-2.9,4.6-4.4,7c2.5-1.4,4.1-4.5,5.3-7c0.5-1.3,1-2.6,1.3-3.9c0.2-0.7,0.4-1.5,0.4-2.2c1,2.2,1.9,4.4,2.7,6.6
	c-0.2,1-0.1,2.1-0.3,3.2c-0.1,1.4-0.4,2.8-0.7,4.2c-0.2,1.3-0.6,2.6-0.9,3.9c-0.3-0.3-0.6-0.6-0.9-1v-0.1c0.3-1.1,0.6-2.3,0.8-3.5
	c0.1,0.2,0.2,0.2,0.3,0.3s0.6-0.2,0.3-0.3s-0.3-0.3-0.6-0.5l0.1-0.8c0-0.1-0.2-0.3-0.3,0c0,0.2-0.1,0.4-0.2,0.5
	c-0.1-0.2-0.3-0.3-0.4-0.5s-0.4,0.1-0.3,0.2c0.2,0.3,0.4,0.5,0.7,0.7c-0.3,1.2-0.6,2.4-0.9,3.6c-0.1-0.1-0.2-0.1-0.2-0.2
	c-0.1,0-0.2,0-0.2,0c0,0.1,0,0.2,0,0.2l0,0c0.1,0.1,0.2,0.3,0.3,0.3c-0.1,0.5-0.2,0.9-0.4,1.3c-0.8-0.8-1.7-1.6-2.5-2.3
	c-0.1,0-0.3,0.1-0.2,0.1c0.8,1,1.7,1.9,2.6,2.7c-0.1,0.4-0.2,0.9-0.4,1.3l-1.8-1.5c-0.1,0-0.3,0.1-0.2,0.1c0.5,0.6,1.1,1.2,1.7,1.7
	l-0.2,0.9c0,0.1,0.1,0.2,0.2,0.2c0.1,0,0.2-0.1,0.2-0.1l0.1-0.7c0.3,0.3,0.5,0.5,0.8,0.7c-0.1,0.4-0.2,0.7-0.4,1
	c0.2-0.2,0.3-0.6,0.4-0.9c0.1,0.2,0.3,0.3,0.4,0.5c0.1,0,0.2,0,0.2,0c0-0.1,0-0.2,0-0.2l0,0c-0.2-0.2-0.3-0.3-0.6-0.5
	c0.2-0.4,0.3-0.8,0.5-1.1c0.2,0.2,0.3,0.3,0.6,0.5s0.4-0.2,0.3-0.3c-0.2-0.2-0.4-0.5-0.7-0.7c0.7-1.7,1.3-3.5,1.7-5.3
	c0.4-1.4,0.6-2.9,0.8-4.4c0.1-0.4,0.2-0.9,0.3-1.4c0,0.1,0.1,0.2,0.1,0.3c1.1,3.3,1.9,6.8,2.4,10.3c0.3,1.7,0.5,3.4,0.6,5.2
	c0,1.6,0.2,3.1,0.5,4.7l0.2-1.3c0.4,0.6,0.7,1.2,1.2,1.8c0.7,1.4,1.5,2.7,2.4,3.9L84,88.3c-0.9-1.8-1.9-3.6-3-5.3
	c-0.1-0.2-0.3,0-0.2,0.1c0.8,2,2,3.8,3,5.8c-0.1,0.6-0.3,1.1-0.6,1.7c-0.7-2.4-1.7-4.7-3-6.8c-0.2-0.3-0.6-0.3-0.8-0.1
	c-0.1,0.1-0.1,0.1-0.2,0.2c-0.2,0.5-0.4,0.9-0.6,1.4C76.7,83,75.2,80.6,74,78c-0.1-0.3-0.4-0.4-0.6-0.3l0,0l-0.1,0.1
	c-0.8,0.6-1.5,1.5-1.9,2.5c-1.4-2-2.5-4.2-3.1-6.6c-0.1-0.4-0.7-0.4-0.9,0s-0.2,0.6-0.4,1c-0.8-2.3-1.1-4.7-1-7.2
	c0.1-0.4-0.5-0.9-0.9-0.5c-0.3,0.4-0.6,0.7-0.9,1.1l0.7,0.1c0,0,1.2,8.5,2.3,7l0.5-0.7c0,0,2.4,5.9,3.3,6.3c0,0,0.4,1,0.9,0.2
	l1.3-2.1c0,0,2.4,3.8,4.1,5.9c0.6,0.3,1.1,0.8,1.4,1.4h0.1c0.5-0.3,0.8-0.8,1-1.3c0,0,3.4,4.5,3,6.7c0,0.1,0.6,0.5,0.4,0.7l0.7,0.1
	c0.6-2.2,1.6-6.6,1.2-7.6l0.8,1.5c0.1-0.3,0.1-0.5,0.3-0.7h-0.1v-0.1c0.2-0.2,0.2-0.6,0.4-0.9c0.7-2.3,1.1-4.6,1.1-7v0.1
	c-0.1-0.4,0-0.8-0.1-1.2c-0.1-0.2-0.1-0.5-0.2-0.7l1.4,1c0,0-0.5-7.2-1.3-8.5c2.6,0.9,5,2.4,7,4.3c0.2-0.2,0.3-0.3,0.5-0.6
	c-2-2.4-4.6-4.1-7.6-4.9h-0.1c-0.2-0.2-0.5-0.3-0.7-0.1c-0.2,0.1-0.2,0.4-0.2,0.6c0.6,2.3,1,4.6,1.2,6.9l-0.3-0.5
	c-0.1-0.1-0.3-0.2-0.5-0.2c0-0.1,0-0.1-0.1-0.1c0,0,0,0,0,0l0,0c-0.8-0.9-1.6-1.7-2.5-2.7c-1.3-2.8-3.2-5.4-5.5-7.5l-0.8-2.5
	c-0.3-0.8-0.5-1.6-0.8-2.4c0-0.2,0-0.4,0-0.5c0.1-0.1-0.1-0.2-0.2-0.2c-0.3-0.9-0.6-1.7-1-2.6c1.4,0.6,3,1.1,4.4,1.7
	c1.9,1,3.6,2.2,5,3.8c-1.2-1.6-2.6-2.9-4.2-4.1c-1.4-0.9-3.5-2.1-5.4-1.9c-0.6-1.3-1-2.5-1.6-3.6c-0.7-1.5-1.5-2.8-2.2-4.1
	C71,46,70.4,45,69.7,44c1.8,1,3.7,1.7,5.5,2.8c2.3,1.3,4.3,2.9,6.2,4.7c-3.3-3.4-7.3-7.4-12.2-8.2c-0.2-0.2-0.3-0.4-0.5-0.5
	S68.3,42.9,68.3,43L68.3,43L68.3,43z M68.1,53c-0.7,1.7-1.7,3.3-2.7,4.8c-0.3-0.3-0.7-0.8-1.1-1.3c0.1-0.3,0.2-0.5,0.3-0.8l1,1
	c0.2,0.2,0.4-0.2,0.3-0.3l-1.1-1.1c0.1-0.2,0.2-0.5,0.3-0.7l0.2,0.3c0.1,0.2,0.4-0.1,0.3-0.2L65.1,54c0.2-0.5,0.4-1,0.5-1.5
	c0.3,0.4,0.6,0.8,0.9,1.2c0.1,0.2,0.5,0,0.3-0.2c-0.3-0.5-0.7-1-1.1-1.5c0.2-0.5,0.3-0.9,0.5-1.4C67,51.7,67.6,52.3,68.1,53L68.1,53
	z M73.8,72.5c-0.1,0.4-0.3,0.8-0.4,1.3c-0.2-0.3-0.6-0.5-0.8-0.8c0-0.4,0.2-0.8,0.3-1.2C73.3,72,73.6,72.2,73.8,72.5L73.8,72.5z
	 M74.4,70.7c-0.1,0.4-0.3,0.9-0.4,1.3c-0.3-0.3-0.6-0.6-0.9-1c0.1-0.4,0.2-0.9,0.4-1.3c0.2,0.3,0.4,0.5,0.7,0.8
	C74.2,70.7,74.3,70.7,74.4,70.7L74.4,70.7L74.4,70.7z M80.7,79.9c0-0.9,0-1.7-0.1-2.6l0.8,1.1l0.3,2.9
	C81.4,80.8,81.1,80.4,80.7,79.9L80.7,79.9z M85.7,84.1c-0.2-0.3-0.4-0.7-0.5-1c-0.1-0.3-0.4-0.4-0.7-0.3c-0.2,0.1-0.3,0.3-0.3,0.5
	c0,0.5,0.1,1.2,0.1,1.8c-0.7-1-1.4-2.1-2.1-3.1c-0.1-1-0.2-1.9-0.3-3c0.4,0.6,1,1.3,1.4,1.9c0.8,0.9,1.6,1.9,2.3,2.9
	C85.7,83.9,85.7,84.1,85.7,84.1L85.7,84.1z M85.9,83.2c-1.3-1.7-2.6-3.4-4.1-5.1c0-0.8-0.1-1.5-0.1-2.3c1.4,2,3.1,3.9,4.6,5.8
	C86.2,82.1,86.1,82.7,85.9,83.2L85.9,83.2L85.9,83.2z M83.9,71c-0.1-0.2-0.3-0.3-0.4-0.5c-0.1-0.2-0.3,0.1-0.2,0.2
	c0.5,0.6,1,1.2,1.6,1.8c0.4,0.5,1,1.1,1.5,1.6h0.1c-0.2,0.1-0.2,0.3-0.1,0.5c0.5,2.1,0.6,4.2,0.2,6.3c-1.6-1.9-3.1-4-4.8-5.8
	c-0.1-1.8-0.3-3.7-0.5-5.4c-0.1-0.2-0.2-0.2-0.3,0.1c0,2,0.2,4.1,0.4,6.1l0.1,1.6c-0.2-0.3-0.4-0.5-0.7-0.8c0-0.1,0-0.2-0.1-0.3
	c-0.1-1.8-0.3-3.7-0.5-5.4c-0.3-2.1-0.8-4-1.2-6.1C80.8,66.8,82.4,68.9,83.9,71L83.9,71L83.9,71z"/>
<path id="in" class="st0" d="M74.4,2.8c0.7,1,1.8,1.7,3,1.8c-0.5,0.9-1.1,1.7-1.9,2.3c-1.8,1.2-3.9,1.8-6.1,1.7
	c0-0.1,0.1-0.3,0.2-0.4c0.9-2.3,0.5-5-1.1-6.9c-1.5-1.6-3.8-2-5.3-0.4c-1.5,1.7-1.4,4.3,0.3,5.8l0,0c1.2,1.3,2.9,2.1,4.7,2.3
	c-1.9,3.4-8.3,3.6-11.6,1.4h-0.2c-0.1-0.1-0.1-0.3-0.2-0.4c-0.7-1.7-1.4-3.3-2.2-4.9c-0.7-1.3-1.5-3.1-2.7-3.8H51
	c-0.2-0.2-0.5-0.1-0.6,0.3c-0.6,4.6,0.2,9.2,2.2,13.4c0.3,1.1,0.7,2.1,1.1,3.1C53,29.3,43.5,37.9,32.3,37.4c-0.4,0-0.9,0-1.3-0.1
	c0.6-6-0.9-12.1-4.1-17.2c-1.6-2.5-4.2-5.3-7.4-4.9c-2.7,0.3-4.9,2.8-5.6,5.3c-2,7,3.6,13.1,9.6,15.8c2.1,0.9,4.3,1.5,6.5,1.8
	c-1,6.8-5.4,12.6-11.7,15.3v-0.1c0.3-5.4-2.8-11.1-8.3-12.6c-4.2-1.1-8.6,1.5-9.5,5.2c-0.2,0.4-0.4,0.9-0.5,1.4
	c0,0.1,0.1,0.1,0.1,0.1c0.1,0,0.1-0.1,0.1-0.1V47c0,1.1,0.3,2.3,0.9,3.2c3.1,5.5,10.6,6,16,4.3c-1.2,6.4-7.3,10.3-13.7,10
	c-0.1,0-0.2,0-0.2,0.2c0,0.1,0,0.2,0.1,0.2h0c4.7,0.8,9.4-1,12.2-4.8c1.9-1.1,2.6-3.6,2.6-5.8c0.1,0,0.1,0,0.1-0.1c0,0,0,0,0,0l0,0
	c6-2.5,10.5-7.7,12-14.1l0.3-2c5.1,0.5,10.1-0.8,14.4-3.5c4.7-3.2,8-8.1,9.2-13.7c0.2,0.9,0.5,1.8,1,2.6h0.1c-0.6,0.8-1,1.8-1.3,2.7
	c-0.3,1.5-0.5,3.1-0.4,4.6c0.1,2.1,0,4.2-0.2,6.3c-0.2,1.2-0.3,2.4-0.4,3.6v0.1l1.3,0.9l4.4,3.9l0.3,0.5l-2.6,6.3c0,0.2,0,0.4,0,0.5
	h0.7c-0.3,0.9-0.6,1.9-0.6,2.8l-0.2,0.1l-0.1,0.5c0-0.1,0.1-0.2,0.2-0.3c-0.1,0.3-0.1,0.5,0,0.8c-0.1,0-0.2,0.1-0.3,0.1
	c-0.3,1.6-0.3,3.4,0.3,3.5l1.8-0.9c0,0-0.7,5.8-0.2,5.6c1-0.4,1.9-0.9,2.8-1.5c0.5,0.3,1,0.7,1.4,1.2c-0.2-0.9-0.3-1.8-0.3-2.7
	c-0.1-0.3-0.3-0.5-0.6-0.4h-0.1c-0.8,0.7-1.5,1.6-2.2,2.4c0-2,0.3-4.1,1-6c0.1-0.2,0-0.5-0.2-0.7c-0.1-0.1-0.3-0.1-0.5,0
	c-0.7,0.4-1.4,1-1.9,1.7c-0.2-2,0-4.1,0.7-6c0.4,0.2,0.8,0.5,1.2,0.9c0.1,0.2,0.3,0,0.2-0.1c-0.2-0.6-0.7-1-1.3-1.3
	c0.3-0.8,0.7-1.6,1.1-2.4c0-0.2-0.2-0.5-0.4-0.5c-0.1,0-0.1,0-0.2,0l-1,1c0.2-0.4,0.3-0.8,0.3-1.2c0.1-0.4,0.4-0.9,0.6-1.2
	c0.4-0.8,1-1.5,1.6-2.1c2.1-2,4.8-3.3,7.6-3.9c1.5-0.3,3-1,4.1-2.1c0.2-0.2,2.6,0.6,3,0.7c1.2,0.3,2.3,0.5,3.5,0.9
	c0.5,0.8,1.1,1.5,1.8,2.2c0.7,0.8,1.3,1.6,1.8,2.5c1.3,1.8,2.6,3.8,3.7,5.7c1.1,2.1,2.1,4.2,2.9,6.4c0.9,2.1,1.6,4.2,2.2,6.4
	c-0.4-2.2-0.9-4.3-1.6-6.4c-0.8-2.2-1.7-4.4-2.9-6.5c-1.1-2.1-2.3-4-3.7-5.9c-0.6-0.9-1.4-1.9-2.2-2.8c-0.3-0.4-0.6-0.9-1-1.3
	c0.6,0.3,1.2,0.4,1.8,0.5c0.7,0.1,1.3,0.3,1.9,0.6c1.4,0.5,2.8,0.9,4.3,1.4c2.3,3.2,4.7,6.3,6.3,10c0.4,0.9,0.8,1.8,1.1,2.7
	c-0.7-0.5-1.5-1.2-2.2-1.7c-0.7-0.5-1.4-1-2.2-1.5c-0.2-0.2-0.3,0.2-0.2,0.2c0.7,0.6,1.4,1.2,2.1,1.7c0.7,0.5,1.4,1,2.2,1.7
	c0.1,0.2,0.3,0,0.3-0.1c0.4,0.9,0.7,1.8,0.9,2.7c0.2,0.4,0.3,0.9,0.3,1.4c-1.1-0.9-2-1.7-3.1-2.4c-0.2-0.5-0.5-1-0.8-1.5
	c0.8,0.5,1.7,1.1,2.4,1.6c0.2,0.2,0.4-0.2,0.3-0.3c-1.3-1-2.6-2-4-2.8c-0.1-0.2-0.3,0.2-0.2,0.2c0.3,0.3,0.7,0.6,1.1,0.9
	c0,0-0.2,0.1,0,0.1c0.2,0.3,0.3,0.7,0.4,1l-0.7-0.5c-0.1-0.2-0.3,0.2-0.2,0.2c0.4,0.4,0.9,0.8,1.4,1.2c0.2,0.4,0.4,0.8,0.6,1.2
	l-1.3-1.1c-0.1-0.2-0.3,0.2-0.2,0.2c0.8,0.7,1.6,1.4,2.5,2c0.8,0.7,1.6,1.4,2.4,2c0.2,0.6,0.4,1.2,0.6,1.7c0.3-1.7-0.4-3.8-0.9-5.5
	c-0.7-2.3-1.5-4.3-2.3-6.4c-1.3-3.2-3.2-6.2-5.5-8.9c1.1,0.5,2.1,0.8,3.3,1.2h0.1c2.2,0.9,4.4,1.9,6.6,3c0.8,0.9,1.7,1.6,2.5,2.5
	c1,1.3,2,2.5,2.9,3.9c0.8,1.2,1.6,2.5,2.3,3.8c-0.1-0.1-0.2-0.1-0.2-0.2c-0.6-0.9-1.3-1.8-2-2.6c-0.1-0.2-0.4-0.1-0.3,0.2
	c0.3,0.6,0.7,1.2,1.2,1.8c-0.6-0.4-1.2-0.8-1.9-1.1c-0.1-0.2-0.3,0.2-0.2,0.2l2.5,1.7l1.1,1.5c-0.3-0.2-0.5-0.4-0.8-0.5
	c-1.1-0.8-2.3-1.4-3.5-2.1c-0.1,0-0.3,0.1-0.2,0.2c1.1,0.9,2.3,1.5,3.4,2.2c0.6,0.4,1.1,0.7,1.7,1.1l1.6,2.3l0.1,0.1
	c-1.6-1-3.1-2-4.7-2.8c-0.1,0-0.3,0.1-0.2,0.2c1.7,1.3,3.6,2.5,5.6,3.4c0.2,0.2,0.4-0.2,0.2-0.4l-0.7-0.5c0-0.1,0-0.1-0.1-0.1
	c0,0,0,0,0,0l0,0c0.1,0,0.3,0,0.3-0.2c0,0,0-0.1,0-0.2c-0.2-0.4-0.5-0.8-0.9-1.2v-0.1c0.2,0.2,0.6,0.4,0.8,0.5s0.4-0.2,0.2-0.4
	c-0.4-0.3-0.8-0.5-1.2-0.8c-0.3-0.8-0.6-1.6-0.9-2.3c-0.7-1.5-1.5-2.9-2.4-4.2c-0.9-1.3-1.9-2.5-3-3.6c-0.4-0.4-0.8-0.8-1.1-1.3
	c3.7,2,7.2,4.1,10.7,6.3c2.3,1.6,4.6,3.3,6.7,5.2l-1.5-0.6c-0.3,0-0.4,0.2-0.2,0.4c0.6,0.4,1.4,0.6,2.1,1c0.1,0,0.2,0,0.3,0
	c1.3,1,2.6,2.1,3.9,3c0.1,0,0.1,0,0.1-0.1c0,0,0,0,0,0l0,0c-3-3.7-7.3-6.4-11.2-9.1c-2.6-1.9-5.3-3.6-8.1-5.2c1.3-0.3,2.5-0.8,3.9-1
	c1.3-0.2,2.7-0.3,4-0.4l0.2,0.5h-2c-0.3,0-0.2,0.4,0.1,0.4h2.3l0.4,0.6c-0.2,0-0.4,0-0.7,0c-0.1,0-0.1,0-0.1,0.1c0,0,0,0,0,0l0,0
	c-0.1-0.2-0.3,0.1-0.2,0.2c1.1,1.9,2.6,3.5,3.9,5.4c0.1,0.2,0.4-0.1,0.3-0.2c-1.2-1.8-2.4-3.5-3.8-5.1c0.3-0.1,0.7-0.1,1-0.1
	c1.3,1.7,2.8,3.4,4.1,5.1c0.2,0.2,0.5,0,0.3-0.2c-1.3-1.6-2.5-3.3-3.8-4.8c0.3-0.1,0.7-0.1,1-0.1c0.6,0.9,1.4,1.7,2.2,2.7
	c0.9,1.1,1.8,2.1,2.7,3.2c0.2,0.2,0.5,0,0.3-0.2c-0.9-1.1-1.9-2.2-2.8-3.2l-2-2.4c0.3,0,0.6-0.1,0.8-0.1h0.1
	c1.1,1.5,2.4,3.1,3.6,4.7c0.2,0.2,0.5,0,0.3-0.2c-1.1-1.4-2.2-2.9-3.4-4.3c0.9,0,1.8-0.1,2.7-0.3c0.1,0,0-0.3-0.1-0.3
	c-1-0.1-2.1,0-3.1,0.1c-0.1-0.1-0.2-0.3-0.3-0.3c0.5,0,1.2,0,1.8-0.1c0.1,0,0.1-0.1,0.1-0.1c0-0.1-0.1-0.1-0.1-0.1
	c-1.7,0-3.6-0.1-5.4,0c-0.1-0.1-0.2-0.3-0.3-0.3c0.4,0.1,0.8,0,1.2,0.1l-1.4-0.3l-0.2-0.1c-0.1,0-0.1,0-0.2,0.1
	c-2.9-0.5-6.1-0.5-8.4,1.2c-0.9-0.4-1.6-1-2.4-1.4c-0.8-1.1-1.7-2.1-2.7-3c-0.1-0.2-0.3,0.1-0.2,0.1c0.5,0.8,1.2,1.5,1.9,2.3h-0.1
	c-2.1-1-4.2-2.1-6.4-3c1.9-1.2,3.9-2.2,6-3.1c1.1-0.5,2.2-0.9,3.3-1.3c1.4-0.6,2.8-1,4.2-1.3c-1.3,0.3-2.6,0.3-3.9,0.7
	c-1.4,0.4-2.8,0.8-4.1,1.4c-0.6,0.2-1,0.5-1.6,0.7c-1-1.1-2.1-2-3.3-2.8c-0.1,0-0.3,0.1-0.2,0.1c0.9,1,2,2,3.1,2.8
	c-0.4,0.2-0.7,0.4-1,0.6c-1-1.1-2.2-2-3.4-2.9c-0.1,0-0.3,0.1-0.2,0.2c1,1.1,2.1,2.1,3.2,3c-0.4,0.2-0.7,0.5-1.1,0.8
	c-0.6-0.7-1.3-1.3-2-1.8c-0.7-0.7-1.4-1.3-2.1-1.8c-0.1,0-0.3,0.1-0.2,0.1c0.6,0.7,1.2,1.4,1.9,2c0.6,0.6,1.3,1.3,2,1.8l-0.9,0.6
	c-0.7-0.6-1.4-1.2-2.2-1.7c-0.6-0.6-1.3-1.1-2-1.6c-0.1,0-0.3,0.1-0.2,0.2c0.6,0.6,1.3,1.2,2,1.7c0.7,0.5,1.3,1,2,1.6l-0.1,0.1
	c-3.4-1.4-6.6-2.7-10.2-3.8c0.9-0.6,1.7-1.4,2.6-2.1c1.7-1.2,3.5-2.2,5.5-2.9c1.9-0.7,3.9-1.3,5.9-1.8h0.1c0.1,0.2,0.3,0.3,0.5,0.3
	c0.2,0.2,0.6-0.2,0.3-0.3c-0.1-0.1-0.1-0.1-0.2-0.2c0.3-0.1,0.7,0,1-0.1c0.2,0.2,0.4,0.3,0.6,0.4c0.2,0.2,0.6-0.2,0.3-0.3
	c-0.1-0.1-0.2-0.1-0.2-0.2c1-0.1,2-0.2,3-0.5c0.1,0,0-0.1,0-0.1l-1.7-0.3c-0.7-0.5-1.4-1.2-2.1-1.7H98c0.8,0.1,1.6,0.1,2.4,0
	c0.1,0,0.1,0,0.1-0.1c0,0,0,0,0,0l0,0l0.7,0.5c0.2,0.2,0.6-0.2,0.3-0.3c-0.3-0.3-0.7-0.5-1.1-0.6c-0.1-0.1-0.2,0-0.3,0.1
	c0,0,0,0.1,0,0.1c-0.7-0.1-1.4-0.1-2.1,0h-0.8c-0.6-0.6-1.3-1.1-2-1.6c-0.1,0-0.1,0-0.1,0.1c0,0,0,0,0,0l0,0
	c0.4,0.5,0.8,0.9,1.3,1.3c-0.2-0.1-0.5-0.1-0.7,0c-1.6,0-3.1-0.1-4.7-0.1c-0.3,0-0.2,0.4-0.1,0.4c0.4,0.1,0.9,0,1.3,0.1
	c0.8,0.9,1.8,1.7,2.8,2.4c-1.4,0.3-2.9,0.7-4.2,1.3c0-0.1,0-0.1-0.1-0.1c0,0,0,0,0,0l0,0c-0.3-0.2-0.6-0.4-1-0.6
	c-0.2-0.2-0.3,0.2-0.2,0.4c0.3,0.2,0.6,0.4,0.8,0.7c-0.3,0.2-0.7,0.3-1,0.4c-0.7-0.5-1.3-1.2-2-1.7c0.4,0.1,0.7,0,1.1,0
	c1,0.1,2,0.1,2.9,0c0.1,0,0.1,0.1,0.1,0.1c0,0,0,0,0,0l0,0c0.2,0.2,0.6-0.2,0.3-0.3h-0.2c-0.8-0.7-1.7-1.4-2.6-1.9
	c-0.2-0.2-0.4,0.1-0.2,0.2c0.6,0.5,1.3,1,2,1.6h-2.2c-0.6,0.1-1.2,0.1-1.7,0c-0.2-0.2-0.6-0.4-0.8-0.5s-0.3,0.2-0.2,0.2
	c0.1,0.1,0.3,0.2,0.3,0.3h-0.8c0,0-0.2,0.5,0,0.5c0.4,0,0.9,0,1.3,0c0.8,0.7,1.5,1.2,2.3,1.9c-0.6,0.2-1.1,0.5-1.6,0.8
	c-0.1-0.2-0.3-0.3-0.4-0.5c0.5,0,1-0.1,1.5-0.1c0.1,0,0-0.3-0.1-0.3c-0.7-0.1-1.3-0.1-2-0.1l-2.1-2c-0.1-0.2-0.3,0.1-0.2,0.2
	c0.5,0.6,1.1,1.2,1.7,1.8c-0.2,0-0.4,0-0.7,0c-0.5,0-1,0-1.5,0c-0.6-0.5-1.2-1-1.9-1.5c-0.1,0-0.3,0.1-0.2,0.1
	c0.4,0.5,0.8,1,1.2,1.4c-0.4,0.1-0.8,0-1.1,0.1S81.8,36.9,82,37h1.5c0.6,0.5,1.3,1.2,1.8,1.7c-0.3,0.2-0.6,0.4-1,0.6l-0.8,0.4
	c-1-1-2.1-1.8-3.3-2.6c-0.1,0-0.3,0.1-0.2,0.2c0.9,1,1.9,1.8,3,2.7c-0.8,0.5-1.6,1.2-2.2,1.9c-2.4-0.7-4.8-1.3-7.2-1.8
	c0.6-1.5,1.4-2.9,2.6-4.1c0.8-0.8,1.7-1.5,2.7-2.1c0.1,0.1,0.2,0.1,0.2,0.2c0.2,0.2,0.6-0.2,0.3-0.3h-0.1c0.8-0.5,1.6-1,2.5-1.3
	c0.6-0.3,1.1-0.6,1.8-0.8c0.9,0,1.7-0.1,2.6-0.2c0.2-0.1,0.2-0.2-0.1-0.3s-0.8,0-1.1,0c0.8-0.3,1.5-0.6,2.3-0.9
	c1.8-0.6,3.8-1.1,5.7-1.8c-0.4,0-0.8,0-1.2,0.1c-0.5-0.8-1.1-1.4-1.6-2.2c-0.4-0.7-1-1.3-1.6-1.9c-0.1-0.1-0.3,0.1-0.3,0.2
	c0.4,0.7,0.9,1.4,1.4,2c0.6,0.6,1,1.4,1.5,2c-0.5,0-1.1,0.2-1.7,0.3v-0.1c-0.7-0.8-1.4-1.4-1.9-2.2c-0.6-0.7-1.2-1.4-1.9-2
	c-0.1,0-0.3,0.1-0.2,0.1c0.6,0.8,1.2,1.5,1.9,2.2c0.6,0.6,1.2,1.4,1.8,2.1c-1,0.3-2,0.6-3,1L86,29.8c-0.3-0.3-0.7-0.8-1-1.1
	c-0.4-0.6-0.8-1.1-1.3-1.6c-0.1,0-0.2,0-0.3,0.1c-0.1-0.1-0.3-0.1-0.4-0.2c-0.1,0-0.3,0.1-0.2,0.1c0.5,0.7,1,1.3,1.6,1.9
	c0.2,0.3,0.4,0.6,0.7,0.8h-2.2c0.3-0.5-0.2-0.4-0.7-0.5c-0.6-0.9-1.3-1.7-2.1-2.4c-0.1,0-0.1,0-0.1,0.1c0,0,0,0,0,0l0,0
	c0.5,0.8,1,1.6,1.6,2.3c-0.4-0.1-0.7,0-1.1,0c-0.5-0.6-1.1-1.1-1.7-1.6c-0.1-0.1-0.3,0.1-0.2,0.2l1.3,1.4c-0.2-0.1-0.4-0.1-0.5,0
	c-0.3,0-0.2,0.5,0.1,0.4c0.3,0,0.6,0,0.9,0c0.4,0.5,0.8,0.8,1.3,1.3c-1,0.1-2.1,0.2-3.1,0.1c-0.3,0-0.2,0.4,0.1,0.4
	c1.1-0.1,2.3-0.1,3.4-0.2h0.4c-0.6,0.3-1,0.5-1.6,0.8c-0.4,0.2-0.9,0.5-1.3,0.7c-1-1.1-2.1-2.2-3.4-3c-0.1,0-0.2,0-0.2,0
	c0,0.1,0,0.2,0,0.2c0,0,0,0,0,0l0,0c1,1.1,2.1,2.2,3.2,3.1l-1.4,1c-0.8-1-1.7-1.9-2.6-2.7c-0.1,0-0.3,0.1-0.2,0.1
	c0.7,1.1,1.5,2.1,2.4,3c-1.8,1.3-3.1,3.1-3.6,5.3l-1-0.2c0.1-0.2,0.2-0.3,0.2-0.5c0.7-1.8-0.3-3.5-1.4-4.9c0.3-0.8,0.5-1.6,0.7-2.5
	c1.7-1.9,3.7-3.4,6-4.4c2.5-1,5.2-1.5,7.9-1.4c-4.9-1.1-10,0.5-13.3,4.1c0.5-1.4,1-2.7,1.6-4c1-2.2,2.4-4.3,4-6.1
	c1.1-0.4,2.1-0.8,3.1-1.3c0.7-0.3,1.5-0.5,2.3-0.7c0.2,0.3,0.4,0.6,0.7,0.8c0.1,0.1,0.4-0.1,0.3-0.2c-0.2-0.2-0.3-0.5-0.6-0.6
	c0.7-0.1,1.3-0.2,2-0.2h0.2c0.3,0.5,0.7,0.8,1,1.2l0.1,0.1c0.4,0.5,0.9,1.1,1.3,1.6c0.2,0.2,0.5,0,0.3-0.2c-0.4-0.4-0.7-0.8-1.2-1.2
	c0.6,0.1,1.2,0.2,1.8,0.2c0.2,0.3,0.4,0.5,0.7,0.8s0.5,0,0.3-0.2l-0.3-0.5l1.2,0.2l0.5,0.1c0.3,0.3,0.6,0.5,0.9,0.8
	c0.2,0.2,0.4-0.2,0.3-0.4s-0.2-0.2-0.3-0.3l0.8,0.1c0.7,0.1,1.3,0.2,2,0.2c0.1,0,0.2-0.2,0.1-0.4c-0.6-0.2-1.3-0.3-1.9-0.3l-1.4-0.3
	c-0.3-0.3-0.6-0.5-0.9-0.7c-0.1,0-0.3,0.1-0.2,0.2c0.1,0.1,0.2,0.3,0.3,0.3l-1.4-0.3c-0.2-0.2-0.3-0.5-0.6-0.6
	c0.1,0,0.2-0.1,0.2-0.3c0,0,0-0.1,0-0.1l0.7,0.1c1.3,0.4,2.6,1.3,3.9,1.4c-0.2-0.3-0.5-0.6-0.8-0.8l-0.7-0.9c0.3,0.1,0.7,0.1,1.1,0
	c0.4,0.6,0.8,1.2,1.3,1.7c0.2,0.3,0.5,0,0.5-0.3c-0.4-0.5-0.8-1.1-1.2-1.5c0.2-0.1,0-0.3-0.1-0.3h-0.1c-0.3-0.5-0.7-1-1.1-1.4
	c0.5,0.1,1,0.2,1.5,0.4c1.1,0.3,2.2,0.5,3.4,0.7c0.1,0,0.2-0.1,0.2-0.2c0-0.1-0.1-0.2-0.2-0.2c-1.1-0.4-2.2-0.7-3.3-0.9
	c-1.2-0.2-2.3-0.5-3.5-0.7c-0.2,0-0.3,0.2-0.2,0.3c0,0.1,0.1,0.2,0.1,0.2l1.3,0.2c0.3,0.6,0.6,1.1,1.1,1.5l-1-0.2l-1-1.4
	c-0.1-0.1-0.3,0-0.3,0.1c0.2,0.4,0.4,0.9,0.7,1.2l-0.9-0.1c-0.3,0-0.3,0.5-0.1,0.5l1.4,0.3l0.3,0.5c-0.5-0.3-1.1-0.4-1.7-0.6h-0.3
	l-1.8-0.3c-0.2-0.3-0.5-0.7-0.8-0.9c-0.4-0.5-0.9-1-1.4-1.4c-0.1,0-0.3,0-0.2,0.1c0.3,0.6,0.7,1.1,1.2,1.6l0.3,0.5
	c-0.1,0-0.1,0-0.1,0.1c0,0,0,0,0,0l0,0c-0.6-0.1-1.2-0.1-1.7,0h-0.3c-0.3-0.3-0.6-0.6-0.9-1c-0.2-0.3-0.6-0.6-0.9-0.8
	c-0.1,0-0.3,0.1-0.2,0.2c0.2,0.3,0.6,0.6,0.8,0.9c0.2,0.3,0.4,0.5,0.7,0.7c-1.3,0.1-2.5,0.2-3.7,0.6c-0.6,0.1-1.3,0.4-1.8,0.6
	l0.2-0.1c2.3-2.2,5-3.7,8-4.6c3-0.8,6.7-1.3,9.6-0.3c-1.5-0.6-3.1-1-4.7-1.2c-1.4-0.1-2.7,0.1-4.1,0.4c-3.3,0.8-6.4,2.3-9,4.6
	c-2.5,2.3-4.6,5-6.1,8l-0.6,1.4c-0.6-1-1.2-2.2-1.8-3.3c0-0.6,0-1.2,0-1.7c0.5,1,1,2,1.5,2.9c0.1,0.3,0.5,0.1,0.4-0.2
	c-0.7-1.3-1.2-2.9-2-4.2v-0.1c0.5-0.8,1.1-1.6,1.8-2.4c0.5,1.1,1.1,2.2,1.8,3.3c0.1,0.3,0.5,0,0.3-0.2c-0.6-1.2-1.3-2.3-2.1-3.3
	c1.3-1.8,2.6-3.6,4-5.2c0.2,0.5,0.4,0.9,0.6,1.4c0.1,0.3,0.4,0.4,0.7,0.3c0.1-0.1,0.2-0.1,0.3-0.3c1.2-2.4,3.2-4.4,5.7-5.6
	c0.2,0.6,0.2,1.1,0.4,1.7c0,0.3,0.3,0.5,0.6,0.4c0,0,0,0,0,0h0.1c2-1.5,4.4-2.3,6.9-2.4L92,8c-0.2,0.2-0.1,0.5,0.1,0.6
	c0.1,0.1,0.2,0.1,0.3,0.1c1.9-0.3,4-0.5,6-0.7c-0.1,0.4-0.1,0.8-0.1,1.2c0,0.3,0.1,0.5,0.4,0.6c0.1,0,0.2,0,0.3,0
	c1.5-0.9,3.2,0,4.6,0.8c0.8,0.4,1.6,0.8,2.4,1.1c-0.3,0.2-0.6,0.3-0.9,0.5c-1.6,0-3.4,0.3-3.7,1.9c-0.6,0.3-1.2,0.5-1.7,0.8
	c-0.2,0.1-0.3,0.3-0.3,0.5c0,0.1,0.1,0.2,0.3,0.3c1.2,0.7,2.2,1.5,3.2,2.4c-0.3,0.2-0.6,0.3-0.9,0.5c-0.4-0.6-0.8-1.2-1.3-1.7
	c-0.1-0.1-0.4-0.1-0.3,0.1c0.3,0.6,0.7,1.2,1,1.8c-0.9,0.4-1.6,0.9-2.5,1.3c-0.3,0.2-0.3,0.5-0.2,0.8c0,0.1,0.1,0.1,0.2,0.2
	c0.7,0.3,1.4,0.6,1.9,1.1c0.1,0.3,0.3,0.5,0.4,0.7c-1.4,0.3-2.7,1-3.7,2c-0.3,0.2,0,0.8,0.3,0.9c1.7,0.3,3.3,0.9,4.8,1.8l-1.2,0.2
	c-0.3,0-0.4,0.3-0.4,0.5c0,0.2,0.2,0.4,0.4,0.4c2.9,0.6,5.6,2,7.7,4c-0.7,0-1.3,0.2-1.9,0.3c-0.4,0.1-0.4,0.6,0,0.8
	c2.1,1,4.2,2.3,6,3.7c-0.7,0-1.4,0.2-1.9,0.2c-0.1,0-0.3,0.1-0.3,0.3c0,0.1,0.1,0.2,0.2,0.2c0,0.1,0,0.1,0.1,0.1c0,0,0,0,0,0l0,0
	c0.9,1.1,1.9,2.1,2.9,3.1c-0.6-0.1-1.2-0.2-1.8-0.2c-0.1,0-0.2,0-0.3,0.1c-0.1,0-0.3,0-0.2,0.1c-0.1,0.1-0.2,0.3-0.1,0.5
	c0,0.1,0.1,0.1,0.2,0.1c0.1,0,0.3,0,0.2,0.2c0.5,0.9,1.2,1.7,1.8,2.6c0.1,0.2,0.5,0,0.3-0.2l-1.4-2c1.7,0.9,3.4,2.1,4.8,3.5
	c-0.4,0.1-0.8,0.1-1.2,0.1c-0.2,0-0.4,0.2-0.4,0.4c0,0.1,0.1,0.3,0.2,0.3c2.1,0.8,3.8,2.4,4.6,4.6c-0.7,0-1.5,0.1-2.2,0.2
	s-0.5,0.7,0,0.9c1.8,0.5,3.3,1.7,4.1,3.4c-0.1,0.2-0.1,0.4,0,0.5c0.1,0,0.2,0.1,0.2,0.2c0.6,1.2,1.1,2.3,1.5,3.5
	c-1.1,0-2.2,0.2-3.3,0.5c-0.3,0.1-0.4,0.4-0.4,0.6c0,0.1,0.1,0.2,0.2,0.3c1.9,1.2,3.4,2.8,4.5,4.7c0.8,1.5,1.4,3.1,1.7,4.7
	c-3.4-2.3-7.2-3.9-11.3-4.7c-0.4-0.1-0.8,0.5-0.4,0.7c0.7,0.4,1.1,1.1,1.2,1.9c-2.3-1.1-4.8-1.9-7.4-2.4c-0.3,0-0.5,0.1-0.6,0.4
	c0,0.1,0,0.2,0,0.3c0.4,0.5,0.6,1.1,0.6,1.7c-2.4-1.8-5-3.2-7.8-4.2c-0.4-0.1-0.8,0.3-0.6,0.6c0.7,1.3,1.1,2.7,1.3,4.1
	c-1-0.7-2-1.2-3.1-1.6c-0.2-0.1-0.5,0-0.6,0.3c0,0.1,0,0.2,0,0.3c0.2,0.8,0.4,1.7,0.5,2.5l0.4,0.1h0.2l-0.3-2.3l3.6,1.7
	c0.1-1.4,0-2.9-0.5-4.2c0,0,7.2,3.4,7.8,4.3c0.2-1,0.1-2-0.2-3c2.5,0.7,5,1.4,7.4,2.4c0,0,0.9-1.4,0.2-2.5c3.2,1.1,6.3,2.5,9.3,4.2
	c0.3,0,0.7,0,1,0.1c0.3-6.1-5.8-10.5-5.8-10.5l1.3,0.1c0.9,0.1,1.7-0.4,2-1.3c-0.1-1.1-0.4-2.2-0.8-3.2c-0.1-0.1-0.3-0.1-0.4-0.2
	c-0.1,0-0.3,0-0.4,0.1l-0.1-0.2c0.3-0.1,0.5-0.2,0.6-0.4c-0.9-1.9-2.6-3.3-4.7-3.8l2-0.2c0.6-2.8-3.1-5.9-3.1-5.9
	c0-0.1,0-0.1-0.1-0.2c-1.3-1.4-2.8-2.7-4.4-3.7l0.5,0.1c0.2,0,0.3-0.1,0.4-0.2l2.1,2c0.6,0.5,1,1,1.6,1.5c-0.7-1.3-3.9-3.8-3.9-3.8
	c0.9-1.5-2.5-3.5-2.5-3.5s2.9,0.3,2.6-0.7c-0.2-0.6-2.1-1.7-3.9-2.7l0.2,0.3c-0.9-0.7-1.9-1.3-3-1.7c0,0,2.8-0.7,1.8-1.6
	s-6.6-3.6-6.6-3.6c0.4-0.5,0.7-1,0.9-1.6C105.4,25.3,99,25,99,25s3.7-0.3,4-1.4s-2.8-3.2-2.8-3.2l1.7-0.6l0.2-0.1l1.7-0.6l0.3-1.3
	c0,0-3.7-2.5-3.1-2.4s1.2-0.6,2.1-1.5c1-0.7,2.2-1.1,3.4-1.3h-0.1c0.3-0.2,0.6-0.4,0.9-0.5c0.5-0.3,0.1-0.8-0.3-0.9
	c-2.8-0.1-5.2-3.3-7.9-2.3l0.2-0.9c0-0.3-0.1-0.5-0.4-0.5c-0.1,0-0.1,0-0.2,0C97,7.5,95.2,7.7,93.4,8c0.2-0.1,0.3-0.3,0.3-0.5
	c0.2-0.2,0.1-0.8-0.3-0.7c-2.8-0.1-5.5,0.7-7.9,2.2c-0.1-0.4-0.2-1-0.3-1.4c-0.1-0.3-0.3-0.4-0.6-0.4l0,0c-2.6,1-4.9,2.9-6.3,5.3
	c-0.2-0.4-0.3-0.7-0.5-1.1c-0.1-0.2-0.4-0.3-0.7-0.2l-0.1,0.1c-1,1.2-1.9,2.4-2.8,3.5c-0.7-1.9-3.2-2.3-5-2.1
	C66.6,13,64,14.9,62,16.6c-1,0.9-1.9,2.1-2.5,3.4c-0.3-1.3-0.8-2.4-1.2-3.7c-0.5-1.6-1.1-3-1.6-4.4c4,2.4,10.6,2,12.7-2.1
	c0.4,0.1,0.8,0,1.2,0.1c2.8,0,5.8-0.9,7.4-3.4l0.6-1.1c1.3,0.1,2.7-0.1,4-0.4c0.1,0,0.2-0.2,0.2-0.3c0-0.1-0.1-0.2-0.2-0.2
	c-1.2,0.2-2.3,0.2-3.5,0.1c0.4-1.3-0.1-2.8-1.3-3.6c-1.9-1.4-4.3,0.2-3.3,2L74.4,2.8z M4.1,42.1c3.4-2.1,7.5-0.7,10.1,2
	c1.3,1.4,2.3,3,2.8,4.9c-0.7-1.5-1.6-2.8-2.8-4c-2.3-2.4-5.5-3.4-8.7-2.9c-1,0.2-1.9,0.6-2.8,1.2C3.1,42.8,3.6,42.4,4.1,42.1
	L4.1,42.1L4.1,42.1z M10.4,54.5c-3-0.3-6.3-1.5-8.1-4.1c-1-1.4-1.2-3.2-0.8-4.8c1.2-1.4,2.9-2.4,4.7-2.6c2.7-0.2,5.4,0.8,7.3,2.8
	c2.1,2.1,3.4,4.8,3.7,7.8C15.1,54.4,12.7,54.7,10.4,54.5L10.4,54.5L10.4,54.5z M22.3,16.5c2.9,1.3,4.5,4.8,5.7,7.4
	c0.8,1.8,1.4,3.6,1.7,5.5c-0.9-2.6-2.3-5-4-7.1c-1.6-2-3.9-4-6.6-4.2c-1.4-0.1-2.9,0.3-4,1.2C16.5,16.8,19.4,15.2,22.3,16.5
	L22.3,16.5z M16.5,29.7c-1.8-2.4-2.5-5.5-1.9-8.5c1.5-2.1,4.3-2.7,6.6-1.5c2.4,1.1,4.1,3.4,5.4,5.6c2,3.6,3.2,7.6,3.4,11.7v0.1
	C24.8,36.5,19.5,34,16.5,29.7z M96.9,63.6c-0.7-0.5-1.4-1.2-2.1-1.7c-0.1-0.1-0.3-0.1-0.4-0.2v-0.1c-0.2-0.3-0.4-0.7-0.5-1
	c0.8,0.5,1.7,1.2,2.4,1.8h0.3C96.6,62.7,96.8,63.1,96.9,63.6L96.9,63.6z M115.2,50.6c0.1,0.1,0.2,0.3,0.2,0.4
	c-0.4,0.1-0.8,0-1.1,0.1c-0.1-0.2-0.2-0.2-0.3-0.3s-0.3,0.1-0.2,0.2l0.1,0.2c-0.3,0.1-0.7,0-1,0.1c-0.1-0.2-0.3-0.3-0.4-0.5
	C113.5,50.7,114.4,50.7,115.2,50.6L115.2,50.6L115.2,50.6z M93.7,32c0.9,0,1.9,0.1,2.7,0.1c0.4,0.1,0.8,0,1.2,0.1
	c0.1,0.1,0.2,0.1,0.2,0.2c0.6,0.5,1.3,1,1.9,1.5L98,33.9c-0.6-0.5-1.3-1-2-1.3c-0.2-0.2-0.4,0.2-0.2,0.4c0.4,0.4,0.9,0.8,1.4,1.2
	c-0.3,0.1-0.4,0.1-0.7,0.2C95.6,33.5,94.7,32.7,93.7,32L93.7,32L93.7,32z M84.8,36.8c0.4-0.1,0.8,0,1.2-0.1c0.4,0,0.7,0,1.1,0
	c0.2,0.2,0.4,0.5,0.7,0.7c-0.5,0.2-0.9,0.5-1.3,0.8C85.9,37.8,85.4,37.3,84.8,36.8L84.8,36.8L84.8,36.8z M85.2,29.8
	c0.2,0.1,0.5,0.1,0.7,0c-0.2,0.1-0.4,0.1-0.6,0.2C85.3,30,85.2,29.9,85.2,29.8C85.2,29.9,85.2,29.9,85.2,29.8L85.2,29.8L85.2,29.8
	L85.2,29.8z M81,29.7c0.4,0.1,0.7,0,1.1,0c0.2,0.2,0.4,0.5,0.7,0.6s0.3-0.1,0.3-0.2l-0.3-0.5c0.4-0.1,0.8,0,1.2-0.1
	c0.4,0,0.7,0,1.1,0c0,0.1,0,0.2,0.1,0.3c-0.5,0.1-1,0.4-1.5,0.7c-0.2,0-0.4,0-0.5,0c-0.1-0.1-0.4,0.1-0.7,0
	C81.9,30.5,81.4,30.1,81,29.7z M88.4,17.7c0.3,0.4,0.6,0.7,0.9,1c-0.6-0.1-1.2-0.2-1.8-0.2c-0.2-0.3-0.6-0.6-0.8-0.9
	C87.3,17.5,87.9,17.6,88.4,17.7L88.4,17.7z M53,13.9c-0.5-1.6-1.2-3.2-1.6-4.7c-0.3-1.4-0.5-2.8-0.6-4.2c0.4,0.9,0.8,1.8,1.2,2.5
	c0.6,1.1,1,2.3,1.3,3.6c0.2,1.1,0.2,2.2,0.1,3.4C53.2,14.2,53.1,14,53,13.9z M55.2,25.9c0.1-0.3,0.2-0.5,0.4-0.7v0.1
	c-0.3,0.6-0.5,1.1-0.7,1.8C55,26.6,55.1,26.2,55.2,25.9L55.2,25.9L55.2,25.9z M54.6,31.4c0-1.5,0-2.9,0.3-4.4H55
	c0.2-0.4,0.5-0.8,0.9-1.2c0.1,0.3,0.2,0.4,0.3,0.7c0.3,0.9,0.7,1.9,1.1,2.7c-0.7,0.6-1.4,1.2-1.9,2c-0.2,0.4-0.4,0.6-0.6,1
	C54.7,32,54.6,31.7,54.6,31.4L54.6,31.4L54.6,31.4z M62.3,43.6c-0.4,0.3-0.8,0.6-1.2,0.9c-0.3-0.5-0.5-1-0.8-1.5
	c0.6,0.1,1.1,0.2,1.7,0.2L62.3,43.6L62.3,43.6L62.3,43.6z M65.1,42.2c-0.3,0.1-0.7,0.2-1,0.4L64,42.4c-0.1-0.2-0.4,0.1-0.3,0.2
	l-1.3,0.2c-0.1-0.2-0.2-0.4-0.4-0.6c1,0,1.9-0.2,2.8-0.5C64.8,41.9,64.9,42.1,65.1,42.2L65.1,42.2L65.1,42.2z M66.7,41.7
	c-0.2,0.1-0.3,0.1-0.4,0.2C66,42,65.8,42,65.5,42v-0.1l-0.3-0.5c0.4-0.1,0.7-0.3,1-0.5C66.3,41.2,66.4,41.5,66.7,41.7L66.7,41.7
	L66.7,41.7z M64.9,41.1l-0.1-0.2c0.3-0.2,0.6-0.3,0.9-0.5l0.2,0.3C65.5,40.8,65.2,40.9,64.9,41.1L64.9,41.1L64.9,41.1z M67,41.3
	l-0.4-0.6c0.7-0.3,1.3-0.7,1.8-1.3c0.1,0.3,0.3,0.5,0.4,0.7c-0.3,0.2-0.6,0.6-0.9,0.8C67.7,41.2,67.4,41.4,67,41.3L67,41.3L67,41.3z
	 M68.5,38.7c-0.1-0.3-0.3-0.5-0.4-0.7c0.2-0.3,0.3-0.5,0.4-0.9c0.2,0.3,0.4,0.7,0.6,1C69,38.2,68.8,38.4,68.5,38.7L68.5,38.7
	L68.5,38.7z M69.5,38.5c0.1,0.3,0.3,0.5,0.5,0.8c-0.3,0.2-0.5,0.5-0.8,0.7c-0.1-0.3-0.3-0.5-0.4-0.7C69,38.9,69.3,38.7,69.5,38.5
	L69.5,38.5z M68.2,39C68.1,39.1,68.2,39.1,68.2,39c-0.5,0.5-1.2,0.9-1.8,1.3L66.2,40c0.6-0.4,1.2-1,1.6-1.6
	C67.9,38.6,68.1,38.8,68.2,39L68.2,39L68.2,39z M70.5,34.4c1.1,1.1,2,2.5,1.4,4.1s-2.1,2.3-3.7,2.7l1.1-0.8c0.1,0,0.3-0.1,0.3-0.2
	c0.3-0.2,0.5-0.5,0.7-0.8c0.1,0.3,0.5,0,0.3-0.2c-0.3-0.5-0.5-0.9-0.8-1.3c0.1-0.1,0.2-0.3,0.2-0.5c0-0.1-0.1-0.3-0.2-0.2l-0.3,0.2
	c-0.2-0.5-0.5-0.9-0.8-1.3V36c0-0.1-0.1-0.2-0.2-0.2c-0.2-0.3-0.4-0.6-0.7-0.8c-0.1-0.2-0.3,0-0.3,0.1l0.6,1.3
	c-0.2,0.2-0.4,0.6-0.6,0.8l-1-1.4c-0.1-0.2-0.3,0-0.3,0.1c0.2,0.6,0.5,1.2,0.9,1.8c-0.5,0.6-1,1.2-1.6,1.7c-0.3-0.5-0.6-0.9-1-1.4
	c-0.1-0.2-0.4,0.1-0.3,0.2c0.2,0.6,0.5,1.1,0.9,1.5c-0.3,0.2-0.6,0.4-0.9,0.5L64,40.2c-0.1-0.2-0.4-0.1-0.3,0.2l0.1,0.2
	c-0.3,0.1-0.1,0.5,0.2,0.4h0.1l0.1,0.2c-0.9,0.3-1.9,0.5-2.9,0.5c-0.1-0.2-0.3-0.3-0.5-0.5s-0.3,0.1-0.2,0.1
	c0.1,0.1,0.2,0.3,0.2,0.4c-0.3,0-0.2,0.4,0.1,0.4h0.1c0.1,0.2,0.2,0.4,0.4,0.6c-0.9,0-1.7-0.1-2.6-0.3c-0.1,0-0.2,0-0.2,0.2
	c0,0.1,0,0.2,0.1,0.2h0l0.8,0.2c0.3,0.6,0.6,1.2,0.9,1.8c-0.3,0.2-0.5,0.5-0.8,0.7c-0.7-0.4-1.4-0.9-2-1.4c-0.7-0.5-1.3-1.2-1.8-1.9
	c-0.4-0.7-0.6-1.5-0.8-2.3c-0.8-2.4-0.6-5,0.6-7.3c1.2-1.9,3.2-3.2,5.5-3.6c2.5-0.5,4.4,0,6,1.9c0.3,0.6,0.7,1.2,1.2,1.7L70.5,34.4
	L70.5,34.4L70.5,34.4z M70.6,33.3c-0.5-0.5-1-1-1.5-1.6c-0.6-0.8-1.1-1.8-1.3-2.8c0-0.1,0.2-0.2,0-0.3c0-0.1-0.1-0.2-0.2-0.3v-0.2
	c0-0.2,0-0.4,0-0.7c0.6,1,1.1,1.9,1.8,2.9h0.1l1.3,2.1C70.8,32.7,70.7,33,70.6,33.3L70.6,33.3L70.6,33.3z M63.6,27.6
	c-0.1-0.4-0.3-0.7-0.6-1c0.5-0.1,0.9-0.3,1.4-0.4c0.3,0.6,0.7,1.2,1,1.8C64.8,27.7,64.2,27.6,63.6,27.6L63.6,27.6z M64.8,25.9
	c0.3-0.1,0.6-0.3,0.9-0.4c0.1,0.1,0.2,0.3,0.2,0.4c0.3,0.5,0.6,1,0.9,1.5c0,0.3,0,0.7,0.1,1c-0.2-0.2-0.5-0.2-0.7-0.4
	C65.6,27.4,65.2,26.7,64.8,25.9L64.8,25.9L64.8,25.9z M66.7,24.1c-0.1-0.2-0.2-0.4-0.3-0.6c0.3-0.1,0.6-0.3,0.9-0.4
	c0.1,0.1,0.1,0.2,0.1,0.3C67.2,23.7,67,23.9,66.7,24.1L66.7,24.1z M67.7,24c-0.2,0.4-0.2,0.6-0.4,1c0-0.2-0.2-0.3-0.3-0.4
	c0.2-0.3,0.4-0.5,0.7-0.7L67.7,24z M66.4,24.5l-0.6,0.4c-0.2-0.3-0.3-0.6-0.5-0.9c0.2-0.1,0.5-0.1,0.7-0.3
	C66.1,24,66.3,24.2,66.4,24.5L66.4,24.5L66.4,24.5z M66.8,24.9l0.4,0.6l-0.1-0.1c-0.1-0.1-0.3,0-0.2,0.1c0.1,0.1,0.1,0.3,0.2,0.4
	l-0.3,0.7c-0.2-0.3-0.4-0.6-0.6-1c-0.1-0.1-0.1-0.3-0.2-0.4c0.2-0.1,0.4-0.2,0.6-0.3C66.6,24.9,66.8,24.9,66.8,24.9z M71.8,29.9
	c-0.3-0.5-0.6-1-0.8-1.6c0.1-0.5,0.1-1.2,0.2-1.7c0.4,0.7,0.7,1.4,1,2.1C71.9,29.1,71.8,29.5,71.8,29.9L71.8,29.9L71.8,29.9z
	 M73,26.8c-0.3,0.4-0.5,0.9-0.6,1.4L71.2,26l-0.1-0.1c0.1-0.6,0.1-1.3,0.2-2C71.7,24.9,72.3,25.9,73,26.8L73,26.8z M71,20.7
	c-0.1,0.7-0.2,1.3-0.2,2c0,0-0.2,0.1,0,0.1c0,0.1,0,0.1,0.1,0.1c0,0,0,0,0,0l0,0c-0.1,0.7-0.1,1.3-0.1,2c-0.3-0.6-0.6-1.2-1.1-1.7
	c-0.1-0.1-0.3,0-0.3,0.1c0.3,0.8,0.7,1.7,1.2,2.5c0,0.6-0.1,1.2-0.3,1.8c-0.5-1-1-1.9-1.7-2.7c-0.1-0.1-0.3,0-0.2,0.1
	c0.8,1.7,1.7,3.4,2.7,5h0.1c-0.2,0.5-0.3,1-0.5,1.5c-0.6-1-1.2-2.1-2-3.2c-0.4-0.7-0.8-1.4-1.2-2.1c0.4-2.3,1.8-4.4,3.1-6.4
	C70.9,20.2,70.9,20.5,71,20.7L71,20.7z M67.3,22.7c-0.2-0.3-0.3-0.6-0.5-0.9c0.3-0.4,0.5-0.7,0.9-1.1c0.2,0.4,0.4,0.8,0.6,1.2
	C68.1,22.3,67.7,22.5,67.3,22.7L67.3,22.7L67.3,22.7z M62.7,16.8c2.4-2,8.3-5.8,10.4-1.5l0.1,0.1c-1.4,1.9-2.8,3.8-4.1,5.7
	c-0.1,0.1-0.3,0.3-0.3,0.5l-0.2,0.1c-0.2-0.4-0.4-0.9-0.7-1.5l0.5-0.7c0.7-0.7,1.3-1.5,1.9-2.4c0-0.1-0.1-0.3-0.2-0.2
	c-0.7,0.7-1.4,1.5-2,2.3c-0.2,0.2-0.3,0.3-0.5,0.6c-0.2-0.5-0.5-1-0.8-1.4c-0.1-0.1-0.4-0.1-0.3,0.2c0.2,0.6,0.5,1.1,0.6,1.7
	c-0.3,0.3-0.6,0.7-0.9,1.1l-1-1.4c-0.1-0.1-0.3,0-0.3,0.1c0.3,0.6,0.6,1,0.9,1.6c0,0.1-0.1,0.1-0.1,0.1c0,0,0,0,0,0l0,0
	c-0.2,0.2,0.2,0.6,0.3,0.3c0.1,0.3,0.3,0.5,0.4,0.7c-0.3,0.2-0.6,0.3-0.9,0.4L65,22.5c-0.1-0.1-0.4,0.1-0.3,0.2
	c0.2,0.3,0.3,0.6,0.5,0.9l-0.8,0.2c-0.1-0.1-0.3-0.3-0.5-0.5s-0.3,0.1-0.2,0.1c0.1,0.1,0.2,0.3,0.2,0.4c-0.2,0.1-0.4,0.1-0.6,0.2
	s-0.2,0.5,0.1,0.4c0.2,0,0.5-0.1,0.7-0.1c0.2,0.3,0.4,0.7,0.6,1c-0.3,0.1-0.6,0.3-0.9,0.4c-0.2-0.3-0.5-0.7-0.8-0.9
	c-0.1-0.1-0.3,0-0.3,0.1c0.2,0.3,0.3,0.7,0.5,1c-0.5,0.2-0.9,0.3-1.4,0.4l-0.8-1.1c-0.1,0-0.3,0-0.2,0.1c0.2,0.4,0.4,0.7,0.6,1
	c0,0.1,0,0.2,0.1,0.3h0.1c0.2,0.4,0.5,0.7,0.8,1.1c-0.2,0-0.4,0-0.7,0c-0.3-0.1-0.4,0.1-0.7,0c0-0.1,0-0.1-0.1-0.1
	c-1.7-1.1-2.1-2.6-2-4.6c0.4-2.5,1.7-4.7,3.5-6.4L62.7,16.8L62.7,16.8z M55.5,11.2c0.7,1.6,1.2,3.3,1.8,4.9c0.5,1.5,1,2.9,1.6,4.3
	l-0.2,1.2c-0.6-1.5-1.4-3-2.3-4.4c-0.1-0.1-0.3,0-0.3,0.1c0.7,1.7,1.5,3.4,2.5,5c0,0.4,0,0.7,0,1.1c0,0.3,0,0.6,0.1,0.8l-0.6-1.3
	c-0.5-1.3-1.1-2.5-1.8-3.7c-0.1-0.1-0.3,0-0.2,0.1c0.5,1.3,1,2.5,1.6,3.8c0.6,1.3,1.2,2.5,1.8,3.8l0.1,0.1c0.3,0.4,0.6,0.7,1.1,0.9
	L60,28.1c-0.5-1-1.1-1.9-1.7-2.8c-0.1-0.1-0.3,0-0.2,0.1c0.4,1,0.9,1.9,1.5,2.8c-0.6,0.2-1,0.5-1.6,0.7c-0.4-0.9-0.6-1.7-1-2.7
	c-0.2-0.4-0.2-1-0.4-1.4l1-1c0.5-0.5-0.2-1.1-0.6-0.6c-0.2,0.4-0.5,0.7-0.7,1.1c0.5-0.6,0.7-1.3,0.5-2.1c0-0.1-0.2-0.2-0.3-0.2
	c-0.1,0-0.2,0.1-0.2,0.2c-0.2,0.3-0.4,0.7-0.6,1c-0.1-1.5-0.4-3-1-4.5c-0.2-0.7-0.4-1.5-0.5-2.2c-0.2-1.2,0.3-2.4,0.2-3.6
	c0-0.8-0.1-1.7-0.4-2.5c0.8,1.9,1.7,3.7,2.8,5.4c0.1,0.1,0.4,0.1,0.3-0.1c-0.8-1.9-1.8-3.8-2.9-5.6c0-0.1-0.1,0-0.1,0
	c-0.2-0.4-0.2-1-0.4-1.4c-0.8-1.9-2.1-3.8-2.3-5.9C52,3.9,53,5,53.5,6.1c0.7,1.6,1.4,3.3,2.1,5L55.5,11.2z M63,4.6
	c-0.7-2.9,2.5-5.1,4.7-2.6c1.4,1.7,1.7,4,0.9,6c-0.1,0.2-0.1,0.4-0.2,0.6C66,8.3,63.6,7.1,63,4.6L63,4.6L63,4.6z M77,1.1
	c0.5,0.4,0.8,1,0.9,1.6c0,0.4,0,0.8-0.1,1.2c0,0-4.9-1.4-2.3-3C76,0.6,76.6,0.6,77,1.1L77,1.1z"/>
</svg>
